<?xml version="1.0" ?><!DOCTYPE svg  PUBLIC '-//W3C//DTD SVG 1.1//EN'  'http://www.w3.org/Graphics/SVG/1.1/DTD/svg11.dtd'><svg enable-background="new 0 0 48 48" id="Layer_1" version="1.1" viewBox="0 0 48 48" xml:space="preserve" xmlns="http://www.w3.org/2000/svg" xmlns:xlink="http://www.w3.org/1999/xlink"><g><g><polygon fill="#FF7058" points="45.5,40.1 36.8,40.7 31.8,48 21.3,29.9 35.1,21.9   "/><polygon fill="#FF7058" points="35.1,22 45.5,40.1 40.1,40.5 36.8,40.7 34.9,43.4 31.8,48 21.3,29.9   "/><polygon fill="#F1543F" points="30.8,24.4 40.1,40.5 36.8,40.7 34.9,43.4 25.6,27.4   "/></g><g><polygon fill="#FF7058" points="2.5,40.1 11.2,40.7 16.2,48 26.7,29.9 12.9,21.9   "/><polygon fill="#FF7058" points="12.9,22 2.5,40.1 7.9,40.5 11.2,40.7 13.1,43.4 16.2,48 26.7,29.9   "/><polygon fill="#F1543F" points="17.2,24.4 7.9,40.5 11.2,40.7 13.1,43.4 22.4,27.4   "/></g><path d="M42.1,24.7L42.1,24.7c2.6-2.6,2.6-6.8,0-9.4l0,0c-1.3-1.3-2-2.9-2-4.7v0c0-3.7-3-6.7-6.7-6.7h0   c-1.8,0-3.5-0.7-4.7-2l0,0c-2.6-2.6-6.8-2.6-9.4,0l0,0c-1.3,1.3-2.9,2-4.7,2h0c-3.7,0-6.7,3-6.7,6.7v0c0,1.8-0.7,3.5-2,4.7l0,0   c-2.6,2.6-2.6,6.8,0,9.4l0,0c1.3,1.3,2,2.9,2,4.7v0c0,3.7,3,6.7,6.7,6.7h0c1.8,0,3.5,0.7,4.7,2l0,0c2.6,2.6,6.8,2.6,9.4,0l0,0   c1.3-1.3,2.9-2,4.7-2h0c3.7,0,6.7-3,6.7-6.7v0C40.1,27.7,40.8,26,42.1,24.7z" fill="#FFD15C"/><path d="M24,36c-0.7,0-1.4-0.3-1.9-0.8c-2-2-4.7-3.1-7.5-3.1c-1.5,0-2.7-1.2-2.7-2.7c0-2.8-1.1-5.5-3.1-7.5   c-1-1-1-2.7,0-3.8c2-2,3.1-4.7,3.1-7.5c0-1.5,1.2-2.7,2.7-2.7c2.9,0,5.5-1.1,7.5-3.1C22.6,4.3,23.3,4,24,4c0.7,0,1.4,0.3,1.9,0.8   c2,2,4.7,3.1,7.5,3.1c1.5,0,2.7,1.2,2.7,2.7c0,2.9,1.1,5.5,3.1,7.5c1,1,1,2.7,0,3.8c-2,2-3.1,4.7-3.1,7.5c0,1.5-1.2,2.7-2.7,2.7   c-2.9,0-5.5,1.1-7.5,3.1C25.4,35.7,24.7,36,24,36z" fill="#F8B64C"/><path d="M8.8,19.1c2-2,3.1-4.7,3.1-7.5c0-1.5,1.2-2.7,2.7-2.7c2.9,0,5.5-1.1,7.5-3.1C22.6,5.3,23.3,5,24,5   c0.7,0,1.4,0.3,1.9,0.8c2,2,4.7,3.1,7.5,3.1c1.5,0,2.7,1.2,2.7,2.7c0,2.9,1.1,5.5,3.1,7.5c0.4,0.4,0.6,0.9,0.7,1.4   c0.2-0.8-0.1-1.7-0.7-2.4c-2-2-3.1-4.7-3.1-7.5c0-1.5-1.2-2.7-2.7-2.7c-2.8,0-5.5-1.1-7.5-3.1C25.4,4.3,24.7,4,24,4   c-0.7,0-1.4,0.3-1.9,0.8c-2,2-4.7,3.1-7.5,3.1c-1.5,0-2.7,1.2-2.7,2.7c0,2.8-1.1,5.5-3.1,7.5c-0.6,0.6-0.9,1.5-0.7,2.4   C8.1,20,8.4,19.5,8.8,19.1z" fill="#F7AC41"/><path d="M24.4,8.8l2.3,7c0.1,0.2,0.2,0.3,0.4,0.3h7.4c0.4,0,0.6,0.6,0.3,0.8l-6,4.3c-0.2,0.1-0.2,0.3-0.2,0.5l2.3,7   c0.1,0.4-0.3,0.8-0.7,0.5l-6-4.3c-0.2-0.1-0.4-0.1-0.5,0l-6,4.3c-0.4,0.3-0.8-0.1-0.7-0.5l2.3-7c0.1-0.2,0-0.4-0.2-0.5l-6-4.3   c-0.4-0.3-0.2-0.8,0.3-0.8h7.4c0.2,0,0.4-0.1,0.4-0.3l2.3-7C23.7,8.4,24.3,8.4,24.4,8.8z" fill="#FFD15C"/></g></svg>