<?xml version="1.0" ?><svg id="Layer_1" style="enable-background:new 0 0 128 128;" version="1.1" viewBox="0 0 128 128" xml:space="preserve" xmlns="http://www.w3.org/2000/svg" xmlns:xlink="http://www.w3.org/1999/xlink"><style type="text/css">
	.st0{fill:#D9B9A8;}
	.st1{fill:#D6AB9A;}
	.st2{fill:#F7AF19;}
	.st3{fill:#FCD65E;}
	.st4{fill:#FFCC04;}
	.st5{fill:#444D5B;}
	.st6{fill:#FFFFFF;}
	.st7{fill:#616B77;}
	.st8{fill:#CED4DF;}
	.st9{fill:#3FA3DB;}
	.st10{fill:#337CBF;}
	.st11{fill:#535E6F;}
	.st12{fill:#EF4C45;}
	.st13{fill:#D38E16;}
	.st14{fill:#F45D5D;}
	.st15{fill:#6D9583;}
	.st16{fill:#54806C;}
	.st17{fill:#CD2E30;}
	.st18{fill:#E5E8EC;}
	.st19{fill:#BED630;}
	.st20{fill:#ABC437;}
	.st21{fill:#ABB2B9;}
	.st22{fill:#1E67AF;}
	.st23{fill:#29509B;}
	.st24{opacity:0.5;fill:#FFFFFF;}
	.st25{fill:#C5DFDC;}
	.st26{fill:#94CECD;}
	.st27{fill:#0095CF;}
	.st28{fill:#22D2FC;}
	.st29{fill:#0BB6EA;}
	.st30{fill:#52BA5A;}
	.st31{fill:#6C548C;}
	.st32{fill:#F06097;}
	.st33{fill:#F9AA53;}
	.st34{fill:#EE3B87;}
	.st35{fill:#E3227E;}
	.st36{fill:#5A4A56;}
	.st37{fill:#6A5868;}
	.st38{fill:#6DA542;}
	.st39{fill:#99C23E;}
	.st40{fill:#2C81C6;}
	.st41{fill:#EC7A23;}
	.st42{fill:#F59C1D;}
	.st43{fill:#C17E5D;}
	.st44{fill:#DE9F75;}
	.st45{fill:#8562A6;}
	.st46{fill:#4A93AC;}
	.st47{fill:#6EA4BB;}
	.st48{fill:#4C4C78;}
	.st49{fill:#535A85;}
	.st50{fill:#883785;}
	.st51{fill:#A3499A;}
	.st52{fill:#D9E842;}
	.st53{fill:#9376B5;}
	.st54{fill:#3C9C46;}
	.st55{fill:#1C8040;}
	.st56{fill:#00B0A6;}
	.st57{fill:#009A9C;}
	.st58{fill:url(#);}
	.st59{fill:#7C6B7B;}
	.st60{fill:#EFB395;}
	.st61{clip-path:url(#SVGID_2_);fill:#E5E8EC;}
	.st62{opacity:0.15;}
	.st63{opacity:0.8;fill:#FFCC04;}
	.st64{fill:#E6C9A6;}
	.st65{fill:#F2F1EC;}
	.st66{opacity:0.1;}
	.st67{opacity:0.6;fill:#FFFFFF;}
	.st68{fill:#6EA3BA;}
	.st69{opacity:0.1;fill:#FFFFFF;}
	.st70{fill:#CCA392;}
</style><g><circle class="st11" cx="64" cy="64" r="64"/><path class="st5" d="M126.5,50.2l-21.3-21.3L22.1,98.3l28.2,28.2c4.4,1,9,1.5,13.7,1.5c35.3,0,64-28.7,64-64   C128,59.3,127.5,54.6,126.5,50.2z"/><g><path class="st6" d="M100.9,27.2H27.1c-3.4,0-6.2,2.8-6.2,6.2v61.1c0,3.4,2.8,6.2,6.2,6.2h73.9c3.4,0,6.2-2.8,6.2-6.2V33.4    C107.2,30,104.4,27.2,100.9,27.2z"/><path class="st18" d="M26.8,42.1v52.4c0,0.1,0.1,0.2,0.2,0.2h73.9c0.1,0,0.2-0.1,0.2-0.2V42.1H26.8z"/><circle class="st4" cx="30.3" cy="34.9" r="3.5"/><circle class="st3" cx="30.3" cy="34.9" r="1.9"/><circle class="st12" cx="39.5" cy="34.9" r="3.5"/><circle class="st14" cx="39.5" cy="34.9" r="1.9"/><circle class="st29" cx="48.8" cy="34.9" r="3.5"/><circle class="st28" cx="48.8" cy="34.9" r="1.9"/><polygon class="st18" points="79.3,38 77.6,42.1 96.7,42.1 95,38   "/><polygon class="st8" points="60.2,38 58.5,42.1 77.6,42.1 75.9,38   "/></g><g><polygon class="st3" points="52.4,61.6 46.2,57.2 52.4,52.7 75.7,52.7 81.8,57.2 75.7,61.6   "/><polygon class="st4" points="81.8,57.2 93.9,67.4 80,73 75.7,61.6   "/><polygon class="st4" points="46.2,57.2 34.1,67.4 48,73 52.3,61.6   "/><polygon class="st4" points="80,73 64,108.4 48,73   "/><polygon class="st2" points="52.3,61.6 75.7,61.6 80,73 48,73   "/><polygon class="st2" points="93.9,67.4 64,108.4 80,73   "/><polygon class="st2" points="34.1,67.4 64,108.4 48,73   "/><polygon class="st6" points="50.2,74.4 54.4,73 50.2,71.5 48.8,67.4 47.3,71.5 43.2,73 47.3,74.4 48.8,78.6   "/><polygon class="st6" points="54.9,77.9 56.4,77.4 54.9,76.8 54.4,75.3 53.8,76.8 52.3,77.4 53.8,77.9 54.4,79.4   "/><polygon class="st6" points="80.5,73.4 82,72.9 80.5,72.4 79.9,70.9 79.4,72.4 77.9,72.9 79.4,73.4 79.9,75   "/></g></g></svg>