<?xml version="1.0" ?><!DOCTYPE svg  PUBLIC '-//W3C//DTD SVG 1.1//EN'  'http://www.w3.org/Graphics/SVG/1.1/DTD/svg11.dtd'><svg enable-background="new 0 0 512 512" id="Layer_1" version="1.1" viewBox="0 0 512 512" xml:space="preserve" xmlns="http://www.w3.org/2000/svg" xmlns:xlink="http://www.w3.org/1999/xlink"><g><g><polygon fill="#788C99" points="365.7,510 257.6,432.6 146.3,510 146.3,263.3 365.7,263.3   "/></g><g><path d="M146.3,263.3v61.8c7.8,5.1,14.1,12.6,17.6,21.7c10.4,27,43,37.6,67.3,21.9c15.1-9.8,34.5-9.8,49.6,0h0    c24.3,15.8,56.9,5.2,67.3-21.9c3.5-9.1,9.8-16.6,17.6-21.7v-61.8H146.3z" fill="#455D6D"/></g><g><path d="M278,8.5L278,8.5c21.5-14,50.5-4.6,59.7,19.4l0,0c5.7,14.9,19.7,25.1,35.6,25.9l0,0    c25.7,1.3,43.6,26,36.9,50.8l0,0c-4.1,15.4,1.2,31.8,13.6,41.9l0,0c20,16.2,20,46.6,0,62.8l0,0c-12.4,10-17.8,26.5-13.6,41.9l0,0    c6.7,24.8-11.2,49.5-36.9,50.8h0c-15.9,0.8-29.9,11-35.6,25.9l0,0c-9.2,24-38.2,33.4-59.7,19.4l0,0c-13.4-8.7-30.6-8.7-44,0l0,0    c-21.5,14-50.5,4.6-59.7-19.4l0,0c-5.7-14.9-19.7-25.1-35.6-25.9h0c-25.7-1.3-43.6-26-36.9-50.8l0,0c4.1-15.4-1.2-31.8-13.6-41.9    l0,0c-20-16.2-20-46.6,0-62.8l0,0c12.4-10,17.8-26.5,13.6-41.9l0,0c-6.7-24.8,11.2-49.5,36.9-50.8l0,0c15.9-0.8,29.9-11,35.6-25.9    l0,0c9.2-24,38.2-33.4,59.7-19.4l0,0C247.4,17.3,264.6,17.3,278,8.5z" fill="#F0786B"/></g><g><path d="M272.8,48.9L272.8,48.9c16.4-10.7,38.5-3.5,45.5,14.8v0c4.3,11.4,15,19.1,27.1,19.7l0,0    c19.5,1,33.2,19.8,28.1,38.7l0,0c-3.2,11.7,0.9,24.2,10.4,31.9l0,0c15.2,12.3,15.2,35.5,0,47.8l0,0c-9.5,7.6-13.5,20.1-10.4,31.9    l0,0c5.1,18.9-8.6,37.7-28.1,38.7h0c-12.1,0.6-22.8,8.4-27.1,19.7v0c-7,18.3-29.1,25.5-45.5,14.8l0,0c-10.2-6.6-23.3-6.6-33.5,0    l0,0c-16.4,10.7-38.5,3.5-45.5-14.8l0,0c-4.3-11.4-15-19.1-27.1-19.7h0c-19.5-1-33.2-19.8-28.1-38.7l0,0    c3.2-11.7-0.9-24.2-10.4-31.9l0,0c-15.2-12.3-15.2-35.5,0-47.8l0,0c9.5-7.6,13.5-20.1,10.4-31.9l0,0c-5.1-18.9,8.6-37.7,28.1-38.7    l0,0c12.1-0.6,22.8-8.4,27.1-19.7l0,0c7-18.3,29.1-25.5,45.5-14.8l0,0C249.4,55.6,262.6,55.6,272.8,48.9z" fill="#FAD882"/></g><g><circle cx="256" cy="177.9" fill="#EFB872" r="92.2"/></g></g></svg>