<?xml version="1.0" ?><svg enable-background="new 0 0 156 212.0034" id="fileadobe" version="1.1" viewBox="0 0 156 212.0034" xml:space="preserve" xmlns="http://www.w3.org/2000/svg" xmlns:xlink="http://www.w3.org/1999/xlink"><g><path d="M72.1268,95.4606c3.3868-15.9376,0.9648-22.176-1.1032-23.2972c-0.1916-0.1016-0.4124-0.152-0.6484-0.152   c-0.9652,0-2.2112,0.824-3.0744,2.1168c-0.4924,0.8008-0.9668,5.6644,3.1876,17.0824   C70.998,92.6126,71.5448,94.0306,72.1268,95.4606z" fill="#FFE9E1"/><path d="M27.8984,181.6634c1.2792,0.2424,6.6112-2.5352,14.9592-15.6016   c-5.7152,2.8324-10.1976,5.6332-12.4356,8.1876C27.3768,177.7298,27.4572,181.0778,27.8984,181.6634z" fill="#FFE9E1"/><path d="M65.9864,138.2926c-1.7424,4.0664-3.4768,7.91-5.1972,11.5192c11.1856-4.16,22.3024-7.6444,29.5116-9.7928   c-5.9648-6.5076-11.502-14.492-16.1932-22.6092C71.8848,123.8782,69.1756,130.855,65.9864,138.2926z" fill="#FFE9E1"/><path d="M154.826,40.3082L115.6504,1.1754c-0.75-0.75-1.7656-1.172-2.826-1.172H4c-2.2088,0-4,1.7892-4,4v204   c0,2.2108,1.7912,4,4,4h148c2.2088,0,4-1.7892,4-4V43.1362C156,42.0738,155.578,41.0582,154.826,40.3082z M136.0292,150.3706   c-4.1756,4.586-13.4024,7.8984-26.7908,3.4376c-4.1484-1.3828-8.2988-3.9688-12.336-7.3868   c-10.168,2.9336-27.1096,8.2852-41.5448,14.1092c-10.166,18.762-19.666,28.8908-27.4652,29.004c-0.0408,0-0.084,0-0.1248,0   c-3.166,0-5.84-1.7068-7.172-4.586c-2.1016-4.5468-0.572-10.9608,3.8068-15.9648c4.3184-4.9376,14.1404-10.1016,25.2636-14.7812   c2.7772-5.3124,5.7756-11.6092,8.9688-19.0584c4.6192-10.7816,7.9396-19.8556,10.2736-27.4572   c-2.7384-5.5548-4.9844-10.9024-6.594-15.5976c-5.6424-16.4416-2.6524-20.926-1.67-22.3984   c3.4728-5.2188,9.4436-7.1408,14.1896-4.5588c8.248,4.4648,9.0076,19.2188,2.582,41.7968   c5.8848,11.4492,13.4356,22.586,21.1172,30.2032c3.4336-1.8632,10.7752-4.414,25.2636-4.414   c10.1796,0,13.4396,4.8868,14.3692,6.9884C139.7148,143.2106,138.916,147.195,136.0292,150.3706z M155.6952,45.5346   c-0.6192,1.496-2.078,2.4688-3.6952,2.4688h-40c-2.2088,0-4-1.7892-4-4v-40c0-1.6172,0.9748-3.078,2.4688-3.6952   c1.494-0.6252,3.2128-0.2812,4.3592,0.8672l40,40C155.9728,42.3198,156.3144,44.0386,155.6952,45.5346z" fill="#FFE9E1"/><path d="M123.7968,140.7182c-9.3712,0-15.1036,1.1484-18.3944,2.2072c2.16,1.4804,4.2928,2.6052,6.3672,3.2968   c9.1288,3.0392,15.7888,1.5704,18.3416-1.2384c0.258-0.2812,1.0784-1.2732,0.7384-2.0428   C130.5096,142.1714,128.5976,140.7182,123.7968,140.7182z" fill="#FFE9E1"/><path d="M114.828,1.1754c-1.1464-1.1484-2.8652-1.4924-4.3592-0.8672C108.9748,0.9254,108,2.3862,108,4.0034v40   c0,2.2108,1.7912,4,4,4h40c1.6172,0,3.076-0.9728,3.6952-2.4688c0.6192-1.496,0.2776-3.2148-0.8672-4.3592L114.828,1.1754z" fill="#FCD1C0"/><path d="M123.7968,132.7182c-14.4884,0-21.83,2.5508-25.2636,4.414c-7.6816-7.6172-15.2324-18.754-21.1172-30.2032   c6.4256-22.578,5.666-37.332-2.582-41.7968c-4.746-2.582-10.7168-0.66-14.1896,4.5588c-0.9824,1.4724-3.9724,5.9568,1.67,22.3984   c1.6096,4.6952,3.8556,10.0428,6.594,15.5976c-2.334,7.6016-5.6544,16.6756-10.2736,27.4572   c-3.1932,7.4492-6.1916,13.746-8.9688,19.0584c-11.1232,4.6796-20.9452,9.8436-25.2636,14.7812   c-4.3788,5.004-5.9084,11.418-3.8068,15.9648c1.332,2.8792,4.006,4.586,7.172,4.586c0.0408,0,0.084,0,0.1248,0   c7.7992-0.1132,17.2992-10.242,27.4652-29.004c14.4352-5.824,31.3768-11.1756,41.5448-14.1092   c4.0372,3.418,8.1876,6.004,12.336,7.3868c13.3884,4.4608,22.6152,1.1484,26.7908-3.4376c2.8868-3.1756,3.6856-7.16,2.1368-10.664   C137.2364,137.605,133.9764,132.7182,123.7968,132.7182z M27.8984,181.6634c-0.4412-0.5856-0.5216-3.9336,2.5236-7.414   c2.238-2.5544,6.7204-5.3552,12.4356-8.1876C34.5096,179.1282,29.1776,181.9058,27.8984,181.6634z M67.3008,74.1282   c0.8632-1.2928,2.1092-2.1168,3.0744-2.1168c0.236,0,0.4568,0.0504,0.6484,0.152c2.068,1.1212,4.49,7.3596,1.1032,23.2972   c-0.582-1.43-1.1288-2.848-1.6384-4.25C66.334,79.7926,66.8084,74.929,67.3008,74.1282z M60.7892,149.8118   c1.7204-3.6092,3.4548-7.4528,5.1972-11.5192c3.1892-7.4376,5.8984-14.4144,8.1212-20.8828   c4.6912,8.1172,10.2284,16.1016,16.1932,22.6092C83.0916,142.1674,71.9748,145.6518,60.7892,149.8118z M130.1112,144.9838   c-2.5528,2.8088-9.2128,4.2776-18.3416,1.2384c-2.0744-0.6916-4.2072-1.8164-6.3672-3.2968   c3.2908-1.0588,9.0232-2.2072,18.3944-2.2072c4.8008,0,6.7128,1.4532,7.0528,2.2228   C131.1896,143.7106,130.3692,144.7026,130.1112,144.9838z" fill="#F8A131"/></g></svg>