<?xml version="1.0" ?><svg enable-background="new 0 0 216 180" id="folderrenew" version="1.1" viewBox="0 0 216 180" xml:space="preserve" xmlns="http://www.w3.org/2000/svg" xmlns:xlink="http://www.w3.org/1999/xlink"><g><path d="M4,24h90.1408L79.328,1.7812C78.586,0.668,77.338,0,76,0H4C1.7912,0,0,1.7892,0,4v24   C0,25.7892,1.7912,24,4,24z" fill="#FE8657"/><path d="M212,48H4c-2.2088,0-4-1.7892-4-4v116.0116C0,171.0352,8.9608,180,19.9764,180h176.0472   C207.0392,180,216,171.0352,216,160.0116V44C216,46.2108,214.2088,48,212,48z M60,96V68c0-2.2108,1.7912-4,4-4s4,1.7892,4,4v24h24   c2.2088,0,4,1.7892,4,4s-1.7912,4-4,4H64C61.7912,100,60,98.2108,60,96z M141.9416,145.9416   c-9.3576,9.3592-21.6504,14.0348-33.9416,14.0348s-24.584-4.6756-33.9416-14.0348c-1.5624-1.5628-1.5624-4.094,0-5.6564   c1.5628-1.5624,4.094-1.5624,5.6564,0c15.5976,15.5936,40.9728,15.5936,56.5704,0c15.5956-15.5976,15.5956-40.9728,0-56.5704   c-15.5976-15.5936-40.9728-15.5936-56.5704,0c-1.5624,1.5624-4.0936,1.5624-5.6564,0c-1.5624-1.5624-1.5624-4.0936,0-5.6564   c18.7152-18.7184,49.168-18.7184,67.8832,0C160.6584,96.7736,160.6584,127.2264,141.9416,145.9416z" fill="#FCC24C"/><path d="M212,24H94.1408H4c-2.2088,0-4,1.7892-4,4v16c0,2.2108,1.7912,4,4,4h208c2.2088,0,4-1.7892,4-4V28   C216,25.7892,214.2088,24,212,24z" fill="#4A8F9E"/><path d="M74.0584,78.0584c-1.5624,1.5628-1.5624,4.094,0,5.6564c1.5628,1.5624,4.094,1.5624,5.6564,0   c15.5976-15.5936,40.9728-15.5936,56.5704,0c15.5956,15.5976,15.5956,40.9728,0,56.5704   c-15.5976,15.5936-40.9728,15.5936-56.5704,0c-1.5624-1.5624-4.0936-1.5624-5.6564,0c-1.5624,1.5624-1.5624,4.0936,0,5.6564   c9.3576,9.3592,21.6504,14.0348,33.9416,14.0348s24.584-4.6756,33.9416-14.0348c18.7168-18.7152,18.7168-49.168,0-67.8832   C123.2264,59.34,92.7736,59.34,74.0584,78.0584z" fill="#63B473"/><path d="M96,96c0-2.2108-1.7912-4-4-4H68V68c0-2.2108-1.7912-4-4-4s-4,1.7892-4,4v28c0,2.2108,1.7912,4,4,4h28   C94.2088,100,96,98.2108,96,96z" fill="#63B473"/></g></svg>