<?xml version="1.0" ?><svg enable-background="new 0 0 219.8514 213.257" id="tagfav" version="1.1" viewBox="0 0 219.8514 213.257" xml:space="preserve" xmlns="http://www.w3.org/2000/svg" xmlns:xlink="http://www.w3.org/1999/xlink"><g><path d="M187.203,164.3858l-6.4336-0.9376c-1.3048-0.1876-2.4296-1.0076-3.0116-2.1876l-2.8788-5.832l-2.8792,5.832   c-0.582,1.18-1.7068,2-3.0116,2.1876l-6.4376,0.9376l4.6604,4.5428c0.9412,0.918,1.3708,2.2424,1.1484,3.5392l-1.0976,6.41   l5.7536-3.0272c0.586-0.3084,1.2229-0.4608,1.8636-0.4608c0.6404,0,1.2772,0.1524,1.8633,0.4608l5.7539,3.0272l-1.0979-6.414   c-0.2225-1.2968,0.2071-2.6208,1.1483-3.5388L187.203,164.3858z" fill="none"/><path d="M186.1874,66.0342l-2.828-59.3984c-0.0976-2.0588-1.746-3.7072-3.8048-3.8048l-59.3984-2.828   c-1.1992-0.0428-2.2264,0.3712-3.0196,1.168L1.1718,117.1358c-1.5624,1.5624-1.5624,4.0936,0,5.6564l62.2265,62.2264   c0.7815,0.7812,1.8047,1.172,2.8283,1.172c1.0232,0,2.0468-0.3908,2.828-1.172L185.0194,69.0538   C185.8162,68.257,186.2423,67.1594,186.1874,66.0342z M151.0783,57.7374c-3.0237,3.0232-7.0393,4.6876-11.3129,4.6876   c-4.2732,0-8.2928-1.6644-11.3124-4.6876c-3.0232-3.0196-4.6876-7.0392-4.6876-11.3124c0-4.2736,1.6644-8.2892,4.6876-11.3128   c6.0352-6.0428,16.5744-6.0508,22.6253,0c3.0231,3.0236,4.6871,7.0392,4.6871,11.3128   C155.7654,50.7022,154.1014,54.7178,151.0783,57.7374z" fill="#FFDC82"/><path d="M138.8474,160.2726c1.0629-4.7384,3.016-9.1484,5.8008-13.1096l2.3048-3.2692l-6.5427-4.6056   l-2.3009,3.2732c-3.3984,4.8204-5.7736,10.1916-7.0664,15.9612l-0.8752,3.9024l7.8048,1.75L138.8474,160.2726z" fill="#FFDC82"/><path d="M148.7654,194.503l-0.7692-0.7852c-3.34-3.5468-5.9064-7.6288-7.6252-12.1444l-1.4256-3.7384   l-7.4768,2.8516l1.426,3.7384c1.7812,4.668,4.3008,8.9568,7.5077,12.7852l-0.1213,0.1208l4.6368,4.7852l0.1328-0.1248   c3.7304,3.32,7.9456,5.9688,12.5548,7.8864l3.6912,1.5352l3.0744-7.3864l-3.6952-1.5392   C156.2186,200.6358,152.211,197.9482,148.7654,194.503z" fill="#FFDC82"/><path d="M211.8514,164.8038l-0.0428,4c-0.0548,4.8632-1.0392,9.586-2.9336,14.0392l-1.5664,3.6836l7.3632,3.1288   l1.5625-3.6796c2.3087-5.422,3.508-11.172,3.5743-17.086l0.0428-4L211.8514,164.8038z" fill="#FFDC82"/><path d="M154.8086,127.9794l2.906,7.4532l3.7268-1.4532c4.2852-1.6716,8.8049-2.5192,13.4376-2.5192l4.6993,0.07   l0.1247-8l-4.824-0.07c-5.6327,0-11.1327,1.0312-16.344,3.0664L154.8086,127.9794z" fill="#FFDC82"/><path d="M214.7694,147.2998l-2.1796-3.3556c-1.7032-2.6208-3.7032-5.0856-5.9416-7.324   c-1.9099-1.91-4-3.6564-6.2108-5.1916l-3.2852-2.2812l-4.5624,6.5704l3.2852,2.2812c1.8204,1.2656,3.5428,2.7032,5.1172,4.2776   c1.8436,1.8436,3.488,3.8708,4.8868,6.0272l2.1796,3.3556L214.7694,147.2998z" fill="#FFDC82"/><path d="M195.199,199.2374c-4.0428,2.672-8.5076,4.4884-13.2772,5.41l-3.9256,0.754l1.5116,7.8556l3.9296-0.758   c5.8049-1.1172,11.246-3.332,16.168-6.582l3.34-2.2068l-4.4104-6.676L195.199,199.2374z" fill="#FFDC82"/><path d="M187.8086,190.1906c0.828,0,1.6524-0.258,2.3516-0.762c1.2304-0.8984,1.8476-2.414,1.5896-3.914   l-2.1132-12.328l8.9572-8.7304c1.0896-1.0624,1.4805-2.6524,1.0116-4.0976c-0.4728-1.4492-1.7228-2.504-3.2304-2.7228   l-12.3752-1.8008l-5.5352-11.2148c-1.3436-2.7344-5.828-2.7344-7.1716,0l-5.5352,11.2148l-12.3788,1.8008   c-1.508,0.2188-2.758,1.2736-3.2308,2.7228c-0.4684,1.4452-0.0779,3.0352,1.012,4.0976l8.9608,8.7304l-2.1172,12.328   c-0.2575,1.5,0.3596,3.0156,1.59,3.9104c1.2304,0.8984,2.8672,1.0156,4.2148,0.3044l11.0704-5.82l11.0664,5.82   C186.531,190.0382,187.1718,190.1906,187.8086,190.1906z M181.3983,172.4638l1.0979,6.414l-5.7539-3.0272   c-0.5861-0.3084-1.2229-0.4608-1.8633-0.4608c-0.6407,0-1.2776,0.1524-1.8636,0.4608l-5.7536,3.0272l1.0976-6.41   c0.2224-1.2968-0.2072-2.6212-1.1484-3.5392l-4.6604-4.5428l6.4376-0.9376c1.3048-0.1876,2.4296-1.0076,3.0116-2.1876l2.8792-5.832   l2.8788,5.832c0.582,1.18,1.7068,2,3.0116,2.1876l6.4336,0.9376l-4.6564,4.5392   C181.6054,169.843,181.1758,171.167,181.3983,172.4638z" fill="#F8A131"/><path d="M128.453,35.1122c-3.0232,3.0236-4.6876,7.0392-4.6876,11.3128c0,4.2732,1.6644,8.2928,4.6876,11.3124   c3.0196,3.0232,7.0392,4.6876,11.3124,4.6876c4.2736,0,8.2892-1.6644,11.3129-4.6876c3.0231-3.0196,4.6871-7.0352,4.6871-11.3124   c0-4.2736-1.664-8.2892-4.6871-11.3128C145.0274,29.0614,134.4882,29.0694,128.453,35.1122z" fill="#F8A131"/></g></svg>