<?xml version="1.0" ?><svg enable-background="new 0 0 216 180" id="foldercancel" version="1.1" viewBox="0 0 216 180" xml:space="preserve" xmlns="http://www.w3.org/2000/svg" xmlns:xlink="http://www.w3.org/1999/xlink"><g><path d="M4,24h90.1407L79.328,1.7812C78.5859,0.668,77.336,0,76,0H4C1.7891,0,0,1.7892,0,4v24   C0,25.7892,1.7891,24,4,24z" fill="#89714D"/><path d="M212,48H4c-2.2109,0-4-1.7892-4-4v116.0116C0,171.0352,8.9607,180,19.9763,180h176.0472   C207.0391,180,216,171.0352,216,160.0116V44C216,46.2108,214.2107,48,212,48z M108,160c-26.4689,0-48-21.5312-48-48   s21.5311-48,48-48c26.4687,0,48,21.5312,48,48S134.4687,160,108,160z" fill="#BC9A67"/><path d="M212,24H94.1407H4c-2.2109,0-4,1.7892-4,4v16c0,2.2108,1.7891,4,4,4h208c2.2107,0,4-1.7892,4-4V28   C216,25.7892,214.2107,24,212,24z" fill="#FE8657"/><path d="M108,64c-26.4689,0-48,21.5312-48,48s21.5311,48,48,48c26.4687,0,48-21.5312,48-48S134.4687,64,108,64z    M128.504,99.1524L113.6563,114l12.8477,12.8476c1.5623,1.5624,1.5623,4.094,0,5.6564c-0.7813,0.7812-1.8049,1.1716-2.8285,1.1716   c-1.0232,0-2.0468-0.3904-2.828-1.1716L108,119.6564l-13.5585,13.5584c-0.7815,0.7812-1.8048,1.172-2.8284,1.172   c-1.0232,0-2.0468-0.3908-2.828-1.172c-1.5624-1.5624-1.5624-4.0936,0-5.6564L102.3435,114L86.7851,98.4452   c-1.5624-1.5624-1.5624-4.0936,0-5.656c1.5624-1.5628,4.0936-1.5628,5.6564,0L108,108.3436l14.8475-14.8476   c1.5624-1.5624,4.094-1.5624,5.6565,0C130.0663,95.0584,130.0663,97.59,128.504,99.1524z" fill="#FE8657"/><path d="M122.8475,93.496L108,108.3436L92.4415,92.7892c-1.5628-1.5628-4.094-1.5628-5.6564,0   c-1.5624,1.5624-1.5624,4.0936,0,5.656L102.3435,114l-13.5584,13.5584c-1.5624,1.5628-1.5624,4.094,0,5.6564   c0.7812,0.7812,1.8048,1.172,2.828,1.172c1.0236,0,2.0469-0.3908,2.8284-1.172L108,119.6564l12.8475,12.8476   c0.7812,0.7812,1.8048,1.1716,2.828,1.1716c1.0236,0,2.0472-0.3904,2.8285-1.1716c1.5623-1.5624,1.5623-4.094,0-5.6564   L113.6563,114l14.8477-14.8476c1.5623-1.5624,1.5623-4.094,0-5.6564C126.9415,91.9336,124.4099,91.9336,122.8475,93.496z" fill="#FFE9E1"/></g></svg>