<?xml version="1.0" ?><svg enable-background="new 0 0 203.996 212" id="files" version="1.1" viewBox="0 0 203.996 212" xml:space="preserve" xmlns="http://www.w3.org/2000/svg" xmlns:xlink="http://www.w3.org/1999/xlink"><g><path d="M76,96V21.6484c0-1.074-0.4337-2.1056-1.1993-2.8556l-18-17.6484C56.0507,0.41,55.0467,0,54,0H4   C1.7891,0,0,1.7892,0,4v92c0,2.2108,1.7891,4,4,4h68C74.2107,100,76,98.2108,76,96z" fill="#FCD1C0"/><path d="M92.8007,113.1444C92.0507,112.41,91.0467,112,90,112H40c-2.2109,0-4,1.7892-4,4v92c0,2.2108,1.7891,4,4,4   h68c2.2107,0,4-1.7892,4-4v-74.3516c0-1.074-0.4337-2.1056-1.1993-2.8556L92.8007,113.1444z" fill="#49A25A"/><path d="M96,100h68c2.2107,0,4-1.7892,4-4V21.6484c0-1.074-0.4337-2.1056-1.1993-2.8556l-18-17.6484   C148.0507,0.41,147.0467,0,146,0H96c-2.2109,0-4,1.7892-4,4v92C92,98.2108,93.7891,100,96,100z" fill="#D793FD"/><path d="M202.7967,130.7928l-18-17.6484c-0.75-0.7344-1.754-1.1444-2.8007-1.1444h-50c-2.2109,0-4,1.7892-4,4v92   c0,2.2108,1.7891,4,4,4h68c2.2111,0,4-1.7892,4-4v-74.3516C203.996,132.5744,203.5623,131.5428,202.7967,130.7928z" fill="#A48659"/></g></svg>