<?xml version="1.0" ?><svg enable-background="new 0 0 192 192" id="mobi" version="1.1" viewBox="0 0 192 192" xml:space="preserve" xmlns="http://www.w3.org/2000/svg" xmlns:xlink="http://www.w3.org/1999/xlink"><g><path d="M190.84,85.1896c0.32,0.322,0.5663,0.7128,0.7615,1.1308C191.4139,85.91,191.172,85.5236,190.84,85.1896z" fill="#4A8F9E"/><path d="M191.7383,86.6952c0.1172,0.336,0.1912,0.6916,0.2148,1.0628   C191.9295,87.3924,191.8591,87.0412,191.7383,86.6952z" fill="#4A8F9E"/><path d="M188,84c1.1015,0,2.1015,0.4472,2.8243,1.168L168,62.3436V84H188z" fill="#4A8F9E"/><path d="M0.3983,86.3204c0.1952-0.418,0.4417-0.8088,0.7617-1.1308C0.828,85.5236,0.5899,85.91,0.3983,86.3204z" fill="#4A8F9E"/><path d="M0.0467,87.758c0.0236-0.3712,0.0976-0.7268,0.2148-1.0628C0.1407,87.0392,0.0703,87.3908,0.0467,87.758z" fill="#4A8F9E"/><path d="M24,84V62.3436L1.1755,85.168C1.8983,84.4472,2.8943,84,4,84H24z" fill="#4A8F9E"/><path d="M168,84V62.3436v-24l-1.172-1.1716c1.1447,1.1444,1.4883,2.8632,0.8671,4.3592   C167.0779,43.0252,165.6171,44,164,44h-36c-2.2109,0-4-1.7912-4-4V4c0-1.6172,0.9727-3.076,2.4687-3.6952   c1.5-0.6132,3.2148-0.2796,4.3593,0.8672L129.6563,0H24v62.3436V84H168z" fill="#C6DFED"/><rect fill="#C6DFED" height="24" width="144" x="24" y="168"/><path d="M134.3867,123.6756c0.7928-0.246,1.496-0.6424,2.1053-1.1872c0.6135-0.5432,1.1135-1.248,1.4963-2.1096   c0.3868-0.8592,0.578-1.9024,0.578-3.1268c0-1.2248-0.1912-2.256-0.578-3.0956c-0.3828-0.836-0.8828-1.5156-1.4963-2.0392   c-0.6093-0.5216-1.324-0.8944-2.1405-1.1212c-0.8164-0.2284-1.6564-0.3396-2.5155-0.3396h-4.4885v13.3944h4.6252   C132.7891,124.0508,133.5935,123.9296,134.3867,123.6756z" fill="#BC9A67"/><path d="M101.4063,115.3788c-0.75-1.5624-1.676-2.7948-2.7892-3.7032c-1.1091-0.908-2.3908-1.3592-3.84-1.3592   c-1.496,0-2.8008,0.4512-3.91,1.3592c-1.1132,0.9084-2.0428,2.1408-2.7892,3.7032c-0.7499,1.5704-1.3044,3.426-1.664,5.5764   c-0.3632,2.158-0.5468,4.4568-0.5468,6.904c0,2.4492,0.1836,4.7484,0.5468,6.9004c0.3596,2.1564,0.9141,4.0236,1.664,5.6116   c0.7464,1.5896,1.676,2.832,2.7892,3.742c1.1092,0.9064,2.414,1.3596,3.91,1.3596c1.4964,0,2.7972-0.4532,3.9104-1.3596   c1.1092-0.91,2.0388-2.1524,2.7852-3.742c0.75-1.588,1.3044-3.4552,1.668-5.6116c0.3633-2.152,0.5428-4.4512,0.5428-6.9004   c0-2.4472-0.1915-4.746-0.578-6.904C102.7187,118.8048,102.1523,116.9492,101.4063,115.3788z" fill="#BC9A67"/><path d="M137.2771,131.9044c-0.7264-0.6116-1.5192-1.0528-2.3828-1.3244c-0.8592-0.2716-1.7223-0.408-2.582-0.408   h-4.9648v15.0272h5.168c0.996,0,1.926-0.1484,2.7892-0.4432c0.8593-0.2912,1.6208-0.7444,2.2772-1.3596   c0.6564-0.6132,1.1796-1.3692,1.5624-2.2752c0.3868-0.9104,0.5784-1.9964,0.5784-3.2656c0-1.4044-0.2267-2.596-0.68-3.5724   C138.5899,133.3124,138,132.5196,137.2771,131.9044z" fill="#BC9A67"/><path d="M191.9531,87.758c-0.0236-0.3712-0.0976-0.7268-0.2148-1.0628c-0.0468-0.1288-0.0783-0.2536-0.1368-0.3748   c-0.1952-0.418-0.4415-0.8088-0.7615-1.1308c-0.004-0.006-0.008-0.014-0.0157-0.0216C190.1015,84.4472,189.1015,84,188,84h-20H24H4   c-1.1057,0-2.1017,0.4472-2.8245,1.168C1.168,85.1756,1.164,85.1836,1.16,85.1896c-0.32,0.322-0.5665,0.7128-0.7617,1.1308   c-0.0583,0.1212-0.09,0.246-0.1368,0.3748c-0.1172,0.336-0.1912,0.6916-0.2148,1.0628C0.0427,87.8416,0,87.914,0,88v76   c0,2.2088,1.7891,4,4,4h20h144h20c2.2107,0,4-1.7912,4-4V88C192,87.914,191.9571,87.8436,191.9531,87.758z M163.1835,152h-8.16   v-48.1444h8.16V152z M28.8163,103.8556h10.9492l9.246,35.2244h0.2736l9.0429-35.2244h11.4923V152h-7.9572L62,115.008h-0.2033   L52.1407,152h-6.3908l-9.4532-36.992h-0.2032L36.2263,152h-7.41V103.8556z M142.34,127.9296   c0.9295,0.5432,1.7811,1.3028,2.5507,2.2736c0.7733,0.9764,1.406,2.156,1.906,3.5372c0.496,1.3844,0.746,2.9824,0.746,4.7948   c0,2.5408-0.4176,4.6564-1.2576,6.3556c-0.84,1.7048-1.9024,3.0856-3.1952,4.1484c-1.2932,1.0684-2.7424,1.828-4.3516,2.2812   c-1.6096,0.4512-3.1836,0.6796-4.7268,0.6796h-14.2812v-48.1444h12.7852c1.4064,0,2.9024,0.168,4.4885,0.5076   c1.5859,0.344,3.0351,0.9532,4.3515,1.836c1.3165,0.8888,2.4024,2.1092,3.2656,3.672c0.8592,1.5684,1.2928,3.5976,1.2928,6.0896   c0,2.9904-0.6368,5.3476-1.9059,7.0724c-1.2697,1.7228-2.7425,2.922-4.4181,3.6036v0.1348   C140.496,127,141.4139,127.3828,142.34,127.9296z M112.1171,127.8592c0,3.8088-0.3984,7.2656-1.1916,10.3692   c-0.7928,3.1076-1.9372,5.7716-3.4335,7.9924c-1.496,2.2188-3.32,3.9432-5.4725,5.166c-2.1564,1.2264-4.5704,1.836-7.2424,1.836   c-2.7224,0-5.1484-0.6096-7.2771-1.836c-2.1329-1.2228-3.9453-2.9472-5.4417-5.166c-1.496-2.2208-2.6404-4.8848-3.4332-7.9924   c-0.7931-3.1036-1.1876-6.5604-1.1876-10.3692c0-3.8084,0.3828-7.2516,1.156-10.3356c0.7696-3.084,1.9025-5.7364,3.3985-7.9552   c1.4963-2.2208,3.3203-3.9316,5.4727-5.1368c2.1524-1.1992,4.59-1.7988,7.3124-1.7988c2.672,0,5.086,0.5996,7.2424,1.7988   c2.1525,1.2052,3.9765,2.916,5.4725,5.1368c1.4963,2.2188,2.6407,4.8712,3.4335,7.9552   C111.7187,120.6076,112.1171,124.0508,112.1171,127.8592z" fill="#BC9A67"/><path d="M126.4687,0.3048C124.9727,0.924,124,2.3828,124,4v36c0,2.2088,1.7891,4,4,4h36   c1.6171,0,3.0779-0.9748,3.6951-2.4688c0.6212-1.496,0.2776-3.2148-0.8671-4.3592l-36-36   C129.6835,0.0252,127.9687-0.3084,126.4687,0.3048z" fill="#A9C7D8"/><path d="M102.0195,104.4316c-2.1564-1.1992-4.5704-1.7988-7.2424-1.7988c-2.7224,0-5.16,0.5996-7.3124,1.7988   c-2.1524,1.2052-3.9764,2.916-5.4727,5.1368c-1.496,2.2188-2.6289,4.8712-3.3985,7.9552c-0.7732,3.084-1.156,6.5272-1.156,10.3356   c0,3.8088,0.3945,7.2656,1.1876,10.3692c0.7928,3.1076,1.9372,5.7716,3.4332,7.9924c1.4964,2.2188,3.3088,3.9432,5.4417,5.166   c2.1287,1.2264,4.5547,1.836,7.2771,1.836c2.672,0,5.086-0.6096,7.2424-1.836c2.1525-1.2228,3.9765-2.9472,5.4725-5.166   c1.4963-2.2208,2.6407-4.8848,3.4335-7.9924c0.7932-3.1036,1.1916-6.5604,1.1916-10.3692c0-3.8084-0.3984-7.2516-1.1916-10.3356   c-0.7928-3.084-1.9372-5.7364-3.4335-7.9552C105.996,107.3476,104.172,105.6368,102.0195,104.4316z M103.1407,134.7596   c-0.3636,2.1564-0.918,4.0236-1.668,5.6116c-0.7464,1.5896-1.676,2.832-2.7852,3.742c-1.1132,0.9064-2.414,1.3596-3.9104,1.3596   c-1.496,0-2.8008-0.4532-3.91-1.3596c-1.1132-0.91-2.0428-2.1524-2.7892-3.742c-0.7499-1.588-1.3044-3.4552-1.664-5.6116   c-0.3632-2.152-0.5468-4.4512-0.5468-6.9004c0-2.4472,0.1836-4.746,0.5468-6.904c0.3596-2.1504,0.9141-4.006,1.664-5.5764   c0.7464-1.5624,1.676-2.7948,2.7892-3.7032c1.1092-0.908,2.414-1.3592,3.91-1.3592c1.4492,0,2.7309,0.4512,3.84,1.3592   c1.1132,0.9084,2.0392,2.1408,2.7892,3.7032c0.746,1.5704,1.3124,3.426,1.6992,5.5764c0.3865,2.158,0.578,4.4568,0.578,6.904   C103.6835,130.3084,103.504,132.6076,103.1407,134.7596z" fill="#FFE9E1"/><path d="M144.008,123.0332c1.2691-1.7248,1.9059-4.082,1.9059-7.0724c0-2.492-0.4336-4.5212-1.2928-6.0896   c-0.8632-1.5628-1.9491-2.7832-3.2656-3.672c-1.3164-0.8828-2.7656-1.492-4.3515-1.836c-1.5861-0.3396-3.0821-0.5076-4.4885-0.5076   h-12.7852V152h14.2812c1.5432,0,3.1172-0.2284,4.7268-0.6796c1.6092-0.4532,3.0584-1.2128,4.3516-2.2812   c1.2928-1.0628,2.3552-2.4436,3.1952-4.1484c0.84-1.6992,1.2576-3.8148,1.2576-6.3556c0-1.8124-0.25-3.4104-0.746-4.7948   c-0.5-1.3812-1.1327-2.5608-1.906-3.5372c-0.7696-0.9708-1.6212-1.7304-2.5507-2.2736c-0.9261-0.5468-1.844-0.9296-2.7501-1.158   v-0.1348C141.2655,125.9552,142.7383,124.756,144.008,123.0332z M127.3475,110.6564h4.4885c0.8591,0,1.6991,0.1112,2.5155,0.3396   c0.8165,0.2268,1.5312,0.5996,2.1405,1.1212c0.6135,0.5236,1.1135,1.2032,1.4963,2.0392c0.3868,0.8396,0.578,1.8708,0.578,3.0956   c0,1.2244-0.1912,2.2676-0.578,3.1268c-0.3828,0.8616-0.8828,1.5664-1.4963,2.1096c-0.6093,0.5448-1.3125,0.9412-2.1053,1.1872   c-0.7932,0.254-1.5976,0.3752-2.414,0.3752h-4.6252V110.6564z M139.7227,137.8556c0,1.2692-0.1916,2.3552-0.5784,3.2656   c-0.3828,0.906-0.906,1.662-1.5624,2.2752c-0.6564,0.6152-1.4179,1.0684-2.2772,1.3596c-0.8632,0.2948-1.7932,0.4432-2.7892,0.4432   h-5.168V130.172h4.9648c0.8597,0,1.7228,0.1364,2.582,0.408c0.8636,0.2716,1.6564,0.7128,2.3828,1.3244   c0.7229,0.6152,1.3128,1.408,1.7656,2.3788C139.496,135.2596,139.7227,136.4512,139.7227,137.8556z" fill="#FFE9E1"/><polygon fill="#FFE9E1" points="36.0935,115.008 36.2967,115.008 45.7499,152 52.1407,152 61.7967,115.008 62,115.008 61.8631,152    69.8203,152 69.8203,103.8556 58.328,103.8556 49.2851,139.08 49.0115,139.08 39.7655,103.8556 28.8163,103.8556 28.8163,152    36.2263,152  "/><rect fill="#FFE9E1" height="48.1444" width="8.16" x="155.0235" y="103.8556"/></g></svg>