<?xml version="1.0" ?><svg enable-background="new 0 0 216 180" id="folderup" version="1.1" viewBox="0 0 216 180" xml:space="preserve" xmlns="http://www.w3.org/2000/svg" xmlns:xlink="http://www.w3.org/1999/xlink"><g><path d="M4,24h90.1407L79.328,1.7812C78.5859,0.668,77.3379,0,76,0H4C1.7911,0,0,1.7892,0,4v24   C0,25.7892,1.7911,24,4,24z" fill="#456782"/><path d="M212,48H4c-2.2089,0-4-1.7892-4-4v116.0116C0,171.0352,8.9607,180,19.9763,180h176.0472   C207.0391,180,216,171.0352,216,160.0116V44C216,46.2108,214.2087,48,212,48z M133.4551,96.1992   c-0.7812,0.7812-1.8048,1.172-2.8284,1.172c-1.0232,0-2.0467-0.3908-2.828-1.172L112,80.4024V152h-8V80.4024L88.2011,96.1992   c-1.5624,1.5624-4.0936,1.5624-5.6564,0c-1.5624-1.5624-1.5624-4.0936,0-5.6564L105.172,67.918   c1.5623-1.5624,4.0935-1.5624,5.656,0l22.6271,22.6248C135.0175,92.1056,135.0175,94.6368,133.4551,96.1992z" fill="#618287"/><path d="M212,24H94.1407H4c-2.2089,0-4,1.7892-4,4v16c0,2.2108,1.7911,4,4,4h208c2.2087,0,4-1.7892,4-4V28   C216,25.7892,214.2087,24,212,24z" fill="#9D57C4"/><path d="M110.828,67.918c-1.5625-1.5624-4.0937-1.5624-5.656,0L82.5447,90.5428   c-1.5624,1.5628-1.5624,4.094,0,5.6564c1.5628,1.5624,4.094,1.5624,5.6564,0L104,80.4024V152h8V80.4024l15.7987,15.7968   c0.7813,0.7812,1.8048,1.172,2.828,1.172c1.0236,0,2.0472-0.3908,2.8284-1.172c1.5624-1.5624,1.5624-4.0936,0-5.6564   L110.828,67.918z" fill="#FFDC82"/></g></svg>