<?xml version="1.0" ?><svg enable-background="new 0 0 192 192" id="doc" version="1.1" viewBox="0 0 192 192" xml:space="preserve" xmlns="http://www.w3.org/2000/svg" xmlns:xlink="http://www.w3.org/1999/xlink"><g><path d="M191.7383,86.6952c0.1172,0.336,0.1912,0.6916,0.2148,1.0628   C191.9295,87.3924,191.8591,87.0412,191.7383,86.6952z" fill="#4A8F9E"/><path d="M190.84,85.1896c0.32,0.324,0.5699,0.7128,0.7615,1.1308C191.4139,85.91,191.172,85.5236,190.84,85.1896z" fill="#4A8F9E"/><path d="M188,84c1.1015,0,2.1015,0.4472,2.8243,1.168L168,62.3436V84H188z" fill="#4A8F9E"/><path d="M0.0467,87.758c0.0236-0.3712,0.0976-0.7268,0.2148-1.0628C0.1407,87.0392,0.0703,87.3908,0.0467,87.758z" fill="#4A8F9E"/><path d="M0.3983,86.3204c0.1952-0.418,0.4417-0.8068,0.7617-1.1308C0.828,85.5236,0.5899,85.91,0.3983,86.3204z" fill="#4A8F9E"/><path d="M24,84V62.3436L1.1755,85.168C1.8983,84.4472,2.8943,84,4,84H24z" fill="#4A8F9E"/><path d="M168,84V62.3436v-24l-1.172-1.1716c1.1447,1.1444,1.4883,2.8632,0.8671,4.3592   C167.0779,43.0252,165.6171,44,164,44h-36c-2.2109,0-4-1.7912-4-4V4c0-1.6172,0.9727-3.076,2.4687-3.6952   c1.5-0.6132,3.2148-0.2756,4.3593,0.8672L129.6563,0H24v62.3436V84H168z" fill="#C6DFED"/><rect fill="#C6DFED" height="24" width="144" x="24" y="168"/><path d="M191.9531,87.758c-0.0236-0.3712-0.0976-0.7268-0.2148-1.0628c-0.0468-0.1288-0.0783-0.2536-0.1368-0.3748   c-0.1916-0.418-0.4415-0.8068-0.7615-1.1308c-0.004-0.006-0.008-0.014-0.0157-0.0216C190.1015,84.4472,189.1015,84,188,84h-20H24H4   c-1.1057,0-2.1017,0.4472-2.8245,1.168C1.168,85.1756,1.164,85.1836,1.16,85.1896c-0.32,0.324-0.5665,0.7128-0.7617,1.1308   c-0.0583,0.1212-0.09,0.246-0.1368,0.3748c-0.1172,0.336-0.1912,0.6916-0.2148,1.0628C0.0427,87.8436,0,87.914,0,88v76   c0,2.2088,1.7891,4,4,4h20h144h20c2.2107,0,4-1.7912,4-4V88C192,87.914,191.9571,87.8436,191.9531,87.758z M44.5935,152v-48.1444   h12.1016c6.164,0,10.8476,2.1208,14.0432,6.3552c3.1952,4.2404,4.7928,10.168,4.7928,17.7852s-1.5976,13.5196-4.7928,17.7112   C67.5427,149.9044,62.84,152,56.6287,152H44.5935z M81.1755,127.8592c0-3.8084,0.3868-7.2516,1.1565-10.3356   c0.7695-3.084,1.9023-5.7364,3.3983-7.9552c1.496-2.2208,3.3244-3.9316,5.4768-5.1368c2.152-1.1992,4.5896-1.7988,7.3084-1.7988   c2.676,0,5.09,0.5996,7.2424,1.7988c2.152,1.2052,3.9764,2.916,5.4724,5.1368c1.496,2.2188,2.6408,4.8712,3.4337,7.9552   c0.7967,3.084,1.1915,6.5272,1.1915,10.3356c0,3.8088-0.3948,7.264-1.1915,10.3672c-0.7929,3.1096-1.9377,5.7736-3.4337,7.9944   c-1.496,2.2188-3.3204,3.9432-5.4724,5.166c-2.1524,1.2264-4.5664,1.836-7.2424,1.836c-2.7188,0-5.1444-0.6096-7.2772-1.836   c-2.1292-1.2228-3.9416-2.9472-5.4376-5.166c-1.496-2.2208-2.6407-4.8848-3.4336-7.9944   C81.5743,135.1232,81.1755,131.668,81.1755,127.8592z M130.4063,134.7596c0.41,2.1564,1.0232,4.0236,1.8356,5.6116   c0.8164,1.5896,1.848,2.8436,3.0941,3.7732c1.2499,0.9316,2.7107,1.3948,4.3867,1.3948c1.5896,0,2.9608-0.4064,4.1133-1.2228   c1.156-0.8164,2.1211-1.8124,2.8903-2.992l4.6956,5.5076c-1.2696,1.9044-2.8908,3.4432-4.8636,4.6232   c-1.9724,1.1816-4.4528,1.7676-7.4452,1.7676c-2.7224,0-5.1796-0.6348-7.3788-1.9024c-2.1992-1.2696-4.0588-3.0236-5.578-5.2736   c-1.5156-2.242-2.6956-4.9024-3.5352-7.9884c-0.84-3.082-1.258-6.4588-1.258-10.1288c0-3.6736,0.418-7.0624,1.258-10.17   c0.8396-3.1032,2.0312-5.7752,3.5704-8.0232c1.5428-2.2444,3.41-3.9884,5.6092-5.2364c2.1993-1.244,4.6368-1.8672,7.3124-1.8672   c2.7656,0,5.1916,0.508,7.2736,1.5272c2.086,1.0236,3.7853,2.4844,5.1016,4.3868l-4.6916,5.7128   c-1.8592-2.6756-4.2616-4.0116-7.2068-4.0116c-1.6328,0-3.0628,0.4628-4.2852,1.3928c-1.2268,0.9296-2.2464,2.1872-3.0628,3.7752   c-0.8124,1.588-1.4256,3.4552-1.8356,5.6076c-0.4063,2.156-0.6096,4.4568-0.6096,6.906   C129.7967,130.332,130,132.6076,130.4063,134.7596z" fill="#63B473"/><path d="M64.3787,115.2108c-0.9492-1.4024-2.086-2.4588-3.3984-3.164c-1.3163-0.6992-2.742-1.0508-4.2852-1.0508   h-3.8748v33.8632h3.8748c1.5432,0,2.9689-0.3512,4.2852-1.0544c1.3124-0.7012,2.4492-1.758,3.3984-3.1604   c0.9533-1.404,1.6916-3.16,2.2112-5.2732c0.5192-2.1076,0.7812-4.5628,0.7812-7.3752c0-2.8552-0.262-5.3476-0.7812-7.4804   C66.0703,118.3828,65.332,116.6172,64.3787,115.2108z" fill="#63B473"/><path d="M91.8163,140.3712c0.75,1.5896,1.6797,2.832,2.7892,3.742c1.1132,0.9064,2.414,1.3596,3.91,1.3596   c1.496,0,2.8008-0.4532,3.91-1.3596c1.1096-0.91,2.0392-2.1524,2.7892-3.742c0.746-1.588,1.3008-3.4552,1.664-5.6116   c0.3632-2.152,0.5468-4.4512,0.5468-6.9004c0-2.4472-0.1952-4.746-0.578-6.904c-0.3868-2.1504-0.9532-4.006-1.7032-5.5764   c-0.746-1.5624-1.6756-2.7948-2.7852-3.7032c-1.1132-0.908-2.3904-1.3592-3.8436-1.3592c-1.496,0-2.7968,0.4512-3.91,1.3592   c-1.1095,0.9084-2.0392,2.1408-2.7892,3.7032c-0.746,1.5704-1.3008,3.426-1.664,5.5764c-0.3632,2.158-0.5432,4.4568-0.5432,6.904   c0,2.4492,0.18,4.7484,0.5432,6.9004C90.5155,136.916,91.0703,138.7832,91.8163,140.3712z" fill="#63B473"/><path d="M126.4687,0.3048C124.9727,0.924,124,2.3828,124,4v36c0,2.2088,1.7891,4,4,4h36   c1.6171,0,3.0779-0.9748,3.6951-2.4688c0.6212-1.496,0.2776-3.2148-0.8671-4.3592l-36-36   C129.6835,0.0292,127.9687-0.3084,126.4687,0.3048z" fill="#A9C7D8"/><path d="M132.2419,115.416c0.8164-1.588,1.836-2.8456,3.0628-3.7752c1.2224-0.93,2.6524-1.3928,4.2852-1.3928   c2.9452,0,5.3476,1.336,7.2068,4.0116l4.6916-5.7128c-1.3163-1.9024-3.0156-3.3632-5.1016-4.3868   c-2.082-1.0192-4.508-1.5272-7.2736-1.5272c-2.6756,0-5.1131,0.6232-7.3124,1.8672c-2.1992,1.248-4.0664,2.992-5.6092,5.2364   c-1.5392,2.248-2.7308,4.92-3.5704,8.0232c-0.84,3.1076-1.258,6.4964-1.258,10.17c0,3.67,0.418,7.0468,1.258,10.1288   c0.8396,3.086,2.0196,5.7464,3.5352,7.9884c1.5192,2.25,3.3788,4.004,5.578,5.2736c2.1992,1.2676,4.6564,1.9024,7.3788,1.9024   c2.9924,0,5.4728-0.586,7.4452-1.7676c1.9728-1.18,3.594-2.7188,4.8636-4.6232l-4.6956-5.5076   c-0.7692,1.1796-1.7343,2.1756-2.8903,2.992c-1.1525,0.8164-2.5237,1.2228-4.1133,1.2228c-1.676,0-3.1368-0.4632-4.3867-1.3948   c-1.2461-0.9296-2.2777-2.1836-3.0941-3.7732c-0.8124-1.588-1.4256-3.4552-1.8356-5.6116c-0.4063-2.152-0.6096-4.4276-0.6096-6.83   c0-2.4492,0.2033-4.75,0.6096-6.906C130.8163,118.8712,131.4295,117.004,132.2419,115.416z" fill="#FFE9E1"/><path d="M70.7383,145.7072c3.1952-4.1916,4.7928-10.094,4.7928-17.7112s-1.5976-13.5448-4.7928-17.7852   c-3.1956-4.2344-7.8792-6.3552-14.0432-6.3552H44.5935V152h12.0352C62.84,152,67.5427,149.9044,70.7383,145.7072z    M66.5899,135.3712c-0.5196,2.1132-1.2579,3.8692-2.2112,5.2732c-0.9492,1.4024-2.086,2.4592-3.3984,3.1604   c-1.3163,0.7032-2.742,1.0544-4.2852,1.0544h-3.8748V110.996h3.8748c1.5432,0,2.9689,0.3516,4.2852,1.0508   c1.3124,0.7052,2.4492,1.7616,3.3984,3.164c0.9533,1.4064,1.6916,3.172,2.2112,5.3048c0.5192,2.1328,0.7812,4.6252,0.7812,7.4804   C67.3711,130.8084,67.1091,133.2636,66.5899,135.3712z" fill="#FFE9E1"/><path d="M91.2383,151.3868c2.1328,1.2264,4.5584,1.836,7.2772,1.836c2.676,0,5.09-0.6096,7.2424-1.836   c2.152-1.2228,3.9764-2.9472,5.4724-5.166c1.496-2.2208,2.6408-4.8848,3.4337-7.9944c0.7967-3.1032,1.1915-6.5584,1.1915-10.3672   c0-3.8084-0.3948-7.2516-1.1915-10.3356c-0.7929-3.084-1.9377-5.7364-3.4337-7.9552c-1.496-2.2208-3.3204-3.9316-5.4724-5.1368   c-2.1524-1.1992-4.5664-1.7988-7.2424-1.7988c-2.7188,0-5.1564,0.5996-7.3084,1.7988c-2.1524,1.2052-3.9808,2.916-5.4768,5.1368   c-1.496,2.2188-2.6288,4.8712-3.3983,7.9552c-0.7697,3.084-1.1565,6.5272-1.1565,10.3356c0,3.8088,0.3988,7.264,1.1916,10.3672   c0.7929,3.1096,1.9376,5.7736,3.4336,7.9944C87.2967,148.4396,89.1091,150.164,91.2383,151.3868z M90.1523,120.9552   c0.3632-2.1504,0.918-4.006,1.664-5.5764c0.75-1.5624,1.6797-2.7948,2.7892-3.7032c1.1132-0.908,2.414-1.3592,3.91-1.3592   c1.4532,0,2.7304,0.4512,3.8436,1.3592c1.1096,0.9084,2.0392,2.1408,2.7852,3.7032c0.75,1.5704,1.3164,3.426,1.7032,5.5764   c0.3828,2.158,0.578,4.4568,0.578,6.904c0,2.4492-0.1836,4.7484-0.5468,6.9004c-0.3632,2.1564-0.918,4.0236-1.664,5.6116   c-0.75,1.5896-1.6796,2.832-2.7892,3.742c-1.1092,0.9064-2.414,1.3596-3.91,1.3596c-1.496,0-2.7968-0.4532-3.91-1.3596   c-1.1095-0.91-2.0392-2.1524-2.7892-3.742c-0.746-1.588-1.3008-3.4552-1.664-5.6116c-0.3632-2.152-0.5432-4.4512-0.5432-6.9004   C89.6091,125.412,89.7891,123.1132,90.1523,120.9552z" fill="#FFE9E1"/></g></svg>