<?xml version="1.0" ?><svg enable-background="new 0 0 219.8476 213.2606" id="tagadd" version="1.1" viewBox="0 0 219.8476 213.2606" xml:space="preserve" xmlns="http://www.w3.org/2000/svg" xmlns:xlink="http://www.w3.org/1999/xlink"><g><path d="M186.1876,66.0342l-2.828-59.3984c-0.0996-2.0588-1.746-3.7072-3.8068-3.8048l-59.3964-2.828   c-1.1212-0.0428-2.2208,0.3712-3.0176,1.168L1.172,117.1358c-0.75,0.75-1.172,1.7656-1.172,2.828   c0,1.0628,0.422,2.0784,1.172,2.8284l62.2264,62.2264c0.7816,0.7812,1.8048,1.172,2.8284,1.172c1.0232,0,2.0468-0.3908,2.828-1.172   L185.0196,69.0538C185.8164,68.257,186.2404,67.1594,186.1876,66.0342z M151.0784,57.7374   c-3.0216,3.0232-7.0392,4.6876-11.3128,4.6876c-4.2732,0-8.2908-1.6644-11.3144-4.6876   c-3.0212-3.0196-4.6856-7.0392-4.6856-11.3124c0-4.2736,1.6644-8.2892,4.6856-11.3128c6.0432-6.0468,16.584-6.0468,22.6272,0   c3.0232,3.0236,4.6872,7.0392,4.6872,11.3128C155.7656,50.7022,154.0996,54.7178,151.0784,57.7374z" fill="#9AB040"/><path d="M211.8496,164.8038l-0.0448,4c-0.0528,4.8632-1.0392,9.59-2.9316,14.0428l-1.5644,3.68l7.3632,3.1288   l1.5644-3.6836c2.3028-5.418,3.502-11.164,3.5684-17.082l0.0428-4L211.8496,164.8038z" fill="#9AB040"/><path d="M195.1972,199.2334c-4.0428,2.668-8.5116,4.4884-13.2792,5.414l-3.9276,0.758l1.5216,7.8552l3.9256-0.7616   c5.8028-1.1212,11.2424-3.3396,16.166-6.586l3.338-2.2028l-4.4044-6.68L195.1972,199.2334z" fill="#9AB040"/><path d="M214.7636,147.2958l-2.1796-3.3552c-1.7048-2.6252-3.7032-5.09-5.9356-7.3204   c-1.908-1.91-3.998-3.6564-6.2108-5.1952l-3.2852-2.2812l-4.5644,6.57l3.2832,2.2812c1.8244,1.2656,3.5468,2.7072,5.1212,4.2816   c1.8396,1.8396,3.4824,3.8672,4.8848,6.0232l2.1776,3.3556L214.7636,147.2958z" fill="#9AB040"/><path d="M148.7676,194.503L148,193.7138c-3.3376-3.5388-5.906-7.6208-7.6268-12.1404l-1.426-3.7384l-7.4744,2.8516   l1.424,3.7384c1.7812,4.6716,4.3004,8.9608,7.5076,12.7812l-0.1232,0.1248l4.6488,4.7852l0.1248-0.1212   c3.7284,3.3164,7.9376,5.9652,12.5468,7.8792l3.6936,1.5388l3.072-7.3864l-3.6912-1.5352   C156.2148,200.6358,152.2092,197.9482,148.7676,194.503z" fill="#9AB040"/><path d="M154.8048,127.9834l2.9064,7.4532l3.7264-1.4532c4.2928-1.6756,8.8164-2.5232,13.4416-2.5232l4.6952,0.07   l0.1248-8l-4.82-0.07c-5.6252,0-11.1252,1.0312-16.348,3.07L154.8048,127.9834z" fill="#9AB040"/><path d="M138.844,160.2766c1.0624-4.7384,3.0136-9.1488,5.8028-13.1096l2.3024-3.2696l-6.5428-4.6052   l-2.3028,3.2732c-3.3944,4.8204-5.7736,10.1916-7.0644,15.9612l-0.8752,3.902l7.8068,1.75L138.844,160.2766z" fill="#9AB040"/><polygon fill="#49A25A" points="179.2384,192.9522 179.2384,172.753 199.4396,172.753 199.4396,164.753 179.2384,164.753    179.2384,144.9522 171.2384,144.9522 171.2384,164.753 151.4396,164.753 151.4396,172.753 171.2384,172.753 171.2384,192.9522  "/><path d="M128.4512,35.1122c-3.0212,3.0236-4.6856,7.0392-4.6856,11.3128c0,4.2732,1.6644,8.2928,4.6856,11.3124   c3.0236,3.0232,7.0412,4.6876,11.3144,4.6876c4.2736,0,8.2912-1.6644,11.3128-4.6876c3.0212-3.0196,4.6872-7.0352,4.6872-11.3124   c0-4.2736-1.664-8.2892-4.6872-11.3128C145.0352,29.0654,134.4944,29.0654,128.4512,35.1122z" fill="#49A25A"/></g></svg>