<?xml version="1.0" ?><svg enable-background="new 0 0 192 192.0017" id="psd" version="1.1" viewBox="0 0 192 192.0017" xml:space="preserve" xmlns="http://www.w3.org/2000/svg" xmlns:xlink="http://www.w3.org/1999/xlink"><g><path d="M24,84.0017V62.3453L1.174,85.1737c0.7224-0.7248,1.7224-1.172,2.826-1.172H24z" fill="#4A8F9E"/><path d="M0.3964,86.3221c0.1972-0.422,0.4472-0.8164,0.7716-1.1408C0.834,85.5153,0.59,85.9081,0.3964,86.3221z" fill="#4A8F9E"/><path d="M0.0508,87.7557c0.0236-0.3692,0.0956-0.7228,0.2128-1.0568C0.1444,87.0409,0.0724,87.3925,0.0508,87.7557z   " fill="#4A8F9E"/><path d="M188,84.0017c1.1036,0,2.1036,0.4472,2.826,1.172L168,62.3453v21.6564H188z" fill="#4A8F9E"/><path d="M190.832,85.1813c0.3244,0.3244,0.5744,0.7188,0.7716,1.1408   C191.41,85.9081,191.166,85.5153,190.832,85.1813z" fill="#4A8F9E"/><path d="M191.7364,86.6989c0.1172,0.334,0.1892,0.6876,0.2128,1.0568   C191.9276,87.3925,191.8556,87.0409,191.7364,86.6989z" fill="#4A8F9E"/><path d="M168,84.0017V62.3453v-24l-1.172-1.1716c1.1448,1.1444,1.4864,2.8632,0.8672,4.3592   c-0.6192,1.494-2.078,2.4688-3.6952,2.4688h-36c-2.2088,0-4-1.7912-4-4v-36c0-1.6172,0.9748-3.076,2.4688-3.6952   c1.494-0.6212,3.2128-0.2812,4.3592,0.8672l-1.1716-1.172H24v62.3436v21.6564H168z" fill="#C6DFED"/><rect fill="#C6DFED" height="24" width="144" x="24" y="168.0017"/><path d="M133.4336,116.2421c-0.9512-1.3692-2.084-2.3928-3.4004-3.0764c-1.3144-0.6836-2.742-1.0272-4.2832-1.0272   h-3.8768v32.9512h3.8768c1.5412,0,2.9688-0.344,4.2832-1.0296c1.3164-0.6836,2.4492-1.7068,3.4004-3.074   c0.9532-1.3672,1.6896-3.076,2.2108-5.1288c0.5216-2.0508,0.7812-4.4436,0.7812-7.176c0-2.7792-0.2596-5.2068-0.7812-7.2792   C135.1232,119.3297,134.3868,117.6093,133.4336,116.2421z" fill="#3BABB7"/><path d="M191.9492,87.7557c-0.0236-0.3692-0.0956-0.7228-0.2128-1.0568c-0.0448-0.1288-0.0764-0.2556-0.1328-0.3768   c-0.1972-0.422-0.4472-0.8164-0.7716-1.1408c-0.002-0.004-0.002-0.0076-0.002-0.0076c-0.7264-0.7248-1.7264-1.172-2.83-1.172h-20   H24H4c-1.1036,0-2.1036,0.4472-2.826,1.172c0,0-0.004,0.0036-0.006,0.0076c-0.3244,0.3244-0.5744,0.7188-0.7716,1.1408   c-0.0564,0.1212-0.088,0.248-0.1328,0.3768c-0.1172,0.334-0.1892,0.6876-0.2128,1.0568C0.0448,87.8417,0,87.9137,0,88.0017v76   c0,2.2088,1.7912,4,4,4h20h144h20c2.2088,0,4-1.7912,4-4v-76C192,87.9137,191.9572,87.8417,191.9492,87.7557z M49.4532,152.0349   v-46.8416h13.328c1.5412,0,3.1288,0.2204,4.7616,0.66c1.6312,0.4396,3.094,1.2032,4.3848,2.2852   c1.2932,1.078,2.3576,2.504,3.1976,4.2676c0.8376,1.7636,1.2576,3.9668,1.2576,6.6152c0,2.3808-0.3748,4.4648-1.1232,6.252   c-0.748,1.7832-1.7344,3.2712-2.9568,4.4648c-1.2248,1.1932-2.6308,2.072-4.2168,2.6464c-1.586,0.5724-3.2188,0.8612-4.8964,0.8612   h-5.7112v18.7892H49.4532z M96.2384,134.6345c-1.3596-1.1932-3.084-2.2928-5.168-3.3084   c-1.3144-0.6172-2.5508-1.3008-3.7072-2.0528c-1.1544-0.748-2.1756-1.6388-3.0584-2.676c-0.8848-1.0408-1.588-2.252-2.1096-3.6404   c-0.5196-1.3928-0.7812-3.0548-0.7812-4.9944c0-2.4256,0.3964-4.5096,1.1896-6.2536c0.7928-1.7424,1.836-3.1876,3.1288-4.3324   c1.2912-1.1484,2.754-1.996,4.3848-2.5468c1.6328-0.5528,3.2872-0.828,4.9648-0.828c2.4472,0,4.6348,0.3828,6.5624,1.1564   c1.926,0.7732,3.5472,1.906,4.8616,3.406l-4.4884,5.6936c-1.7676-2.0764-3.9884-3.1116-6.664-3.1116   c-0.7696,0-1.5176,0.1232-2.2444,0.3636c-0.7244,0.244-1.3828,0.6288-1.9704,1.16c-0.59,0.5292-1.0548,1.2128-1.3948,2.0528   c-0.3396,0.834-0.5096,1.826-0.5096,2.9764c0,1.9824,0.6112,3.5136,1.836,4.594c1.2244,1.0836,2.832,2.1092,4.828,3.08   c1.1776,0.574,2.3788,1.2324,3.6036,1.9844c1.2244,0.748,2.334,1.6524,3.332,2.7128c0.998,1.0604,1.8124,2.3144,2.4472,3.7716   c0.6348,1.4568,0.9532,3.1756,0.9532,5.16c0,2.2912-0.3752,4.3204-1.1232,6.088c-0.748,1.7636-1.744,3.252-2.992,4.4628   c-1.246,1.2128-2.7072,2.1288-4.3848,2.746c-1.6776,0.6192-3.4452,0.926-5.3048,0.926c-2.6736,0-5.1444-0.508-7.412-1.5196   c-2.2656-1.0156-4.08-2.2948-5.4396-3.84l4.42-5.8204c1.0432,1.2324,2.3008,2.2052,3.7736,2.9084   c1.4744,0.7088,2.9804,1.0624,4.5232,1.0624c1.7228,0,3.1504-0.574,4.2832-1.7224c1.1328-1.1468,1.6992-2.756,1.6992-4.8264   C98.2772,137.4333,97.5976,135.8261,96.2384,134.6345z M139.7928,145.9137c-3.1972,4.08-7.9004,6.1212-14.1112,6.1212h-12.0352   v-46.8416H125.75c6.166,0,10.8456,2.0604,14.0428,6.1832c3.1956,4.1252,4.7932,9.8928,4.7932,17.3048   C144.586,136.0897,142.9884,141.8337,139.7928,145.9137z" fill="#3BABB7"/><path d="M66.7948,124.8101c1.2228-1.3004,1.836-3.2088,1.836-5.7244c0-2.5136-0.6132-4.3436-1.836-5.4924   c-1.2244-1.1424-2.7888-1.7204-4.6932-1.7204h-4.6232v14.8884h4.6232C64.006,126.7613,65.5704,126.1093,66.7948,124.8101z" fill="#3BABB7"/><path d="M126.4688,0.3065C124.9748,0.9257,124,2.3845,124,4.0017v36c0,2.2088,1.7912,4,4,4h36   c1.6172,0,3.076-0.9748,3.6952-2.4688c0.6192-1.496,0.2776-3.2148-0.8672-4.3592l-36-36   C129.6816,0.0253,127.9628-0.3147,126.4688,0.3065z" fill="#A9C7D8"/><path d="M92.2948,146.0153c-1.5428,0-3.0488-0.3536-4.5232-1.0624c-1.4728-0.7032-2.7304-1.676-3.7736-2.9084   l-4.42,5.8204c1.3596,1.5452,3.174,2.8244,5.4396,3.84c2.2676,1.0116,4.7384,1.5196,7.412,1.5196   c1.8596,0,3.6272-0.3068,5.3048-0.926c1.6776-0.6172,3.1388-1.5332,4.3848-2.746c1.248-1.2108,2.244-2.6992,2.992-4.4628   c0.748-1.7676,1.1232-3.7968,1.1232-6.088c0-1.9844-0.3184-3.7032-0.9532-5.16c-0.6348-1.4572-1.4492-2.7112-2.4472-3.7716   c-0.998-1.0604-2.1076-1.9648-3.332-2.7128c-1.2248-0.752-2.426-1.4104-3.6036-1.9844c-1.996-0.9708-3.6036-1.9964-4.828-3.08   c-1.2248-1.0804-1.836-2.6116-1.836-4.594c0-1.1504,0.17-2.1424,0.5096-2.9764c0.34-0.84,0.8048-1.5236,1.3948-2.0528   c0.5876-0.5312,1.246-0.916,1.9704-1.16c0.7268-0.2404,1.4748-0.3636,2.2444-0.3636c2.6756,0,4.8964,1.0352,6.664,3.1116   l4.4884-5.6936c-1.3144-1.5-2.9356-2.6328-4.8616-3.406c-1.9276-0.7736-4.1152-1.1564-6.5624-1.1564   c-1.6776,0-3.332,0.2752-4.9648,0.828c-1.6308,0.5508-3.0936,1.3984-4.3848,2.5468c-1.2928,1.1448-2.336,2.59-3.1288,4.3324   c-0.7932,1.744-1.1896,3.828-1.1896,6.2536c0,1.9396,0.2616,3.6016,0.7812,4.9944c0.5216,1.3884,1.2248,2.5996,2.1096,3.6404   c0.8828,1.0372,1.904,1.928,3.0584,2.676c1.1564,0.752,2.3928,1.4356,3.7072,2.0528c2.084,1.0156,3.8084,2.1152,5.168,3.3084   c1.3592,1.1916,2.0388,2.7988,2.0388,4.832c0,2.0704-0.5664,3.6796-1.6992,4.8264   C95.4452,145.4413,94.0176,146.0153,92.2948,146.0153z" fill="#FFE9E1"/><path d="M63.1896,133.2457c1.6776,0,3.3104-0.2888,4.8964-0.8612c1.586-0.5744,2.992-1.4532,4.2168-2.6464   c1.2224-1.1936,2.2088-2.6816,2.9568-4.4648c0.7484-1.7872,1.1232-3.8712,1.1232-6.252c0-2.6484-0.42-4.8516-1.2576-6.6152   c-0.84-1.7636-1.9044-3.1896-3.1976-4.2676c-1.2908-1.082-2.7536-1.8456-4.3848-2.2852c-1.6328-0.4396-3.2204-0.66-4.7616-0.66   h-13.328v46.8416h8.0252v-18.7892H63.1896z M57.4784,111.8729h4.6232c1.9044,0,3.4688,0.578,4.6932,1.7204   c1.2228,1.1488,1.836,2.9788,1.836,5.4924c0,2.5156-0.6132,4.424-1.836,5.7244c-1.2244,1.2992-2.7888,1.9512-4.6932,1.9512h-4.6232   V111.8729z" fill="#FFE9E1"/><path d="M125.75,105.1933h-12.1036v46.8416h12.0352c6.2108,0,10.914-2.0412,14.1112-6.1212   c3.1956-4.08,4.7932-9.824,4.7932-17.2324c0-7.412-1.5976-13.1796-4.7932-17.3048   C136.5956,107.2537,131.916,105.1933,125.75,105.1933z M135.6444,135.8573c-0.5212,2.0528-1.2576,3.7616-2.2108,5.1288   c-0.9512,1.3672-2.084,2.3904-3.4004,3.074c-1.3144,0.6856-2.742,1.0296-4.2832,1.0296h-3.8768v-32.9512h3.8768   c1.5412,0,2.9688,0.3436,4.2832,1.0272c1.3164,0.6836,2.4492,1.7072,3.4004,3.0764c0.9532,1.3672,1.6896,3.0876,2.2108,5.16   c0.5216,2.0724,0.7812,4.5,0.7812,7.2792C136.4256,131.4137,136.166,133.8065,135.6444,135.8573z" fill="#FFE9E1"/></g></svg>