<?xml version="1.0" ?><svg enable-background="new 0 0 156 212.0033" id="unprotected" version="1.1" viewBox="0 0 156 212.0033" xml:space="preserve" xmlns="http://www.w3.org/2000/svg" xmlns:xlink="http://www.w3.org/1999/xlink"><g><path d="M154.8259,40.3082L115.6503,1.1753c-0.75-0.7499-1.7656-1.172-2.826-1.172H4c-2.2089,0-4,1.7893-4,4v204   c0,2.2109,1.7911,4,4,4h148c2.2087,0,4-1.7891,4-4V43.1362C156,42.0738,155.5779,41.0582,154.8259,40.3082z M132,184.0033   c0,2.2109-1.7913,4-4,4H28c-2.2089,0-4-1.7891-4-4v-112c0-2.2107,1.7911-4,4-4h100c2.2087,0,4,1.7893,4,4V184.0033z    M155.6951,45.5346c-0.6191,1.496-2.078,2.4687-3.6951,2.4687h-40c-2.2089,0-4-1.7891-4-4v-40   c0-1.6171,0.9747-3.0779,2.4687-3.6951c1.496-0.6252,3.2108-0.2812,4.3593,0.8671l40,40   C155.9727,42.3198,156.3143,44.0386,155.6951,45.5346z" fill="#FFE9E1"/><path d="M114.828,1.1753c-1.1485-1.1483-2.8633-1.4923-4.3593-0.8671C108.9747,0.9254,108,2.3862,108,4.0033v40   c0,2.2109,1.7911,4,4,4h40c1.6171,0,3.076-0.9727,3.6951-2.4687c0.6192-1.496,0.2776-3.2148-0.8671-4.3593L114.828,1.1753z" fill="#FCD1C0"/><path d="M128,68.0033H28c-2.2089,0-4,1.7893-4,4v112c0,2.2109,1.7911,4,4,4h100c2.2087,0,4-1.7891,4-4v-112   C132,69.7926,130.2087,68.0033,128,68.0033z M108,160.0033c0,2.2109-1.7913,4-4,4H52c-2.2089,0-4-1.7891-4-4v-36   c0-2.2107,1.7911-4,4-4h1.7891c-3.75-11.1443,0.4392-23.84,10.8376-30.34c12.166-7.6015,28.2324-3.8827,35.8304,8.2697   c1.1696,1.8752,0.6012,4.344-1.2736,5.512c-1.8692,1.1796-4.34,0.6052-5.5115-1.2697   c-5.2581-8.4219-16.3869-10.9803-24.8049-5.7303c-8.0156,5.0116-10.6408,15.3164-6.34,23.5583H104c2.2087,0,4,1.7893,4,4V160.0033z   " fill="#50CCD3"/><path d="M104,120.0033H62.5271c-4.3008-8.2419-1.6756-18.5467,6.34-23.5583   c8.418-5.25,19.5468-2.6916,24.8049,5.7303c1.1715,1.8749,3.6423,2.4493,5.5115,1.2697c1.8748-1.168,2.4432-3.6368,1.2736-5.512   c-7.598-12.1524-23.6644-15.8712-35.8304-8.2697c-10.3984,6.5-14.5876,19.1957-10.8376,30.34H52c-2.2089,0-4,1.7893-4,4v36   c0,2.2109,1.7911,4,4,4h52c2.2087,0,4-1.7891,4-4v-36C108,121.7926,106.2087,120.0033,104,120.0033z" fill="#4F676D"/></g></svg>