<?xml version="1.0" ?><svg enable-background="new 0 0 216 180" id="folderupload" version="1.1" viewBox="0 0 216 180" xml:space="preserve" xmlns="http://www.w3.org/2000/svg" xmlns:xlink="http://www.w3.org/1999/xlink"><g><path d="M4,24h90.1408L79.328,1.7812C78.586,0.668,77.338,0,76,0H4C1.7912,0,0,1.7892,0,4v24   C0,25.7892,1.7912,24,4,24z" fill="#FCC24C"/><path d="M212,48H4c-2.2088,0-4-1.7892-4-4v116.0116C0,171.0352,8.9608,180,19.9764,180h176.0472   C207.0392,180,216,171.0352,216,160.0116V44C216,46.2108,214.2088,48,212,48z M80.5704,101.9416l24-40   c1.4452-2.4064,5.414-2.4064,6.8592,0l24,40c0.7424,1.234,0.762,2.7732,0.0508,4.0312C134.7716,107.2264,133.4416,108,132,108h-12   v36c0,2.2108-1.7912,4-4,4h-16c-2.2088,0-4-1.7892-4-4v-36H84c-1.4416,0-2.7716-0.7736-3.4804-2.0272   C79.8084,104.7148,79.828,103.1756,80.5704,101.9416z M152,160H64v-8h88V160z" fill="#F8A131"/><path d="M212,24H94.1408H4c-2.2088,0-4,1.7892-4,4v16c0,2.2108,1.7912,4,4,4h208c2.2088,0,4-1.7892,4-4V28   C216,25.7892,214.2088,24,212,24z" fill="#D8F768"/><path d="M84,108h12v36c0,2.2108,1.7912,4,4,4h16c2.2088,0,4-1.7892,4-4v-36h12   c1.4416,0,2.7716-0.7736,3.4804-2.0272c0.7112-1.258,0.6916-2.7972-0.0508-4.0312l-24-40c-1.4452-2.4064-5.414-2.4064-6.8592,0   l-24,40c-0.7424,1.234-0.762,2.7732-0.0508,4.0312C81.2284,107.2264,82.5584,108,84,108z" fill="#D8F768"/><rect fill="#D8F768" height="8" width="88" x="64" y="152"/></g></svg>