<?xml version="1.0" ?><svg enable-background="new 0 0 192 192" id="dw" version="1.1" viewBox="0 0 192 192" xml:space="preserve" xmlns="http://www.w3.org/2000/svg" xmlns:xlink="http://www.w3.org/1999/xlink"><g><path d="M0.3983,86.3204c0.1952-0.418,0.4417-0.8068,0.7617-1.1308C0.828,85.5236,0.5899,85.91,0.3983,86.3204z" fill="#4A8F9E"/><path d="M0.0467,87.758c0.0236-0.3712,0.0976-0.7268,0.2148-1.0628C0.1407,87.0392,0.0703,87.3908,0.0467,87.758z" fill="#4A8F9E"/><path d="M24,84V62.3436L1.1755,85.168C1.8983,84.4472,2.8943,84,4,84H24z" fill="#4A8F9E"/><path d="M188,84c1.1015,0,2.1015,0.4472,2.8243,1.168L168,62.3436V84H188z" fill="#4A8F9E"/><path d="M191.7383,86.6952c0.1172,0.336,0.1912,0.6916,0.2148,1.0628   C191.9295,87.3924,191.8591,87.0412,191.7383,86.6952z" fill="#4A8F9E"/><path d="M190.84,85.1896c0.32,0.324,0.5699,0.7128,0.7615,1.1308C191.4139,85.91,191.172,85.5236,190.84,85.1896z" fill="#4A8F9E"/><path d="M168,84V62.3436v-24l-1.172-1.1716c1.1447,1.1444,1.4883,2.8632,0.8671,4.3592   C167.0779,43.0252,165.6171,44,164,44h-36c-2.2109,0-4-1.7912-4-4V4c0-1.6172,0.9727-3.076,2.4687-3.6952   c1.496-0.6172,3.2148-0.2776,4.3593,0.8672L129.6563,0H24v62.3436V84H168z" fill="#C6DFED"/><rect fill="#C6DFED" height="24" width="144" x="24" y="168"/><path d="M191.9531,87.758c-0.0236-0.3712-0.0976-0.7268-0.2148-1.0628c-0.0468-0.1288-0.0783-0.2536-0.1368-0.3748   c-0.1916-0.418-0.4415-0.8068-0.7615-1.1308c-0.004-0.006-0.008-0.014-0.0157-0.0216C190.1015,84.4472,189.1015,84,188,84h-20H24H4   c-1.1057,0-2.1017,0.4472-2.8245,1.168C1.168,85.1756,1.164,85.1836,1.16,85.1896c-0.32,0.324-0.5665,0.7128-0.7617,1.1308   c-0.0583,0.1212-0.09,0.246-0.1368,0.3748c-0.1172,0.336-0.1912,0.6916-0.2148,1.0628C0.0427,87.8436,0,87.914,0,88v76   c0,2.2088,1.7891,4,4,4h20h144h20c2.2107,0,4-1.7912,4-4V88C192,87.914,191.9571,87.8436,191.9531,87.758z M55.4023,152v-48.1444   H67.508c6.164,0,10.8475,2.1208,14.0427,6.3552c3.1952,4.2404,4.7928,10.168,4.7928,17.7852s-1.5976,13.5196-4.7928,17.7148   C78.3555,149.9044,73.6523,152,67.4415,152H55.4023z M131.4295,152h-9.3868l-6.664-36.1756h-0.1368L108.5779,152h-9.3828   l-9.1796-48.1444h8.2968L104.5,141.256h0.2735l6.4568-37.4004h8.5704l6.664,37.4004h0.1368l6.1876-37.4004h7.8864L131.4295,152z" fill="#9D57C4"/><path d="M75.1915,115.2108c-0.9532-1.4024-2.086-2.4588-3.3988-3.16c-1.3164-0.7032-2.742-1.0548-4.2847-1.0548   h-3.8753v33.8632h3.8753c1.5427,0,2.9683-0.3512,4.2847-1.0544c1.3128-0.7012,2.4456-1.758,3.3988-3.1604   c0.9528-1.404,1.6872-3.16,2.2108-5.2732c0.5196-2.1076,0.7812-4.5628,0.7812-7.3752c0-2.8552-0.2616-5.3476-0.7812-7.4804   C76.8787,118.3828,76.1443,116.6172,75.1915,115.2108z" fill="#9D57C4"/><path d="M126.4687,0.3048C124.9727,0.924,124,2.3828,124,4v36c0,2.2088,1.7891,4,4,4h36   c1.6171,0,3.0779-0.9748,3.6951-2.4688c0.6212-1.496,0.2776-3.2148-0.8671-4.3592l-36-36   C129.6835,0.0272,127.9647-0.3124,126.4687,0.3048z" fill="#A9C7D8"/><polygon fill="#FFE9E1" points="126.6015,141.256 126.4647,141.256 119.8007,103.8556 111.2303,103.8556 104.7735,141.256    104.5,141.256 98.3123,103.8556 90.0155,103.8556 99.1951,152 108.5779,152 115.2419,115.8244 115.3787,115.8244 122.0427,152    131.4295,152 140.6755,103.8556 132.7891,103.8556  "/><path d="M81.5507,145.7108c3.1952-4.1952,4.7928-10.0976,4.7928-17.7148s-1.5976-13.5448-4.7928-17.7852   c-3.1952-4.2344-7.8787-6.3552-14.0427-6.3552H55.4023V152h12.0392C73.6523,152,78.3555,149.9044,81.5507,145.7108z    M77.4023,135.3712c-0.5236,2.1132-1.258,3.8692-2.2108,5.2732c-0.9532,1.4024-2.086,2.4592-3.3988,3.1604   c-1.3164,0.7032-2.742,1.0544-4.2847,1.0544h-3.8753V110.996h3.8753c1.5427,0,2.9683,0.3516,4.2847,1.0548   c1.3128,0.7012,2.4456,1.7576,3.3988,3.16c0.9528,1.4064,1.6872,3.172,2.2108,5.3048c0.5196,2.1328,0.7812,4.6252,0.7812,7.4804   C78.1835,130.8084,77.9219,133.2636,77.4023,135.3712z" fill="#FFE9E1"/></g></svg>