<?xml version="1.0" ?><svg enable-background="new 0 0 192 192.0031" id="pdf" version="1.1" viewBox="0 0 192 192.0031" xml:space="preserve" xmlns="http://www.w3.org/2000/svg" xmlns:xlink="http://www.w3.org/1999/xlink"><g><path d="M188,84.0031c1.1035,0,2.1035,0.4472,2.8259,1.172L168,62.3467v21.6564H188z" fill="#4A8F9E"/><path d="M191.7363,86.6983c0.1172,0.336,0.1892,0.6896,0.2128,1.0588   C191.9275,87.3939,191.8555,87.0423,191.7363,86.6983z" fill="#4A8F9E"/><path d="M190.832,85.1827c0.3243,0.3244,0.5743,0.7188,0.7715,1.1408   C191.4099,85.9095,191.1659,85.5167,190.832,85.1827z" fill="#4A8F9E"/><path d="M0.3963,86.3235c0.1972-0.422,0.4472-0.8164,0.7717-1.1408C0.8339,85.5167,0.5899,85.9095,0.3963,86.3235z" fill="#4A8F9E"/><path d="M24,84.0031V62.3467L1.1739,85.1751c0.7224-0.7248,1.7224-1.172,2.8261-1.172H24z" fill="#4A8F9E"/><path d="M0.0507,87.7571c0.0236-0.3692,0.0956-0.7228,0.2128-1.0588C0.1443,87.0423,0.0723,87.3939,0.0507,87.7571z   " fill="#4A8F9E"/><path d="M168,84.0031V62.3467v-24l-1.172-1.1716c1.1447,1.1444,1.4863,2.8632,0.8671,4.3592   c-0.6191,1.494-2.078,2.4688-3.6951,2.4688h-36c-2.2089,0-4-1.7912-4-4v-36c0-1.6172,0.9747-3.076,2.4687-3.6952   c1.492-0.6252,3.2128-0.2796,4.3593,0.8672l-1.1717-1.172H24v62.3436v21.6564H168z" fill="#C6DFED"/><rect fill="#C6DFED" height="24" width="144" x="24" y="168.0031"/><path d="M103.9903,115.2139c-0.9532-1.4024-2.086-2.4588-3.4004-3.16c-1.3148-0.7032-2.7424-1.0548-4.2832-1.0548   h-3.8772v33.8632h3.8772c1.5408,0,2.9684-0.3512,4.2832-1.0544c1.3144-0.7012,2.4472-1.758,3.4004-3.1604   c0.9512-1.404,1.6892-3.16,2.2088-5.2732c0.5216-2.1076,0.7832-4.5628,0.7832-7.3752c0-2.8552-0.2616-5.3476-0.7832-7.4804   C105.6795,118.3859,104.9415,116.6203,103.9903,115.2139z" fill="#FD5A5A"/><path d="M191.9491,87.7571c-0.0236-0.3692-0.0956-0.7228-0.2128-1.0588c-0.0448-0.1268-0.0763-0.2536-0.1328-0.3748   c-0.1972-0.422-0.4472-0.8164-0.7715-1.1408c-0.0021-0.004-0.004-0.0076-0.004-0.0076c-0.7245-0.7248-1.7245-1.172-2.828-1.172h-20   H24H4c-1.1037,0-2.1037,0.4472-2.8261,1.172c0,0-0.004,0.0036-0.0059,0.0076c-0.3245,0.3244-0.5745,0.7188-0.7717,1.1408   c-0.0563,0.1212-0.088,0.248-0.1328,0.3748c-0.1172,0.336-0.1892,0.6896-0.2128,1.0588C0.0447,87.8431,0,87.9151,0,88.0031v76   c0,2.2088,1.7911,4,4,4h20h144h20c2.2087,0,4-1.7912,4-4v-76C192,87.9151,191.9571,87.8431,191.9491,87.7571z M50.5427,152.0031   v-48.1444h13.3264c1.5408,0,3.1288,0.2284,4.7616,0.6796c1.6308,0.4532,3.094,1.2364,4.3848,2.3436   c1.2928,1.1132,2.3576,2.5764,3.1972,4.3888c0.838,1.8124,1.258,4.08,1.258,6.8008c0,2.4472-0.3752,4.588-1.1232,6.4236   c-0.748,1.84-1.7344,3.3672-2.9568,4.592c-1.2248,1.2244-2.6292,2.1308-4.2168,2.7208c-1.5859,0.586-3.2188,0.8828-4.8968,0.8828   h-5.7108v19.3124H50.5427z M84.2011,152.0031v-48.1444h12.1056c6.164,0,10.8456,2.1208,14.0408,6.3552   c3.1972,4.2404,4.7948,10.168,4.7948,17.7852c0,7.6172-1.5976,13.5196-4.7948,17.7148c-3.1952,4.1936-7.8984,6.2892-14.1092,6.2892   H84.2011z M144.4491,111.2023h-13.3944v13.1252h12.3748v7.0036h-12.3084v20.672h-8.2268v-48.1444h21.5548V111.2023z" fill="#FD5A5A"/><path d="M67.8827,124.0227c1.2228-1.34,1.836-3.2988,1.836-5.8828c0-2.586-0.6132-4.4648-1.836-5.6448   c-1.2244-1.1796-2.7892-1.7692-4.6932-1.7692h-4.6232v15.3008h4.6232C65.0935,126.0267,66.6583,125.3587,67.8827,124.0227z" fill="#FD5A5A"/><path d="M126.4687,0.3079C124.9747,0.9271,124,2.3859,124,4.0031v36c0,2.2088,1.7911,4,4,4h36   c1.6171,0,3.076-0.9748,3.6951-2.4688c0.6192-1.496,0.2776-3.2148-0.8671-4.3592l-36-36   C129.6815,0.0283,127.9607-0.3173,126.4687,0.3079z" fill="#A9C7D8"/><polygon fill="#FFE9E1" points="122.8943,152.0031 131.1211,152.0031 131.1211,131.3311 143.4295,131.3311 143.4295,124.3275    131.0547,124.3275 131.0547,111.2023 144.4491,111.2023 144.4491,103.8587 122.8943,103.8587  "/><path d="M110.3475,145.7139c3.1972-4.1952,4.7948-10.0976,4.7948-17.7148c0-7.6172-1.5976-13.5448-4.7948-17.7852   c-3.1952-4.2344-7.8768-6.3552-14.0408-6.3552H84.2011v48.1444h12.0372C102.4491,152.0031,107.1523,149.9075,110.3475,145.7139z    M106.1991,135.3743c-0.5196,2.1132-1.2576,3.8692-2.2088,5.2732c-0.9532,1.4024-2.086,2.4592-3.4004,3.1604   c-1.3148,0.7032-2.7424,1.0544-4.2832,1.0544h-3.8772v-33.8632h3.8772c1.5408,0,2.9684,0.3516,4.2832,1.0548   c1.3144,0.7012,2.4472,1.7576,3.4004,3.16c0.9512,1.4064,1.6892,3.172,2.2088,5.3048c0.5216,2.1328,0.7832,4.6252,0.7832,7.4804   C106.9823,130.8115,106.7207,133.2667,106.1991,135.3743z" fill="#FFE9E1"/><path d="M64.2771,132.6907c1.678,0,3.3109-0.2968,4.8968-0.8828c1.5876-0.59,2.992-1.4964,4.2168-2.7208   c1.2224-1.2248,2.2088-2.752,2.9568-4.592c0.748-1.8356,1.1232-3.9764,1.1232-6.4236c0-2.7208-0.42-4.9884-1.258-6.8008   c-0.8396-1.8124-1.9044-3.2756-3.1972-4.3888c-1.2908-1.1072-2.754-1.8904-4.3848-2.3436   c-1.6328-0.4512-3.2208-0.6796-4.7616-0.6796H50.5427v48.1444h8.0236v-19.3124H64.2771z M58.5663,110.7259h4.6232   c1.904,0,3.4688,0.5896,4.6932,1.7692c1.2228,1.18,1.836,3.0588,1.836,5.6448c0,2.584-0.6132,4.5428-1.836,5.8828   c-1.2244,1.336-2.7892,2.004-4.6932,2.004h-4.6232V110.7259z" fill="#FFE9E1"/></g></svg>