<?xml version="1.0" ?><svg enable-background="new 0 0 192 192" id="dll" version="1.1" viewBox="0 0 192 192" xml:space="preserve" xmlns="http://www.w3.org/2000/svg" xmlns:xlink="http://www.w3.org/1999/xlink"><g><path d="M191.7383,86.6952c0.1172,0.336,0.1912,0.6916,0.2148,1.0628   C191.9295,87.3924,191.8591,87.0412,191.7383,86.6952z" fill="#4A8F9E"/><path d="M188,84c1.1015,0,2.1015,0.4472,2.8243,1.168L168,62.3436V84H188z" fill="#4A8F9E"/><path d="M190.84,85.1896c0.32,0.322,0.5699,0.7128,0.7615,1.1308C191.4139,85.91,191.172,85.5236,190.84,85.1896z" fill="#4A8F9E"/><path d="M0.3983,86.3204c0.1952-0.418,0.4417-0.8088,0.7617-1.1308C0.828,85.5236,0.5899,85.91,0.3983,86.3204z" fill="#4A8F9E"/><path d="M24,84V62.3436L1.1755,85.168C1.8983,84.4472,2.8943,84,4,84H24z" fill="#4A8F9E"/><path d="M0.0467,87.758c0.0236-0.3712,0.0976-0.7268,0.2148-1.0628C0.1407,87.0392,0.0703,87.3908,0.0467,87.758z" fill="#4A8F9E"/><path d="M168,84V62.3436v-24l-1.172-1.1716c1.1447,1.1444,1.4883,2.8632,0.8671,4.3592   C167.0779,43.0252,165.6171,44,164,44h-36c-2.2109,0-4-1.7912-4-4V4c0-1.6172,0.9727-3.076,2.4687-3.6952   c1.5-0.6152,3.2148-0.2756,4.3593,0.8672L129.6563,0H24v62.3436V84H168z" fill="#C6DFED"/><rect fill="#C6DFED" height="24" width="144" x="24" y="168"/><path d="M74.5467,115.2108c-0.9532-1.4024-2.086-2.4588-3.4024-3.16c-1.3123-0.7032-2.742-1.0548-4.2812-1.0548   h-3.8788v33.8632h3.8788c1.5392,0,2.9689-0.3512,4.2812-1.0544c1.3164-0.7012,2.4492-1.758,3.4024-3.1604   c0.9533-1.404,1.6876-3.16,2.2112-5.2732c0.5192-2.1076,0.7812-4.5628,0.7812-7.3752c0-2.8552-0.262-5.3476-0.7812-7.4804   C76.2343,118.3828,75.5,116.6172,74.5467,115.2108z" fill="#F8A131"/><path d="M191.9531,87.758c-0.0236-0.3712-0.0976-0.7268-0.2148-1.0628c-0.0468-0.1288-0.0783-0.2536-0.1368-0.3748   c-0.1916-0.418-0.4415-0.8088-0.7615-1.1308c-0.004-0.006-0.008-0.014-0.0157-0.0216C190.1015,84.4472,189.1015,84,188,84h-20H24H4   c-1.1057,0-2.1017,0.4472-2.8245,1.168C1.168,85.1756,1.164,85.1836,1.16,85.1896c-0.32,0.322-0.5665,0.7128-0.7617,1.1308   c-0.0583,0.1212-0.09,0.246-0.1368,0.3748c-0.1172,0.336-0.1912,0.6916-0.2148,1.0628C0.0427,87.8436,0,87.914,0,88v76   c0,2.2088,1.7891,4,4,4h20h144h20c2.2107,0,4-1.7912,4-4V88C192,87.914,191.9571,87.8436,191.9531,87.758z M54.7579,152v-48.1444   h12.1052c6.164,0,10.844,2.1208,14.0392,6.3552c3.1992,4.2404,4.7968,10.168,4.7968,17.7852s-1.5976,13.5196-4.7968,17.7148   C77.7071,149.9044,73.004,152,66.7927,152H54.7579z M114.9375,144.4512V152H93.4491v-48.1444h8.2304v40.5956H114.9375z    M141.7303,152h-21.4884v-48.1444h8.2268v40.5956h13.2616V152z" fill="#F8A131"/><path d="M126.4687,0.3048C124.9727,0.924,124,2.3828,124,4v36c0,2.2088,1.7891,4,4,4h36   c1.6171,0,3.0779-0.9748,3.6951-2.4688c0.6212-1.496,0.2776-3.2148-0.8671-4.3592l-36-36   C129.6835,0.0292,127.9687-0.3104,126.4687,0.3048z" fill="#A9C7D8"/><polygon fill="#FFE9E1" points="128.4687,103.8556 120.2419,103.8556 120.2419,152 141.7303,152 141.7303,144.4512    128.4687,144.4512  "/><path d="M80.9023,145.7108c3.1992-4.1952,4.7968-10.0976,4.7968-17.7148s-1.5976-13.5448-4.7968-17.7852   c-3.1952-4.2344-7.8752-6.3552-14.0392-6.3552H54.7579V152h12.0348C73.004,152,77.7071,149.9044,80.9023,145.7108z    M76.7579,135.3712c-0.5236,2.1132-1.2579,3.8692-2.2112,5.2732c-0.9532,1.4024-2.086,2.4592-3.4024,3.1604   c-1.3123,0.7032-2.742,1.0544-4.2812,1.0544h-3.8788V110.996h3.8788c1.5392,0,2.9689,0.3516,4.2812,1.0548   c1.3164,0.7012,2.4492,1.7576,3.4024,3.16c0.9533,1.4064,1.6876,3.172,2.2112,5.3048c0.5192,2.1328,0.7812,4.6252,0.7812,7.4804   C77.5391,130.8084,77.2771,133.2636,76.7579,135.3712z" fill="#FFE9E1"/><polygon fill="#FFE9E1" points="93.4491,103.8556 93.4491,152 114.9375,152 114.9375,144.4512 101.6795,144.4512    101.6795,103.8556  "/></g></svg>