<?xml version="1.0" ?><svg enable-background="new 0 0 156.0008 212.0027" id="servicemark" version="1.1" viewBox="0 0 156.0008 212.0027" xml:space="preserve" xmlns="http://www.w3.org/2000/svg" xmlns:xlink="http://www.w3.org/1999/xlink"><g><path d="M154.828,40.2994L115.6523,1.1706c-0.75-0.746-1.7696-1.168-2.828-1.168H4c-2.2109,0-4,1.7892-4,4v204   c0,2.2108,1.7891,4,4,4h148c2.2107,0,4-1.7892,4-4V43.1315C156,42.069,155.5779,41.0534,154.828,40.2994z M78,172.0027   c-29.7773,0-54-24.2228-54-54s24.2227-54,54-54c29.7771,0,54,24.2228,54,54S107.7771,172.0027,78,172.0027z M155.6951,45.5338   c-0.6172,1.496-2.078,2.4688-3.6951,2.4688h-40c-2.2109,0-4-1.7892-4-4v-40c0-1.6172,0.9727-3.078,2.4687-3.6952   c1.496-0.6252,3.2148-0.2776,4.3593,0.8672l40,40C155.9727,42.319,156.3163,44.0378,155.6951,45.5338z" fill="#D4D4E2"/><path d="M78,64.0026c-29.7773,0-54,24.2228-54,54s24.2227,54,54,54c29.7771,0,54-24.2228,54-54   S107.7771,64.0026,78,64.0026z M78,164.0027c-25.3633,0-46-20.6368-46-46s20.6367-46,46-46c25.3631,0,46,20.6368,46,46   S103.3631,164.0027,78,164.0027z" fill="#3BABB7"/><path d="M78,72.0026c-25.3633,0-46,20.6368-46,46s20.6367,46,46,46c25.3631,0,46-20.6368,46-46   S103.3631,72.0026,78,72.0026z M72.0311,131.5262c-1.0936,1.7184-2.6404,2.996-4.6404,3.832s-4.4924,1.2536-7.4768,1.2536   c-4.3436,0-7.6796-1.0036-10.0076-3.0116c-2.3284-2.0076-3.7188-4.9336-4.172-8.7772l6.75-0.6564   c0.4064,2.2656,1.2304,3.9296,2.4728,4.9924c1.242,1.0624,2.918,1.5936,5.0272,1.5936c2.2344,0,3.918-0.4728,5.0508-1.418   c1.1329-0.9452,1.6992-2.0508,1.6992-3.3164c0-0.8124-0.2383-1.504-0.7148-2.074c-0.4768-0.5704-1.3088-1.0668-2.496-1.4884   c-0.8128-0.2812-2.6644-0.7812-5.5548-1.5c-3.7188-0.922-6.328-2.0548-7.828-3.3984c-2.1096-1.8908-3.1644-4.1956-3.1644-6.914   c0-1.75,0.4964-3.3868,1.4884-4.9104c0.9924-1.5232,2.422-2.6836,4.2892-3.4804c1.8672-0.7968,4.1212-1.1952,6.7616-1.1952   c4.3125,0,7.5588,0.9452,9.7384,2.836c2.1796,1.8904,3.324,4.414,3.4336,7.57l-6.9376,0.3048   c-0.2968-1.7656-0.9336-3.0352-1.9099-3.8084c-0.9769-0.7736-2.4417-1.1604-4.3949-1.1604c-2.0156,0-3.5936,0.414-4.7344,1.2424   c-0.7344,0.5312-1.1016,1.242-1.1016,2.1328c0,0.8124,0.344,1.5076,1.0316,2.086c0.8748,0.734,3,1.5,6.3748,2.2968   c3.3752,0.7968,5.8712,1.6208,7.4885,2.4724c1.6171,0.8516,2.8827,2.0156,3.7967,3.4924c0.914,1.4764,1.3713,3.3008,1.3713,5.4724   C73.672,127.9634,73.1251,129.8074,72.0311,131.5262z M112.6015,136.0027h-6.4452v-27.0468l-6.8203,27.0468h-6.6797   l-6.7972-27.0468v27.0468h-6.4452v-34.3592h10.3828l6.2344,23.4372l6.164-23.4372h10.4064V136.0027z" fill="#DBEEF7"/><path d="M68.504,117.0298c-1.6173-0.8516-4.1133-1.6756-7.4885-2.4724c-3.3748-0.7968-5.5-1.5628-6.3748-2.2968   c-0.6876-0.5784-1.0316-1.2736-1.0316-2.086c0-0.8908,0.3672-1.6016,1.1016-2.1328c1.1408-0.8284,2.7188-1.2424,4.7344-1.2424   c1.9532,0,3.418,0.3868,4.3949,1.1604c0.9763,0.7732,1.6131,2.0428,1.9099,3.8084l6.9376-0.3048   c-0.1096-3.156-1.254-5.6796-3.4336-7.57c-2.1796-1.8908-5.4259-2.836-9.7384-2.836c-2.6404,0-4.8944,0.3984-6.7616,1.1952   c-1.8672,0.7968-3.2968,1.9572-4.2892,3.4804c-0.992,1.5236-1.4884,3.1604-1.4884,4.9104c0,2.7184,1.0548,5.0232,3.1644,6.914   c1.5,1.3436,4.1092,2.4764,7.828,3.3984c2.8904,0.7188,4.742,1.2188,5.5548,1.5c1.1872,0.4216,2.0192,0.918,2.496,1.4884   c0.4765,0.57,0.7148,1.2616,0.7148,2.074c0,1.2656-0.5663,2.3712-1.6992,3.3164c-1.1328,0.9452-2.8164,1.418-5.0508,1.418   c-2.1092,0-3.7852-0.5312-5.0272-1.5936c-1.2424-1.0628-2.0664-2.7268-2.4728-4.9924l-6.75,0.6564   c0.4532,3.8436,1.8436,6.7696,4.172,8.7772c2.328,2.008,5.664,3.0116,10.0076,3.0116c2.9844,0,5.4768-0.4176,7.4768-1.2536   s3.5468-2.1136,4.6404-3.832c1.094-1.7188,1.6409-3.5628,1.6409-5.5316c0-2.1716-0.4573-3.996-1.3713-5.4724   C71.3867,119.0454,70.1211,117.8814,68.504,117.0298z" fill="#5DD4DC"/><polygon fill="#5DD4DC" points="96.0311,125.0807 89.7967,101.6434 79.4139,101.6434 79.4139,136.0027 85.8591,136.0027    85.8591,108.9558 92.6563,136.0027 99.336,136.0027 106.1563,108.9558 106.1563,136.0027 112.6015,136.0027 112.6015,101.6434    102.1951,101.6434  "/><path d="M114.828,1.1746c-1.1445-1.1448-2.8633-1.4924-4.3593-0.8672C108.9727,0.9246,108,2.3854,108,4.0026v40   c0,2.2108,1.7891,4,4,4h40c1.6171,0,3.0779-0.9728,3.6951-2.4688c0.6212-1.496,0.2776-3.2148-0.8671-4.3592L114.828,1.1746z" fill="#A9C7D8"/></g></svg>