<?xml version="1.0" ?><svg enable-background="new 0 0 192 192.0022" id="rar" version="1.1" viewBox="0 0 192 192.0022" xml:space="preserve" xmlns="http://www.w3.org/2000/svg" xmlns:xlink="http://www.w3.org/1999/xlink"><g><path d="M191.7363,86.6994c0.1172,0.334,0.1892,0.6876,0.2128,1.0568   C191.9275,87.393,191.8555,87.0414,191.7363,86.6994z" fill="#4A8F9E"/><path d="M188,84.0022c1.1035,0,2.1035,0.4472,2.8259,1.172L168,62.3458v21.6564H188z" fill="#4A8F9E"/><path d="M190.832,85.1818c0.3243,0.3244,0.5743,0.7188,0.7715,1.1408   C191.4099,85.9086,191.1659,85.5158,190.832,85.1818z" fill="#4A8F9E"/><path d="M0.0507,87.7562c0.0236-0.3692,0.0956-0.7228,0.2128-1.0568C0.1443,87.0414,0.0723,87.393,0.0507,87.7562z" fill="#4A8F9E"/><path d="M0.3963,86.3226c0.1972-0.422,0.4472-0.8164,0.7717-1.1408C0.8339,85.5158,0.5899,85.9086,0.3963,86.3226z" fill="#4A8F9E"/><path d="M24,84.0022V62.3458L1.1739,85.1742c0.7224-0.7248,1.7224-1.172,2.8261-1.172H24z" fill="#4A8F9E"/><path d="M168,84.0022V62.3458v-24l-1.172-1.1716c1.1447,1.1444,1.4863,2.8632,0.8671,4.3592   c-0.6191,1.494-2.078,2.4688-3.6951,2.4688h-36c-2.2089,0-4-1.7912-4-4v-36c0-1.6172,0.9747-3.076,2.4687-3.6952   c1.492-0.6232,3.2128-0.2796,4.3593,0.8672l-1.1717-1.172H24v62.3436v21.6564H168z" fill="#C6DFED"/><rect fill="#C6DFED" height="24" width="144" x="24" y="168.0022"/><path d="M65.9783,112.1546c-0.658-0.5448-1.3943-0.9296-2.2108-1.1564c-0.8164-0.2284-1.6308-0.3396-2.4472-0.3396   h-4.6252v14.824h4.6252c1.994,0,3.6368-0.6248,4.9296-1.8728c1.2928-1.2444,1.9376-3.1156,1.9376-5.6076   c0-1.4532-0.2032-2.6524-0.6115-3.6056C67.168,113.4474,66.6347,112.6994,65.9783,112.1546z" fill="#FF427A"/><path d="M135.2695,112.1546c-0.6564-0.5448-1.3928-0.9296-2.2092-1.1564   c-0.8163-0.2284-1.6328-0.3396-2.4492-0.3396h-4.6228v14.824h4.6228c1.9964,0,3.6388-0.6248,4.9316-1.8728   c1.2912-1.2444,1.9376-3.1156,1.9376-5.6076c0-1.4532-0.2052-2.6524-0.6132-3.6056   C136.4607,113.4474,135.9275,112.6994,135.2695,112.1546z" fill="#FF427A"/><polygon fill="#FF427A" points="96.0683,111.5414 95.7967,111.5414 90.5603,135.4106 101.168,135.4106  "/><path d="M191.9491,87.7562c-0.0236-0.3692-0.0956-0.7228-0.2128-1.0568c-0.0448-0.1288-0.0763-0.2556-0.1328-0.3768   c-0.1972-0.422-0.4472-0.8164-0.7715-1.1408c-0.0021-0.004-0.004-0.0076-0.004-0.0076c-0.7245-0.7248-1.7245-1.172-2.828-1.172h-20   H24H4c-1.1037,0-2.1037,0.4472-2.8261,1.172c0,0-0.004,0.0036-0.0059,0.0076c-0.3245,0.3244-0.5745,0.7188-0.7717,1.1408   c-0.0563,0.1212-0.088,0.248-0.1328,0.3768c-0.1172,0.334-0.1892,0.6876-0.2128,1.0568C0.0447,87.8422,0,87.9142,0,88.0022v76   c0,2.2088,1.7911,4,4,4h20h144h20c2.2087,0,4-1.7912,4-4v-76C192,87.9142,191.9571,87.8422,191.9491,87.7562z M77.3007,152.0022   h-8.5684L61.252,131.467h-4.5569v20.5352h-7.8868v-48.1444h13.7364c1.9944,0,3.8304,0.2616,5.508,0.7812   c1.6756,0.5232,3.1153,1.3516,4.3164,2.4844c1.2012,1.1308,2.1424,2.5584,2.8224,4.2832c0.6796,1.7244,1.0212,3.7832,1.0212,6.1872   c0,1.8596-0.238,3.5-0.7148,4.928c-0.4764,1.4316-1.076,2.6444-1.8028,3.6404c-0.7244,0.9964-1.5292,1.8008-2.414,2.4104   c-0.8828,0.6172-1.756,1.0332-2.6171,1.2616L77.3007,152.0022z M78.9315,152.0022l11.9688-48.1444h10.4044l11.7636,48.1444h-8.5   l-2.3808-10.1992H89.5391l-2.4476,10.1992H78.9315z M138.0235,152.0022l-7.4788-20.5352h-4.5564v20.5352h-7.8888v-48.1444h13.7365   c1.9939,0,3.8299,0.2616,5.5075,0.7812c1.678,0.5232,3.1172,1.3516,4.3184,2.4844c1.2012,1.1308,2.1428,2.5584,2.8224,4.2832   c0.6797,1.7244,1.0197,3.7832,1.0197,6.1872c0,1.8596-0.2385,3.5-0.7149,4.928c-0.4748,1.4316-1.0764,2.6444-1.8008,3.6404   c-0.7268,0.9964-1.5312,1.8008-2.414,2.4104c-0.8848,0.6172-1.758,1.0332-2.6172,1.2616l8.6344,22.168H138.0235z" fill="#FF427A"/><path d="M126.4687,0.307C124.9747,0.9262,124,2.385,124,4.0022v36c0,2.2088,1.7911,4,4,4h36   c1.6171,0,3.076-0.9748,3.6951-2.4688c0.6192-1.496,0.2776-3.2148-0.8671-4.3592l-36-36   C129.6815,0.0274,127.9607-0.3162,126.4687,0.307z" fill="#A9C7D8"/><path d="M140.5743,128.5726c0.8828-0.6096,1.6872-1.414,2.414-2.4104c0.7244-0.996,1.326-2.2088,1.8008-3.6404   c0.4764-1.428,0.7149-3.0684,0.7149-4.928c0-2.404-0.34-4.4628-1.0197-6.1872c-0.6796-1.7248-1.6212-3.1524-2.8224-4.2832   c-1.2012-1.1328-2.6404-1.9612-4.3184-2.4844c-1.6776-0.5196-3.5136-0.7812-5.5075-0.7812h-13.7365v48.1444h7.8888V131.467h4.5564   l7.4788,20.5352h8.568l-8.6344-22.168C138.8163,129.6058,139.6895,129.1898,140.5743,128.5726z M135.5427,123.6098   c-1.2928,1.248-2.9352,1.8728-4.9316,1.8728h-4.6228v-14.824h4.6228c0.8164,0,1.6329,0.1112,2.4492,0.3396   c0.8164,0.2268,1.5528,0.6116,2.2092,1.1564c0.658,0.5448,1.1912,1.2928,1.5976,2.242c0.408,0.9532,0.6132,2.1524,0.6132,3.6056   C137.4803,120.4942,136.8339,122.3654,135.5427,123.6098z" fill="#FFE9E1"/><path d="M73.6951,126.1622c0.7268-0.996,1.3264-2.2088,1.8028-3.6404c0.4768-1.428,0.7148-3.0684,0.7148-4.928   c0-2.404-0.3416-4.4628-1.0212-6.1872c-0.68-1.7248-1.6212-3.1524-2.8224-4.2832c-1.2011-1.1328-2.6408-1.9612-4.3164-2.4844   c-1.6776-0.5196-3.5136-0.7812-5.508-0.7812H48.8083v48.1444h7.8868V131.467h4.5569l7.4803,20.5352h8.5684l-8.6367-22.168   c0.8611-0.2284,1.7343-0.6444,2.6171-1.2616C72.1659,127.963,72.9707,127.1586,73.6951,126.1622z M66.2499,123.6098   c-1.2928,1.248-2.9356,1.8728-4.9296,1.8728h-4.6252v-14.824h4.6252c0.8164,0,1.6308,0.1112,2.4472,0.3396   c0.8165,0.2268,1.5528,0.6116,2.2108,1.1564c0.6564,0.5448,1.1897,1.2928,1.5977,2.242c0.4083,0.9532,0.6115,2.1524,0.6115,3.6056   C68.1875,120.4942,67.5427,122.3654,66.2499,123.6098z" fill="#FFE9E1"/><path d="M102.1875,141.803l2.3808,10.1992h8.5l-11.7636-48.1444H90.9003l-11.9688,48.1444h8.16l2.4476-10.1992   H102.1875z M95.7967,111.5414h0.2716l5.0997,23.8692H90.5603L95.7967,111.5414z" fill="#FFE9E1"/></g></svg>