<?xml version="1.0" ?><svg enable-background="new 0 0 156 212.0003" id="invoice" version="1.1" viewBox="0 0 156 212.0003" xml:space="preserve" xmlns="http://www.w3.org/2000/svg" xmlns:xlink="http://www.w3.org/1999/xlink"><g><path d="M154.8259,40.3012L115.6503,1.1704c-0.75-0.7501-1.7656-1.1701-2.826-1.1701H4c-2.2089,0-4,1.7913-4,4v120   h24v8H0v16c0-2.2087,1.7911-4,4-4h148c2.2087,0,4,1.7913,4,4V43.1312C156,42.0688,155.5779,41.0512,154.8259,40.3012z M56,132.0003   H32v-8h24V132.0003z M88,132.0003H64v-8h24V132.0003z M120,132.0003H96v-8h24V132.0003z M152,132.0003h-24v-8h24V132.0003z    M155.6951,45.5316c-0.6191,1.494-2.078,2.4687-3.6951,2.4687h-40c-2.2089,0-4-1.7911-4-4v-40c0-1.6171,0.9747-3.076,2.4687-3.6951   c1.496-0.6192,3.2108-0.2796,4.3593,0.8671l40,40C155.9727,42.3168,156.3143,44.0356,155.6951,45.5316z" fill="#FFE9E1"/><path d="M152,144.0003H4c-2.2089,0-4,1.7913-4,4v60c0,2.2089,1.7911,4,4,4h148c2.2087,0,4-1.7911,4-4v-60   C156,145.7916,154.2087,144.0003,152,144.0003z" fill="#E1AD99"/><rect fill="#F8A131" height="8" width="24" x="96" y="124.0003"/><rect fill="#F8A131" height="8" width="24" x="128" y="124.0003"/><rect fill="#F8A131" height="8" width="24" x="64" y="124.0003"/><rect fill="#F8A131" height="8" width="24" x="32" y="124.0003"/><rect fill="#F8A131" height="8" width="24" y="124.0003"/><path d="M114.828,1.1723c-1.1485-1.1467-2.8633-1.4863-4.3593-0.8671C108.9747,0.9243,108,2.3832,108,4.0003v40   c0,2.2089,1.7911,4,4,4h40c1.6171,0,3.076-0.9747,3.6951-2.4687c0.6192-1.496,0.2776-3.2148-0.8671-4.3593L114.828,1.1723z" fill="#FCD1C0"/></g></svg>