<?xml version="1.0" ?><svg enable-background="new 0 0 216 180" id="folderuser" version="1.1" viewBox="0 0 216 180" xml:space="preserve" xmlns="http://www.w3.org/2000/svg" xmlns:xlink="http://www.w3.org/1999/xlink"><g><path d="M4,24h90.1408L79.328,1.7812C78.586,0.668,77.338,0,76,0H4C1.7912,0,0,1.7892,0,4v24   C0,25.7892,1.7912,24,4,24z" fill="#99D59D"/><path d="M212,48H4c-2.2088,0-4-1.7892-4-4v116.0116C0,171.0352,8.9608,180,19.9764,180h176.0472   C207.0392,180,216,171.0352,216,160.0116V44C216,46.2108,214.2088,48,212,48z M168,156H48c-2.2088,0-4-1.7892-4-4   c0-13.0236,22.006-20.8984,47.5976-23.242C82.0428,119.8476,76,104.4804,76,92.8476C76,74.7344,90.3556,60,108,60   s32,14.7344,32,32.8476c0,11.6328-6.0428,27-15.5976,35.9104C149.994,131.1016,172,138.9764,172,152   C172,154.2108,170.2088,156,168,156z" fill="#49A25A"/><path d="M212,24H94.1408H4c-2.2088,0-4,1.7892-4,4v16c0,2.2108,1.7912,4,4,4h208c2.2088,0,4-1.7892,4-4V28   C216,25.7892,214.2088,24,212,24z" fill="#FD5A5A"/><path d="M124.4024,128.758C133.9572,119.8476,140,104.4804,140,92.8476C140,74.7344,125.6444,60,108,60   S76,74.7344,76,92.8476c0,11.6328,6.0428,27,15.5976,35.9104C96.9668,128.2656,102.4844,128,108,128   S119.0332,128.2656,124.4024,128.758z" fill="#FCD1C0"/><path d="M124.4024,128.758C119.0332,128.2656,113.5156,128,108,128s-11.0332,0.2656-16.4024,0.758   C66.006,131.1016,44,138.9764,44,152c0,2.2108,1.7912,4,4,4h120c2.2088,0,4-1.7892,4-4   C172,138.9764,149.994,131.1016,124.4024,128.758z" fill="#E1AD99"/></g></svg>