<?xml version="1.0" ?><svg enable-background="new 0 0 192 192.0031" id="jpeg" version="1.1" viewBox="0 0 192 192.0031" xml:space="preserve" xmlns="http://www.w3.org/2000/svg" xmlns:xlink="http://www.w3.org/1999/xlink"><g><path d="M191.7364,86.6983c0.1172,0.336,0.1892,0.6896,0.2128,1.0588   C191.9276,87.3939,191.8556,87.0423,191.7364,86.6983z" fill="#4A8F9E"/><path d="M190.832,85.1827c0.3244,0.3244,0.5744,0.7188,0.7716,1.1408   C191.41,85.9095,191.166,85.5167,190.832,85.1827z" fill="#4A8F9E"/><path d="M188,84.0031c1.1036,0,2.1036,0.4472,2.826,1.172L168,62.3467v21.6564H188z" fill="#4A8F9E"/><path d="M0.0508,87.7571c0.0236-0.3692,0.0956-0.7228,0.2128-1.0588C0.1444,87.0423,0.0724,87.3939,0.0508,87.7571z   " fill="#4A8F9E"/><path d="M0.3964,86.3235c0.1972-0.422,0.4472-0.8164,0.7716-1.1408C0.834,85.5167,0.59,85.9095,0.3964,86.3235z" fill="#4A8F9E"/><path d="M24,84.0031V62.3467L1.174,85.1751c0.7224-0.7248,1.7224-1.172,2.826-1.172H24z" fill="#4A8F9E"/><path d="M168,84.0031V62.3467v-24l-1.172-1.1716c1.1448,1.1444,1.4864,2.8632,0.8672,4.3592   c-0.6192,1.494-2.078,2.4688-3.6952,2.4688h-36c-2.2088,0-4-1.7912-4-4v-36c0-1.6172,0.9748-3.076,2.4688-3.6952   c1.494-0.6252,3.2128-0.2796,4.3592,0.8672l-1.1716-1.172H24v62.3436v21.6564H168z" fill="#C6DFED"/><rect fill="#C6DFED" height="24" width="144" x="24" y="168.0031"/><path d="M82.0604,124.0187c1.2228-1.336,1.836-3.2948,1.836-5.8788c0-2.586-0.6132-4.4648-1.836-5.6448   c-1.2244-1.1796-2.7888-1.7692-4.6932-1.7692H72.744v15.3008h4.6232C79.2716,126.0267,80.836,125.3587,82.0604,124.0187z" fill="#3BABB7"/><path d="M191.9492,87.7571c-0.0236-0.3692-0.0956-0.7228-0.2128-1.0588c-0.0448-0.1268-0.0764-0.2536-0.1328-0.3748   c-0.1972-0.422-0.4472-0.8164-0.7716-1.1408c-0.002-0.004-0.002-0.0076-0.002-0.0076c-0.7264-0.7248-1.7264-1.172-2.83-1.172h-20   H24H4c-1.1036,0-2.1036,0.4472-2.826,1.172c0,0-0.004,0.0036-0.006,0.0076c-0.3244,0.3244-0.5744,0.7188-0.7716,1.1408   c-0.0564,0.1212-0.088,0.248-0.1328,0.3748c-0.1172,0.336-0.1892,0.6896-0.2128,1.0588C0.0448,87.8431,0,87.9151,0,88.0031v76   c0,2.2088,1.7912,4,4,4h20h144h20c2.2088,0,4-1.7912,4-4v-76C192,87.9151,191.9572,87.8431,191.9492,87.7571z M30.924,143.8431   l6.8008-2.924c0.2712,1.1796,0.8044,2.256,1.5976,3.2284c0.7928,0.9768,1.8476,1.4632,3.162,1.4632   c1.8592,0,3.1056-0.7484,3.7404-2.2444c0.6344-1.496,0.9508-3.5352,0.9508-6.1192v-33.3884h8.092v34.1364   c0,4.8048-1.008,8.5432-3.0256,11.2188c-2.0172,2.676-5.1796,4.012-9.486,4.012c-3.1272,0-5.7112-0.848-7.752-2.5508   C32.9648,148.9759,31.6036,146.6983,30.924,143.8431z M64.7208,152.0031v-48.1444h13.328c1.5412,0,3.1268,0.2284,4.7596,0.6796   c1.6312,0.4532,3.094,1.2364,4.3848,2.3436c1.2932,1.1132,2.3576,2.5764,3.1976,4.3888c0.8376,1.8124,1.2576,4.08,1.2576,6.8008   c0,2.4472-0.3748,4.588-1.1232,6.4236c-0.748,1.84-1.7324,3.3672-2.9568,4.592c-1.2248,1.2244-2.6288,2.1308-4.2168,2.7208   c-1.586,0.586-3.2188,0.8828-4.8944,0.8828H72.744v19.3124H64.7208z M118.916,123.8507v6.664h-12.7168v14.2112h14.416v7.2772   H98.3808v-48.1444h21.5548v7.2088h-13.7364v12.7832H118.916z M156.6564,149.0791c-1.4512,1.18-3.1856,2.1312-5.2032,2.8556   c-2.0156,0.7248-4.4296,1.088-7.2404,1.088c-2.8572,0-5.418-0.5996-7.6856-1.8048c-2.2656-1.1992-4.1816-2.91-5.746-5.1308   c-1.5624-2.2208-2.7636-4.8732-3.6036-7.9552c-0.8376-3.086-1.2576-6.504-1.2576-10.2696c0-3.6716,0.408-7.0468,1.2244-10.1308   s1.9944-5.744,3.5352-7.992c1.5412-2.2444,3.4004-3.9884,5.5764-5.2364c2.1756-1.244,4.6248-1.8672,7.3436-1.8672   c2.8576,0,5.326,0.508,7.412,1.5272c2.086,1.0236,3.7852,2.4592,5.0996,4.3204l-4.6912,5.7112   c-1.8124-2.6272-4.2616-3.9436-7.344-3.9436c-1.6776,0-3.1384,0.4748-4.3864,1.4276c-1.2464,0.9532-2.2776,2.2328-3.094,3.84   c-0.8164,1.6132-1.4276,3.4804-1.836,5.6132c-0.408,2.1308-0.6112,4.3752-0.6112,6.7304c0,2.4492,0.2032,4.7484,0.6112,6.9004   c0.4084,2.1564,1.0196,4.0372,1.836,5.6448c0.8164,1.6112,1.8476,2.8672,3.094,3.7752c1.248,0.9084,2.7324,1.3596,4.4548,1.3596   c1.088,0,2.0744-0.1232,2.9572-0.3752c0.8848-0.248,1.5976-0.576,2.1424-0.9844v-12.4432h-5.8476v-7.0724h13.26V149.0791z" fill="#3BABB7"/><path d="M126.4688,0.3079C124.9748,0.9271,124,2.3859,124,4.0031v36c0,2.2088,1.7912,4,4,4h36   c1.6172,0,3.076-0.9748,3.6952-2.4688c0.6192-1.496,0.2776-3.2148-0.8672-4.3592l-36-36   C129.6816,0.0283,127.9628-0.3173,126.4688,0.3079z" fill="#A9C7D8"/><path d="M143.3964,131.7395h5.8476v12.4432c-0.5448,0.4084-1.2576,0.7364-2.1424,0.9844   c-0.8828,0.252-1.8692,0.3752-2.9572,0.3752c-1.7224,0-3.2068-0.4512-4.4548-1.3596c-1.2464-0.908-2.2776-2.164-3.094-3.7752   c-0.8164-1.6076-1.4276-3.4884-1.836-5.6448c-0.408-2.152-0.6112-4.4512-0.6112-6.9004c0-2.3552,0.2032-4.5996,0.6112-6.7304   c0.4084-2.1328,1.0196-4,1.836-5.6132c0.8164-1.6072,1.8476-2.8868,3.094-3.84c1.248-0.9528,2.7088-1.4276,4.3864-1.4276   c3.0824,0,5.5316,1.3164,7.344,3.9436l4.6912-5.7112c-1.3144-1.8612-3.0136-3.2968-5.0996-4.3204   c-2.086-1.0192-4.5544-1.5272-7.412-1.5272c-2.7188,0-5.168,0.6232-7.3436,1.8672c-2.176,1.248-4.0352,2.992-5.5764,5.2364   c-1.5408,2.248-2.7188,4.908-3.5352,7.992s-1.2244,6.4592-1.2244,10.1308c0,3.7656,0.42,7.1836,1.2576,10.2696   c0.84,3.082,2.0412,5.7344,3.6036,7.9552c1.5644,2.2208,3.4804,3.9316,5.746,5.1308c2.2676,1.2052,4.8284,1.8048,7.6856,1.8048   c2.8108,0,5.2248-0.3632,7.2404-1.088c2.0176-0.7244,3.752-1.6756,5.2032-2.8556v-24.412h-13.26V131.7395z" fill="#FFE9E1"/><polygon fill="#FFE9E1" points="119.9356,111.0675 119.9356,103.8587 98.3808,103.8587 98.3808,152.0031 120.6152,152.0031    120.6152,144.7259 106.1992,144.7259 106.1992,130.5147 118.916,130.5147 118.916,123.8507 106.1992,123.8507 106.1992,111.0675     "/><path d="M78.4572,132.6907c1.6756,0,3.3084-0.2968,4.8944-0.8828c1.588-0.59,2.992-1.4964,4.2168-2.7208   c1.2244-1.2248,2.2088-2.752,2.9568-4.592c0.7484-1.8356,1.1232-3.9764,1.1232-6.4236c0-2.7208-0.42-4.9884-1.2576-6.8008   c-0.84-1.8124-1.9044-3.2756-3.1976-4.3888c-1.2908-1.1072-2.7536-1.8904-4.3848-2.3436   c-1.6328-0.4512-3.2184-0.6796-4.7596-0.6796h-13.328v48.1444h8.0232v-19.3124H78.4572z M72.744,110.7259h4.6232   c1.9044,0,3.4688,0.5896,4.6932,1.7692c1.2228,1.18,1.836,3.0588,1.836,5.6448c0,2.584-0.6132,4.5428-1.836,5.8788   c-1.2244,1.34-2.7888,2.008-4.6932,2.008H72.744V110.7259z" fill="#FFE9E1"/><path d="M52.242,149.2139c2.0176-2.6756,3.0256-6.414,3.0256-11.2188v-34.1364h-8.092v33.3884   c0,2.584-0.3164,4.6232-0.9508,6.1192c-0.6348,1.496-1.8812,2.2444-3.7404,2.2444c-1.3144,0-2.3692-0.4864-3.162-1.4632   c-0.7932-0.9724-1.3264-2.0488-1.5976-3.2284l-6.8008,2.924c0.6796,2.8552,2.0408,5.1328,4.08,6.832   c2.0408,1.7028,4.6248,2.5508,7.752,2.5508C47.0624,153.2259,50.2248,151.8899,52.242,149.2139z" fill="#FFE9E1"/></g></svg>