<?xml version="1.0" ?><svg enable-background="new 0 0 192 192" id="mpg" version="1.1" viewBox="0 0 192 192" xml:space="preserve" xmlns="http://www.w3.org/2000/svg" xmlns:xlink="http://www.w3.org/1999/xlink"><g><path d="M24,84V62.3436L1.1755,85.168C1.8983,84.4472,2.8943,84,4,84H24z" fill="#4A8F9E"/><path d="M0.0467,87.758c0.0236-0.3712,0.0976-0.7268,0.2148-1.0628C0.1407,87.0392,0.0703,87.3908,0.0467,87.758z" fill="#4A8F9E"/><path d="M0.3983,86.3204c0.1952-0.418,0.4417-0.8068,0.7617-1.1308C0.828,85.5236,0.5899,85.91,0.3983,86.3204z" fill="#4A8F9E"/><path d="M188,84c1.1015,0,2.1015,0.4472,2.8243,1.168L168,62.3436V84H188z" fill="#4A8F9E"/><path d="M191.7383,86.6952c0.1172,0.336,0.1912,0.6916,0.2148,1.0628   C191.9295,87.3924,191.8591,87.0412,191.7383,86.6952z" fill="#4A8F9E"/><path d="M190.84,85.1896c0.32,0.324,0.5663,0.7128,0.7615,1.1308C191.4139,85.91,191.172,85.5236,190.84,85.1896z" fill="#4A8F9E"/><path d="M168,84V62.3436v-24l-1.172-1.1716c1.1447,1.1444,1.4883,2.8632,0.8671,4.3592   C167.0779,43.0252,165.6171,44,164,44h-36c-2.2109,0-4-1.7912-4-4V4c0-1.6172,0.9727-3.076,2.4687-3.6952   c1.5-0.6172,3.2148-0.2776,4.3593,0.8672L129.6563,0H24v62.3436V84H168z" fill="#C6DFED"/><rect fill="#C6DFED" height="24" width="144" x="24" y="168"/><path d="M191.9531,87.758c-0.0236-0.3712-0.0976-0.7268-0.2148-1.0628c-0.0468-0.1288-0.0783-0.2536-0.1368-0.3748   c-0.1952-0.418-0.4415-0.8068-0.7615-1.1308c-0.004-0.006-0.008-0.014-0.0157-0.0216C190.1015,84.4472,189.1015,84,188,84h-20H24H4   c-1.1057,0-2.1017,0.4472-2.8245,1.168C1.168,85.1756,1.164,85.1836,1.16,85.1896c-0.32,0.324-0.5665,0.7128-0.7617,1.1308   c-0.0583,0.1212-0.09,0.246-0.1368,0.3748c-0.1172,0.336-0.1912,0.6916-0.2148,1.0628C0.0427,87.8436,0,87.914,0,88v76   c0,2.2088,1.7891,4,4,4h20h144h20c2.2107,0,4-1.7912,4-4V88C192,87.914,191.9571,87.8436,191.9531,87.758z M73.0155,115.008   L63.3591,152h-6.3904l-9.4532-36.992h-0.2032L47.4491,152h-7.414v-48.1444h10.9492l9.246,35.2244h0.2737l9.0427-35.2244h11.4924   V152h-7.9532l0.1328-36.992H73.0155z M90.7655,152v-48.1444h13.328c1.5392,0,3.1252,0.2284,4.758,0.6796   c1.6328,0.4532,3.0936,1.2364,4.3868,2.3456c1.2928,1.1112,2.3552,2.5744,3.1952,4.3868c0.84,1.8124,1.258,4.08,1.258,6.8008   c0,2.4472-0.3752,4.588-1.1212,6.4236c-0.75,1.84-1.7343,3.3672-2.9572,4.592c-1.2264,1.2244-2.6288,2.1308-4.2188,2.7208   c-1.586,0.586-3.2188,0.8828-4.8943,0.8828h-5.7109V152H90.7655z M153.0507,149.076c-1.4492,1.18-3.1836,2.1312-5.1992,2.8556   c-2.0195,0.7248-4.4336,1.088-7.2424,1.088c-2.8552,0-5.4176-0.5996-7.6836-1.8048c-2.2692-1.1992-4.1836-2.91-5.746-5.1308   c-1.5664-2.2208-2.7656-4.8732-3.6052-7.9552c-0.84-3.086-1.258-6.5056-1.258-10.2696c0-3.6716,0.4064-7.0468,1.2228-10.1328   c0.8164-3.082,1.996-5.742,3.5388-7.99c1.5392-2.2444,3.3984-3.9884,5.5744-5.2364c2.1757-1.244,4.6248-1.8672,7.3437-1.8672   c2.8555,0,5.3283,0.508,7.4103,1.5272c2.0857,1.0236,3.7852,2.4592,5.1017,4.3204l-4.6917,5.7112   c-1.8123-2.6292-4.2616-3.9436-7.3436-3.9436c-1.68,0-3.1407,0.4748-4.3868,1.4276c-1.2459,0.9532-2.2776,2.2328-3.0939,3.84   c-0.8165,1.6132-1.4297,3.4804-1.8357,5.6132c-0.4064,2.1308-0.6136,4.3752-0.6136,6.7304c0,2.4492,0.2072,4.7484,0.6136,6.9004   c0.406,2.1564,1.0192,4.0372,1.8357,5.6448c0.8163,1.6112,1.848,2.8672,3.0939,3.7752c1.2461,0.9084,2.7304,1.3596,4.4532,1.3596   c1.0896,0,2.074-0.1232,2.9569-0.3752c0.8867-0.248,1.6015-0.576,2.1447-0.9844v-12.4432h-5.848v-7.0724h13.258V149.076z" fill="#FFDC82"/><path d="M108.1055,124.0156c1.2225-1.336,1.836-3.2948,1.836-5.8788c0-2.586-0.6135-4.4648-1.836-5.6448   c-1.2268-1.1796-2.7892-1.7692-4.6916-1.7692h-4.6248v15.3008h4.6248C105.3163,126.0236,106.8787,125.3556,108.1055,124.0156z" fill="#FFDC82"/><path d="M126.4687,0.3048C124.9727,0.924,124,2.3828,124,4v36c0,2.2088,1.7891,4,4,4h36   c1.6171,0,3.0779-0.9748,3.6951-2.4688c0.6212-1.496,0.2776-3.2148-0.8671-4.3592l-36-36   C129.6835,0.0272,127.9687-0.3124,126.4687,0.3048z" fill="#A9C7D8"/><path d="M104.5,132.6876c1.6755,0,3.3083-0.2968,4.8943-0.8828c1.59-0.59,2.9924-1.4964,4.2188-2.7208   c1.2229-1.2248,2.2072-2.752,2.9572-4.592c0.746-1.8356,1.1212-3.9764,1.1212-6.4236c0-2.7208-0.418-4.9884-1.258-6.8008   c-0.84-1.8124-1.9024-3.2756-3.1952-4.3868c-1.2932-1.1092-2.754-1.8924-4.3868-2.3456c-1.6328-0.4512-3.2188-0.6796-4.758-0.6796   h-13.328V152h8.0236v-19.3124H104.5z M98.7891,110.7228h4.6248c1.9024,0,3.4648,0.5896,4.6916,1.7692   c1.2225,1.18,1.836,3.0588,1.836,5.6448c0,2.584-0.6135,4.5428-1.836,5.8788c-1.2268,1.34-2.7892,2.008-4.6916,2.008h-4.6248   V110.7228z" fill="#4A8F9E"/><polygon fill="#4A8F9E" points="81.0391,152 81.0391,103.8556 69.5467,103.8556 60.504,139.08 60.2303,139.08 50.9843,103.8556    40.0351,103.8556 40.0351,152 47.4491,152 47.3123,115.008 47.5155,115.008 56.9687,152 63.3591,152 73.0155,115.008    73.2187,115.008 73.0859,152  "/><path d="M139.7927,131.7364h5.848v12.4432c-0.5432,0.4084-1.258,0.7364-2.1447,0.9844   c-0.8829,0.252-1.8673,0.3752-2.9569,0.3752c-1.7228,0-3.2071-0.4512-4.4532-1.3596c-1.2459-0.908-2.2776-2.164-3.0939-3.7752   c-0.8165-1.6076-1.4297-3.4884-1.8357-5.6448c-0.4064-2.152-0.6136-4.4512-0.6136-6.9004c0-2.3552,0.2072-4.5996,0.6136-6.7304   c0.406-2.1328,1.0192-4,1.8357-5.6132c0.8163-1.6072,1.848-2.8868,3.0939-3.84c1.2461-0.9528,2.7068-1.4276,4.3868-1.4276   c3.082,0,5.5313,1.3144,7.3436,3.9436l4.6917-5.7112c-1.3165-1.8612-3.016-3.2968-5.1017-4.3204   c-2.082-1.0192-4.5548-1.5272-7.4103-1.5272c-2.7189,0-5.168,0.6232-7.3437,1.8672c-2.176,1.248-4.0352,2.992-5.5744,5.2364   c-1.5428,2.248-2.7224,4.908-3.5388,7.99c-0.8164,3.086-1.2228,6.4612-1.2228,10.1328c0,3.764,0.418,7.1836,1.258,10.2696   c0.8396,3.082,2.0388,5.7344,3.6052,7.9552c1.5624,2.2208,3.4768,3.9316,5.746,5.1308c2.266,1.2052,4.8284,1.8048,7.6836,1.8048   c2.8088,0,5.2229-0.3632,7.2424-1.088c2.0156-0.7244,3.75-1.6756,5.1992-2.8556v-24.412h-13.258V131.7364z" fill="#4A8F9E"/></g></svg>