<?xml version="1.0" ?><svg enable-background="new 0 0 192 192" id="br" version="1.1" viewBox="0 0 192 192" xml:space="preserve" xmlns="http://www.w3.org/2000/svg" xmlns:xlink="http://www.w3.org/1999/xlink"><g><path d="M0.0467,87.758c0.0236-0.3712,0.0976-0.7268,0.2148-1.0628C0.1407,87.0392,0.0703,87.3908,0.0467,87.758z" fill="#4A8F9E"/><path d="M0.3983,86.3204c0.1952-0.418,0.4417-0.8068,0.7617-1.1308C0.828,85.5236,0.5899,85.91,0.3983,86.3204z" fill="#4A8F9E"/><path d="M24,84V62.3436L1.1755,85.168C1.8983,84.4472,2.8943,84,4,84H24z" fill="#4A8F9E"/><path d="M191.7383,86.6952c0.1172,0.336,0.1912,0.6916,0.2148,1.0628   C191.9295,87.3924,191.8591,87.0412,191.7383,86.6952z" fill="#4A8F9E"/><path d="M190.84,85.1896c0.32,0.324,0.5699,0.7128,0.7615,1.1308C191.4139,85.91,191.172,85.5236,190.84,85.1896z" fill="#4A8F9E"/><path d="M188,84c1.1015,0,2.1015,0.4472,2.8243,1.168L168,62.3436V84H188z" fill="#4A8F9E"/><path d="M168,84V62.3436v-24l-1.172-1.1716c1.1447,1.1444,1.4883,2.8632,0.8671,4.3592   C167.0779,43.0252,165.6171,44,164,44h-36c-2.2109,0-4-1.7912-4-4V4c0-1.6172,0.9727-3.076,2.4687-3.6952   c1.5-0.6172,3.2148-0.2776,4.3593,0.8672L129.6563,0H24v62.3436V84H168z" fill="#C6DFED"/><rect fill="#C6DFED" height="24" width="144" x="24" y="168"/><path d="M191.9531,87.758c-0.0236-0.3712-0.0976-0.7268-0.2148-1.0628c-0.0468-0.1288-0.0783-0.2536-0.1368-0.3748   c-0.1916-0.418-0.4415-0.8068-0.7615-1.1308c-0.004-0.006-0.008-0.014-0.0157-0.0216C190.1015,84.4472,189.1015,84,188,84h-20H24H4   c-1.1057,0-2.1017,0.4472-2.8245,1.168C1.168,85.1756,1.164,85.1836,1.16,85.1896c-0.32,0.324-0.5665,0.7128-0.7617,1.1308   c-0.0583,0.1212-0.09,0.246-0.1368,0.3748c-0.1172,0.336-0.1912,0.6916-0.2148,1.0628C0.0427,87.8436,0,87.914,0,88v76   c0,2.2088,1.7891,4,4,4h20h144h20c2.2107,0,4-1.7912,4-4V88C192,87.914,191.9571,87.8436,191.9531,87.758z M88.4179,127.9296   c0.9296,0.5432,1.7772,1.3028,2.5508,2.2776c0.7696,0.9724,1.4064,2.152,1.9024,3.5368c0.5,1.3792,0.75,2.9788,0.75,4.7912   c0,2.5408-0.422,4.6564-1.258,6.3592c-0.8396,1.7012-1.906,3.082-3.1991,4.1448c-1.2889,1.0684-2.7421,1.828-4.3517,2.2812   C83.2031,151.7716,81.6287,152,80.0899,152H65.8083v-48.1444h12.7852c1.4025,0,2.8985,0.168,4.4844,0.5076   c1.5901,0.344,3.0392,0.9532,4.3556,1.836c1.3124,0.8888,2.4025,2.1092,3.2616,3.672c0.8632,1.5684,1.2932,3.5976,1.2932,6.0896   c0,2.9904-0.6368,5.3476-1.9024,7.0724c-1.2696,1.7228-2.7459,2.922-4.4219,3.6036v0.1348   C86.5703,127,87.4883,127.3828,88.4179,127.9296z M121.0235,152l-7.4808-20.5352h-4.5544V152h-7.8868v-48.1444h13.7345   c1.996,0,3.832,0.2616,5.5075,0.7812c1.676,0.5232,3.1172,1.3516,4.3165,2.4844c1.2031,1.1308,2.1447,2.5584,2.8243,4.2832   c0.6797,1.7244,1.0197,3.7832,1.0197,6.1872c0,1.8596-0.2385,3.5-0.7149,4.928c-0.4768,1.4316-1.0744,2.6444-1.8008,3.6404   c-0.7268,0.9964-1.5312,1.8008-2.414,2.4104c-0.8828,0.6172-1.758,1.0332-2.6172,1.2616L129.5935,152H121.0235z" fill="#8BE5DD"/><path d="M118.2695,112.1524c-0.6564-0.5448-1.3944-0.9296-2.2112-1.1564   c-0.8164-0.2284-1.6288-0.3396-2.4452-0.3396h-4.6248v14.824h4.6248c1.9924,0,3.6368-0.6248,4.9296-1.8728   c1.2933-1.2444,1.9376-3.1156,1.9376-5.6076c0-1.4532-0.2032-2.6524-0.6132-3.6056   C119.4607,113.4452,118.9255,112.6972,118.2695,112.1524z" fill="#8BE5DD"/><path d="M80.4607,123.6756c0.7932-0.246,1.4964-0.6424,2.1096-1.1872c0.6132-0.5432,1.1092-1.248,1.496-2.1096   c0.3868-0.8592,0.578-1.9024,0.578-3.1268c0-1.2248-0.1912-2.256-0.578-3.0956c-0.3868-0.836-0.8828-1.5156-1.496-2.0392   c-0.6132-0.5216-1.3284-0.8944-2.1408-1.1212c-0.8164-0.2284-1.656-0.3396-2.5156-0.3396h-4.4884v13.3944h4.6212   C78.8631,124.0508,79.668,123.9296,80.4607,123.6756z" fill="#8BE5DD"/><path d="M83.3515,131.9044c-0.7264-0.6132-1.5195-1.0528-2.3788-1.3244c-0.8636-0.2716-1.7228-0.408-2.586-0.408   h-4.9612v15.0272h5.168c0.9964,0,1.926-0.1484,2.7852-0.4432c0.8632-0.2912,1.6213-0.7424,2.2776-1.3556   c0.66-0.6172,1.1797-1.3732,1.5664-2.2792c0.3828-0.9104,0.578-1.998,0.578-3.2656c0-1.4044-0.2264-2.596-0.6796-3.5684   C84.668,133.3124,84.0779,132.5196,83.3515,131.9044z" fill="#8BE5DD"/><path d="M126.4687,0.3048C124.9727,0.924,124,2.3828,124,4v36c0,2.2088,1.7891,4,4,4h36   c1.6171,0,3.0779-0.9748,3.6951-2.4688c0.6212-1.496,0.2776-3.2148-0.8671-4.3592l-36-36   C129.6835,0.0272,127.9687-0.3124,126.4687,0.3048z" fill="#A9C7D8"/><path d="M90.0859,123.0332c1.2656-1.7248,1.9024-4.082,1.9024-7.0724c0-2.492-0.43-4.5212-1.2932-6.0896   c-0.8591-1.5628-1.9492-2.7832-3.2616-3.672c-1.3164-0.8828-2.7655-1.492-4.3556-1.836c-1.5859-0.3396-3.0819-0.5076-4.4844-0.5076   H65.8083V152h14.2816c1.5388,0,3.1132-0.2284,4.7224-0.6796c1.6096-0.4532,3.0628-1.2128,4.3517-2.2812   c1.2931-1.0628,2.3595-2.4436,3.1991-4.1448c0.836-1.7028,1.258-3.8184,1.258-6.3592c0-1.8124-0.25-3.412-0.75-4.7912   c-0.496-1.3848-1.1328-2.5644-1.9024-3.5368c-0.7736-0.9748-1.6212-1.7344-2.5508-2.2776   c-0.9296-0.5468-1.8476-0.9296-2.7539-1.158v-0.1348C87.34,125.9552,88.8163,124.756,90.0859,123.0332z M73.4255,110.6564h4.4884   c0.8596,0,1.6992,0.1112,2.5156,0.3396c0.8124,0.2268,1.5276,0.5996,2.1408,1.1212c0.6132,0.5236,1.1092,1.2032,1.496,2.0392   c0.3868,0.8396,0.578,1.8708,0.578,3.0956c0,1.2244-0.1912,2.2676-0.578,3.1268c-0.3868,0.8616-0.8828,1.5664-1.496,2.1096   c-0.6132,0.5448-1.3164,0.9412-2.1096,1.1872c-0.7927,0.254-1.5976,0.3752-2.414,0.3752h-4.6212V110.6564z M85.8007,137.8556   c0,1.2676-0.1952,2.3552-0.578,3.2656c-0.3867,0.906-0.9064,1.662-1.5664,2.2792c-0.6563,0.6132-1.4144,1.0644-2.2776,1.3556   c-0.8592,0.2948-1.7888,0.4432-2.7852,0.4432h-5.168V130.172h4.9612c0.8632,0,1.7224,0.1364,2.586,0.408   c0.8593,0.2716,1.6524,0.7112,2.3788,1.3244c0.7264,0.6152,1.3165,1.408,1.7696,2.3828   C85.5743,135.2596,85.8007,136.4512,85.8007,137.8556z" fill="#4A8F9E"/><path d="M123.5743,128.5704c0.8828-0.6096,1.6872-1.414,2.414-2.4104c0.7264-0.996,1.324-2.2088,1.8008-3.6404   c0.4764-1.428,0.7149-3.0684,0.7149-4.928c0-2.404-0.34-4.4628-1.0197-6.1872c-0.6796-1.7248-1.6212-3.1524-2.8243-4.2832   c-1.1993-1.1328-2.6405-1.9612-4.3165-2.4844c-1.6755-0.5196-3.5115-0.7812-5.5075-0.7812h-13.7345V152h7.8868v-20.5352h4.5544   L121.0235,152h8.57l-8.6364-22.168C121.8163,129.6036,122.6915,129.1876,123.5743,128.5704z M118.5427,123.6076   c-1.2928,1.248-2.9372,1.8728-4.9296,1.8728h-4.6248v-14.824h4.6248c0.8164,0,1.6288,0.1112,2.4452,0.3396   c0.8168,0.2268,1.5548,0.6116,2.2112,1.1564c0.656,0.5448,1.1912,1.2928,1.5976,2.242c0.41,0.9532,0.6132,2.1524,0.6132,3.6056   C120.4803,120.492,119.836,122.3632,118.5427,123.6076z" fill="#4A8F9E"/></g></svg>