<?xml version="1.0" ?><svg enable-background="new 0 0 216 180" id="foldercut" version="1.1" viewBox="0 0 216 180" xml:space="preserve" xmlns="http://www.w3.org/2000/svg" xmlns:xlink="http://www.w3.org/1999/xlink"><g><path d="M4,24h90.1407L79.328,1.7812C78.5859,0.668,77.3379,0,76,0H4C1.7911,0,0,1.7892,0,4v24   C0,25.7892,1.7911,24,4,24z" fill="#FCC24C"/><path d="M196,48h-20h-4h-20h-4h-20h-4h-20h-4H80h-4H56h-4H32h-4H8H4v6.2892c2.2087,0,4,1.7888,4,4v4   c0,2.2108-1.7913,4-4,4v12c2.2087,0,4,1.7888,4,4v4c0,2.2108-1.7913,4-4,4v12c2.2087,0,4,1.7888,4,4v4c0,2.2108-1.7913,4-4,4v12   c2.2087,0,4,1.7888,4,4v4c0,2.2108-1.7913,4-4,4v12c2.2087,0,4,1.7888,4,4v4c0,2.1328-1.6757,3.832-3.7753,3.9528   c0.5836,4.1172,2.7204,7.7072,5.826,10.1996c1.0624-1.6488,3.1464-2.3596,4.9784-1.512c0.8964,0.4104,1.8516,0.7112,2.84,0.8868   C19.8887,172.1756,21.2147,174,21.0935,176h12.0568c0-2.2108,1.7912-4,4-4h4c2.2088,0,4,1.7892,4,4h12c0-2.2108,1.7912-4,4-4h4   c2.2088,0,4,1.7892,4,4h12c0-2.2108,1.7912-4,4-4h4c2.2088,0,4,1.7892,4,4h12c0-2.2108,1.7912-4,4-4h4c2.2088,0,4,1.7892,4,4h12   c0-2.2108,1.7912-4,4-4h4c2.2088,0,4,1.7892,4,4h12c0-2.2108,1.7912-4,4-4h4c2.2088,0,4,1.7892,4,4h12c0-2.2108,1.7912-4,4-4h4   c2.2088,0,4,1.7892,4,4h6.8732c1.7792,0,3.4628-0.3592,5.0624-0.8984c-0.8068-1.7772-0.2872-3.9024,1.4004-4.9924   c0.8476-0.5468,1.6212-1.1952,2.3008-1.9256c1.3729-1.4764,3.5644-1.6132,5.1716-0.504c1.26-2.2852,2.0413-4.8712,2.0413-7.668V156   c-2.2089,0-4-1.7892-4-4v-4c0-2.2108,1.7911-4,4-4v-12c-2.2089,0-4-1.7892-4-4v-4c0-2.2108,1.7911-4,4-4v-12   c-2.2089,0-4-1.7892-4-4v-4c0-2.2108,1.7911-4,4-4V84c-2.2089,0-4-1.7892-4-4v-4c0-2.2108,1.7911-4,4-4V60c-2.2089,0-4-1.7892-4-4   v-4c0-2.2108,1.7911-4,4-4h-12H196z" fill="#FFDC82"/><path d="M8,86.2892v-4c0-2.2112-1.7913-4-4-4c-2.2089,0-4,1.7888-4,4v4c0,2.2108,1.7911,4,4,4   C6.2087,90.2892,8,88.5,8,86.2892z" fill="#F8A131"/><path d="M8,134.2892v-4c0-2.2112-1.7913-4-4-4c-2.2089,0-4,1.7888-4,4v4c0,2.2108,1.7911,4,4,4   C6.2087,138.2892,8,136.5,8,134.2892z" fill="#F8A131"/><path d="M41.1503,172h-4c-2.2088,0-4,1.7892-4,4s1.7912,4,4,4h4c2.2088,0,4-1.7892,4-4S43.3591,172,41.1503,172z" fill="#F8A131"/><path d="M8,158.2892v-4c0-2.2112-1.7913-4-4-4c-2.2089,0-4,1.7888-4,4v4c0,2.2108,1.7911,4,4,4   c0.08,0,0.1463-0.0392,0.2247-0.0472C6.3243,162.1212,8,160.422,8,158.2892z" fill="#F8A131"/><path d="M8,110.2892v-4c0-2.2112-1.7913-4-4-4c-2.2089,0-4,1.7888-4,4v4c0,2.2108,1.7911,4,4,4   C6.2087,114.2892,8,112.5,8,110.2892z" fill="#F8A131"/><path d="M17.8691,171.8164c-0.9884-0.1756-1.9436-0.4764-2.84-0.8868c-1.832-0.8476-3.916-0.1368-4.9784,1.512   c-0.1016,0.156-0.248,0.2732-0.328,0.4492c-0.922,2.0076-0.0432,4.3828,1.9628,5.3044c1.5136,0.6992,3.1212,1.1992,4.7772,1.4964   c0.2384,0.0428,0.4748,0.0624,0.7072,0.0624c1.9024,0,3.588-1.3596,3.9336-3.2968c0.0272-0.1564-0.0195-0.3008-0.01-0.4572   C21.2147,174,19.8887,172.1756,17.8691,171.8164z" fill="#F8A131"/><path d="M185.1503,172h-4c-2.2088,0-4,1.7892-4,4s1.7912,4,4,4h4c2.2088,0,4-1.7892,4-4S187.3591,172,185.1503,172z   " fill="#F8A131"/><path d="M208,100v4c0,2.2108,1.7911,4,4,4c2.2087,0,4-1.7892,4-4v-4c0-2.2108-1.7913-4-4-4   C209.7911,96,208,97.7892,208,100z" fill="#F8A131"/><path d="M208,124v4c0,2.2108,1.7911,4,4,4c2.2087,0,4-1.7892,4-4v-4c0-2.2108-1.7913-4-4-4   C209.7911,120,208,121.7892,208,124z" fill="#F8A131"/><path d="M208,148v4c0,2.2108,1.7911,4,4,4c2.2087,0,4-1.7892,4-4v-4c0-2.2108-1.7913-4-4-4   C209.7911,144,208,145.7892,208,148z" fill="#F8A131"/><path d="M208,76v4c0,2.2108,1.7911,4,4,4c2.2087,0,4-1.7892,4-4v-4c0-2.2108-1.7913-4-4-4   C209.7911,72,208,73.7892,208,76z" fill="#F8A131"/><path d="M208,52v4c0,2.2108,1.7911,4,4,4c2.2087,0,4-1.7892,4-4v-4c0-2.2108-1.7913-4-4-4   C209.7911,48,208,49.7892,208,52z" fill="#F8A131"/><path d="M8,62.2892v-4c0-2.2112-1.7913-4-4-4c-2.2089,0-4,1.7888-4,4v4c0,2.2108,1.7911,4,4,4   C6.2087,66.2892,8,64.5,8,62.2892z" fill="#F8A131"/><path d="M137.1503,172h-4c-2.2088,0-4,1.7892-4,4s1.7912,4,4,4h4c2.2088,0,4-1.7892,4-4S139.3591,172,137.1503,172z   " fill="#F8A131"/><path d="M113.1503,172h-4c-2.2088,0-4,1.7892-4,4s1.7912,4,4,4h4c2.2088,0,4-1.7892,4-4S115.3591,172,113.1503,172z   " fill="#F8A131"/><path d="M161.1503,172h-4c-2.2088,0-4,1.7892-4,4s1.7912,4,4,4h4c2.2088,0,4-1.7892,4-4S163.3591,172,161.1503,172z   " fill="#F8A131"/><path d="M89.1503,172h-4c-2.2088,0-4,1.7892-4,4s1.7912,4,4,4h4c2.2088,0,4-1.7892,4-4S91.3591,172,89.1503,172z" fill="#F8A131"/><path d="M204.7871,168.1836c-0.6796,0.7304-1.4532,1.3788-2.3008,1.9256c-1.6876,1.09-2.2072,3.2152-1.4004,4.9924   c0.08,0.1796,0.1016,0.3712,0.2108,0.5392c0.7636,1.1836,2.0508,1.828,3.3633,1.828c0.7443,0,1.4963-0.2072,2.1659-0.6408   c1.4044-0.906,2.6896-1.9804,3.8204-3.1992c1.504-1.6172,1.412-4.1484-0.2048-5.6524c-0.1448-0.1328-0.3264-0.1872-0.4828-0.2968   C208.3515,166.5704,206.16,166.7072,204.7871,168.1836z" fill="#F8A131"/><path d="M65.1503,172h-4c-2.2088,0-4,1.7892-4,4s1.7912,4,4,4h4c2.2088,0,4-1.7892,4-4S67.3591,172,65.1503,172z" fill="#F8A131"/><path d="M216,44V28c0-2.2108-1.7913-4-4-4H94.1407H4c-2.2089,0-4,1.7892-4,4v16c0,2.2108,1.7911,4,4,4h4h20h4h20h4   h20h4h20h4h20h4h20h4h20h4h20h4h12C214.2087,48,216,46.2108,216,44z" fill="#4A8F9E"/></g></svg>