<?xml version="1.0" ?><svg enable-background="new 0 0 156.0008 212.0027" id="forbidenfile" version="1.1" viewBox="0 0 156.0008 212.0027" xml:space="preserve" xmlns="http://www.w3.org/2000/svg" xmlns:xlink="http://www.w3.org/1999/xlink"><g><path d="M108.2187,83.409C100.1251,76.3307,89.5703,72.0026,78,72.0026c-25.3633,0-46,20.6368-46,46   c0,11.5704,4.328,22.1248,11.4063,30.2188L108.2187,83.409z" fill="#FFDC82"/><path d="M154.828,40.2994L115.6523,1.1706c-0.75-0.746-1.7696-1.168-2.828-1.168H4c-2.2109,0-4,1.7892-4,4v204   c0,2.2108,1.7891,4,4,4h148c2.2107,0,4-1.7892,4-4V43.1315C156,42.069,155.5779,41.0534,154.828,40.2994z M78,172.0027   c-29.7773,0-54-24.2228-54-54s24.2227-54,54-54c29.7771,0,54,24.2228,54,54S107.7771,172.0027,78,172.0027z M155.6951,45.5338   c-0.6172,1.496-2.078,2.4688-3.6951,2.4688h-40c-2.2109,0-4-1.7892-4-4v-40c0-1.6172,0.9727-3.078,2.4687-3.6952   c1.5-0.6252,3.2148-0.2776,4.3593,0.8672l40,40C155.9727,42.319,156.3163,44.0378,155.6951,45.5338z" fill="#FFDC82"/><path d="M49.1563,153.7838c7.8984,6.3788,17.9256,10.2188,28.8437,10.2188c25.3631,0,46-20.6368,46-46   c0-10.918-3.84-20.9452-10.2189-28.8436L49.1563,153.7838z" fill="#FFDC82"/><path d="M78,64.0026c-29.7773,0-54,24.2228-54,54s24.2227,54,54,54c29.7771,0,54-24.2228,54-54   S107.7771,64.0026,78,64.0026z M78,72.0026c11.5703,0,22.1251,4.328,30.2187,11.4064l-64.8124,64.8124   C36.328,140.1274,32,129.573,32,118.0026C32,92.6395,52.6367,72.0026,78,72.0026z M78,164.0027   c-10.9181,0-20.9453-3.84-28.8437-10.2188l64.6248-64.6248C120.16,97.0574,124,107.0846,124,118.0026   C124,143.3658,103.3631,164.0027,78,164.0027z" fill="#FE7D71"/><path d="M114.828,1.1746c-1.1445-1.1448-2.8593-1.4924-4.3593-0.8672C108.9727,0.9246,108,2.3854,108,4.0026v40   c0,2.2108,1.7891,4,4,4h40c1.6171,0,3.0779-0.9728,3.6951-2.4688c0.6212-1.496,0.2776-3.2148-0.8671-4.3592L114.828,1.1746z" fill="#F8A131"/></g></svg>