<?xml version="1.0" ?><svg enable-background="new 0 0 192 192.0022" id="css" version="1.1" viewBox="0 0 192 192.0022" xml:space="preserve" xmlns="http://www.w3.org/2000/svg" xmlns:xlink="http://www.w3.org/1999/xlink"><g><path d="M191.7364,86.6974c0.1172,0.336,0.1892,0.6896,0.2128,1.0588   C191.9276,87.393,191.8556,87.0414,191.7364,86.6974z" fill="#4A8F9E"/><path d="M188,84.0022c1.1036,0,2.1036,0.4472,2.826,1.172L168,62.3458v21.6564H188z" fill="#4A8F9E"/><path d="M190.832,85.1818c0.3244,0.3244,0.5744,0.7188,0.7716,1.1408   C191.41,85.9086,191.166,85.5158,190.832,85.1818z" fill="#4A8F9E"/><path d="M0.0508,87.7562c0.0236-0.3692,0.0956-0.7228,0.2128-1.0588C0.1444,87.0414,0.0724,87.393,0.0508,87.7562z" fill="#4A8F9E"/><path d="M24,84.0022V62.3458L1.174,85.1742c0.7224-0.7248,1.7224-1.172,2.826-1.172H24z" fill="#4A8F9E"/><path d="M0.3964,86.3226c0.1972-0.422,0.4472-0.8164,0.7716-1.1408C0.834,85.5158,0.59,85.9086,0.3964,86.3226z" fill="#4A8F9E"/><path d="M168,84.0022V62.3458v-24l-1.172-1.1716c1.1448,1.1444,1.4864,2.8632,0.8672,4.3592   c-0.6192,1.494-2.078,2.4688-3.6952,2.4688h-36c-2.2088,0-4-1.7912-4-4v-36c0-1.6172,0.9748-3.076,2.4688-3.6952   c1.494-0.6232,3.2128-0.2796,4.3592,0.8672l-1.1716-1.172H24v62.3436v21.6564H168z" fill="#C6DFED"/><rect fill="#C6DFED" height="24" width="144" x="24" y="168.0022"/><path d="M191.9492,87.7562c-0.0236-0.3692-0.0956-0.7228-0.2128-1.0588c-0.0448-0.1268-0.0764-0.2536-0.1328-0.3748   c-0.1972-0.422-0.4472-0.8164-0.7716-1.1408c-0.002-0.004-0.002-0.0076-0.002-0.0076c-0.7264-0.7248-1.7264-1.172-2.83-1.172h-20   H24H4c-1.1036,0-2.1036,0.4472-2.826,1.172c0,0-0.004,0.0036-0.006,0.0076c-0.3244,0.3244-0.5744,0.7188-0.7716,1.1408   c-0.0564,0.1212-0.088,0.248-0.1328,0.3748c-0.1172,0.336-0.1892,0.6896-0.2128,1.0588C0.0448,87.8422,0,87.9142,0,88.0022v76   c0,2.2088,1.7912,4,4,4h20h144h20c2.2088,0,4-1.7912,4-4v-76C192,87.9142,191.9572,87.8422,191.9492,87.7562z M60.4356,134.7618   c0.408,2.1564,1.0216,4.0236,1.836,5.6116c0.8164,1.5896,1.8476,2.8436,3.0936,3.7732c1.248,0.9316,2.7092,1.3948,4.3868,1.3948   c1.586,0,2.9588-0.4064,4.1132-1.2228c1.1564-0.8164,2.1192-1.8124,2.8908-2.992l4.6912,5.5076   c-1.2676,1.9044-2.8888,3.4432-4.8612,4.6232c-1.9728,1.1816-4.4532,1.7676-7.4452,1.7676c-2.7208,0-5.18-0.6348-7.3792-1.9024   c-2.1992-1.2696-4.0564-3.0236-5.576-5.2736c-1.5176-2.242-2.6972-4.9024-3.5352-7.9884c-0.84-3.082-1.258-6.4588-1.258-10.1288   c0-3.6736,0.418-7.0624,1.258-10.17c0.838-3.1032,2.0292-5.7752,3.5704-8.0232c1.5408-2.2444,3.41-3.9884,5.6092-5.2364   c2.1992-1.244,4.6348-1.8672,7.3108-1.8672c2.7636,0,5.1892,0.508,7.2752,1.5272c2.086,1.0236,3.7852,2.4844,5.0996,4.3868   l-4.6912,5.7128c-1.8596-2.6756-4.262-4.0116-7.2092-4.0116c-1.6308,0-3.0584,0.4628-4.2832,1.3928   c-1.2244,0.9296-2.244,2.1872-3.0604,3.7752c-0.8144,1.588-1.428,3.4552-1.836,5.6076c-0.4084,2.156-0.6112,4.4568-0.6112,6.906   C59.8244,130.3342,60.0272,132.6098,60.4356,134.7618z M100.3516,134.1194c-1.3596-1.2264-3.082-2.3576-5.168-3.4024   c-1.3144-0.6348-2.5488-1.336-3.7052-2.1072c-1.156-0.7716-2.1756-1.6876-3.0604-2.756c-0.8848-1.0644-1.586-2.3088-2.1076-3.7384   c-0.5212-1.4296-0.7832-3.1368-0.7832-5.1328c0-2.492,0.3984-4.6368,1.1916-6.4296c0.7928-1.7872,1.836-3.2716,3.1268-4.4512   c1.2932-1.1796,2.754-2.0528,4.3868-2.6192c1.6308-0.5644,3.2872-0.8476,4.9628-0.8476c2.4492,0,4.6368,0.3944,6.5628,1.1876   c1.9276,0.7968,3.5468,1.9628,4.8632,3.504l-4.4884,5.8476c-1.7696-2.1328-3.9904-3.1956-6.664-3.1956   c-0.7716,0-1.5196,0.1232-2.244,0.3712c-0.7268,0.252-1.3832,0.6484-1.9728,1.1916c-0.59,0.5448-1.0548,1.248-1.3944,2.1092   c-0.34,0.8596-0.51,1.8788-0.51,3.0588c0,2.0408,0.6132,3.6172,1.836,4.7244c1.2248,1.1112,2.834,2.168,4.828,3.164   c1.18,0.588,2.3808,1.2676,3.6036,2.0412c1.2248,0.7716,2.336,1.6992,3.332,2.7872c0.998,1.0876,1.8144,2.3808,2.4492,3.8768   c0.6348,1.496,0.9512,3.2636,0.9512,5.3028c0,2.3572-0.3728,4.4432-1.1212,6.2556c-0.748,1.8128-1.746,3.344-2.992,4.59   c-1.248,1.246-2.7092,2.1876-4.3868,2.8224c-1.6776,0.6368-3.4452,0.9512-5.3028,0.9512c-2.6756,0-5.1464-0.5196-7.412-1.5628   c-2.2676-1.0428-4.08-2.3552-5.4412-3.9452l4.4196-5.9824c1.0432,1.2676,2.3008,2.2676,3.7756,2.9904   c1.4724,0.7264,2.9804,1.0896,4.5216,1.0896c1.7224,0,3.15-0.5896,4.2832-1.7696c1.1328-1.1796,1.7008-2.832,1.7008-4.9628   C102.3924,136.9982,101.7128,135.3422,100.3516,134.1194z M125.7168,121.4338c1.2228,1.1112,2.832,2.168,4.828,3.164   c1.178,0.588,2.3792,1.2676,3.6036,2.0412c1.2228,0.7716,2.334,1.6992,3.332,2.7872c0.996,1.0876,1.8124,2.3808,2.4472,3.8768   c0.6348,1.496,0.9532,3.2636,0.9532,5.3028c0,2.3572-0.3748,4.4432-1.1228,6.2556c-0.7484,1.8128-1.7444,3.344-2.9924,4.59   c-1.246,1.246-2.7088,2.1876-4.3848,2.8224c-1.6776,0.6368-3.4452,0.9512-5.3048,0.9512c-2.6756,0-5.1444-0.5196-7.412-1.5628   c-2.2676-1.0428-4.08-2.3552-5.4392-3.9452l4.4196-5.9824c1.0432,1.2676,2.3008,2.2676,3.7736,2.9904   c1.4728,0.7264,2.9804,1.0896,4.5216,1.0896c1.7224,0,3.1504-0.5896,4.2852-1.7696c1.1328-1.1796,1.6992-2.832,1.6992-4.9628   c0-2.084-0.68-3.74-2.0392-4.9628c-1.3612-1.2264-3.084-2.3576-5.168-3.4024c-1.3164-0.6348-2.5508-1.336-3.7072-2.1072   c-1.156-0.7716-2.1756-1.6876-3.0604-2.756c-0.8828-1.0644-1.586-2.3088-2.1076-3.7384c-0.5212-1.4296-0.7812-3.1368-0.7812-5.1328   c0-2.492,0.3968-4.6368,1.1896-6.4296c0.7928-1.7872,1.836-3.2716,3.1288-4.4512c1.2912-1.1796,2.754-2.0528,4.3848-2.6192   c1.6328-0.5644,3.2872-0.8476,4.9648-0.8476c2.4472,0,4.6348,0.3944,6.5608,1.1876c1.9276,0.7968,3.5488,1.9628,4.8632,3.504   l-4.4884,5.8476c-1.7676-2.1328-3.9884-3.1956-6.664-3.1956c-0.7716,0-1.5196,0.1232-2.244,0.3712   c-0.7248,0.252-1.3828,0.6484-1.9728,1.1916c-0.588,0.5448-1.0528,1.248-1.3924,2.1092c-0.34,0.8596-0.51,1.8788-0.51,3.0588   C123.8808,118.7502,124.492,120.3266,125.7168,121.4338z" fill="#618287"/><path d="M126.4688,0.307C124.9748,0.9262,124,2.385,124,4.0022v36c0,2.2088,1.7912,4,4,4h36   c1.6172,0,3.076-0.9748,3.6952-2.4688c0.6192-1.496,0.2776-3.2148-0.8672-4.3592l-36-36   C129.6816,0.0274,127.9628-0.3162,126.4688,0.307z" fill="#A9C7D8"/><path d="M125.7832,111.5414c0.59-0.5432,1.248-0.9396,1.9728-1.1916c0.7244-0.248,1.4724-0.3712,2.244-0.3712   c2.6756,0,4.8964,1.0628,6.664,3.1956l4.4884-5.8476c-1.3144-1.5412-2.9356-2.7072-4.8632-3.504   c-1.926-0.7932-4.1136-1.1876-6.5608-1.1876c-1.6776,0-3.332,0.2832-4.9648,0.8476c-1.6308,0.5664-3.0936,1.4396-4.3848,2.6192   c-1.2928,1.1796-2.336,2.664-3.1288,4.4512c-0.7928,1.7928-1.1896,3.9376-1.1896,6.4296c0,1.996,0.26,3.7032,0.7812,5.1328   c0.5216,1.4296,1.2248,2.674,2.1076,3.7384c0.8848,1.0684,1.9044,1.9844,3.0604,2.756c1.1564,0.7712,2.3908,1.4724,3.7072,2.1072   c2.084,1.0448,3.8068,2.176,5.168,3.4024c1.3592,1.2228,2.0392,2.8788,2.0392,4.9628c0,2.1308-0.5664,3.7832-1.6992,4.9628   c-1.1348,1.18-2.5628,1.7696-4.2852,1.7696c-1.5412,0-3.0488-0.3632-4.5216-1.0896c-1.4728-0.7228-2.7304-1.7228-3.7736-2.9904   l-4.4196,5.9824c1.3592,1.59,3.1716,2.9024,5.4392,3.9452c2.2676,1.0432,4.7364,1.5628,7.412,1.5628   c1.8596,0,3.6272-0.3144,5.3048-0.9512c1.676-0.6348,3.1388-1.5764,4.3848-2.8224c1.248-1.246,2.244-2.7772,2.9924-4.59   c0.748-1.8124,1.1228-3.8984,1.1228-6.2556c0-2.0392-0.3184-3.8068-0.9532-5.3028c-0.6348-1.496-1.4512-2.7892-2.4472-3.8768   c-0.998-1.088-2.1092-2.0156-3.332-2.7872c-1.2244-0.7736-2.4256-1.4532-3.6036-2.0412c-1.996-0.996-3.6052-2.0528-4.828-3.164   c-1.2248-1.1072-1.836-2.6836-1.836-4.7244c0-1.18,0.17-2.1992,0.51-3.0588C124.7304,112.7894,125.1952,112.0862,125.7832,111.5414   z" fill="#FFE9E1"/><path d="M62.2716,115.4182c0.8164-1.588,1.836-2.8456,3.0604-3.7752c1.2248-0.93,2.6524-1.3928,4.2832-1.3928   c2.9472,0,5.3496,1.336,7.2092,4.0116l4.6912-5.7128c-1.3144-1.9024-3.0136-3.3632-5.0996-4.3868   c-2.086-1.0192-4.5116-1.5272-7.2752-1.5272c-2.676,0-5.1116,0.6232-7.3108,1.8672c-2.1992,1.248-4.0684,2.992-5.6092,5.2364   c-1.5412,2.248-2.7324,4.92-3.5704,8.0232c-0.84,3.1076-1.258,6.4964-1.258,10.17c0,3.67,0.418,7.0468,1.258,10.1288   c0.838,3.086,2.0176,5.7464,3.5352,7.9884c1.5196,2.25,3.3768,4.004,5.576,5.2736c2.1992,1.2676,4.6584,1.9024,7.3792,1.9024   c2.992,0,5.4724-0.586,7.4452-1.7676c1.9724-1.18,3.5936-2.7188,4.8612-4.6232l-4.6912-5.5076   c-0.7716,1.1796-1.7344,2.1756-2.8908,2.992c-1.1544,0.8164-2.5272,1.2228-4.1132,1.2228c-1.6776,0-3.1388-0.4632-4.3868-1.3948   c-1.246-0.9296-2.2772-2.1836-3.0936-3.7732c-0.8144-1.588-1.428-3.4552-1.836-5.6116c-0.4084-2.152-0.6112-4.4276-0.6112-6.83   c0-2.4492,0.2028-4.75,0.6112-6.906C60.8436,118.8734,61.4572,117.0062,62.2716,115.4182z" fill="#FFE9E1"/><path d="M96.4084,145.8146c-1.5412,0-3.0492-0.3632-4.5216-1.0896c-1.4748-0.7228-2.7324-1.7228-3.7756-2.9904   l-4.4196,5.9824c1.3612,1.59,3.1736,2.9024,5.4412,3.9452c2.2656,1.0432,4.7364,1.5628,7.412,1.5628   c1.8576,0,3.6252-0.3144,5.3028-0.9512c1.6776-0.6348,3.1388-1.5764,4.3868-2.8224c1.246-1.246,2.244-2.7772,2.992-4.59   c0.7484-1.8124,1.1212-3.8984,1.1212-6.2556c0-2.0392-0.3164-3.8068-0.9512-5.3028c-0.6348-1.496-1.4512-2.7892-2.4492-3.8768   c-0.996-1.088-2.1072-2.0156-3.332-2.7872c-1.2228-0.7736-2.4236-1.4532-3.6036-2.0412c-1.994-0.996-3.6032-2.0528-4.828-3.164   c-1.2228-1.1072-1.836-2.6836-1.836-4.7244c0-1.18,0.17-2.1992,0.51-3.0588c0.3396-0.8612,0.8044-1.5644,1.3944-2.1092   c0.5896-0.5432,1.246-0.9396,1.9728-1.1916c0.7244-0.248,1.4724-0.3712,2.244-0.3712c2.6736,0,4.8944,1.0628,6.664,3.1956   l4.4884-5.8476c-1.3164-1.5412-2.9356-2.7072-4.8632-3.504c-1.926-0.7932-4.1136-1.1876-6.5628-1.1876   c-1.6756,0-3.332,0.2832-4.9628,0.8476c-1.6328,0.5664-3.0936,1.4396-4.3868,2.6192c-1.2908,1.1796-2.334,2.664-3.1268,4.4512   c-0.7932,1.7928-1.1916,3.9376-1.1916,6.4296c0,1.996,0.262,3.7032,0.7832,5.1328c0.5216,1.4296,1.2228,2.674,2.1076,3.7384   c0.8848,1.0684,1.9044,1.9844,3.0604,2.756c1.1564,0.7712,2.3908,1.4724,3.7052,2.1072c2.086,1.0448,3.8084,2.176,5.168,3.4024   c1.3612,1.2228,2.0408,2.8788,2.0408,4.9628c0,2.1308-0.568,3.7832-1.7008,4.9628   C99.5584,145.225,98.1308,145.8146,96.4084,145.8146z" fill="#FFE9E1"/></g></svg>