<?xml version="1.0" ?><svg enable-background="new 0 0 216 180" id="folderremove" version="1.1" viewBox="0 0 216 180" xml:space="preserve" xmlns="http://www.w3.org/2000/svg" xmlns:xlink="http://www.w3.org/1999/xlink"><g><path d="M4,24h90.1407L79.328,1.7812C78.5859,0.668,77.336,0,76,0H4C1.7891,0,0,1.7892,0,4v24   C0,25.7892,1.7891,24,4,24z" fill="#89714D"/><path d="M212,48H4c-2.2109,0-4-1.7892-4-4v116.0116C0,171.0352,8.9607,180,19.9763,180h176.0472   C207.0391,180,216,171.0352,216,160.0116V44C216,46.2108,214.2107,48,212,48z M108,160c-26.4689,0-48-21.5312-48-48   s21.5311-48,48-48c26.4687,0,48,21.5312,48,48S134.4687,160,108,160z" fill="#BC9A67"/><path d="M212,24H94.1407H4c-2.2109,0-4,1.7892-4,4v16c0,2.2108,1.7891,4,4,4h208c2.2107,0,4-1.7892,4-4V28   C216,25.7892,214.2107,24,212,24z" fill="#FE8657"/><path d="M108,64c-26.4689,0-48,21.5312-48,48s21.5311,48,48,48c26.4687,0,48-21.5312,48-48S134.4687,64,108,64z    M136,116H80v-8h56V116z" fill="#FE8657"/><rect fill="#FFE9E1" height="8" width="56" x="80" y="108"/></g></svg>