<?xml version="1.0" ?><svg enable-background="new 0 0 156.0008 212.0009" id="filetag" version="1.1" viewBox="0 0 156.0008 212.0009" xml:space="preserve" xmlns="http://www.w3.org/2000/svg" xmlns:xlink="http://www.w3.org/1999/xlink"><g><path d="M154.828,40.3057L115.6523,1.1729c-0.75-0.75-1.7696-1.172-2.828-1.172H4c-2.2109,0-4,1.7892-4,4v204   c0,2.2108,1.7891,4,4,4h148c2.2107,0,4-1.7892,4-4V43.1337C156,42.0713,155.5779,41.0557,154.828,40.3057z M132,96.0009h-4v76   c0,1.5236-0.8673,2.914-2.2345,3.59c-0.5584,0.2732-1.164,0.41-1.7655,0.41c-0.8673,0-1.7265-0.2812-2.4377-0.828L98,157.0477   l-23.5625,18.1252c-1.2032,0.9256-2.836,1.086-4.2032,0.418c-1.3672-0.676-2.2343-2.0664-2.2343-3.59v-76H20v-8h52h52h8V96.0009z    M155.6951,45.5321c-0.6172,1.496-2.078,2.4688-3.6951,2.4688h-40c-2.2109,0-4-1.7892-4-4v-40c0-1.6172,0.9727-3.078,2.4687-3.6952   c1.496-0.6212,3.2148-0.2776,4.3593,0.8672l40,40C155.9727,42.3173,156.3163,44.0361,155.6951,45.5321z" fill="#FFE9E1"/><path d="M114.828,1.1729c-1.1445-1.1448-2.8633-1.4884-4.3593-0.8672C108.9727,0.9229,108,2.3837,108,4.0009v40   c0,2.2108,1.7891,4,4,4h40c1.6171,0,3.0779-0.9728,3.6951-2.4688c0.6212-1.496,0.2776-3.2148-0.8671-4.3592L114.828,1.1729z" fill="#FCD1C0"/><path d="M68,172.0009c0,1.5236,0.8671,2.914,2.2343,3.59c1.3672,0.668,3,0.5076,4.2032-0.418L98,157.0477   l23.5623,18.1252c0.7112,0.5468,1.5704,0.828,2.4377,0.828c0.6015,0,1.2071-0.1368,1.7655-0.41   c1.3672-0.676,2.2345-2.0664,2.2345-3.59v-76H68V172.0009z" fill="#FD5A5A"/><polygon fill="#4F676D" points="72,88.0009 20,88.0009 20,96.0009 68,96.0009 128,96.0009 132,96.0009 132,88.0009 124,88.0009     "/></g></svg>