<?xml version="1.0" ?><!DOCTYPE svg  PUBLIC '-//W3C//DTD SVG 1.1//EN'  'http://www.w3.org/Graphics/SVG/1.1/DTD/svg11.dtd'><svg enable-background="new 0 0 64 64" id="Layer_1" version="1.1" viewBox="0 0 64 64" xml:space="preserve" xmlns="http://www.w3.org/2000/svg" xmlns:xlink="http://www.w3.org/1999/xlink"><path d="  M40,41.3l-7.8,8.1l-7.7-8.1c0,0-10.1,2.5-12.9,3.2S8,51.7,8,56.3" fill="none" stroke="#2C3E50" stroke-linecap="round" stroke-linejoin="round" stroke-miterlimit="10" stroke-width="2"/><path d="  M42.1,14.7c-1.3-6.2-7.3-7.2-10.1-7.2c-3.5,0-9.2,0.8-10.1,8.2c-0.7,5.7,1.9,13,3.8,15.5c2.2,2.7,4.1,4.1,6.8,4.1  c2.5,0,4.2-1.2,6.4-4.5C40.9,27.7,43.2,19.9,42.1,14.7z" fill="none" stroke="#2C3E50" stroke-linecap="round" stroke-linejoin="round" stroke-miterlimit="10" stroke-width="2"/><path d="  M59.2,55.5c0.5-0.6,0.9-1.3,1.2-2.1s0.6-1.5,0.7-2.3l-1.9-0.9c0.1-0.6,0.1-1.2,0.1-1.8l2-0.7c-0.2-1.6-0.8-3.2-1.7-4.5l-2,0.7  c-0.4-0.5-0.8-0.9-1.2-1.3l0.9-1.9c-0.6-0.5-1.3-0.9-2.1-1.2c-0.8-0.3-1.5-0.6-2.3-0.7L52,40.7c-0.6-0.1-1.2-0.1-1.8-0.1l-0.7-2  c-1.6,0.2-3.2,0.8-4.5,1.7l0.7,2c-0.5,0.4-0.9,0.8-1.3,1.2l-1.9-0.9c-0.5,0.6-0.9,1.3-1.2,2.1s-0.6,1.5-0.7,2.3l1.9,0.9  c-0.1,0.6-0.1,1.2-0.1,1.8l-2,0.7c0.2,1.6,0.8,3.2,1.7,4.5l2-0.7c0.4,0.5,0.8,0.9,1.2,1.3l-0.9,1.9c0.6,0.5,1.3,0.9,2.1,1.2  c0.8,0.3,1.5,0.6,2.3,0.7l0.9-1.9c0.6,0.1,1.2,0.1,1.8,0.1l0.7,2c1.6-0.2,3.2-0.8,4.5-1.7l-0.7-2c0.5-0.4,0.9-0.8,1.3-1.2L59.2,55.5  z" fill="none" stroke="#2C3E50" stroke-linecap="round" stroke-linejoin="round" stroke-miterlimit="10" stroke-width="2"/><circle cx="50.9" cy="49.1" fill="none" r="5.2" stroke="#2C3E50" stroke-linecap="round" stroke-linejoin="round" stroke-miterlimit="10" stroke-width="2"/></svg>