<?xml version="1.0" ?><!DOCTYPE svg  PUBLIC '-//W3C//DTD SVG 1.1//EN'  'http://www.w3.org/Graphics/SVG/1.1/DTD/svg11.dtd'><svg enable-background="new 0 0 64 64" id="Layer_1" version="1.1" viewBox="0 0 64 64" xml:space="preserve" xmlns="http://www.w3.org/2000/svg" xmlns:xlink="http://www.w3.org/1999/xlink"><path d="  M11,18.1c1.6,8.3,0.5,20.2,0.5,20.2c0,10.3,17.8,18.3,20.5,19.2c2.7-0.9,20.5-8.9,20.5-19.2c0,0-1.5-16.3,1.5-24  c-10.1,0-22-7.9-22-7.9s-12,7.9-22,7.9" fill="none" stroke="#2C3E50" stroke-linecap="round" stroke-linejoin="round" stroke-miterlimit="10" stroke-width="2"/><circle cx="32.4" cy="42.7" fill="none" r="1.7" stroke="#2C3E50" stroke-linecap="round" stroke-linejoin="round" stroke-miterlimit="10" stroke-width="2"/><path d="  M37.7,36.6c-3.3-1.6-7.3-1.6-10.6,0" fill="none" stroke="#2C3E50" stroke-linecap="round" stroke-linejoin="round" stroke-miterlimit="10" stroke-width="2"/><path d="  M40.9,31.5c-5.3-2.9-11.8-2.8-17.1,0" fill="none" stroke="#2C3E50" stroke-linecap="round" stroke-linejoin="round" stroke-miterlimit="10" stroke-width="2"/><path d="  M44.3,26.3c-7.4-4.2-16.6-4.1-24,0.1" fill="none" stroke="#2C3E50" stroke-linecap="round" stroke-linejoin="round" stroke-miterlimit="10" stroke-width="2"/></svg>