<?xml version="1.0" standalone="no"?><!DOCTYPE svg PUBLIC "-//W3C//DTD SVG 1.1//EN" "http://www.w3.org/Graphics/SVG/1.1/DTD/svg11.dtd"><svg t="1565139609916" class="icon" viewBox="0 0 1024 1024" version="1.1" xmlns="http://www.w3.org/2000/svg" p-id="6284" xmlns:xlink="http://www.w3.org/1999/xlink" width="200" height="200"><defs><style type="text/css"></style></defs><path d="M938.666667 128 298.666667 128C268.8 128 247.466667 140.8 230.4 166.4L0 512l230.4 345.6C247.466667 878.933333 268.8 896 298.666667 896l640 0c46.933333 0 85.333333-38.4 85.333333-85.333333L1024 213.333333C1024 166.4 985.6 128 938.666667 128zM810.666667 665.6 750.933333 725.333333 597.333333 571.733333 443.733333 725.333333 384 665.6l153.6-153.6L384 358.4 443.733333 298.666667l153.6 153.6L750.933333 298.666667 810.666667 358.4 657.066667 512 810.666667 665.6z" p-id="6285"></path></svg>