<?xml version="1.0" standalone="no"?><!DOCTYPE svg PUBLIC "-//W3C//DTD SVG 1.1//EN" "http://www.w3.org/Graphics/SVG/1.1/DTD/svg11.dtd"><svg t="1564756691630" class="icon" viewBox="0 0 1024 1024" version="1.1" xmlns="http://www.w3.org/2000/svg" p-id="1296" xmlns:xlink="http://www.w3.org/1999/xlink" width="200" height="200"><defs><style type="text/css"></style></defs><path d="M767.4 817.6h-50V865c-10.3 7.7-17 19.9-17 33.7 0 23.2 18.8 42 42 42s42-18.8 42-42c0-13.8-6.7-26.1-17-33.7v-47.4z" fill="#3A3644" p-id="1297"></path><path d="M301.9 339.5c-37.5 0-68-30.8-68-68.6s30.5-68.6 68-68.6c1.3 0 2.7 0 4.1 0.1l19.3 1.2 6-18.4c12-36.7 45.8-61.4 84.2-61.4 16.9 0 33.2 4.8 47.4 13.8l19.6 12.5 13.9-18.7c19.9-26.7 50.3-42 83.3-42 57.4 0 104.1 47.1 104.1 105s-46.7 105-104.1 105c-24.6 0-48.5-8.8-67.2-24.8l-17.7-15.1-16.3 16.6c-16.8 17.1-39.1 26.5-62.9 26.5-9.5 0-18.8-1.5-27.7-4.5l-18.4-6.1-10.5 16.3c-12.7 19.5-34 31.2-57.1 31.2z" fill="#EE3349" p-id="1298"></path><path d="M579.8 114.5c43.6 0 79.1 35.9 79.1 80s-35.5 80-79.1 80c-18.9 0-36.6-6.5-51-18.8l-35.4-30.3-32.7 33.2c-12 12.2-28.1 19-45.1 19-6.8 0-13.5-1.1-19.9-3.2l-36.8-12.2-21 32.5c-8 12.4-21.5 19.8-36 19.8-23.7 0-43-19.6-43-43.6s19.3-43.6 43-43.6c0.8 0 1.7 0 2.6 0.1l38.6 2.3 12-36.7c8.6-26.4 32.9-44.2 60.4-44.2 12.1 0 23.8 3.4 33.9 9.9l39.2 25.1 27.8-37.3c15.2-20.4 38.3-32 63.4-32m0-50c-42.3 0-79.8 20.5-103.4 52.1-17.6-11.3-38.5-17.8-60.9-17.8-50.4 0-93.1 33-108 78.7-1.9-0.1-3.8-0.2-5.7-0.2-51.3 0-93 41.9-93 93.6s41.6 93.6 93 93.6c32.7 0 61.4-17 78-42.7 11.2 3.7 23.2 5.7 35.6 5.7 31.6 0 60.2-13 80.8-33.9 22.5 19.2 51.6 30.8 83.5 30.8 71.3 0 129.1-58.2 129.1-130s-57.7-129.9-129-129.9z" fill="#3A3644" p-id="1299"></path><path d="M301.9 313.5c-15.8 0-29.6-8.7-37.1-21.6 0 0-8-34.6 10.5-49.4 13.7-10.9 54.9 2.8 66.9-10.7 25-28 43.7-39.3 93.3-30.8 31.2-10.6 61.1-9.6 83.2-20.5 104.2-51.4 140 18.5 140 18.5-0.7 10.4-3.4 20.3-7.8 29.5L537.5 261c-3.1-2-6-4.1-8.8-6.5l-35.4-30.3-32.7 33.2c-12 12.2-28.1 19-45.1 19-6.8 0-13.5-1.1-19.9-3.2L358.8 261l-21 32.5c-7.9 12.6-21.4 20-35.9 20z" fill="#E01936" p-id="1300"></path><path d="M541.6 920.2c-21.6 0-44-1.2-66.4-3.6l-361.1-50.3c23-47.2 31.6-107.9 51.6-304.6 5.1-50.1 19.7-97.6 43.3-141.2 22.5-41.6 52.6-78.6 89.4-109.9 36.1-30.7 77.1-54.8 122-71.4 45.4-16.9 92.6-25.4 140.4-25.4 14.3 0 28.7 0.8 42.8 2.3 105 11.5 191.1 58.5 249.1 135.9 60.9 81.2 84.9 189.2 66 296.4-7.6 43.2-22.6 82.5-44.5 116.8-21 32.9-48.5 61.4-81.6 84.6-65.8 46.1-152.6 70.4-251 70.4 0.1 0 0.1 0 0 0z" fill="#F8D351" p-id="1301"></path><path d="M560.8 238.8c13.4 0 26.9 0.7 40.1 2.2 97.9 10.7 178.1 54.3 231.9 126 56.7 75.7 79.1 176.6 61.4 277.1-7 40-20.8 76.2-40.9 107.7-19.2 30.2-44.4 56.2-74.9 77.5-61.6 43.1-143.5 65.8-236.7 65.8-20.6 0-41.9-1.1-63.3-3.4l-328.9-45.8c15.7-48 24.8-119.9 41.2-281.8 4.8-46.8 18.3-91.1 40.4-131.9 21-38.9 49.2-73.4 83.6-102.8 33.9-28.8 72.4-51.4 114.5-67 42.5-15.5 86.8-23.6 131.6-23.6m0-50c-205.3 0-397.5 150.6-419.9 370.4-25.1 247.3-32.7 274.4-67 326.8l398.3 55.5c23.6 2.5 46.8 3.7 69.4 3.7 205.5 0 368.2-102.2 401.8-292.4 37.3-211.2-82.5-433.6-337-461.5-15.2-1.6-30.5-2.5-45.6-2.5z" fill="#3A3644" p-id="1302"></path><path d="M388.6 546c-86.6-15.3-168.2 37.4-182.4 117.6l-25.6 145.2 156.8 27.6c133.6 1.8 238.5-106.7 218.5-214.8-21-113.8-80.7-60.4-167.3-75.6z" fill="#F2BB40" p-id="1303"></path><path d="M387 779.6c-8.4 0-16.9-0.7-25.2-2.2l-141.9-25 25-141.8c5.9-33.5 23.6-64 49.7-85.7 25.9-21.5 58.5-33.3 92-33.3 8.4 0 16.9 0.7 25.2 2.2 37.9 6.7 70.9 27.7 93 59.2 22.1 31.5 30.5 69.7 23.9 107.6-5.9 33.5-23.6 64-49.7 85.7-25.9 21.4-58.6 33.3-92 33.3z" fill="#EA9A1B" p-id="1304"></path><path d="M386.6 516.4c6.9 0 14 0.6 20.9 1.8 31.3 5.5 58.6 22.9 76.9 49 18.2 26 25.2 57.6 19.7 88.9-4.9 27.7-19.5 52.9-41.1 70.8-21.4 17.8-48.4 27.6-76 27.6-6.9 0-14-0.6-20.9-1.8L248.8 732l20.7-117.2c4.9-27.7 19.5-52.9 41.1-70.8 21.4-17.8 48.4-27.6 76-27.6m0-50c-80.5 0-151.9 57.7-166.3 139.7l-29.4 166.5L357.4 802c9.9 1.8 19.8 2.6 29.6 2.6 80.5 0 151.9-57.7 166.3-139.7 16.2-91.9-45.2-179.6-137.2-195.8-9.9-1.8-19.8-2.7-29.5-2.7z" fill="#3A3644" p-id="1305"></path><path d="M387 754.6c-6.9 0-14-0.6-20.9-1.8l-117.3-20.7 4-22.7 75.9 13.4c12.6 2.2 25.5 3.4 38.2 3.4 47.5 0 92-15.2 128.3-41.4-18.8 41.7-60.6 69.8-108.2 69.8z" fill="#DB830E" p-id="1306"></path><path d="M275.8 592.3c17.5-45 61-75.8 110.8-75.8 6.9 0 14 0.6 20.9 1.8 31.3 5.5 58.6 22.9 76.9 49 0.7 0.9 1.3 1.9 1.9 2.9-14.9-6.3-30.7-10.9-47-13.8-12.6-2.2-25.5-3.4-38.2-3.4-46.3-0.1-89.6 14.4-125.3 39.3z" fill="#E8AE1C" p-id="1307"></path><path d="M681.8 456.6c0.5 17.1-13.9 31-31 31s-28-14.1-31-31c-6.8-38.1 12-42.8 29.2-42.8 17 0 31.6 3.7 32.8 42.8z m155.1-74.2c-17.1 0-39-6.9-31 31 3.5 16.8 13.9 31 31 31s27.1-14.4 26.3-31.6c-1.6-34.2-9.2-30.4-26.3-30.4z" fill="#F2BB40" p-id="1308"></path><path d="M649.1 448.7c-3.3 0-6-2.7-6-6s2.7-6 6-6 6 2.7 6 6-2.7 6-6 6z m186.1-43.2c-3.3 0-6-2.7-6-6s2.7-6 6-6 6 2.7 6 6-2.6 6-6 6z" fill="#F8D351" p-id="1309"></path><path d="M835.2 368.5c-17.1 0-31 13.9-31 31s13.9 31 31 31 31-13.9 31-31-13.8-31-31-31z m-186.1 43.2c-17.1 0-31 13.9-31 31s13.9 31 31 31 31-13.9 31-31-13.9-31-31-31z" fill="#3A3644" p-id="1310"></path><path d="M885.8 527.2l-81.5 100.7s-30.1-3.8-43.9-37.8c-9.4-31.5-7-53-7-53l132.4-9.9z" fill="#F2BB40" p-id="1311"></path><path d="M785.4 564.6c-3.1-6-5.8-13-6.7-20.6-1.2-9.7 0.7-18.7 3.1-25.9l48.1 16.4-44.5 30.1z" fill="#EE3349" p-id="1312"></path><path d="M769.5 487.6s-19.6 25.9-15.6 59.4c3.5 29.5 25.1 52.1 25.1 52.1l106.8-71.9-116.3-39.6z" fill="#3A3644" p-id="1313"></path><path d="M275.3 368.6c12-13.8 25.1-26.8 39.3-38.9 33.9-28.8 72.4-51.4 114.5-67 42.6-15.8 86.9-23.8 131.7-23.8 13.4 0 26.9 0.7 40.1 2.2 92.9 10.2 170 50.1 223.6 115.5-59.4-42.3-131.5-69.6-212.7-78.5-16.8-1.8-34-2.8-51-2.8-107.1 0-206.1 34.5-285.5 93.3z" fill="#F7C154" p-id="1314"></path><path d="M546.9 836.4h-50v47.4c-10.3 7.7-17 19.9-17 33.7 0 23.2 18.8 42 42 42s42-18.8 42-42c0-13.8-6.7-26.1-17-33.7v-47.4z" fill="#3A3644" p-id="1315"></path></svg>