<?xml version="1.0" ?><!DOCTYPE svg  PUBLIC '-//W3C//DTD SVG 1.1//EN'  'http://www.w3.org/Graphics/SVG/1.1/DTD/svg11.dtd'><svg enable-background="new 0 0 164 164" height="164px" id="Layer_1" version="1.1" viewBox="0 0 164 164" width="164px" xml:space="preserve" xmlns="http://www.w3.org/2000/svg" xmlns:xlink="http://www.w3.org/1999/xlink"><path clip-rule="evenodd" d="M132.133,53.329c0-1.866,1.514-3.38,3.38-3.38  s3.38,1.514,3.38,3.38v96.904c0,7.559-6.209,13.767-13.767,13.767H38.551c-7.573,0-13.767-6.192-13.767-13.767V53.329  c0-1.866,1.514-3.38,3.38-3.38c1.866,0,3.379,1.514,3.379,3.38v96.904c0,3.845,3.164,7.007,7.007,7.007h86.575  c3.859,0,7.007-3.146,7.007-7.007V53.329L132.133,53.329z M151.181,24.223c1.866,0,3.379,1.514,3.379,3.38s-1.513,3.38-3.379,3.38  H12.5c-1.866,0-3.38-1.514-3.38-3.38s1.514-3.38,3.38-3.38h47.184L59.65,4.008c-0.009-0.102-0.014-0.204-0.014-0.309  c0-1.866,1.514-3.38,3.38-3.38h37.646v0.014c1.858,0,3.366,1.508,3.366,3.366l-0.058,20.523H151.181L151.181,24.223z M66.417,24.223  h30.822L97.286,7.08H66.388L66.417,24.223z" fill="#5E5349" fill-rule="evenodd"/></svg>