<?xml version="1.0" ?><!DOCTYPE svg  PUBLIC '-//W3C//DTD SVG 1.1//EN'  'http://www.w3.org/Graphics/SVG/1.1/DTD/svg11.dtd'><svg enable-background="new 0 0 200 200" height="200px" id="Слой_1" version="1.1" viewBox="0 0 200 200" width="200px" xml:space="preserve" xmlns="http://www.w3.org/2000/svg" xmlns:xlink="http://www.w3.org/1999/xlink"><g><g><path d="M108.768,176.86H91.534c-4.298,0-8.169-3.178-9.004-7.394l-2.852-14.378c-1.266-0.474-2.517-0.993-3.748-1.553    l-12.183,8.152c-1.484,0.991-3.237,1.516-5.072,1.516c-2.459,0-4.837-0.968-6.523-2.654l-12.188-12.187    c-3.038-3.039-3.528-8.023-1.139-11.595l8.152-12.184c-0.56-1.23-1.08-2.482-1.553-3.748l-14.377-2.851    c-4.216-0.836-7.395-4.707-7.395-9.005V91.743c0-4.298,3.179-8.169,7.395-9.004l14.377-2.851c0.474-1.266,0.992-2.517,1.553-3.749    l-8.152-12.183c-2.388-3.571-1.899-8.555,1.137-11.593L52.15,40.173c1.689-1.687,4.066-2.654,6.524-2.654    c1.836,0,3.591,0.525,5.073,1.518l12.182,8.15c1.23-0.561,2.482-1.08,3.748-1.553l2.852-14.378    c0.836-4.216,4.707-7.395,9.004-7.395h17.234c4.297,0,8.169,3.179,9.004,7.395l2.851,14.377c1.267,0.475,2.518,0.993,3.748,1.554    l12.184-8.153c1.484-0.991,3.236-1.516,5.071-1.516c2.46,0,4.838,0.968,6.524,2.654l12.188,12.187    c3.038,3.041,3.527,8.025,1.139,11.595l-8.152,12.184c0.561,1.232,1.08,2.482,1.553,3.749l14.377,2.851    c4.216,0.836,7.395,4.707,7.395,9.004v17.234c0,4.298-3.179,8.169-7.395,9.005l-14.377,2.851    c-0.474,1.266-0.993,2.518-1.553,3.748l8.152,12.183c2.389,3.573,1.899,8.557-1.139,11.595l-12.187,12.188    c-1.686,1.686-4.064,2.654-6.524,2.654l0,0c-1.835,0-3.588-0.524-5.071-1.516l-12.184-8.152c-1.232,0.561-2.482,1.08-3.749,1.553    l-2.851,14.378C116.936,173.682,113.065,176.86,108.768,176.86z M93.902,164.796h12.496l3.772-19.021l3.462-1.05    c2.881-0.874,5.691-2.039,8.35-3.462l3.191-1.707l16.122,10.786l8.837-8.837l-10.786-16.122l1.707-3.192    c1.421-2.657,2.586-5.466,3.461-8.349l1.05-3.461l19.021-3.772V94.112l-19.021-3.772l-1.05-3.462    c-0.874-2.881-2.039-5.691-3.462-8.35l-1.707-3.191l10.786-16.122l-8.837-8.837l-16.122,10.786l-3.191-1.707    c-2.656-1.421-5.466-2.586-8.352-3.462l-3.46-1.051l-3.772-19.021H93.902L90.13,54.945l-3.46,1.051    c-2.886,0.876-5.695,2.041-8.351,3.462l-3.191,1.707L59.006,50.379l-8.837,8.837l10.786,16.122l-1.707,3.191    c-1.423,2.659-2.588,5.469-3.462,8.35l-1.05,3.462l-19.021,3.772v12.497l19.021,3.772l1.05,3.461    c0.875,2.884,2.04,5.693,3.461,8.349l1.707,3.192l-10.786,16.122l8.837,8.837l16.122-10.786l3.191,1.707    c2.659,1.423,5.468,2.588,8.35,3.462l3.461,1.05L93.902,164.796z"/></g><g><path d="M100.151,134.35c-18.741,0-33.989-15.247-33.989-33.989c0-18.741,15.247-33.989,33.989-33.989    s33.989,15.247,33.989,33.989C134.139,119.102,118.892,134.35,100.151,134.35z M100.151,78.436    c-12.089,0-21.925,9.836-21.925,21.925c0,12.09,9.836,21.926,21.925,21.926s21.925-9.836,21.925-21.926    C122.075,88.271,112.24,78.436,100.151,78.436z"/></g></g></svg>