<?xml version="1.0" ?><!DOCTYPE svg  PUBLIC '-//W3C//DTD SVG 1.1//EN'  'http://www.w3.org/Graphics/SVG/1.1/DTD/svg11.dtd'><svg enable-background="new 0 0 48 48" height="48px" id="Layer_1" version="1.1" viewBox="0 0 48 48" width="48px" xml:space="preserve" xmlns="http://www.w3.org/2000/svg" xmlns:xlink="http://www.w3.org/1999/xlink"><g><path d="M11.297,25.003c-0.271,0-0.543-0.111-0.74-0.33c-0.369-0.408-0.338-1.039,0.07-1.408L36.033,0.258   c0.408-0.371,1.041-0.34,1.408,0.07c0.371,0.408,0.34,1.039-0.07,1.41L11.967,24.743C11.776,24.917,11.536,25.003,11.297,25.003z"/><path d="M36.703,48.001c-0.24,0-0.48-0.086-0.67-0.26L10.627,24.743c-0.408-0.369-0.439-1-0.07-1.408c0.369-0.41,1-0.443,1.41-0.07   l25.404,22.996c0.41,0.369,0.441,1.002,0.07,1.41C37.244,47.888,36.975,48.001,36.703,48.001z"/></g></svg>