<?xml version="1.0" ?><!DOCTYPE svg  PUBLIC '-//W3C//DTD SVG 1.1//EN'  'http://www.w3.org/Graphics/SVG/1.1/DTD/svg11.dtd'><svg enable-background="new 0 0 48 48" height="48px" id="Layer_1" version="1.1" viewBox="0 0 48 48" width="48px" xml:space="preserve" xmlns="http://www.w3.org/2000/svg" xmlns:xlink="http://www.w3.org/1999/xlink"><g><path d="M36.702,25.002c-0.238,0-0.479-0.084-0.668-0.258L10.626,1.739c-0.408-0.37-0.439-1.001-0.07-1.409   c0.371-0.41,1.002-0.441,1.41-0.07l25.406,23.004c0.41,0.371,0.441,1.002,0.07,1.41C37.245,24.893,36.976,25.002,36.702,25.002z"/><path d="M11.298,48c-0.273,0-0.545-0.111-0.742-0.328c-0.369-0.408-0.336-1.041,0.07-1.41l25.408-22.998   c0.406-0.371,1.039-0.338,1.408,0.07c0.371,0.408,0.338,1.041-0.07,1.41L11.966,47.742C11.775,47.914,11.535,48,11.298,48z"/></g></svg>