<?xml version="1.0" ?><!DOCTYPE svg  PUBLIC '-//W3C//DTD SVG 1.1//EN'  'http://www.w3.org/Graphics/SVG/1.1/DTD/svg11.dtd'><svg enable-background="new 0 0 164 164" height="164px" id="Layer_1" version="1.1" viewBox="0 0 164 164" width="164px" xml:space="preserve" xmlns="http://www.w3.org/2000/svg" xmlns:xlink="http://www.w3.org/1999/xlink"><path clip-rule="evenodd" d="M33.93,18.72c0.633,5.097-0.32,9.858-3.115,18.916  c-0.505,1.191-1.88,1.748-3.072,1.243c-1.191-0.505-1.748-1.88-1.243-3.072c4.648-15.012,3.488-16.754-1.697-31.586  c-0.938-2.292,1.902-4.554,3.825-2.745c11.989,10.155,13.199,11.862,28.88,12.903c1.294-0.044,2.378,0.968,2.422,2.261  c0.045,1.293-0.967,2.377-2.261,2.422c-10.015-0.674-14.791-1.549-19.574-4.314c24.32,29.144,84.976-11.713,71.288,59.99  c-7.689,40.276,37.554,17.179,41.949,53.888c4.826,40.294-65.898,51.524-87.222,8.183c-8.086-16.436-9.311-26.92-33.235-29.159  c-6.764-0.633-10.907,0.056-17.761,0.651c7.945-1.482,9.939-2.37,17.854-1.921c24.536,1.392,26.724,12.611,35.334,29.327  c19.161,37.2,79.719,31.271,81.2-2.308c1.638-37.12-51.186-13.615-42.816-59.791C116.673,7.477,60.958,50.285,33.93,18.72z" fill="#333333" fill-rule="evenodd"/></svg>