<?xml version="1.0" ?><!DOCTYPE svg  PUBLIC '-//W3C//DTD SVG 1.1//EN'  'http://www.w3.org/Graphics/SVG/1.1/DTD/svg11.dtd'><svg enable-background="new 0 0 64 64" id="Layer_1" version="1.1" viewBox="0 0 64 64" xml:space="preserve" xmlns="http://www.w3.org/2000/svg" xmlns:xlink="http://www.w3.org/1999/xlink"><path d="  M9,43.5V17.9c0-2.2,2.2-3.9,4.4-3.9h37.5c2.2,0,4.1,1.6,4.1,3.9v25.7c0,2.2-1.9,4.5-4.1,4.5H42v8l-9.3-8H13.4C11.2,48,9,45.7,9,43.5  z" fill="none" stroke="#2C3E50" stroke-linecap="round" stroke-linejoin="round" stroke-miterlimit="10" stroke-width="2"/><path d="  M38,34.7c0,0-0.8-0.1-0.8-0.8c0-0.7,0.3-0.7,0.8-0.7s2.2,1.1,0.8,5.8" fill="none" stroke="#2C3E50" stroke-linecap="round" stroke-linejoin="round" stroke-miterlimit="10" stroke-width="2"/><path d="  M42.6,34.7c0,0-0.8-0.1-0.8-0.8c0-0.7,0.3-0.7,0.8-0.7s2.2,1.1,0.8,5.8" fill="none" stroke="#2C3E50" stroke-linecap="round" stroke-linejoin="round" stroke-miterlimit="10" stroke-width="2"/><path d="  M26,28.4c0,0,0.8,0.1,0.8,0.8s-0.3,0.7-0.8,0.7c-0.4,0-2.2-1.1-0.8-5.8" fill="none" stroke="#2C3E50" stroke-linecap="round" stroke-linejoin="round" stroke-miterlimit="10" stroke-width="2"/><path d="  M21.4,28.4c0,0,0.8,0.1,0.8,0.8s-0.3,0.7-0.8,0.7s-2.2-1.1-0.8-5.8" fill="none" stroke="#2C3E50" stroke-linecap="round" stroke-linejoin="round" stroke-miterlimit="10" stroke-width="2"/></svg>