<?xml version="1.0" ?><!DOCTYPE svg  PUBLIC '-//W3C//DTD SVG 1.1//EN'  'http://www.w3.org/Graphics/SVG/1.1/DTD/svg11.dtd'><svg enable-background="new 0 0 64 64" id="Layer_1" version="1.1" viewBox="0 0 64 64" xml:space="preserve" xmlns="http://www.w3.org/2000/svg" xmlns:xlink="http://www.w3.org/1999/xlink"><path d="  M39,51h5.6c7.8,0,14-6.4,14-14.1c0-7.8-6.4-14.1-14.2-14.1c-1.2,0-2.4,0.2-3.6,0.4C39.9,17.5,35,13.1,29,13.1  c-6.6,0-11.9,5.3-11.9,11.9c0,0.9,0.1,1.8,0.3,2.6 M14.1,28c-4.9,1.4-8.6,5.9-8.6,11.3c0,6.5,5.2,11.7,11.7,11.7H23" fill="none" stroke="#2C3E50" stroke-linecap="round" stroke-linejoin="round" stroke-miterlimit="10" stroke-width="2"/><line fill="none" stroke="#2C3E50" stroke-linecap="round" stroke-linejoin="round" stroke-miterlimit="10" stroke-width="2" x1="31" x2="31" y1="33" y2="51"/><line fill="none" stroke="#2C3E50" stroke-linecap="round" stroke-linejoin="round" stroke-miterlimit="10" stroke-width="2" x1="31" x2="35.2" y1="51" y2="46.8"/><line fill="none" stroke="#2C3E50" stroke-linecap="round" stroke-linejoin="round" stroke-miterlimit="10" stroke-width="2" x1="31" x2="26.6" y1="51" y2="46.6"/></svg>