<?xml version="1.0" ?><!DOCTYPE svg  PUBLIC '-//W3C//DTD SVG 1.1//EN'  'http://www.w3.org/Graphics/SVG/1.1/DTD/svg11.dtd'><svg enable-background="new 0 0 128 128" height="128px" id="Layer_1" version="1.1" viewBox="0 0 128 128" width="128px" xml:space="preserve" xmlns="http://www.w3.org/2000/svg" xmlns:xlink="http://www.w3.org/1999/xlink"><circle cx="64" cy="64" fill="#4B87C8" r="64"/><path d="M96,56.001H72V32c0-2.2-1.8-4-4-4h-8c-2.2,0-4,1.8-4,4v24.001H32c-2.2,0-4,1.8-4,4v8c0,2.2,1.8,4,4,4h24V96  c0,2.2,1.8,4,4,4h8c2.2,0,4-1.8,4-4V72.001h24c2.2,0,4-1.8,4-4v-8C100,57.801,98.2,56.001,96,56.001z" fill="#FFFFFF"/></svg>