<?xml version="1.0" ?><!DOCTYPE svg  PUBLIC '-//W3C//DTD SVG 1.1//EN'  'http://www.w3.org/Graphics/SVG/1.1/DTD/svg11.dtd'><svg enable-background="new 0 0 64 64" id="Layer_1" version="1.1" viewBox="0 0 64 64" xml:space="preserve" xmlns="http://www.w3.org/2000/svg" xmlns:xlink="http://www.w3.org/1999/xlink"><path d="  M12,50h6.3c0,0,4.2,2.4,6.1,2.7c2.1,0.3,11.3,0.5,12.5,0.5c7.5-0.2,12.6-0.4,13.3-6.4c0.5-4.5,0.5-2.9,1-7.4  c0.2-1.9,0.5-10.4-4.2-10.4H33.9c0,0,2.8-6.8,2.8-12.1c0-5.4-1.6-7.6-3.8-7.6c-3.4,0-2.1,6.5-3.4,9.3c-1.5,3.2-5.2,8-5.2,8l-6,6.5  H12" fill="none" stroke="#2C3E50" stroke-linecap="round" stroke-linejoin="round" stroke-miterlimit="10" stroke-width="2"/></svg>