<?xml version="1.0" ?><!DOCTYPE svg  PUBLIC '-//W3C//DTD SVG 1.1//EN'  'http://www.w3.org/Graphics/SVG/1.1/DTD/svg11.dtd'><svg enable-background="new 0 0 56.693 56.693" height="56.693px" id="Layer_1" version="1.1" viewBox="0 0 56.693 56.693" width="56.693px" xml:space="preserve" xmlns="http://www.w3.org/2000/svg" xmlns:xlink="http://www.w3.org/1999/xlink"><g><path d="M38.761,42.087c0.276-0.393,0.531-0.803,0.77-1.229c0.062-0.109,0.124-0.221,0.184-0.332   c0.099-0.189,0.197-0.377,0.287-0.57c0.135-0.285,0.262-0.572,0.379-0.867c0.558-1.408,0.907-2.938,1.022-4.539   c0.029-0.373,0.052-0.748,0.052-1.129c0-0.383-0.022-0.756-0.052-1.129c-0.128-1.783-0.557-3.467-1.226-5.004l0,0   c-0.001-0.002-0.003-0.006-0.005-0.01c-0.224-0.514-0.471-1.011-0.747-1.488c-0.013-0.02-0.023-0.042-0.036-0.062   c-0.106-0.182-0.218-0.358-0.331-0.534c-0.113-0.178-0.231-0.351-0.354-0.522c-0.084-0.119-0.166-0.242-0.254-0.357   c-0.002-0.001-0.002-0.002-0.002-0.002l0,0c-0.563-0.742-1.199-1.416-1.888-2.018c0.133-0.592,0.209-1.205,0.209-1.838   c0-1.987-0.696-3.812-1.856-5.236c0.342-0.727,0.538-1.535,0.538-2.393c0-3.119-2.528-5.648-5.648-5.648V12.3   c-0.398-0.061-0.803-0.103-1.217-0.103c-0.47,0-0.925,0.049-1.372,0.126V7.179c-3.12,0-5.648,2.529-5.648,5.648   c0,0.906,0.22,1.76,0.599,2.518c-1.103,1.407-1.765,3.18-1.765,5.111c0,0.633,0.077,1.246,0.21,1.838   c-0.699,0.612-1.345,1.295-1.915,2.051l0,0c0,0,0,0-0.002,0c-0.061,0.082-0.115,0.168-0.176,0.252   c-0.148,0.207-0.294,0.42-0.433,0.637c-0.104,0.164-0.207,0.329-0.306,0.498c-0.041,0.072-0.08,0.146-0.121,0.221   c-0.25,0.443-0.477,0.902-0.682,1.375v0.002l0,0c-0.586,1.355-0.986,2.824-1.157,4.375l0,0c0,0.002,0,0.002,0,0.004   c-0.021,0.193-0.035,0.385-0.05,0.578c-0.03,0.375-0.053,0.752-0.053,1.135s0.022,0.76,0.053,1.133   c0.015,0.195,0.029,0.387,0.05,0.578c0,0.002,0,0.004,0,0.004l0,0c0.151,1.373,0.474,2.686,0.952,3.91   c0.123,0.311,0.256,0.611,0.397,0.908c0.087,0.184,0.179,0.363,0.272,0.541c0.061,0.115,0.125,0.23,0.188,0.344   c2.265,4.061,6.318,6.775,10.958,6.775c4.134,0,7.801-2.158,10.155-5.498l0,0C38.748,42.106,38.754,42.097,38.761,42.087z" fill="#474A56"/><path d="M50.017,20.488c0.463-0.32,0.74-0.848,0.74-1.412v-2.594c0-0.946-0.769-1.715-1.717-1.715   c-0.947,0-1.715,0.769-1.715,1.715v1.693l-7.187,4.967c0.683,0.908,1.274,1.898,1.765,2.953L50.017,20.488z" fill="#474A56"/><path d="M7.076,20.488l8.17,5.647c0.49-1.057,1.079-2.048,1.759-2.957l-7.236-5.003v-1.693   c0-0.946-0.768-1.715-1.716-1.715s-1.716,0.769-1.716,1.715v2.594C6.337,19.64,6.613,20.167,7.076,20.488z" fill="#474A56"/><path d="M13.657,33.421c0-0.58,0.029-1.152,0.084-1.717H5.539c-0.948,0-1.716,0.77-1.716,1.717   s0.768,1.715,1.716,1.715h8.202C13.687,34.571,13.657,34.001,13.657,33.421z" fill="#474A56"/><path d="M51.479,31.704h-8.05c0.055,0.564,0.084,1.137,0.084,1.717s-0.029,1.15-0.084,1.715h8.05   c0.948,0,1.717-0.768,1.717-1.715S52.427,31.704,51.479,31.704z" fill="#474A56"/><path d="M50.017,45.737l-7.901-5.461c-0.461,1.072-1.024,2.08-1.68,3.012l6.89,4.762v1.693   c0,0.947,0.768,1.715,1.715,1.715c0.948,0,1.717-0.768,1.717-1.715v-2.592C50.757,46.587,50.479,46.06,50.017,45.737z" fill="#474A56"/><path d="M7.077,45.737c-0.463,0.322-0.74,0.85-0.74,1.414v2.592c0,0.947,0.768,1.715,1.716,1.715   s1.716-0.768,1.716-1.715V48.05l6.939-4.797c-0.652-0.934-1.213-1.943-1.671-3.018L7.077,45.737z" fill="#474A56"/></g></svg>