<?xml version="1.0" ?><!DOCTYPE svg  PUBLIC '-//W3C//DTD SVG 1.1//EN'  'http://www.w3.org/Graphics/SVG/1.1/DTD/svg11.dtd'><svg enable-background="new 0 0 56.693 56.693" height="56.693px" id="Layer_1" version="1.1" viewBox="0 0 56.693 56.693" width="56.693px" xml:space="preserve" xmlns="http://www.w3.org/2000/svg" xmlns:xlink="http://www.w3.org/1999/xlink"><g><path d="M28.445,48.989c6.591-2.361,10.517-10.582,12.666-18.994H28.445V48.989z" fill="#474A56"/><path d="M13.679,16.597c0.237,3.851,0.887,8.652,2.1,13.398h12.667V10.832   C22.386,11.783,15.35,14.244,13.679,16.597z" fill="#474A56"/><path d="M48.555,15.256C45.97,8.076,30.446,5.662,28.684,5.41l-0.238-0.035L28.207,5.41   c-1.762,0.252-17.288,2.666-19.871,9.847L8.227,15.56l0.01,0.32c0.044,1.373,1.282,33.726,19.777,38.621l0.432,0.115l0.433-0.115   C47.373,49.606,48.61,17.253,48.655,15.88l0.009-0.32L48.555,15.256z M28.445,51.12c-14.754-4.418-16.644-31.603-16.821-35.001   c1.757-3.783,11.059-6.471,16.821-7.336c5.763,0.865,15.065,3.553,16.82,7.336C45.087,19.517,43.199,46.702,28.445,51.12z" fill="#474A56"/></g></svg>