<?xml version="1.0" ?><!DOCTYPE svg  PUBLIC '-//W3C//DTD SVG 1.1//EN'  'http://www.w3.org/Graphics/SVG/1.1/DTD/svg11.dtd'><svg enable-background="new 0 0 56.693 56.693" height="56.693px" id="Layer_1" version="1.1" viewBox="0 0 56.693 56.693" width="56.693px" xml:space="preserve" xmlns="http://www.w3.org/2000/svg" xmlns:xlink="http://www.w3.org/1999/xlink"><g><path d="M53.232,28.435l-11.06-14.602c-0.306-0.404-0.783-0.641-1.289-0.641H16.348   c-0.507,0-0.983,0.236-1.29,0.641L3.999,28.435c-0.215,0.28-0.33,0.625-0.33,0.978v21.9c0,0.895,0.725,1.617,1.619,1.617h46.655   c0.894,0,1.618-0.723,1.618-1.617v-21.9C53.562,29.06,53.446,28.715,53.232,28.435z M50.325,49.694H6.906V29.956L17.152,16.43   h22.925l10.248,13.526V49.694z" fill="#474A56"/><path d="M38.498,19.039H18.731c-0.307,0-0.596,0.145-0.779,0.391l-7.903,10.642   c-0.219,0.293-0.253,0.686-0.089,1.014c0.165,0.328,0.502,0.535,0.869,0.535h9.163v5.123c0,0.537,0.435,0.971,0.971,0.971h15.306   c0.535,0,0.97-0.434,0.97-0.971V31.62h9.165c0.367,0,0.703-0.207,0.867-0.535c0.165-0.328,0.131-0.721-0.088-1.014l-7.904-10.642   C39.095,19.183,38.806,19.039,38.498,19.039z M36.269,29.679c-0.537,0-0.971,0.434-0.971,0.969v5.125H21.935v-5.125   c0-0.535-0.435-0.969-0.972-0.969h-8.204l6.462-8.699h18.79l6.461,8.699C44.472,29.679,36.269,29.679,36.269,29.679z" fill="#474A56"/></g></svg>