<?xml version="1.0" ?><!DOCTYPE svg  PUBLIC '-//W3C//DTD SVG 1.1//EN'  'http://www.w3.org/Graphics/SVG/1.1/DTD/svg11.dtd'><svg enable-background="new 0 0 56.693 56.693" height="56.693px" id="Layer_1" version="1.1" viewBox="0 0 56.693 56.693" width="56.693px" xml:space="preserve" xmlns="http://www.w3.org/2000/svg" xmlns:xlink="http://www.w3.org/1999/xlink"><g><path d="M37.172,18.212H19.693c-0.329,0-0.593,0.265-0.593,0.591c0,0.326,0.264,0.592,0.593,0.592h17.479   c0.326,0,0.593-0.266,0.593-0.592C37.764,18.477,37.498,18.212,37.172,18.212z" fill="#474A56"/><path d="M37.172,24.035h-6.994c-0.327,0-0.591,0.264-0.591,0.591c0,0.326,0.264,0.592,0.591,0.592h6.994   c0.326,0,0.593-0.266,0.593-0.592C37.764,24.299,37.498,24.035,37.172,24.035z" fill="#474A56"/><path d="M44.897,11.309L38.7,5.199c-0.276-0.273-0.649-0.425-1.038-0.425H13.13c-0.816,0-1.479,0.662-1.479,1.478   v38.796c0,0.817,0.662,1.479,1.479,1.479h4.638v-2.957h-3.159V7.731h22.167v4.644c0,0.49,0.397,0.887,0.887,0.887h4.72v30.309   h-10.69v2.957h12.168c0.818,0,1.479-0.662,1.479-1.479V12.361C45.338,11.965,45.179,11.586,44.897,11.309z" fill="#474A56"/><path d="M29.234,43.571c-0.391,0.358-0.821,0.657-1.311,0.847c-0.197,0.078-0.405,0.14-0.636,0.191l-0.052,0.012   l-0.006,0.001l-0.019,0.004l-0.024,0.004c-0.196,0.039-0.396,0.063-0.596,0.072l-0.081,0.004l-0.044,0l-0.088,0.001   c-0.177,0-0.354-0.01-0.571-0.038l-0.067-0.011l-0.012-0.002c-0.159-0.024-0.321-0.06-0.465-0.099   c-0.062-0.017-0.122-0.034-0.187-0.055c-0.143-0.045-0.282-0.098-0.42-0.158c-0.047-0.02-0.094-0.04-0.143-0.063   c-0.013-0.006-0.026-0.013-0.04-0.02c-0.002,0.001-0.004,0.002-0.006,0.003l-0.059,0.023l-0.019,0.008l-0.058,0.022   c-0.137,0.053-0.281,0.101-0.446,0.145l-0.034,0.01l-0.02,0.005l-0.044,0.012l-0.045,0.01c-0.183,0.042-0.368,0.071-0.576,0.092   c-0.034,0.003-0.068,0.005-0.104,0.007l-0.015,0.002L23,44.605c-0.078,0.004-0.156,0.006-0.234,0.006   c-0.075,0-0.15-0.002-0.243-0.007l-0.037-0.001l-0.022-0.001l-0.035-0.002l-0.034-0.003c-0.194-0.018-0.392-0.05-0.589-0.097   c-0.043-0.01-0.089-0.022-0.143-0.036c-0.224-0.06-0.423-0.129-0.612-0.213c-0.281-0.124-0.553-0.286-0.827-0.492   c-0.077-0.058-0.142-0.125-0.215-0.187c-0.081-0.069-0.165-0.134-0.24-0.209v0.209v9.984c0,0.334,0.201,0.635,0.51,0.763   c0.102,0.043,0.21,0.063,0.316,0.063c0.215,0,0.426-0.084,0.584-0.242l3.552-3.546l3.552,3.546   c0.071,0.071,0.155,0.122,0.243,0.162c0.026,0.012,0.054,0.02,0.08,0.028c0.067,0.022,0.137,0.036,0.208,0.041   c0.027,0.001,0.056,0.005,0.084,0.004c0.096-0.003,0.192-0.019,0.285-0.057c0.309-0.128,0.51-0.429,0.51-0.763v-9.984v-0.477   c-0.062,0.078-0.114,0.164-0.183,0.239C29.424,43.424,29.324,43.489,29.234,43.571z" fill="#474A56"/><path d="M31.184,33.524c-0.046-0.119-0.101-0.23-0.163-0.336c-0.022-0.036-0.047-0.066-0.069-0.1   c-0.046-0.067-0.089-0.135-0.143-0.197c-0.03-0.037-0.064-0.069-0.098-0.103c-0.049-0.052-0.098-0.105-0.151-0.152   c-0.037-0.034-0.079-0.062-0.118-0.092c-0.055-0.042-0.107-0.083-0.165-0.12c-0.044-0.027-0.09-0.051-0.135-0.075   c-0.059-0.032-0.116-0.063-0.177-0.089c-0.047-0.022-0.097-0.038-0.146-0.056c-0.062-0.022-0.124-0.043-0.188-0.061   c-0.05-0.014-0.103-0.025-0.153-0.035c-0.064-0.013-0.129-0.023-0.195-0.031c-0.053-0.006-0.107-0.01-0.16-0.012   c-0.055-0.003-0.11-0.005-0.166-0.005c-0.039,0-0.078,0.001-0.117,0.004c0.113-0.984-0.396-1.976-1.35-2.396   c-0.106-0.047-0.216-0.082-0.322-0.112c-0.024-0.005-0.048-0.013-0.071-0.018c-0.105-0.025-0.213-0.044-0.319-0.053   c-0.018-0.002-0.035-0.002-0.054-0.002c-0.048-0.003-0.097-0.005-0.146-0.005c-0.045,0-0.09,0.001-0.134,0.004   c-0.024,0.002-0.05,0.002-0.075,0.005c-0.105,0.01-0.211,0.025-0.314,0.05c-0.02,0.004-0.039,0.01-0.06,0.016   c-0.087,0.023-0.172,0.051-0.256,0.084c-0.025,0.01-0.05,0.019-0.075,0.029c-0.098,0.042-0.193,0.09-0.286,0.145   c-0.011,0.007-0.022,0.015-0.032,0.021c-0.081,0.051-0.159,0.107-0.234,0.169c-0.023,0.018-0.044,0.035-0.066,0.054   c-0.082,0.071-0.162,0.146-0.234,0.229c-0.067-0.088-0.145-0.168-0.224-0.244c-0.023-0.022-0.046-0.043-0.07-0.063   c-0.062-0.056-0.13-0.109-0.198-0.159c-0.022-0.016-0.043-0.033-0.064-0.048c-0.092-0.059-0.186-0.112-0.281-0.159   c-0.02-0.01-0.041-0.017-0.062-0.026c-0.08-0.037-0.161-0.067-0.245-0.094c-0.031-0.01-0.061-0.019-0.092-0.027   c-0.091-0.025-0.182-0.045-0.275-0.058c-0.016-0.002-0.03-0.006-0.047-0.008c-0.089-0.012-0.18-0.016-0.272-0.016   c-0.019,0-0.04,0-0.06,0c-0.018,0-0.037,0.001-0.055,0.004c-0.11,0.004-0.218,0.017-0.328,0.038   c-0.014,0.003-0.025,0.006-0.04,0.009c-0.114,0.026-0.229,0.058-0.343,0.101c-0.978,0.376-1.534,1.35-1.459,2.344   c-0.083-0.01-0.165-0.014-0.248-0.014c-0.024,0-0.05,0-0.075,0.001c-0.049,0.001-0.096,0.006-0.145,0.01   c-0.067,0.006-0.136,0.012-0.202,0.024c-0.05,0.008-0.097,0.019-0.145,0.031c-0.065,0.015-0.129,0.033-0.193,0.054   c-0.047,0.015-0.094,0.031-0.14,0.05c-0.062,0.025-0.122,0.053-0.183,0.083c-0.043,0.021-0.086,0.044-0.129,0.069   c-0.059,0.035-0.115,0.073-0.17,0.112c-0.04,0.028-0.079,0.055-0.115,0.085c-0.056,0.044-0.108,0.094-0.159,0.144   c-0.032,0.031-0.066,0.062-0.097,0.096c-0.055,0.059-0.102,0.123-0.149,0.189c-0.022,0.031-0.048,0.06-0.069,0.093   c-0.066,0.101-0.125,0.208-0.176,0.321c-0.421,0.954-0.131,2.027,0.614,2.68c-0.543,0.426-0.869,1.072-0.896,1.753   c-0.011,0.3,0.029,0.606,0.146,0.904c0.047,0.12,0.102,0.23,0.164,0.337c0.021,0.035,0.047,0.064,0.068,0.098   c0.046,0.068,0.092,0.137,0.143,0.198c0.029,0.036,0.065,0.067,0.097,0.102c0.049,0.052,0.1,0.106,0.154,0.153   c0.036,0.032,0.077,0.06,0.116,0.09c0.055,0.042,0.109,0.084,0.168,0.12c0.042,0.028,0.088,0.05,0.133,0.075   c0.058,0.032,0.117,0.063,0.179,0.09c0.047,0.021,0.096,0.038,0.144,0.056c0.062,0.022,0.125,0.043,0.189,0.06   c0.016,0.005,0.032,0.012,0.048,0.017c0.035,0.007,0.071,0.011,0.105,0.018c0.035,0.007,0.071,0.012,0.107,0.017   c0.029,0.005,0.059,0.011,0.089,0.015c0.054,0.006,0.107,0.009,0.159,0.011c0.036,0.002,0.07,0.008,0.105,0.008   c0.06,0,0.117-0.001,0.176-0.006c-0.024,0.216-0.006,0.43,0.03,0.64c0.016,0.096,0.028,0.192,0.055,0.286   c0.137,0.474,0.419,0.899,0.826,1.204c0.135,0.101,0.278,0.194,0.439,0.265c0.107,0.047,0.216,0.082,0.324,0.111   c0.024,0.006,0.047,0.013,0.071,0.018c0.105,0.026,0.212,0.045,0.319,0.054c0.018,0.001,0.035,0.001,0.053,0.002   c0.047,0.003,0.093,0.004,0.139,0.004c0.047,0,0.094-0.001,0.14-0.003c0.025-0.002,0.051-0.002,0.077-0.005   c0.106-0.01,0.21-0.026,0.315-0.05c0.017-0.005,0.038-0.012,0.058-0.017c0.086-0.022,0.173-0.05,0.255-0.082   c0.024-0.011,0.052-0.02,0.077-0.031c0.097-0.043,0.193-0.089,0.285-0.145c0.011-0.006,0.021-0.014,0.031-0.021   c0.083-0.05,0.16-0.108,0.236-0.168c0.022-0.018,0.043-0.035,0.065-0.054c0.082-0.071,0.162-0.147,0.234-0.229   c0.069,0.088,0.146,0.167,0.225,0.245c0.022,0.021,0.046,0.042,0.069,0.062c0.064,0.057,0.13,0.11,0.199,0.16   c0.023,0.015,0.044,0.032,0.065,0.046c0.09,0.061,0.184,0.114,0.28,0.16c0.019,0.009,0.04,0.017,0.061,0.026   c0.08,0.036,0.162,0.067,0.246,0.094c0.029,0.009,0.06,0.018,0.091,0.026c0.09,0.025,0.182,0.045,0.274,0.058   c0.016,0.002,0.031,0.006,0.048,0.008c0.092,0.012,0.186,0.016,0.279,0.016c0.018,0,0.035,0,0.053,0   c0.019-0.001,0.037-0.002,0.056-0.003c0.108-0.005,0.218-0.017,0.326-0.039c0.014-0.003,0.027-0.006,0.042-0.009   c0.114-0.025,0.229-0.057,0.341-0.101c0.336-0.13,0.616-0.333,0.844-0.579c0.381-0.412,0.591-0.954,0.609-1.518l0.154-0.242   c0.021,0,0.041,0.001,0.062,0.002c0.033,0.001,0.066,0.004,0.1,0.004c0.004,0,0.008,0,0.012,0c0.049-0.001,0.099-0.006,0.149-0.01   c0.065-0.006,0.132-0.013,0.197-0.025c0.051-0.008,0.1-0.019,0.149-0.03c0.064-0.016,0.128-0.033,0.19-0.053   c0.009-0.004,0.019-0.008,0.029-0.012c0.038-0.012,0.076-0.026,0.112-0.04c0.06-0.025,0.119-0.052,0.179-0.082   c0.044-0.022,0.089-0.045,0.133-0.07c0.057-0.034,0.112-0.071,0.167-0.11c0.04-0.028,0.08-0.055,0.118-0.086   c0.055-0.044,0.105-0.094,0.155-0.142c0.034-0.033,0.068-0.064,0.101-0.098c0.053-0.058,0.099-0.123,0.146-0.187   c0.024-0.033,0.05-0.062,0.071-0.096c0.066-0.101,0.126-0.208,0.177-0.322c0.298-0.677,0.233-1.412-0.093-2.017   c-0.134-0.247-0.306-0.474-0.521-0.663C31.218,35.568,31.563,34.5,31.184,33.524z M22.619,35.138   c0.041-0.093,0.09-0.181,0.143-0.266c0.013-0.022,0.026-0.044,0.04-0.066c0.051-0.077,0.106-0.151,0.166-0.219   c0.003-0.006,0.008-0.011,0.011-0.016c0.064-0.074,0.132-0.14,0.204-0.204c0.018-0.016,0.036-0.032,0.056-0.047   c0.066-0.055,0.134-0.107,0.205-0.153c0.009-0.006,0.018-0.012,0.027-0.019c0.078-0.052,0.162-0.095,0.246-0.135   c0.022-0.01,0.044-0.019,0.067-0.029c0.074-0.033,0.151-0.062,0.23-0.085c0.012-0.005,0.026-0.01,0.04-0.014   c0.089-0.026,0.181-0.045,0.273-0.06c0.024-0.003,0.047-0.006,0.072-0.009c0.079-0.01,0.159-0.016,0.239-0.018   c0.012,0,0.025-0.002,0.038-0.002c0.006,0,0.012,0.001,0.018,0.001c0.04,0,0.079,0.003,0.119,0.006   c0.035,0.002,0.069,0.002,0.106,0.007c0.041,0.004,0.081,0.012,0.121,0.019c0.035,0.006,0.069,0.009,0.102,0.017   c0.046,0.01,0.091,0.023,0.137,0.036c0.027,0.008,0.057,0.014,0.085,0.024c0.075,0.023,0.148,0.05,0.22,0.083   c1.135,0.5,1.648,1.829,1.147,2.965c-0.042,0.094-0.091,0.182-0.142,0.267c-0.014,0.021-0.027,0.042-0.042,0.063   c-0.05,0.076-0.101,0.148-0.161,0.216c-0.001,0.002-0.002,0.004-0.003,0.006c-0.005,0.005-0.008,0.01-0.012,0.014   c-0.063,0.073-0.132,0.14-0.204,0.203c-0.018,0.017-0.037,0.031-0.055,0.047c-0.066,0.056-0.136,0.107-0.208,0.155   c-0.008,0.005-0.016,0.012-0.024,0.018c-0.08,0.05-0.164,0.094-0.248,0.134c-0.023,0.009-0.043,0.019-0.065,0.028   c-0.075,0.033-0.152,0.062-0.231,0.086c-0.013,0.004-0.027,0.009-0.039,0.013c-0.09,0.026-0.183,0.045-0.275,0.06   c-0.023,0.003-0.047,0.006-0.07,0.009c-0.08,0.01-0.16,0.016-0.241,0.018c-0.014,0-0.026,0.002-0.038,0.002   c-0.006,0-0.011,0-0.017,0c-0.042-0.001-0.085-0.004-0.127-0.007c-0.032-0.001-0.065-0.002-0.097-0.005   c-0.045-0.005-0.089-0.013-0.134-0.021c-0.031-0.004-0.06-0.009-0.09-0.015c-0.05-0.011-0.101-0.025-0.149-0.04   c-0.024-0.006-0.049-0.011-0.073-0.019c-0.073-0.024-0.147-0.051-0.219-0.082c-0.32-0.143-0.591-0.352-0.804-0.603   C22.424,36.864,22.259,35.952,22.619,35.138z" fill="#474A56"/></g></svg>