<?xml version="1.0" ?><!DOCTYPE svg  PUBLIC '-//W3C//DTD SVG 1.1//EN'  'http://www.w3.org/Graphics/SVG/1.1/DTD/svg11.dtd'><svg enable-background="new 0 0 56.693 56.693" height="56.693px" id="Layer_1" version="1.1" viewBox="0 0 56.693 56.693" width="56.693px" xml:space="preserve" xmlns="http://www.w3.org/2000/svg" xmlns:xlink="http://www.w3.org/1999/xlink"><g><path d="M34.964,33.679v14.969l-5.384-5.375c-0.638-0.635-1.669-0.635-2.306,0l-5.384,5.375V33.745   c-0.151-0.055-0.302-0.105-0.45-0.172c-1.118-0.494-2.067-1.229-2.814-2.119v21.129c0,0.66,0.397,1.254,1.008,1.508   c0.201,0.084,0.414,0.125,0.625,0.125c0.424,0,0.84-0.166,1.152-0.479l7.016-7.004l7.016,7.004   c0.467,0.465,1.168,0.605,1.779,0.354c0.609-0.254,1.007-0.848,1.007-1.508V30.825C37.45,32.046,36.333,33.038,34.964,33.679z" fill="#474A56"/><path d="M41.177,13.016c-0.091-0.234-0.2-0.455-0.323-0.664c-0.04-0.07-0.092-0.13-0.136-0.196   c-0.09-0.134-0.178-0.269-0.279-0.39c-0.06-0.072-0.128-0.135-0.191-0.203c-0.098-0.104-0.195-0.209-0.303-0.302   c-0.072-0.065-0.153-0.12-0.232-0.181c-0.107-0.082-0.213-0.164-0.328-0.236c-0.085-0.055-0.174-0.1-0.262-0.148   c-0.117-0.062-0.232-0.125-0.354-0.178c-0.094-0.041-0.189-0.074-0.285-0.108c-0.123-0.045-0.246-0.087-0.373-0.121   c-0.1-0.026-0.201-0.048-0.303-0.067c-0.127-0.025-0.257-0.047-0.387-0.061c-0.104-0.013-0.209-0.02-0.314-0.023   c-0.187-0.01-0.373-0.018-0.561-0.002c0.224-1.943-0.782-3.902-2.665-4.732c-0.21-0.094-0.425-0.162-0.64-0.221   c-0.045-0.012-0.092-0.025-0.139-0.036c-0.209-0.051-0.42-0.087-0.63-0.106c-0.035-0.003-0.069-0.003-0.104-0.004   c-0.186-0.013-0.369-0.012-0.553-0.002c-0.05,0.003-0.1,0.004-0.148,0.01c-0.211,0.02-0.418,0.051-0.623,0.1   c-0.039,0.009-0.076,0.021-0.114,0.031c-0.173,0.045-0.342,0.1-0.509,0.166c-0.049,0.02-0.099,0.036-0.147,0.058   c-0.193,0.083-0.383,0.177-0.565,0.286c-0.022,0.014-0.042,0.03-0.063,0.043c-0.161,0.1-0.315,0.212-0.464,0.332   c-0.043,0.034-0.086,0.071-0.13,0.107c-0.162,0.141-0.319,0.289-0.463,0.453c-0.136-0.174-0.286-0.332-0.444-0.482   c-0.043-0.044-0.089-0.082-0.135-0.125c-0.127-0.111-0.259-0.217-0.396-0.314c-0.042-0.031-0.083-0.064-0.127-0.094   c-0.178-0.117-0.362-0.223-0.555-0.314c-0.039-0.02-0.079-0.033-0.119-0.051c-0.158-0.072-0.32-0.133-0.486-0.186   c-0.059-0.02-0.119-0.037-0.18-0.053c-0.178-0.051-0.361-0.089-0.545-0.115c-0.03-0.004-0.059-0.012-0.09-0.016   c-0.217-0.027-0.438-0.035-0.659-0.03c-0.036,0.001-0.073,0.003-0.108,0.007c-0.215,0.01-0.43,0.033-0.646,0.076   c-0.026,0.006-0.053,0.012-0.079,0.018c-0.228,0.051-0.454,0.113-0.678,0.2c-1.929,0.743-3.028,2.667-2.882,4.63   c-0.213-0.026-0.426-0.029-0.637-0.024c-0.096,0.003-0.191,0.013-0.285,0.021c-0.135,0.011-0.27,0.024-0.402,0.047   c-0.097,0.017-0.189,0.039-0.284,0.061c-0.129,0.03-0.257,0.066-0.383,0.106c-0.093,0.03-0.183,0.063-0.273,0.1   c-0.122,0.048-0.243,0.104-0.36,0.164c-0.087,0.042-0.173,0.086-0.256,0.135c-0.116,0.069-0.228,0.145-0.337,0.222   c-0.077,0.055-0.155,0.107-0.229,0.168c-0.109,0.088-0.21,0.186-0.312,0.285c-0.064,0.062-0.132,0.121-0.193,0.19   c-0.104,0.116-0.198,0.243-0.292,0.37c-0.046,0.063-0.097,0.121-0.139,0.188c-0.13,0.199-0.247,0.41-0.349,0.635   c-0.83,1.883-0.256,4.004,1.215,5.293c-1.546,1.21-2.229,3.318-1.48,5.248c0.091,0.236,0.2,0.455,0.324,0.666   c0.041,0.068,0.091,0.13,0.135,0.194c0.09,0.134,0.178,0.27,0.28,0.392c0.06,0.071,0.129,0.135,0.192,0.202   c0.098,0.104,0.195,0.209,0.303,0.302c0.072,0.065,0.154,0.119,0.23,0.179c0.108,0.083,0.215,0.166,0.33,0.237   c0.085,0.055,0.175,0.1,0.264,0.148c0.115,0.063,0.231,0.125,0.352,0.178c0.095,0.04,0.19,0.074,0.287,0.109   c0.123,0.044,0.246,0.086,0.373,0.119c0.031,0.01,0.062,0.014,0.094,0.021c0.069,0.018,0.139,0.032,0.208,0.047   c0.13,0.026,0.258,0.047,0.388,0.062c0.104,0.011,0.209,0.018,0.313,0.021c0.185,0.01,0.37,0.016,0.557,0.004   c-0.185,1.613,0.489,3.227,1.799,4.206c0.267,0.199,0.55,0.383,0.868,0.523c0.21,0.094,0.424,0.162,0.64,0.221   c0.046,0.012,0.093,0.025,0.139,0.035c0.209,0.051,0.419,0.088,0.631,0.107c0.034,0.002,0.069,0.002,0.104,0.004   c0.186,0.014,0.369,0.012,0.551,0.002c0.051-0.004,0.102-0.004,0.15-0.01c0.21-0.02,0.418-0.051,0.622-0.098   c0.039-0.01,0.077-0.023,0.116-0.033c0.172-0.045,0.34-0.1,0.505-0.162c0.05-0.021,0.101-0.041,0.149-0.061   c0.194-0.084,0.383-0.176,0.564-0.285c0.023-0.014,0.044-0.029,0.066-0.045c0.159-0.1,0.312-0.211,0.461-0.328   c0.044-0.037,0.088-0.072,0.131-0.109c0.162-0.141,0.318-0.291,0.462-0.454c0.137,0.174,0.286,0.331,0.443,0.483   c0.044,0.043,0.091,0.084,0.138,0.123c0.125,0.113,0.258,0.219,0.394,0.316c0.044,0.029,0.085,0.062,0.13,0.092   c0.178,0.119,0.363,0.225,0.554,0.314c0.039,0.02,0.079,0.035,0.117,0.053c0.16,0.07,0.323,0.133,0.488,0.186   c0.06,0.02,0.12,0.037,0.181,0.053c0.178,0.049,0.359,0.088,0.541,0.113c0.031,0.006,0.062,0.014,0.094,0.018   c0.217,0.027,0.438,0.035,0.658,0.031c0.037-0.002,0.072-0.004,0.108-0.006c0.216-0.01,0.431-0.033,0.646-0.076   c0.026-0.006,0.053-0.014,0.08-0.02c0.228-0.049,0.453-0.111,0.677-0.199c0.661-0.256,1.215-0.656,1.664-1.143   c0.863-0.934,1.314-2.2,1.217-3.487c0.178,0.019,0.354,0.028,0.53,0.028c0.035,0,0.069-0.007,0.103-0.007   c0.1-0.003,0.197-0.012,0.296-0.02c0.132-0.012,0.263-0.025,0.392-0.049c0.1-0.016,0.195-0.037,0.293-0.06   c0.126-0.032,0.251-0.065,0.375-0.104c0.019-0.008,0.039-0.012,0.06-0.019c0.075-0.024,0.147-0.056,0.22-0.083   c0.121-0.049,0.239-0.104,0.354-0.162c0.089-0.043,0.178-0.089,0.263-0.138c0.113-0.067,0.222-0.142,0.33-0.218   c0.079-0.056,0.16-0.109,0.235-0.17c0.107-0.088,0.207-0.186,0.307-0.281c0.065-0.064,0.135-0.125,0.195-0.193   c0.104-0.115,0.198-0.242,0.291-0.369c0.045-0.064,0.098-0.123,0.141-0.188c0.129-0.199,0.248-0.41,0.347-0.636   c0.831-1.883,0.259-4.005-1.214-5.293C41.245,17.052,41.927,14.943,41.177,13.016z M32.38,19.791   c-0.081,0.185-0.177,0.358-0.28,0.526c-0.026,0.043-0.053,0.084-0.081,0.125c-0.098,0.15-0.203,0.294-0.316,0.427   c-0.004,0.004-0.006,0.009-0.009,0.013c-0.009,0.009-0.015,0.019-0.022,0.027c-0.125,0.145-0.262,0.276-0.402,0.4   c-0.037,0.033-0.072,0.062-0.109,0.094c-0.131,0.109-0.267,0.212-0.408,0.305c-0.018,0.011-0.033,0.023-0.051,0.035   c-0.156,0.1-0.32,0.186-0.489,0.266c-0.042,0.02-0.085,0.037-0.128,0.055c-0.149,0.066-0.303,0.125-0.459,0.173   c-0.025,0.008-0.051,0.018-0.076,0.024c-0.178,0.052-0.359,0.09-0.543,0.119c-0.046,0.006-0.092,0.012-0.138,0.018   c-0.159,0.02-0.318,0.031-0.479,0.035c-0.024,0-0.048,0.004-0.073,0.004c-0.011,0-0.022,0-0.032,0   c-0.084-0.002-0.166-0.008-0.25-0.014c-0.064-0.004-0.128-0.006-0.191-0.012c-0.09-0.01-0.177-0.026-0.266-0.042   c-0.059-0.009-0.117-0.017-0.177-0.029c-0.101-0.021-0.2-0.052-0.3-0.079c-0.047-0.014-0.093-0.021-0.139-0.037   c-0.146-0.047-0.291-0.102-0.434-0.164c-0.634-0.281-1.166-0.694-1.586-1.19c-1.065-1.257-1.393-3.058-0.682-4.665   c0.082-0.184,0.178-0.358,0.28-0.525c0.026-0.043,0.054-0.086,0.081-0.127c0.102-0.154,0.209-0.301,0.326-0.438   c0.008-0.009,0.014-0.019,0.021-0.027c0.126-0.146,0.262-0.278,0.404-0.403c0.035-0.033,0.071-0.062,0.108-0.093   c0.131-0.108,0.266-0.211,0.407-0.304c0.019-0.012,0.033-0.024,0.051-0.035c0.158-0.102,0.322-0.188,0.49-0.266   c0.043-0.021,0.085-0.039,0.129-0.058c0.148-0.065,0.302-0.122,0.457-0.171c0.026-0.008,0.052-0.018,0.078-0.025   c0.177-0.052,0.357-0.088,0.541-0.118c0.047-0.007,0.093-0.013,0.141-0.019c0.156-0.02,0.314-0.031,0.473-0.035   c0.026,0,0.052-0.004,0.078-0.004c0.012,0,0.023,0.002,0.035,0.002c0.078,0,0.156,0.006,0.234,0.012   c0.069,0.004,0.139,0.004,0.207,0.014c0.081,0.008,0.162,0.023,0.242,0.036c0.066,0.013,0.133,0.019,0.199,0.034   c0.09,0.02,0.18,0.045,0.268,0.07c0.059,0.017,0.115,0.027,0.171,0.047c0.145,0.047,0.29,0.1,0.432,0.164   C32.355,14.923,33.372,17.547,32.38,19.791z" fill="#474A56"/></g></svg>