<?xml version="1.0" ?><!DOCTYPE svg  PUBLIC '-//W3C//DTD SVG 1.1//EN'  'http://www.w3.org/Graphics/SVG/1.1/DTD/svg11.dtd'><svg enable-background="new 0 0 56.693 56.693" height="56.693px" id="Layer_1" version="1.1" viewBox="0 0 56.693 56.693" width="56.693px" xml:space="preserve" xmlns="http://www.w3.org/2000/svg" xmlns:xlink="http://www.w3.org/1999/xlink"><g><path d="M29.411,36.53c-0.002,0-0.002-0.001-0.002-0.001c-0.301-0.299-0.701-0.466-1.125-0.466   c-0.423,0-0.823,0.166-1.124,0.466c-0.301,0.3-0.467,0.7-0.467,1.125c0,0.425,0.166,0.825,0.467,1.125   c0.604,0.602,1.649,0.602,2.251,0C30.031,38.161,30.031,37.151,29.411,36.53L29.411,36.53z" fill="#474A56"/><path d="M39.616,25.222v-9.618c0-6.238-5.074-11.313-11.312-11.313S16.991,9.366,16.991,15.604v9.618   c-3.327,3.058-5.414,7.445-5.414,12.321c0,9.239,7.488,16.728,16.728,16.728c9.238,0,16.729-7.489,16.729-16.728   C45.033,32.667,42.945,28.28,39.616,25.222z M21.827,15.604c0-3.572,2.905-6.479,6.478-6.479c3.571,0,6.479,2.907,6.479,6.479   v6.512c-1.993-0.838-4.181-1.302-6.479-1.302c-2.297,0-4.487,0.463-6.478,1.302V15.604z M29.332,27.59v1.607   c0,0.572-0.465,1.035-1.036,1.035c-0.572,0-1.037-0.463-1.037-1.035V27.59c0-0.572,0.465-1.035,1.037-1.035   C28.867,26.555,29.332,27.018,29.332,27.59z M18.229,38.691c-0.57,0-1.036-0.464-1.036-1.036c0-0.572,0.466-1.036,1.036-1.036   h1.609c0.573,0,1.034,0.464,1.034,1.036c0,0.572-0.461,1.036-1.034,1.036H18.229z M22.878,44.538l-1.137,1.136   c-0.204,0.202-0.468,0.304-0.732,0.304c-0.266,0-0.53-0.102-0.733-0.304c-0.404-0.404-0.404-1.06,0-1.464l1.137-1.136   c0.405-0.406,1.06-0.406,1.466,0C23.281,43.478,23.281,44.134,22.878,44.538z M22.878,32.236c-0.203,0.203-0.469,0.303-0.734,0.303   c-0.263,0-0.529-0.101-0.731-0.303L20.277,31.1c-0.406-0.404-0.406-1.06,0-1.464c0.403-0.405,1.06-0.405,1.464,0l1.137,1.136   C23.281,31.176,23.281,31.833,22.878,32.236z M29.332,47.72c0,0.573-0.465,1.036-1.036,1.036c-0.572,0-1.037-0.463-1.037-1.036   v-1.607c0-0.573,0.465-1.036,1.037-1.036c0.571,0,1.036,0.463,1.036,1.036V47.72z M32.916,34.98l-0.734,0.735   c0.808,1.629,0.539,3.663-0.816,5.018c-0.822,0.823-1.918,1.276-3.079,1.276c-1.163,0-2.256-0.453-3.078-1.275   c-0.822-0.822-1.275-1.915-1.275-3.079c0-1.163,0.453-2.256,1.273-3.079c0.824-0.822,1.917-1.275,3.078-1.275   c0.687,0,1.347,0.162,1.941,0.459l0.736-0.734c0.539-0.539,1.413-0.539,1.954,0C33.455,33.566,33.455,34.44,32.916,34.98z    M33.713,30.772l1.138-1.136c0.404-0.405,1.061-0.405,1.464,0c0.406,0.404,0.406,1.06,0,1.464l-1.136,1.137   c-0.202,0.203-0.467,0.303-0.733,0.303c-0.263,0-0.529-0.101-0.732-0.303C33.309,31.833,33.309,31.176,33.713,30.772z    M36.314,45.674c-0.203,0.202-0.466,0.304-0.731,0.304c-0.266,0-0.531-0.102-0.732-0.304l-1.138-1.136   c-0.403-0.405-0.403-1.06,0.002-1.465c0.404-0.405,1.062-0.405,1.464,0l1.136,1.136C36.72,44.614,36.72,45.27,36.314,45.674z    M38.359,38.691h-1.606c-0.573,0-1.034-0.464-1.034-1.036c0-0.572,0.461-1.036,1.034-1.036h1.606c0.572,0,1.037,0.464,1.037,1.036   C39.396,38.227,38.931,38.691,38.359,38.691z" fill="#474A56"/></g></svg>