<?xml version="1.0" ?><!DOCTYPE svg  PUBLIC '-//W3C//DTD SVG 1.1//EN'  'http://www.w3.org/Graphics/SVG/1.1/DTD/svg11.dtd'><svg enable-background="new 0 0 56.693 56.693" height="56.693px" id="Layer_1" version="1.1" viewBox="0 0 56.693 56.693" width="56.693px" xml:space="preserve" xmlns="http://www.w3.org/2000/svg" xmlns:xlink="http://www.w3.org/1999/xlink"><g><path d="M52.598,28.049l-13.63-8.566c-0.812-0.511-1.883-0.266-2.393,0.546c-0.511,0.812-0.266,1.883,0.546,2.393   l11.223,7.052l-11.182,6.615c-0.826,0.488-1.1,1.553-0.61,2.377c0.322,0.548,0.901,0.853,1.495,0.853   c0.299,0,0.604-0.079,0.881-0.243l13.632-8.063c0.521-0.309,0.844-0.866,0.853-1.471C53.42,28.937,53.111,28.371,52.598,28.049z" fill="#474A56"/><path d="M19.63,36.113L8.408,29.061l11.184-6.615c0.824-0.488,1.099-1.552,0.609-2.377   c-0.487-0.825-1.552-1.097-2.378-0.61l-13.63,8.064c-0.521,0.308-0.846,0.865-0.853,1.471c-0.007,0.605,0.3,1.17,0.812,1.492   l13.632,8.566c0.288,0.18,0.606,0.267,0.921,0.267c0.579,0,1.142-0.288,1.472-0.813C20.686,37.694,20.444,36.623,19.63,36.113z" fill="#474A56"/><path d="M33.236,14.081c-1.097-0.343-2.267,0.269-2.607,1.366l-8.095,25.897c-0.343,1.098,0.271,2.266,1.367,2.609   c0.208,0.064,0.418,0.096,0.623,0.096c0.886,0,1.708-0.572,1.986-1.462l8.094-25.896C34.947,15.592,34.335,14.424,33.236,14.081z" fill="#474A56"/></g></svg>