<?xml version="1.0" ?><!DOCTYPE svg  PUBLIC '-//W3C//DTD SVG 1.1//EN'  'http://www.w3.org/Graphics/SVG/1.1/DTD/svg11.dtd'><svg enable-background="new 0 0 56.693 56.693" height="56.693px" id="Layer_1" version="1.1" viewBox="0 0 56.693 56.693" width="56.693px" xml:space="preserve" xmlns="http://www.w3.org/2000/svg" xmlns:xlink="http://www.w3.org/1999/xlink"><g><path d="M45.517,31.166c-0.302,0-0.604,0.017-0.902,0.047c-0.997-3.263-4.03-5.583-7.549-5.583   c-0.411,0-0.978,0.035-1.49,0.099c-2.004-1.697-4.114-2.492-6.591-2.492c-5.275,0-9.565,3.792-10.437,9.113   c-2.304,1.428-3.809,3.842-3.809,6.197c0,4.068,3.381,7.378,7.535,7.378h23.242c4.289,0,7.912-3.379,7.912-7.378   C53.429,34.547,49.806,31.166,45.517,31.166z" fill="#474A56"/><path d="M39.383,50.987H6.781V8.032h26.021v5.452c0,0.575,0.465,1.041,1.041,1.041h5.54v7.184   c1.245,0.268,2.417,0.927,3.471,1.587v-9.828c0-0.464-0.188-0.91-0.518-1.235L35.061,5.06c-0.324-0.32-0.762-0.499-1.218-0.499   H5.046c-0.959,0-1.735,0.777-1.735,1.735v46.426c0,0.959,0.776,1.736,1.735,1.736h36.071c0.961,0,1.737-0.777,1.737-1.736v-3.579   h-3.471V50.987z" fill="#474A56"/></g></svg>