<?xml version="1.0" ?><!DOCTYPE svg  PUBLIC '-//W3C//DTD SVG 1.1//EN'  'http://www.w3.org/Graphics/SVG/1.1/DTD/svg11.dtd'><svg enable-background="new 0 0 56.693 56.693" height="56.693px" id="Layer_1" version="1.1" viewBox="0 0 56.693 56.693" width="56.693px" xml:space="preserve" xmlns="http://www.w3.org/2000/svg" xmlns:xlink="http://www.w3.org/1999/xlink"><path d="M40.171,54.326h-7.007c-1.146,0-2.074-0.929-2.074-2.075c0-1.146,0.928-2.073,2.074-2.073h7.007  c1.146,0,2.075,0.928,2.075,2.073C42.246,53.397,41.317,54.326,40.171,54.326z M24.755,54.326h-7.007  c-1.146,0-2.075-0.929-2.075-2.075c0-1.146,0.929-2.073,2.075-2.073h7.007c1.146,0,2.074,0.928,2.074,2.073  C26.829,53.397,25.901,54.326,24.755,54.326z M9.496,53.382c-0.338,0-0.68-0.083-0.998-0.257c-2.633-1.448-4.477-4.081-4.933-7.042  c-0.174-1.131,0.602-2.192,1.734-2.365c1.13-0.177,2.192,0.601,2.367,1.734c0.26,1.696,1.319,3.206,2.832,4.036  c1.003,0.553,1.37,1.814,0.818,2.818C10.939,52.995,10.228,53.382,9.496,53.382z M48.227,52.736c-0.621,0-1.235-0.277-1.644-0.809  c-0.701-0.906-0.532-2.209,0.376-2.909c1.385-1.068,2.178-2.681,2.178-4.425c0-1.146,0.929-2.092,2.074-2.092  c1.147,0,2.076,0.914,2.076,2.06v0.032c0,3.041-1.383,5.851-3.794,7.711C49.115,52.595,48.67,52.736,48.227,52.736z M5.526,39.439  c-1.146,0-2.075-0.929-2.075-2.074v-7.008c0-1.146,0.929-2.075,2.075-2.075c1.146,0,2.075,0.929,2.075,2.075v7.008  C7.601,38.51,6.672,39.439,5.526,39.439z M51.211,38.227c-1.145,0-2.074-0.929-2.074-2.075v-7.008c0-1.146,0.929-2.074,2.074-2.074  c1.147,0,2.076,0.929,2.076,2.074v7.008C53.287,37.298,52.358,38.227,51.211,38.227z M5.526,24.023c-1.146,0-2.075-0.93-2.075-2.075  V14.94c0-1.146,0.929-2.075,2.075-2.075c1.146,0,2.075,0.93,2.075,2.075v7.008C7.601,23.093,6.672,24.023,5.526,24.023z   M51.211,22.81c-1.145,0-2.074-0.929-2.074-2.074v-6.513c0-0.121-0.004-0.243-0.012-0.362c-0.073-1.144,0.795-2.13,1.938-2.203  c1.139-0.07,2.13,0.795,2.203,1.939c0.014,0.207,0.021,0.416,0.021,0.627v6.513C53.287,21.881,52.358,22.81,51.211,22.81z   M9.074,9.836c-0.686,0-1.356-0.339-1.751-0.959c-0.616-0.967-0.332-2.25,0.634-2.865c1.561-0.996,3.369-1.522,5.227-1.522h2.666  c1.146,0,2.074,0.93,2.074,2.075c0,1.146-0.929,2.075-2.074,2.075h-2.666c-1.066,0-2.103,0.301-2.996,0.871  C9.842,9.731,9.456,9.836,9.074,9.836z M46.595,9.269c-0.275,0-0.556-0.055-0.824-0.172c-0.7-0.303-1.447-0.457-2.218-0.457h-3.878  c-1.146,0-2.075-0.929-2.075-2.075c0-1.146,0.929-2.075,2.075-2.075h3.878c1.342,0,2.644,0.27,3.868,0.8  c1.051,0.456,1.535,1.677,1.078,2.729C48.161,8.801,47.397,9.269,46.595,9.269z M31.267,8.64h-7.008  c-1.145,0-2.075-0.929-2.075-2.075c0-1.146,0.929-2.075,2.075-2.075h7.008c1.145,0,2.074,0.93,2.074,2.075  C33.341,7.711,32.412,8.64,31.267,8.64z" fill="#474A56"/></svg>