<?xml version="1.0" ?><!DOCTYPE svg  PUBLIC '-//W3C//DTD SVG 1.1//EN'  'http://www.w3.org/Graphics/SVG/1.1/DTD/svg11.dtd'><svg enable-background="new 0 0 56.693 56.693" height="56.693px" id="Layer_1" version="1.1" viewBox="0 0 56.693 56.693" width="56.693px" xml:space="preserve" xmlns="http://www.w3.org/2000/svg" xmlns:xlink="http://www.w3.org/1999/xlink"><path d="M28.579,4.215c-13.635,0-24.684,11.057-24.684,24.69c0,13.637,11.049,24.682,24.684,24.682  c13.631,0,24.689-11.045,24.689-24.682C53.269,15.272,42.21,4.215,28.579,4.215z M42.122,25.759l-7.357,5.52l2.674,8.742  c0.104,0.336-0.019,0.705-0.305,0.914c-0.146,0.107-0.318,0.162-0.492,0.162c-0.164,0-0.329-0.049-0.471-0.148l-7.59-5.225  l-7.588,5.225c-0.289,0.201-0.677,0.195-0.963-0.014s-0.408-0.576-0.305-0.914l2.673-8.742l-7.356-5.52  c-0.283-0.213-0.401-0.582-0.293-0.919c0.109-0.34,0.42-0.571,0.777-0.579l9.238-0.186l3.031-8.633  c0.118-0.333,0.432-0.556,0.785-0.556s0.67,0.223,0.787,0.556l3.031,8.633l9.238,0.186c0.355,0.008,0.667,0.239,0.776,0.579  C42.522,25.177,42.405,25.546,42.122,25.759z" fill="#474A56"/></svg>