<?xml version="1.0" ?><!DOCTYPE svg  PUBLIC '-//W3C//DTD SVG 1.1//EN'  'http://www.w3.org/Graphics/SVG/1.1/DTD/svg11.dtd'><svg enable-background="new 0 0 56.693 56.693" height="56.693px" id="Layer_1" version="1.1" viewBox="0 0 56.693 56.693" width="56.693px" xml:space="preserve" xmlns="http://www.w3.org/2000/svg" xmlns:xlink="http://www.w3.org/1999/xlink"><g><path d="M22.336,28.567c3.403,0,5.791-3.485,5.791-8.933S25.739,8.842,22.336,8.842   c-3.407,0-6.166,4.416-6.166,9.861C16.17,24.152,18.928,28.567,22.336,28.567z" fill="#474A56"/><path d="M34.835,28.567c2.977,0,5.389-4.415,5.389-9.863c0-5.445-2.412-9.861-5.389-9.861   c-2.977,0-4.119,4.416-4.119,9.861C30.715,24.152,31.858,28.567,34.835,28.567z" fill="#474A56"/><path d="M42.84,25.649c-4.645,4.513-4.514,7.062-0.851,12.489c3.661,5.43,6.996-4.445,6.406-11.312   C47.81,19.96,42.84,25.649,42.84,25.649z" fill="#474A56"/><path d="M13.153,24.539c-3.987-4.121-5.299,2.877-5.299,2.877c-1.24,10.069,3.533,14.649,7.781,10.332   C19.889,33.431,16.435,27.929,13.153,24.539z" fill="#474A56"/><path d="M23.091,35.916c-8.37,9.535-7.717,13.732-6.922,15.891c0.797,2.158,3.551,0.858,6.987-1.176   c3.531-2.095,6.931-1.963,9.808-0.197c3.156,1.936,3.533,4.707,6.33,3.007c4.818-2.928,1.322-8.369-5.023-17.263   C27.931,27.285,23.091,35.916,23.091,35.916z" fill="#474A56"/><path d="M9.579,20.57c0,0-0.446-2.045-1.4-1.819c-0.955,0.226-0.312,2.25-0.312,2.25   C8.357,21.888,9.579,20.57,9.579,20.57z" fill="#474A56"/><path d="M23.055,6.491c0,0,0.4-2.056-0.566-2.226c-0.964-0.173-1.179,1.941-1.179,1.941   C21.411,7.216,23.055,6.491,23.055,6.491z" fill="#474A56"/><path d="M35.468,6.207c0,0-0.212-2.114-1.177-1.941c-0.968,0.17-0.565,2.226-0.565,2.226S35.37,7.216,35.468,6.207z   " fill="#474A56"/><path d="M48.112,18.222c-0.975-0.102-1.152,1.985-1.152,1.985s1.383,1.149,1.756,0.203   C48.715,20.411,49.088,18.32,48.112,18.222z" fill="#474A56"/></g></svg>