<?xml version="1.0" ?><!DOCTYPE svg  PUBLIC '-//W3C//DTD SVG 1.1//EN'  'http://www.w3.org/Graphics/SVG/1.1/DTD/svg11.dtd'><svg enable-background="new 0 0 56.693 56.693" height="56.693px" id="Layer_1" version="1.1" viewBox="0 0 56.693 56.693" width="56.693px" xml:space="preserve" xmlns="http://www.w3.org/2000/svg" xmlns:xlink="http://www.w3.org/1999/xlink"><path d="M21.903,54.021c-0.229,0-0.462-0.043-0.684-0.135c-0.668-0.275-1.103-0.928-1.103-1.65l-0.013-14.268  L5.837,37.956c-0.723-0.002-1.374-0.438-1.65-1.104c-0.275-0.668-0.123-1.439,0.388-1.947L34.155,5.323  c0.697-0.697,1.83-0.697,2.527,0l16.066,16.066c0.336,0.336,0.523,0.789,0.523,1.266c0,0.473-0.188,0.928-0.523,1.262L23.168,53.497  C22.825,53.841,22.368,54.021,21.903,54.021z M10.149,34.384l11.742,0.012c0.985,0,1.785,0.799,1.785,1.785l0.011,11.742  l25.27-25.268L35.42,9.115L10.149,34.384z" fill="#474A56"/></svg>