<?xml version="1.0" ?><!DOCTYPE svg  PUBLIC '-//W3C//DTD SVG 1.1//EN'  'http://www.w3.org/Graphics/SVG/1.1/DTD/svg11.dtd'><svg enable-background="new 0 0 56.693 56.693" height="56.693px" id="Layer_1" version="1.1" viewBox="0 0 56.693 56.693" width="56.693px" xml:space="preserve" xmlns="http://www.w3.org/2000/svg" xmlns:xlink="http://www.w3.org/1999/xlink"><path d="M42.895,24.22c-0.312,0-0.623,0.013-0.932,0.038c-1.381-4.154-5.297-7.084-9.827-7.084  c-0.413,0-1.116,0.033-1.802,0.111c-2.559-2.124-5.343-3.159-8.482-3.159c-6.826,0-12.381,4.869-13.566,11.722  c-2.951,1.881-4.874,5.013-4.874,8.072c0,5.35,4.44,9.7,9.899,9.7h29.584c5.625,0,10.378-4.441,10.378-9.7  C53.273,28.662,48.52,24.22,42.895,24.22z M42.895,39.62H13.311c-3.644,0-5.899-2.958-5.899-5.7c0-1.878,1.493-3.953,3.63-5.046  l0.965-0.493l0.113-1.078c0.561-5.317,4.654-9.177,9.732-9.177c2.457,0,4.465,0.848,6.508,2.747l0.783,0.726l1.04-0.246  c0.39-0.092,1.339-0.18,1.953-0.18c3.218,0,5.931,2.408,6.312,5.601l0.271,2.287l2.226-0.589c0.632-0.168,1.288-0.253,1.95-0.253  c3.397,0,6.378,2.664,6.378,5.7C49.273,36.957,46.293,39.62,42.895,39.62z" fill="#474A56"/></svg>