<?xml version="1.0" ?><!DOCTYPE svg  PUBLIC '-//W3C//DTD SVG 1.1//EN'  'http://www.w3.org/Graphics/SVG/1.1/DTD/svg11.dtd'><svg enable-background="new 0 0 56.693 56.693" height="56.693px" id="Layer_1" version="1.1" viewBox="0 0 56.693 56.693" width="56.693px" xml:space="preserve" xmlns="http://www.w3.org/2000/svg" xmlns:xlink="http://www.w3.org/1999/xlink"><path d="M52.53,48.067L37.986,33.523c-0.78-0.781-2.048-0.781-2.828,0l-0.228,0.228l-3.222-3.222  c2.345-2.828,3.623-6.35,3.623-10.069c0-4.224-1.646-8.195-4.632-11.182c-2.987-2.987-6.958-4.632-11.182-4.632  c-4.224,0-8.195,1.645-11.181,4.632c-2.987,2.986-4.632,6.958-4.632,11.182c0,4.224,1.645,8.195,4.632,11.182  c2.986,2.987,6.957,4.632,11.182,4.632c3.72,0,7.242-1.278,10.069-3.623l3.222,3.222L32.581,36.1c-0.781,0.781-0.781,2.047,0,2.828  l14.543,14.543c0.39,0.391,0.902,0.586,1.414,0.586c0.512,0,1.024-0.195,1.414-0.586l2.577-2.577  C53.311,50.114,53.311,48.848,52.53,48.067z M19.518,30.273c-2.622,0-5.086-1.021-6.94-2.874c-1.853-1.854-2.874-4.318-2.874-6.939  c0-2.622,1.021-5.086,2.874-6.94c1.854-1.853,4.318-2.874,6.939-2.874c2.622,0,5.086,1.021,6.94,2.875  c1.853,1.854,2.874,4.318,2.874,6.939c0,2.622-1.021,5.086-2.874,6.939C24.604,29.252,22.139,30.273,19.518,30.273z" fill="#474A56"/></svg>