<?xml version="1.0" ?><!DOCTYPE svg  PUBLIC '-//W3C//DTD SVG 1.1//EN'  'http://www.w3.org/Graphics/SVG/1.1/DTD/svg11.dtd'><svg enable-background="new 0 0 56.693 56.693" height="56.693px" id="Layer_1" version="1.1" viewBox="0 0 56.693 56.693" width="56.693px" xml:space="preserve" xmlns="http://www.w3.org/2000/svg" xmlns:xlink="http://www.w3.org/1999/xlink"><g><path d="M51.212,15.27l-2.879-0.759c-0.15-0.479-0.348-0.939-0.578-1.378l1.504-2.581   c0.477-0.885,0.682-1.791,0-2.475c-0.684-0.685-1.646-0.466-2.477,0.001l-2.621,1.526c-0.42-0.217-0.861-0.401-1.322-0.542   l-0.773-2.94c-0.291-0.963-0.785-1.749-1.752-1.749s-1.492,0.835-1.75,1.749l-0.791,3.003c-0.428,0.142-0.838,0.315-1.234,0.522   l-2.693-1.569c-0.885-0.478-1.791-0.686-2.475,0c-0.684,0.683-0.465,1.644,0,2.475l1.594,2.733   c-0.191,0.378-0.357,0.769-0.488,1.179l-3.06,0.805c-0.963,0.29-1.751,0.784-1.751,1.753c0,0.966,0.835,1.492,1.751,1.749   l3.058,0.807c0.133,0.407,0.299,0.8,0.49,1.18l-1.594,2.729c-0.477,0.888-0.684,1.794,0,2.478s1.645,0.463,2.475,0l2.693-1.57   c0.395,0.207,0.807,0.38,1.234,0.523l0.791,3c0.289,0.965,0.783,1.752,1.75,1.752s1.492-0.836,1.752-1.752l0.773-2.937   c0.461-0.145,0.902-0.327,1.324-0.543l2.619,1.527c0.887,0.477,1.793,0.684,2.477,0c0.684-0.684,0.463-1.648,0-2.476l-1.504-2.579   c0.232-0.439,0.428-0.899,0.58-1.38l2.877-0.76c0.963-0.289,1.752-0.782,1.752-1.75C52.964,16.054,52.128,15.529,51.212,15.27z    M40.396,20.462c-1.9,0-3.441-1.54-3.441-3.439c0-1.9,1.541-3.443,3.441-3.443s3.441,1.543,3.441,3.443   C43.837,18.922,42.296,20.462,40.396,20.462z" fill="#474A56"/><path d="M34.981,35.399l-2.922-0.77c-0.086-0.412-0.197-0.814-0.326-1.211l2.146-2.129   c0.691-0.732,1.127-1.555,0.643-2.391c-0.484-0.838-1.469-0.875-2.393-0.641l-2.927,0.797c-0.277-0.307-0.569-0.6-0.877-0.877   l0.798-2.929c0.23-0.977,0.195-1.908-0.643-2.389c-0.837-0.484-1.708-0.024-2.391,0.64l-2.129,2.146   c-0.395-0.128-0.798-0.238-1.21-0.324l-0.771-2.924c-0.289-0.961-0.783-1.749-1.75-1.749c-0.966,0-1.491,0.834-1.75,1.749   l-0.77,2.924c-0.412,0.086-0.814,0.196-1.211,0.324L14.373,23.5c-0.733-0.689-1.554-1.124-2.392-0.64   c-0.838,0.48-0.875,1.468-0.642,2.389l0.8,2.929c-0.309,0.277-0.602,0.568-0.879,0.877l-2.928-0.797   c-0.979-0.232-1.908-0.197-2.391,0.641c-0.484,0.836-0.023,1.709,0.64,2.391l2.146,2.129c-0.128,0.396-0.238,0.799-0.325,1.211   L5.481,35.4c-0.963,0.289-1.751,0.783-1.751,1.752c0,0.965,0.835,1.49,1.751,1.748l2.921,0.771   c0.087,0.412,0.197,0.814,0.325,1.209l-2.146,2.129c-0.69,0.732-1.124,1.557-0.64,2.393c0.482,0.838,1.468,0.875,2.391,0.639   l2.928-0.795c0.277,0.307,0.57,0.6,0.878,0.875l-0.799,2.93c-0.23,0.979-0.196,1.908,0.641,2.391   c0.839,0.484,1.71,0.023,2.392-0.641l2.129-2.146c0.396,0.129,0.799,0.238,1.211,0.326l0.77,2.92   c0.289,0.965,0.784,1.752,1.75,1.752c0.967,0,1.492-0.836,1.75-1.752l0.771-2.92c0.412-0.088,0.816-0.197,1.211-0.326l2.128,2.145   c0.732,0.693,1.555,1.127,2.392,0.643c0.838-0.482,0.874-1.469,0.642-2.391l-0.798-2.932c0.308-0.273,0.6-0.568,0.877-0.873   l2.927,0.795c0.98,0.232,1.908,0.197,2.393-0.639s0.021-1.711-0.643-2.393l-2.146-2.129c0.129-0.395,0.24-0.797,0.326-1.209   l2.922-0.771c0.963-0.287,1.75-0.783,1.75-1.748C36.731,36.183,35.897,35.659,34.981,35.399z M20.231,42.149   c-2.76,0-4.999-2.238-4.999-4.998c0-2.762,2.239-5,4.999-5c2.762,0,5,2.238,5,5C25.231,39.911,22.993,42.149,20.231,42.149z" fill="#474A56"/></g></svg>