<?xml version="1.0" ?><!DOCTYPE svg  PUBLIC '-//W3C//DTD SVG 1.1//EN'  'http://www.w3.org/Graphics/SVG/1.1/DTD/svg11.dtd'><svg enable-background="new 0 0 56.693 56.693" height="56.693px" id="Layer_1" version="1.1" viewBox="0 0 56.693 56.693" width="56.693px" xml:space="preserve" xmlns="http://www.w3.org/2000/svg" xmlns:xlink="http://www.w3.org/1999/xlink"><path d="M28.909,4.729c-13.529,0-24.534,11.006-24.534,24.535c0,13.53,11.005,24.538,24.534,24.538  s24.536-11.008,24.536-24.538C53.445,15.735,42.438,4.729,28.909,4.729z M29.589,12.014c2.99,0,5.422,2.434,5.422,5.424  s-2.432,5.423-5.422,5.423s-5.424-2.433-5.424-5.423S26.599,12.014,29.589,12.014z M37.011,44.479  c-0.428,0.455-0.887,0.553-1.197,0.553H23.36c-0.311,0-0.771-0.098-1.197-0.553c-0.331-0.355-0.499-0.818-0.499-1.377  c0-0.566,0.163-1.041,0.485-1.408c0.43-0.486,0.896-0.588,1.211-0.588h1.414V30.728H23.36c-0.311,0-0.771-0.096-1.197-0.553  c-0.331-0.355-0.499-0.819-0.499-1.377c0-0.566,0.163-1.039,0.485-1.406c0.43-0.488,0.896-0.59,1.211-0.59h10.432  c0.337,0,0.609,0.272,0.609,0.607v13.698h1.412c0.315,0,0.782,0.102,1.209,0.588c0.324,0.367,0.488,0.842,0.488,1.408  C37.511,43.663,37.343,44.124,37.011,44.479z" fill="#474A56"/></svg>