<?xml version="1.0" ?><!DOCTYPE svg  PUBLIC '-//W3C//DTD SVG 1.1//EN'  'http://www.w3.org/Graphics/SVG/1.1/DTD/svg11.dtd'><svg enable-background="new 0 0 56.693 56.693" height="56.693px" id="Layer_1" version="1.1" viewBox="0 0 56.693 56.693" width="56.693px" xml:space="preserve" xmlns="http://www.w3.org/2000/svg" xmlns:xlink="http://www.w3.org/1999/xlink"><path d="M52.542,34.317c-0.033-0.125-0.077-0.248-0.141-0.367l-9.313-17.048c-0.27-0.491-2.728-4.773-6.395-4.773  c-0.015,0-0.03,0-0.044,0.001c-2.268,0.022-4.259,1.636-5.918,4.8c-0.416,0.793-0.111,1.771,0.682,2.188  c0.791,0.415,1.771,0.111,2.188-0.682c1.031-1.965,2.124-3.054,3.075-3.066c0.006,0,0.011,0,0.017,0c1.388,0,2.994,2.084,3.554,3.09  l5.78,10.582c-1.336-0.418-2.797-0.65-4.329-0.65c-4.438,0-8.285,1.932-10.188,4.75c-0.862-0.137-1.738-0.211-2.62-0.211  c-1.133,0-2.256,0.117-3.352,0.338c-1.87-2.885-5.765-4.877-10.269-4.877c-1.521,0-2.968,0.23-4.297,0.643l5.715-10.462  c0.562-1.014,2.17-3.096,3.558-3.096c0.005,0,0.01,0,0.016,0c0.952,0.012,2.045,1.1,3.076,3.064  c0.416,0.793,1.396,1.098,2.188,0.682c0.792-0.415,1.098-1.395,0.682-2.187c-1.66-3.164-3.65-4.777-5.917-4.8  c-0.015,0-0.03,0-0.045,0c-3.667,0-6.126,4.283-6.397,4.775l-9.08,16.626c-0.038,0.064-0.073,0.131-0.108,0.199l-0.122,0.223  c-0.043,0.078-0.073,0.16-0.102,0.242c-0.398,0.883-0.623,1.828-0.623,2.811c0,4.811,5.14,8.723,11.458,8.723  c6.317,0,11.458-3.912,11.458-8.723c0-0.254-0.022-0.504-0.051-0.754c0.727-0.119,1.467-0.186,2.213-0.186  c0.472,0,0.941,0.027,1.408,0.074c-0.037,0.287-0.059,0.574-0.059,0.865c0,4.811,5.14,8.723,11.458,8.723s11.458-3.912,11.458-8.723  C53.155,36.132,52.934,35.194,52.542,34.317z M15.27,42.595c-4.455,0-8.218-2.512-8.218-5.484c0-0.531,0.125-1.047,0.349-1.539  l0.32-0.586c1.272-1.951,4.217-3.355,7.549-3.355c4.453,0,8.218,2.51,8.218,5.48C23.487,40.083,19.723,42.595,15.27,42.595z   M41.697,42.595c-4.454,0-8.218-2.512-8.218-5.484c0-0.498,0.115-0.982,0.312-1.445c0.027-0.055,0.048-0.113,0.068-0.17  c1.062-2.211,4.222-3.865,7.837-3.865c4.455,0,8.218,2.51,8.218,5.48C49.915,40.083,46.152,42.595,41.697,42.595z" fill="#474A56"/></svg>