<?xml version="1.0" ?><!DOCTYPE svg  PUBLIC '-//W3C//DTD SVG 1.1//EN'  'http://www.w3.org/Graphics/SVG/1.1/DTD/svg11.dtd'><svg enable-background="new 0 0 56.693 56.693" height="56.693px" id="Layer_1" version="1.1" viewBox="0 0 56.693 56.693" width="56.693px" xml:space="preserve" xmlns="http://www.w3.org/2000/svg" xmlns:xlink="http://www.w3.org/1999/xlink"><g><path d="M50.513,31.253c-1.517,0-2.746,1.23-2.746,2.746v12.984H9.214V33.999c0-1.516-1.229-2.746-2.746-2.746   c-1.516,0-2.746,1.23-2.746,2.746v15.73c0,1.516,1.23,2.746,2.746,2.746h44.045c1.516,0,2.745-1.23,2.745-2.746v-15.73   C53.258,32.483,52.028,31.253,50.513,31.253z" fill="#474A56"/><path d="M27.4,40.374c0.255,0.348,0.659,0.555,1.091,0.555c0.431,0,0.835-0.207,1.088-0.555l9-12.391   c0.297-0.408,0.341-0.951,0.11-1.4c-0.229-0.452-0.694-0.737-1.199-0.737h-5.858V9.419c0-1.735-1.406-3.143-3.141-3.143   s-3.143,1.407-3.143,3.143v16.427H19.49c-0.506,0.002-0.97,0.286-1.198,0.737c-0.23,0.449-0.189,0.992,0.109,1.4L27.4,40.374z" fill="#474A56"/></g></svg>