<?xml version="1.0" ?><!DOCTYPE svg  PUBLIC '-//W3C//DTD SVG 1.1//EN'  'http://www.w3.org/Graphics/SVG/1.1/DTD/svg11.dtd'><svg enable-background="new 0 0 56.693 56.693" height="56.693px" id="Layer_1" version="1.1" viewBox="0 0 56.693 56.693" width="56.693px" xml:space="preserve" xmlns="http://www.w3.org/2000/svg" xmlns:xlink="http://www.w3.org/1999/xlink"><g><path d="M47.604,40.265H22.596c-0.947,0-1.716,0.77-1.716,1.717s0.769,1.715,1.716,1.715h25.008   c0.947,0,1.716-0.768,1.716-1.715S48.551,40.265,47.604,40.265z" fill="#474A56"/><path d="M47.604,26.95H22.596c-0.947,0-1.716,0.768-1.716,1.716c0,0.949,0.769,1.714,1.716,1.714h25.008   c0.947,0,1.716-0.766,1.716-1.714C49.319,27.717,48.551,26.95,47.604,26.95z" fill="#474A56"/><path d="M22.596,17.065h25.008c0.947,0,1.716-0.768,1.716-1.715c0-0.948-0.769-1.717-1.716-1.717H22.596   c-0.947,0-1.716,0.769-1.716,1.717C20.88,16.297,21.648,17.065,22.596,17.065z" fill="#474A56"/><path d="M14.551,11.506h-4.254c-0.948,0-1.717,0.768-1.717,1.715v4.256c0,0.947,0.769,1.717,1.717,1.717h4.254   c0.948,0,1.717-0.77,1.717-1.717v-4.256C16.268,12.274,15.499,11.506,14.551,11.506z" fill="#474A56"/><path d="M14.551,24.821h-4.254c-0.948,0-1.717,0.77-1.717,1.718v4.255c0,0.947,0.769,1.715,1.717,1.715h4.254   c0.948,0,1.717-0.768,1.717-1.715v-4.255C16.268,25.59,15.499,24.821,14.551,24.821z" fill="#474A56"/><path d="M14.551,38.138h-4.254c-0.948,0-1.717,0.768-1.717,1.715v4.256c0,0.947,0.769,1.715,1.717,1.715h4.254   c0.948,0,1.717-0.768,1.717-1.715v-4.256C16.268,38.905,15.499,38.138,14.551,38.138z" fill="#474A56"/></g></svg>