<?xml version="1.0" ?><!DOCTYPE svg  PUBLIC '-//W3C//DTD SVG 1.1//EN'  'http://www.w3.org/Graphics/SVG/1.1/DTD/svg11.dtd'><svg enable-background="new 0 0 56.693 56.693" height="56.693px" id="Layer_1" version="1.1" viewBox="0 0 56.693 56.693" width="56.693px" xml:space="preserve" xmlns="http://www.w3.org/2000/svg" xmlns:xlink="http://www.w3.org/1999/xlink"><g><path d="M46.907,28.779c0.842,0,1.57-0.579,1.761-1.397l4.912-16.005c0.227-0.974-0.376-1.946-1.349-2.173   c-0.973-0.226-1.944,0.377-2.172,1.349l-0.517,2.21H16.319L15.36,8.252c-0.178-0.835-0.916-1.432-1.769-1.432H5.29   c-1,0-1.809,0.81-1.809,1.808c0,0.999,0.81,1.809,1.809,1.809h6.838l4.602,21.621c-0.004,0.017-0.012,0.033-0.016,0.05l-1.177,5.77   c-0.09,0.441,0.023,0.9,0.308,1.249c0.285,0.349,0.711,0.551,1.162,0.551h30.351c0.829,0,1.5-0.671,1.5-1.5   c0-0.829-0.671-1.5-1.5-1.5H18.844l0.624-3.059L46.907,28.779z" fill="#474A56"/><circle cx="20.693" cy="47.219" fill="#474A56" r="4.248"/><circle cx="43.133" cy="47.219" fill="#474A56" r="4.248"/></g></svg>