<?xml version="1.0" ?><!DOCTYPE svg  PUBLIC '-//W3C//DTD SVG 1.1//EN'  'http://www.w3.org/Graphics/SVG/1.1/DTD/svg11.dtd'><svg enable-background="new 0 0 56.693 56.693" height="56.693px" id="Layer_1" version="1.1" viewBox="0 0 56.693 56.693" width="56.693px" xml:space="preserve" xmlns="http://www.w3.org/2000/svg" xmlns:xlink="http://www.w3.org/1999/xlink"><path d="M40.286,14.902c0-3.905-1.94-7.536-5.189-9.714c-0.213-0.141-0.484-0.155-0.709-0.035  c-0.226,0.12-0.365,0.354-0.366,0.608v0.954v4.29v1.715l-2.626,4h-5.582l-2.626-4V5.761c0-0.254-0.14-0.488-0.365-0.608  c-0.224-0.12-0.496-0.105-0.709,0.035c-3.251,2.178-5.19,5.809-5.19,9.714c0,4.7,4.735,8.34,6.683,9.637l-1.575,22.88  c0,3.625,2.949,6.574,6.574,6.574s6.574-2.949,6.573-6.623l-1.575-22.832C35.551,23.242,40.286,19.6,40.286,14.902z M30.215,47.419  c-0.001,0.889-0.722,1.607-1.61,1.607c-0.889-0.002-1.607-0.721-1.609-1.607c0-0.891,0.72-1.609,1.609-1.611  c0.889,0.002,1.609,0.721,1.61,1.609C30.216,47.419,30.214,47.419,30.215,47.419z" fill="#474A56"/></svg>