<?xml version="1.0" ?><!DOCTYPE svg  PUBLIC '-//W3C//DTD SVG 1.1//EN'  'http://www.w3.org/Graphics/SVG/1.1/DTD/svg11.dtd'><svg enable-background="new 0 0 56.693 56.693" height="56.693px" id="Layer_1" version="1.1" viewBox="0 0 56.693 56.693" width="56.693px" xml:space="preserve" xmlns="http://www.w3.org/2000/svg" xmlns:xlink="http://www.w3.org/1999/xlink"><path d="M52.253,19.356c-0.759-0.79-1.841-1.244-2.97-1.244h-3.878H23.696v-0.748c0-2.225-1.81-4.035-4.034-4.035  H9.709c-2.226,0-4.035,1.811-4.035,4.035v1.422c-1.102,0.73-1.797,1.973-1.797,3.36v22.515c0,0.004,0,0.01,0.001,0.016l-0.001,0.01  c0,2.211,1.809,4.008,4.035,4.008h37.493c0.138,0,0.274-0.006,0.408-0.021c0.024-0.002,0.049-0.008,0.073-0.01  c0.11-0.014,0.22-0.027,0.327-0.051c0.017-0.002,0.032-0.008,0.049-0.012c0.114-0.023,0.228-0.053,0.339-0.088  c0.006-0.002,0.012-0.004,0.018-0.006c1.386-0.436,2.446-1.596,2.737-3.029c0.001-0.004,0.001-0.01,0.001-0.014  c0.025-0.117,0.043-0.232,0.056-0.354c0.003-0.033,0.006-0.064,0.008-0.098c0.005-0.055,0.014-0.105,0.015-0.16l3.857-22.444  l0.023-0.219C53.36,21.124,52.983,20.118,52.253,19.356z M46.049,44.397l-0.024,0.289c0,0.326-0.277,0.594-0.619,0.594H7.912  c-0.308,0-0.563-0.215-0.611-0.496l3.846-22.379c0.051-0.307,0.148-0.879,1.225-0.879h36.912c0.2,0,0.389,0.072,0.504,0.193  c0.07,0.072,0.107,0.154,0.115,0.254L46.049,44.397z" fill="#474A56"/></svg>