<?xml version="1.0" ?><!DOCTYPE svg  PUBLIC '-//W3C//DTD SVG 1.1//EN'  'http://www.w3.org/Graphics/SVG/1.1/DTD/svg11.dtd'><svg enable-background="new 0 0 56.693 56.693" height="56.693px" id="Layer_1" version="1.1" viewBox="0 0 56.693 56.693" width="56.693px" xml:space="preserve" xmlns="http://www.w3.org/2000/svg" xmlns:xlink="http://www.w3.org/1999/xlink"><path d="M52.885,43.849L33.486,9.672c-0.945-1.666-2.711-2.693-4.625-2.693c-1.916,0-3.682,1.027-4.627,2.693  L4.837,43.849c-0.935,1.645-0.923,3.666,0.029,5.303c0.952,1.635,2.704,2.643,4.597,2.643h38.795c1.894,0,3.644-1.008,4.597-2.643  C53.808,47.515,53.818,45.493,52.885,43.849z M31.511,45.515c-0.65,0.578-1.422,0.871-2.292,0.871c-0.881,0-1.66-0.289-2.318-0.859  c-0.672-0.584-1.014-1.402-1.014-2.432c0-0.904,0.322-1.684,0.957-2.318c0.634-0.633,1.42-0.955,2.336-0.955  c0.914,0,1.706,0.32,2.354,0.953c0.649,0.635,0.979,1.416,0.979,2.32C32.512,44.11,32.175,44.923,31.511,45.515z M32.372,23.508  l-0.845,9.678c-0.095,1.205-0.299,2.113-0.623,2.773c-0.357,0.73-0.98,1.117-1.803,1.117c-0.839,0-1.457-0.379-1.788-1.096  c-0.294-0.637-0.496-1.562-0.619-2.832l-0.63-9.418c-0.119-1.861-0.178-3.16-0.178-3.971c0-1.172,0.319-2.107,0.948-2.779  c0.635-0.678,1.478-1.023,2.502-1.023c1.264,0,2.128,0.459,2.57,1.363c0.406,0.834,0.604,1.986,0.604,3.521  C32.512,21.711,32.465,22.608,32.372,23.508z" fill="#474A56"/></svg>