<?xml version="1.0" ?><!DOCTYPE svg  PUBLIC '-//W3C//DTD SVG 1.1//EN'  'http://www.w3.org/Graphics/SVG/1.1/DTD/svg11.dtd'><svg enable-background="new 0 0 56.693 56.693" height="56.693px" id="Layer_1" version="1.1" viewBox="0 0 56.693 56.693" width="56.693px" xml:space="preserve" xmlns="http://www.w3.org/2000/svg" xmlns:xlink="http://www.w3.org/1999/xlink"><path d="M52.515,28.617l-13.847-4.834l2.959-6.133c0.079-0.14,0.124-0.301,0.124-0.473  c0-0.532-0.429-0.964-0.961-0.965c-0.002,0-0.005,0-0.007,0c-0.025,0-0.051,0.001-0.075,0.003c-0.131,0.01-0.252,0.045-0.362,0.101  l-6.169,2.977L29.343,5.446c-0.136-0.388-0.501-0.647-0.912-0.647c-0.41,0-0.775,0.26-0.911,0.647l-4.834,13.847l-6.186-2.985  c-0.134-0.064-0.277-0.096-0.42-0.096c-0.251,0-0.498,0.098-0.683,0.283c-0.29,0.29-0.365,0.733-0.186,1.102l2.984,6.186  L4.348,28.617c-0.387,0.135-0.647,0.502-0.647,0.912c0,0.411,0.26,0.776,0.647,0.912l13.848,4.834l-2.984,6.186  c-0.179,0.37-0.104,0.812,0.186,1.103c0.185,0.185,0.433,0.283,0.683,0.283c0.143,0,0.286-0.031,0.42-0.096l6.187-2.985  l4.834,13.847c0.136,0.388,0.501,0.647,0.912,0.647c0.41,0,0.775-0.26,0.911-0.647l4.833-13.847l6.187,2.985  c0.134,0.064,0.277,0.096,0.42,0.096c0.251,0,0.498-0.098,0.683-0.283c0.29-0.291,0.366-0.733,0.187-1.103l-2.985-6.187  l13.848-4.833c0.388-0.136,0.648-0.501,0.648-0.912C53.163,29.119,52.903,28.753,52.515,28.617z M28.489,33.829  c-2.406,0-4.356-1.951-4.356-4.356c0-2.407,1.95-4.357,4.356-4.357c2.405,0,4.356,1.95,4.356,4.357  C32.845,31.877,30.894,33.829,28.489,33.829z" fill="#474A56"/></svg>