<?xml version="1.0" ?><!DOCTYPE svg  PUBLIC '-//W3C//DTD SVG 1.1//EN'  'http://www.w3.org/Graphics/SVG/1.1/DTD/svg11.dtd'><svg enable-background="new 0 0 128 128" height="128px" id="Layer_1" version="1.1" viewBox="0 0 128 128" width="128px" xml:space="preserve" xmlns="http://www.w3.org/2000/svg" xmlns:xlink="http://www.w3.org/1999/xlink"><g><path d="M64,96c-17.645,0-32-14.355-32-32c0-17.645,14.355-32,32-32c17.645,0,32,14.355,32,32C96,81.645,81.645,96,64,96z M64,40   c-13.234,0-24,10.766-24,24c0,13.233,10.766,24,24,24c13.233,0,24-10.767,24-24C88,50.766,77.233,40,64,40z"/></g><g><g><path d="M64,24c-2.209,0-4-1.791-4-4V4c0-2.209,1.791-4,4-4s4,1.791,4,4v16C68,22.209,66.209,24,64,24z"/></g><g><path d="M64,128c-2.209,0-4-1.791-4-4v-16c0-2.209,1.791-4,4-4s4,1.791,4,4v16C68,126.209,66.209,128,64,128z"/></g><g><path d="M124,68h-16c-2.209,0-4-1.791-4-4s1.791-4,4-4h16c2.209,0,4,1.791,4,4S126.209,68,124,68z"/></g><g><path d="M20,68H4c-2.209,0-4-1.791-4-4s1.791-4,4-4h16c2.209,0,4,1.791,4,4S22.209,68,20,68z"/></g></g><g><g><path d="M95.113,36.888c-1.023,0-2.047-0.391-2.828-1.171c-1.562-1.562-1.562-4.094-0.001-5.657l11.312-11.315    c1.562-1.562,4.095-1.562,5.657,0c1.562,1.562,1.562,4.094,0.001,5.657L97.942,35.716C97.161,36.498,96.137,36.888,95.113,36.888z    "/></g><g><path d="M21.574,110.427c-1.023,0-2.047-0.391-2.828-1.171c-1.562-1.562-1.562-4.095,0-5.657l11.313-11.315    c1.561-1.562,4.094-1.562,5.657-0.001c1.562,1.562,1.562,4.095,0,5.657l-11.313,11.315    C23.622,110.036,22.598,110.427,21.574,110.427z"/></g><g><path d="M106.426,110.427c-1.024,0-2.048-0.391-2.829-1.172L92.284,97.939c-1.562-1.562-1.562-4.095,0.001-5.657    c1.562-1.562,4.095-1.561,5.657,0.001l11.312,11.315c1.562,1.562,1.562,4.095-0.001,5.657    C108.473,110.036,107.449,110.427,106.426,110.427z"/></g><g><path d="M32.887,36.888c-1.024,0-2.047-0.391-2.829-1.172L18.746,24.401c-1.562-1.562-1.562-4.095,0-5.657    c1.562-1.562,4.095-1.561,5.657,0L35.716,30.06c1.562,1.562,1.562,4.095,0,5.657C34.935,36.498,33.911,36.888,32.887,36.888z"/></g></g></svg>