<?xml version="1.0" ?><!DOCTYPE svg  PUBLIC '-//W3C//DTD SVG 1.1//EN'  'http://www.w3.org/Graphics/SVG/1.1/DTD/svg11.dtd'><svg enable-background="new 0 0 56.693 56.693" height="56.693px" id="Layer_1" version="1.1" viewBox="0 0 56.693 56.693" width="56.693px" xml:space="preserve" xmlns="http://www.w3.org/2000/svg" xmlns:xlink="http://www.w3.org/1999/xlink"><g><g><path d="M7.829,25.792v27.271c0,0.742,0.601,1.342,1.342,1.342h1.404c0.74,0,1.342-0.6,1.342-1.342V25.792H7.829z" fill="#474A56"/><path d="M11.917,8.088V6.296c0-0.738-0.602-1.341-1.342-1.341H9.171c-0.741,0-1.342,0.603-1.342,1.341v1.792    H11.917z" fill="#474A56"/><path d="M14.475,10.771H5.271c-0.555,0-1.005,0.378-1.005,0.843v10.653c0,0.465,0.45,0.843,1.005,0.843h9.204    c0.556,0,1.007-0.378,1.007-0.843V11.613C15.481,11.148,15.03,10.771,14.475,10.771z" fill="#474A56"/></g><g><path d="M26.61,46.794v6.27c0,0.742,0.6,1.342,1.341,1.342h1.405c0.742,0,1.342-0.6,1.342-1.342v-6.27H26.61z" fill="#474A56"/><path d="M30.698,29.089V6.296c0-0.738-0.6-1.341-1.342-1.341h-1.405c-0.741,0-1.341,0.603-1.341,1.341v22.793    C26.61,29.089,30.698,29.089,30.698,29.089z" fill="#474A56"/><path d="M33.256,31.772h-9.204c-0.555,0-1.006,0.375-1.006,0.844v10.652c0,0.467,0.451,0.842,1.006,0.842h9.204    c0.556,0,1.006-0.375,1.006-0.842V32.616C34.262,32.147,33.812,31.772,33.256,31.772z" fill="#474A56"/></g><g><path d="M49.479,15.508V6.296c0-0.738-0.601-1.341-1.341-1.341h-1.405c-0.741,0-1.341,0.603-1.341,1.341v9.212    C45.392,15.508,49.479,15.508,49.479,15.508z" fill="#474A56"/><path d="M45.392,33.214v19.85c0,0.742,0.6,1.342,1.341,1.342h1.405c0.74,0,1.341-0.6,1.341-1.342v-19.85    C49.479,33.214,45.392,33.214,45.392,33.214z" fill="#474A56"/><path d="M51.903,18.191h-9.204c-0.556,0-1.006,0.378-1.006,0.846v10.649c0,0.467,0.45,0.844,1.006,0.844h9.204    c0.557,0,1.006-0.377,1.006-0.844V19.037C52.909,18.569,52.46,18.191,51.903,18.191z" fill="#474A56"/></g></g></svg>