<?xml version="1.0" ?><!DOCTYPE svg  PUBLIC '-//W3C//DTD SVG 1.1//EN'  'http://www.w3.org/Graphics/SVG/1.1/DTD/svg11.dtd'><svg enable-background="new 0 0 56.693 56.693" height="56.693px" id="Layer_1" version="1.1" viewBox="0 0 56.693 56.693" width="56.693px" xml:space="preserve" xmlns="http://www.w3.org/2000/svg" xmlns:xlink="http://www.w3.org/1999/xlink"><path d="M43.749,8.981c-0.498-0.322-1.123-0.367-1.664-0.125l-20.499,9.246l-3.827-1.967l1.082-0.65L35.02,7.829  c0.87-0.41,1.243-1.451,0.831-2.324c-0.414-0.869-1.455-1.242-2.324-0.83L13.9,13.964c-0.61,0.288-0.999,0.902-0.999,1.575v32.962  c0,0.676,0.391,1.293,1.002,1.578l7.342,3.449c0.235,0.109,0.489,0.164,0.742,0.164c0.238,0,0.479-0.051,0.702-0.146l20.814-9.141  c0.634-0.277,1.044-0.904,1.044-1.598V10.448C44.548,9.855,44.247,9.303,43.749,8.981z" fill="#474A56"/></svg>