<?xml version="1.0" ?><!DOCTYPE svg  PUBLIC '-//W3C//DTD SVG 1.1//EN'  'http://www.w3.org/Graphics/SVG/1.1/DTD/svg11.dtd'><svg enable-background="new 0 0 56.693 56.693" height="56.693px" id="Layer_1" version="1.1" viewBox="0 0 56.693 56.693" width="56.693px" xml:space="preserve" xmlns="http://www.w3.org/2000/svg" xmlns:xlink="http://www.w3.org/1999/xlink"><g><path d="M28.081,8.5C14.466,8.5,3.39,19.578,3.39,33.192c0,5.762,2.028,11.371,5.713,15.793   c0.325,0.393,0.809,0.617,1.318,0.617h35.322c0.51,0,0.992-0.225,1.318-0.617c3.684-4.422,5.713-10.031,5.713-15.793   C52.774,19.578,41.696,8.5,28.081,8.5z M44.92,46.171H11.243c-2.856-3.705-4.421-8.283-4.421-12.979   c0-11.722,9.536-21.259,21.259-21.259c11.725,0,21.262,9.537,21.262,21.259C49.343,37.888,47.776,42.466,44.92,46.171z" fill="#474A56"/><path d="M38.56,26.405c-0.445,0-0.848,0.166-1.163,0.434l-0.005-0.004l-11.119,9.199h0.001   c-0.852,0.578-1.411,1.555-1.411,2.662c0,1.779,1.442,3.221,3.221,3.221c0.895,0,1.705-0.367,2.287-0.957h0.002l0.025-0.033   c0.151-0.154,0.281-0.324,0.4-0.508l9.184-11.078l-0.004-0.002c0.245-0.309,0.396-0.695,0.396-1.119   C40.374,27.218,39.562,26.405,38.56,26.405z" fill="#474A56"/><path d="M11.831,32.433h-1.779c-0.568,0-1.029,0.459-1.029,1.029c0,0.568,0.461,1.029,1.029,1.029h1.779   c0.568,0,1.029-0.461,1.029-1.029C12.86,32.892,12.399,32.433,11.831,32.433z" fill="#474A56"/><path d="M15.606,19.998c-0.402-0.4-1.053-0.402-1.455,0s-0.402,1.055,0,1.457l1.339,1.339   c0.201,0.201,0.466,0.302,0.729,0.302s0.526-0.101,0.728-0.302c0.402-0.402,0.402-1.055,0-1.456L15.606,19.998z" fill="#474A56"/><path d="M28.305,17.793c0.569,0,1.03-0.461,1.03-1.03v-1.702c0-0.569-0.461-1.03-1.03-1.03s-1.029,0.461-1.029,1.03   v1.702C27.275,17.333,27.735,17.793,28.305,17.793z" fill="#474A56"/><path d="M40.831,20.021l-1.316,1.316c-0.401,0.402-0.401,1.054,0.002,1.456c0.201,0.201,0.464,0.302,0.727,0.302   c0.264,0,0.527-0.101,0.729-0.302l1.316-1.317c0.402-0.402,0.402-1.055,0-1.456S41.234,19.618,40.831,20.021z" fill="#474A56"/><path d="M46.075,32.433h-1.854c-0.568,0-1.029,0.461-1.029,1.029c0,0.57,0.461,1.029,1.029,1.029h1.854   c0.568,0,1.029-0.459,1.029-1.029C47.104,32.894,46.644,32.433,46.075,32.433z" fill="#474A56"/></g></svg>