<?xml version="1.0" ?><!DOCTYPE svg  PUBLIC '-//W3C//DTD SVG 1.1//EN'  'http://www.w3.org/Graphics/SVG/1.1/DTD/svg11.dtd'><svg enable-background="new 0 0 56.693 56.693" height="56.693px" id="Layer_1" version="1.1" viewBox="0 0 56.693 56.693" width="56.693px" xml:space="preserve" xmlns="http://www.w3.org/2000/svg" xmlns:xlink="http://www.w3.org/1999/xlink"><g><polygon fill="#474A56" points="45.698,17.313 48.61,16.142 51.24,12.607 47.731,9.101 44.19,11.736 43.028,14.64 34.29,23.381    37.144,25.869  "/><path d="M50.831,41.101L35.008,27.319l-0.562-0.49l-4.512-3.93c0.548-2.678,1.537-9.859-2.46-13.854   c-2.628-2.631-6.126-4.08-9.846-4.08c-0.911,0-1.825,0.091-2.716,0.267c-0.248,0.05-0.447,0.23-0.521,0.472   c-0.073,0.24-0.008,0.503,0.17,0.68l5.962,5.963l1.194,5.767l-4.87,4.868l-5.766-1.193l-5.962-5.96   c-0.18-0.179-0.441-0.244-0.682-0.171c-0.24,0.072-0.422,0.271-0.471,0.521c-0.906,4.574,0.52,9.269,3.812,12.563   c1.959,1.959,5.013,2.994,8.834,2.994h0.001c1.603,0,3.331-0.184,5.021-0.535l18.17,20.861c1.5,1.502,3.451,2.309,5.527,2.309   s4.029-0.807,5.498-2.277C53.86,49.062,53.861,44.132,50.831,41.101z M46.705,47.968c-0.758,0.76-1.985,0.76-2.743,0.002   l-0.001-0.002c-0.757-0.758-0.757-1.986,0-2.744c0.758-0.756,1.986-0.756,2.744,0.002h0.001   C47.462,45.983,47.462,47.21,46.705,47.968z" fill="#474A56"/><path d="M20.66,34.976c-0.692-0.693-1.814-0.693-2.507,0L6.532,46.599c-0.692,0.691-0.692,1.812,0,2.506   l4.534,4.537c0.692,0.691,1.814,0.691,2.508,0l11.278-11.277c0.692-0.693,0.692-1.816,0-2.508L20.66,34.976z" fill="#474A56"/></g></svg>