<?xml version="1.0" ?><!DOCTYPE svg  PUBLIC '-//W3C//DTD SVG 1.1//EN'  'http://www.w3.org/Graphics/SVG/1.1/DTD/svg11.dtd'><svg enable-background="new 0 0 56.693 56.693" height="56.693px" id="Layer_1" version="1.1" viewBox="0 0 56.693 56.693" width="56.693px" xml:space="preserve" xmlns="http://www.w3.org/2000/svg" xmlns:xlink="http://www.w3.org/1999/xlink"><path d="M51.871,14.331H18.81c-0.454,0-0.892,0.181-1.213,0.502L4.146,28.284c-0.321,0.322-0.503,0.758-0.503,1.213  c0,0.455,0.182,0.891,0.503,1.215l13.451,13.449c0.321,0.322,0.759,0.502,1.213,0.502h33.062c0.947,0,1.715-0.768,1.715-1.717v-26.9  C53.586,15.099,52.818,14.331,51.871,14.331z M39.94,33.573c0.798,0.799,0.802,2.082,0.004,2.883  c-0.794,0.793-2.083,0.793-2.882-0.006l-4.07-4.07l-4.074,4.072c-0.797,0.799-2.085,0.793-2.879-0.002  c-0.797-0.795-0.798-2.08,0-2.877l4.072-4.074l-4.076-4.077c-0.797-0.797-0.794-2.083,0-2.877c0.799-0.799,2.082-0.797,2.877-0.001  l4.078,4.077l4.08-4.08c0.795-0.795,2.082-0.795,2.879,0c0.793,0.795,0.796,2.084,0.001,2.878l-4.081,4.083L39.94,33.573z" fill="#474A56"/></svg>