<?xml version="1.0" ?><!DOCTYPE svg  PUBLIC '-//W3C//DTD SVG 1.1//EN'  'http://www.w3.org/Graphics/SVG/1.1/DTD/svg11.dtd'><svg enable-background="new 0 0 56.693 56.693" height="56.693px" id="Layer_1" version="1.1" viewBox="0 0 56.693 56.693" width="56.693px" xml:space="preserve" xmlns="http://www.w3.org/2000/svg" xmlns:xlink="http://www.w3.org/1999/xlink"><g><path d="M52.761,17.336L40.122,6.251c-0.504-0.365-1.171-0.418-1.726-0.135c-0.148,0.076-0.281,0.175-0.397,0.288   C37.99,6.41,37.983,6.413,37.975,6.42c-0.085,0.085-0.159,0.183-0.223,0.284c-0.018,0.025-0.03,0.055-0.045,0.083   c-0.051,0.092-0.093,0.188-0.128,0.29c-0.01,0.035-0.022,0.073-0.032,0.11c-0.034,0.13-0.057,0.266-0.057,0.404v2.483l-0.001,2.438   c-0.034,0-0.063-0.014-0.096-0.01c-14.953,1.51-25.806,8.906-25.806,17.59c0,6.182,5.445,11.823,14.566,15.089   c0.106,0.038,0.215,0.056,0.322,0.056c0.375,0,0.73-0.223,0.882-0.589c0.194-0.471-0.014-1.01-0.474-1.229   c-4.483-2.114-7.054-5.151-7.054-8.331c0-5.369,7.424-9.746,17.661-10.42l-0.001,5.095c0,0.623,0.35,1.194,0.906,1.476   c0.113,0.058,0.232,0.096,0.353,0.122c0.108,0.028,0.217,0.038,0.328,0.043h0.002c0.367,0.015,0.736-0.074,1.044-0.299   l12.64-11.088c0.428-0.312,0.682-0.809,0.684-1.34C53.444,18.149,53.189,17.649,52.761,17.336z" fill="#474A56"/><path d="M49.869,28.956c-0.962,0-1.743,0.78-1.743,1.743v17.112H6.983V16.428h8.646   c0.963,0,1.743-0.779,1.743-1.742c0-0.962-0.78-1.743-1.743-1.743H5.24c-0.963,0-1.743,0.781-1.743,1.743v34.867   c0,0.963,0.78,1.743,1.743,1.743h44.629c0.962,0,1.743-0.78,1.743-1.743V30.699C51.612,29.736,50.832,28.956,49.869,28.956z" fill="#474A56"/></g></svg>