<?xml version="1.0" ?><!DOCTYPE svg  PUBLIC '-//W3C//DTD SVG 1.1//EN'  'http://www.w3.org/Graphics/SVG/1.1/DTD/svg11.dtd'><svg enable-background="new 0 0 56.693 56.693" height="56.693px" id="Layer_1" version="1.1" viewBox="0 0 56.693 56.693" width="56.693px" xml:space="preserve" xmlns="http://www.w3.org/2000/svg" xmlns:xlink="http://www.w3.org/1999/xlink"><path d="M53.294,14.28c-0.148-0.471-0.492-0.853-0.945-1.05L38.574,7.25c-0.772-0.336-1.677-0.054-2.122,0.664  l-5.018,8.104c-0.008,0.012-0.011,0.024-0.019,0.037l-11.589,1.342l-0.824-1.93c-0.161-0.38-0.456-0.687-0.828-0.866L6.394,8.967  c-0.639-0.305-1.399-0.182-1.91,0.307c-0.511,0.49-0.664,1.245-0.386,1.896l3.767,8.82v22.679c0,0.576,0.292,1.113,0.775,1.428  l12.487,8.094c0.007,0.002,0.013,0.004,0.018,0.008c0.122,0.076,0.253,0.133,0.39,0.178c0.029,0.01,0.061,0.018,0.09,0.023  c0.141,0.037,0.283,0.062,0.428,0.062c0.065,0,0.13-0.004,0.195-0.012l23.317-2.697c0.858-0.1,1.504-0.826,1.504-1.688V25.489  l6.05-9.807C53.378,15.261,53.442,14.75,53.294,14.28z M33.9,18.79l8.573,5.557l-8.573,0.99V18.79z M31.653,18.083  c0.062,0.065,0.133,0.125,0.207,0.18v7.311l-8.141,0.942l-3.058-7.161L31.653,18.083z M16.129,17.393l3.123,7.312l-7.999-5.183  c-0.005-0.074-0.008-0.146-0.023-0.22c-0.023-0.114-0.059-0.224-0.104-0.327l-2.133-4.994L16.129,17.393z M11.264,21.96l9.088,5.888  v19.787l-9.088-5.891V21.96z M23.752,48.854V28.688c0.031-0.043,0.06-0.088,0.087-0.133l19.83-2.294V46.55L23.752,48.854z   M44.477,23.213l-9.633-6.242l3.725-6.016l10.626,4.611L44.477,23.213z" fill="#474A56"/></svg>