<?xml version="1.0" ?><!DOCTYPE svg  PUBLIC '-//W3C//DTD SVG 1.1//EN'  'http://www.w3.org/Graphics/SVG/1.1/DTD/svg11.dtd'><svg enable-background="new 0 0 56.693 56.693" height="56.693px" id="Layer_1" version="1.1" viewBox="0 0 56.693 56.693" width="56.693px" xml:space="preserve" xmlns="http://www.w3.org/2000/svg" xmlns:xlink="http://www.w3.org/1999/xlink"><path d="M47.92,15.692l-6.617-6.617c-1.683-1.682-4.42-1.682-6.103,0l-2.626,2.626c-1.684,1.683-1.682,4.419,0,6.103  l1.295,1.294L7.846,45.122l1.478,1.479l1.478,1.477l2.93,2.928l0.842,0.844l2.045-2.043l-0.844-0.844l2.045-2.045l0.843,0.844  l2.044-2.045l-0.842-0.844l-2.93-2.928l19.892-19.891l2.367,2.367c1.683,1.683,4.419,1.683,6.101,0l2.627-2.626  C49.603,20.112,49.603,17.375,47.92,15.692z M45.494,19.366l-2.627,2.629c-0.344,0.343-0.904,0.342-1.248,0l-6.617-6.619  c-0.345-0.344-0.346-0.904-0.002-1.248l2.628-2.627c0.344-0.344,0.904-0.344,1.248,0l6.618,6.617  C45.838,18.462,45.838,19.022,45.494,19.366z" fill="#474A56"/></svg>