<?xml version="1.0" ?><!DOCTYPE svg  PUBLIC '-//W3C//DTD SVG 1.1//EN'  'http://www.w3.org/Graphics/SVG/1.1/DTD/svg11.dtd'><svg enable-background="new 0 0 56.693 56.693" height="56.693px" id="Layer_1" version="1.1" viewBox="0 0 56.693 56.693" width="56.693px" xml:space="preserve" xmlns="http://www.w3.org/2000/svg" xmlns:xlink="http://www.w3.org/1999/xlink"><path d="M22.62,13.953c-0.04-0.004-0.076,0.012-0.116,0.012l-0.001-2.9V8.111c0-0.166-0.027-0.327-0.067-0.483  c-0.012-0.044-0.026-0.087-0.038-0.13c-0.042-0.12-0.092-0.234-0.152-0.345c-0.019-0.034-0.033-0.067-0.054-0.099  c-0.077-0.121-0.164-0.236-0.266-0.338c-0.008-0.009-0.018-0.012-0.027-0.019c-0.138-0.135-0.295-0.254-0.472-0.343  c-0.66-0.338-1.455-0.276-2.054,0.16L4.338,19.703c-0.51,0.371-0.814,0.965-0.814,1.597c0.002,0.632,0.304,1.224,0.814,1.595  l15.036,13.188c0.366,0.267,0.806,0.374,1.242,0.356h0.003c0.131-0.007,0.26-0.018,0.388-0.051c0.144-0.03,0.286-0.077,0.42-0.145  c0.661-0.337,1.077-1.017,1.077-1.757l-0.001-6.061c12.179,0.801,21.01,6.007,21.01,12.398c0,3.782-3.058,7.395-8.39,9.91  c-0.548,0.259-0.796,0.902-0.564,1.46c0.18,0.437,0.602,0.701,1.049,0.701c0.127,0,0.256-0.021,0.383-0.066  c10.85-3.885,17.328-10.596,17.328-17.95C53.319,24.548,40.408,15.749,22.62,13.953z" fill="#474A56"/></svg>