<?xml version="1.0" ?><!DOCTYPE svg  PUBLIC '-//W3C//DTD SVG 1.1//EN'  'http://www.w3.org/Graphics/SVG/1.1/DTD/svg11.dtd'><svg enable-background="new 0 0 56.693 56.693" height="56.693px" id="Layer_1" version="1.1" viewBox="0 0 56.693 56.693" width="56.693px" xml:space="preserve" xmlns="http://www.w3.org/2000/svg" xmlns:xlink="http://www.w3.org/1999/xlink"><path d="M52.084,19.407c-0.756-0.788-1.834-1.24-2.958-1.24h-2.079l-1.502-7.412  c-0.055-0.264-0.212-0.496-0.438-0.646s-0.502-0.203-0.767-0.15l-22.05,4.471c-0.711-0.637-1.646-1.025-2.672-1.025H9.703  c-2.217,0-4.02,1.803-4.02,4.019v1.416c-1.096,0.728-1.79,1.965-1.79,3.349v22.426c0,0.006,0.001,0.012,0.001,0.018l-0.001,0.01  c0,2.201,1.804,3.992,4.019,3.992h37.35c0.139,0,0.273-0.008,0.408-0.02c0.023-0.004,0.048-0.008,0.072-0.012  c0.109-0.014,0.219-0.029,0.325-0.051c0.017-0.002,0.032-0.008,0.05-0.012c0.113-0.025,0.227-0.053,0.338-0.088  c0.005,0,0.012-0.004,0.017-0.006c1.38-0.434,2.438-1.59,2.727-3.018c0.001-0.004,0.001-0.008,0.003-0.014  c0.023-0.115,0.041-0.232,0.054-0.352c0.003-0.033,0.006-0.066,0.009-0.1c0.004-0.053,0.012-0.104,0.015-0.156l3.843-22.36  l0.022-0.217C53.188,21.168,52.812,20.165,52.084,19.407z M43.746,12.162l1.217,6.005H23.638v-0.745c0-0.399-0.062-0.784-0.17-1.148  L43.746,12.162z M45.904,44.353L45.88,44.64c0,0.326-0.276,0.59-0.618,0.59H7.912c-0.305,0-0.561-0.213-0.607-0.492l3.83-22.294  c0.052-0.306,0.148-0.875,1.221-0.875h36.771c0.199,0,0.388,0.073,0.503,0.194c0.068,0.07,0.105,0.152,0.114,0.252L45.904,44.353z" fill="#474A56"/></svg>