<?xml version="1.0" ?><!DOCTYPE svg  PUBLIC '-//W3C//DTD SVG 1.1//EN'  'http://www.w3.org/Graphics/SVG/1.1/DTD/svg11.dtd'><svg enable-background="new 0 0 56.693 56.693" height="56.693px" id="Layer_1" version="1.1" viewBox="0 0 56.693 56.693" width="56.693px" xml:space="preserve" xmlns="http://www.w3.org/2000/svg" xmlns:xlink="http://www.w3.org/1999/xlink"><path clip-rule="evenodd" d="M52.547,29.197c-3.456-1.964-10.811-8.421-8.844-12.344  c0.45-0.898,1.544-1.368,3.08-1.4c2.432-0.053,3.803,0.258,5.266-1.758c1.541-2.123,0.861-5.322-1.01-6.803  c-2.301-1.817-3.59-1.544-5.63-0.747c-1.462,0.572-2.315,0.989-2.593,2.899c-0.279,1.908-0.033,5.755-3.205,5.392  c-0.413-0.046-0.526-0.114-1.141-0.687l-9.738-9.068c-0.566-0.527-0.712-0.524-1.26,0.024l-7.594,7.594  c-0.592,0.593-0.671,0.683-0.779,0.895c-0.544,1.057,0.042,2.059,0.56,2.743c0.402,0.53,0.749,1.043,1.243,1.242  c0.781,0.313,1.93-0.168,2.923,0.024c2.174,0.42,3.409,2.938,3.662,5.188c0.393,3.508-3.319,5.956-6.638,4.807  c-0.983-0.341-1.982-1.041-2.443-1.835c-1.356-2.327-0.893-8.149-4.117-7.167c-1.785,0.543-9.044,7.281-10.352,9.591  c-0.415,0.731-0.386,0.87,0.278,1.382c4.486,3.463,9.182,6.864,9.917,11.459c0.245,1.529,0.01,2.982-1.654,3.485  c-0.798,0.241-1.762,0.046-2.694,0.253c-3.359,0.746-4.575,4.674-3.003,7.067c1.374,2.092,3.361,3.1,5.8,2.748  c0.782-0.112,1.753-0.705,2.085-1.271c0.852-1.455,0.875-4.41,1.828-6.101c1.144-2.028,3.926-2.739,5.465-1.864  c0.808,0.459,4.759,5.403,7.065,8.167c0.537,0.644,0.679,0.672,1.417,0.27c2.514-1.368,7.903-6.166,7.949-9.551  c0.027-1.928-2.285-1.968-4.806-3.737c-2.483-1.744-3.2-4.427-1.404-6.836c0.899-1.205,2.358-1.835,3.839-2.023  c0.673-0.084,2.781,0.683,3.116,1.136c2.634,3.562,1.052,8.015,5.248,7.068c0.624-0.142,0.754-0.228,1.301-0.864l7.066-8.211  C53.297,29.728,53.277,29.611,52.547,29.197z" fill="#474A56" fill-rule="evenodd"/></svg>