<?xml version="1.0" ?><!DOCTYPE svg  PUBLIC '-//W3C//DTD SVG 1.1//EN'  'http://www.w3.org/Graphics/SVG/1.1/DTD/svg11.dtd'><svg enable-background="new 0 0 128 128" height="128px" id="Layer_1" version="1.1" viewBox="0 0 128 128" width="128px" xml:space="preserve" xmlns="http://www.w3.org/2000/svg" xmlns:xlink="http://www.w3.org/1999/xlink"><g><path d="M112.749,27.135H91.818l-2.957-6.107c-0.098-0.21-0.217-0.41-0.354-0.598   C86.271,17.334,81.736,15,77.958,15H50.042c-3.78,0-8.315,2.334-10.549,5.43c-0.136,0.188-0.255,0.388-0.356,0.597l-2.957,6.107   H15.25C6.841,27.134,0,33.975,0,42.384V97.75C0,106.159,6.841,113,15.25,113h97.499c8.41,0,15.25-6.841,15.25-15.25V42.385   C127.999,33.976,121.159,27.135,112.749,27.135z M119.999,97.75c0,3.998-3.252,7.25-7.25,7.25H15.25C11.252,105,8,101.748,8,97.75   V42.384c0-3.998,3.252-7.25,7.25-7.25h23.437c1.533,0,2.932-0.877,3.6-2.257l3.862-7.976C47,23.943,48.892,23,50.042,23h27.916   c1.147,0,3.043,0.942,3.894,1.901l3.858,7.976c0.668,1.38,2.069,2.257,3.603,2.257h23.437c3.998,0,7.25,3.252,7.25,7.25V97.75z" fill="#010101"/><path d="M82.783,47.014c-5.146-5.038-11.931-7.813-19.143-7.813c-7.313,0-14.189,2.848-19.361,8.02   c-3.752,3.753-6.318,8.468-7.419,13.636c-0.46,2.16,0.918,4.285,3.079,4.746c0.281,0.06,0.561,0.088,0.837,0.088   c1.848,0,3.508-1.287,3.908-3.167c0.779-3.653,2.595-6.989,5.252-9.646c3.66-3.661,8.527-5.677,13.704-5.677   c5.076,0,9.845,1.948,13.482,5.474l-5.431,5.43l22.588,6.049l-6.051-22.585L82.783,47.014z" fill="#010101"/><path d="M88.063,70.536c-2.162-0.46-4.286,0.917-4.747,3.077c-0.779,3.653-2.596,6.989-5.252,9.647   c-3.661,3.661-8.528,5.678-13.705,5.678c-5.077,0-9.847-1.95-13.483-5.478l5.43-5.43l-22.587-6.049l6.052,22.586l5.444-5.444   c5.147,5.038,11.931,7.814,19.145,7.814c7.313,0,14.189-2.849,19.362-8.022c3.751-3.753,6.316-8.467,7.419-13.633   C91.602,73.122,90.224,70.997,88.063,70.536z" fill="#010101"/></g></svg>