<?xml version="1.0" ?><svg height="100px" version="1.1" viewBox="0 0 100 100" width="100px" xmlns="http://www.w3.org/2000/svg" xmlns:sketch="http://www.bohemiancoding.com/sketch/ns" xmlns:xlink="http://www.w3.org/1999/xlink"><title/><desc/><defs/><g fill="none" fill-rule="evenodd" id="Page-2" stroke="none" stroke-width="1"><g fill="#000000" id="Edit"><path d="M86,85.9999489 C86,90.4182551 82.4071505,94 77.9999489,94 L14.0000511,94 C9.58174486,94 6,90.4071505 6,85.9999489 L6,22.0000511 C6,17.5817449 9.59284952,14 14.0000511,14 L64.0294373,14 L56.0294373,22 L14,22 L14,86 L78,86 L78,41.9705627 L86,33.9705627 L86,85.9999489 L86,85.9999489 Z M85.3960185,23.0225747 L38.4542193,70.1365574 L26,74 L29.8428866,61.4949289 L76.7846858,14.3809462 L85.3960185,23.0225747 L85.3960185,23.0225747 L85.3960185,23.0225747 L85.3960185,23.0225747 L85.3960185,23.0225747 L85.3960185,23.0225747 L85.3960185,23.0225747 L85.3960185,23.0225747 Z M92.808995,10.0755556 C94.3926434,11.6647755 94.4023548,14.2316644 92.8059998,15.8336356 L89.9355556,18.7141784 L81.3242229,10.0725499 L84.1946671,7.1920071 C85.7799697,5.60112722 88.3543149,5.60520336 89.9325604,7.18900143 L92.808995,10.0755556 L92.808995,10.0755556 Z" id="Shape"/></g></g></svg>