<?xml version="1.0" ?><!DOCTYPE svg  PUBLIC '-//W3C//DTD SVG 1.1//EN'  'http://www.w3.org/Graphics/SVG/1.1/DTD/svg11.dtd'><svg enable-background="new 0 0 36 36" height="36px" id="Layer_1" version="1.1" viewBox="0 0 36 36" width="36px" xml:space="preserve" xmlns="http://www.w3.org/2000/svg" xmlns:xlink="http://www.w3.org/1999/xlink"><g><defs><rect height="36" id="SVGID_1_" width="36"/></defs><rect fill="#231F20" height="3" width="3" x="24" y="12"/><rect fill="#231F20" height="3" width="3" x="14" y="12"/><rect fill="#231F20" height="3" width="3" x="19" y="12"/><rect fill="#231F20" height="3" width="14" x="11" y="17"/><rect fill="#231F20" height="3" width="3" x="9" y="12"/></g><g><defs><rect height="36" id="SVGID_3_" width="36"/></defs><g><defs><rect height="36" id="SVGID_5_" width="36"/></defs><path d="M32,2H4C2.896,2,2,2.896,2,4v19c0,1.104,0.896,2,2,2h28c1.104,0,2-0.896,2-2V4    C34,2.896,33.104,2,32,2 M32,23H4V4h28V23z" fill="#231F20"/><rect fill="#231F20" height="3" width="3" x="11" y="7"/><rect fill="#231F20" height="3" width="3" x="6" y="7"/><rect fill="#231F20" height="3" width="3" x="16" y="7"/><rect fill="#231F20" height="3" width="3" x="21" y="7"/><rect fill="#231F20" height="3" width="4" x="26" y="7"/><polygon fill="#231F20" points="18.005,34 26.501,27.001 9.501,27.001   "/></g></g></svg>