<?xml version="1.0" ?><!DOCTYPE svg  PUBLIC '-//W3C//DTD SVG 1.1//EN'  'http://www.w3.org/Graphics/SVG/1.1/DTD/svg11.dtd'><svg enable-background="new 0 0 128 128" height="128px" id="Layer_1" version="1.1" viewBox="0 0 128 128" width="128px" xml:space="preserve" xmlns="http://www.w3.org/2000/svg" xmlns:xlink="http://www.w3.org/1999/xlink"><g id="search"><path d="M115.613,105.593L91.421,81.401c5.06-7.278,8.035-16.115,8.035-25.651c0-24.853-20.147-45-45-45   s-45,20.147-45,45s20.147,45,45,45c9.536,0,18.373-2.975,25.651-8.035l24.192,24.192c1.562,1.562,3.609,2.343,5.657,2.343   s4.095-0.781,5.657-2.343C118.737,113.782,118.737,108.718,115.613,105.593z M17.456,55.75c0-20.402,16.598-37,37-37   s37,16.598,37,37s-16.598,37-37,37S17.456,76.152,17.456,55.75z" fill="#454545"/></g></svg>