<?xml version="1.0" ?><!DOCTYPE svg  PUBLIC '-//W3C//DTD SVG 1.1//EN'  'http://www.w3.org/Graphics/SVG/1.1/DTD/svg11.dtd'><svg enable-background="new 0 0 21 21" height="21px" id="Layer_1" version="1.1" viewBox="0 0 21 21" width="21px" xml:space="preserve" xmlns="http://www.w3.org/2000/svg" xmlns:xlink="http://www.w3.org/1999/xlink"><g id="icon"><path d="M6.1,14.5H2.805C2.087,14.5,1.5,13.913,1.5,13.195V12.9v-1.4M6.1,14.5l-2,-2M6.1,14.5l-2,2" fill="none" stroke="#434A54" stroke-linecap="round" stroke-linejoin="round" stroke-miterlimit="1" stroke-width="1"/><path d="M11.8,17.1H7.9M6.934,19.444L9.831,12.5h0.099l2.897,6.944" fill="none" stroke="#434A54" stroke-linecap="round" stroke-linejoin="round" stroke-miterlimit="1" stroke-width="1"/><path d="M6.5,6.1H2.6M1.634,8.444L4.531,1.5h0.099l2.897,6.944" fill="none" stroke="#434A54" stroke-linecap="round" stroke-linejoin="round" stroke-miterlimit="1" stroke-width="1"/><path d="M11.293,1.5c0.733,0,1.279,0.147,1.639,0.441c0.36,0.294,0.54,0.719,0.54,1.274c0,0.204,-0.04,0.401,-0.12,0.591c-0.081,0.191,-0.192,0.362,-0.333,0.513c-0.141,0.151,-0.309,0.277,-0.503,0.377c-0.194,0.1,-0.389,0.181,-0.616,0.204c0.296,0.02,0.546,0.055,0.781,0.141c0.235,0.087,0.436,0.204,0.602,0.35s0.293,0.319,0.382,0.52c0.088,0.2,0.133,0.425,0.133,0.675c0,0.292,-0.05,0.652,-0.15,0.879s-0.246,0.416,-0.439,0.569c-0.192,0.153,-0.427,0.268,-0.704,0.347c-0.278,0.079,-0.593,0.119,-0.944,0.119H9.5V1.5H11.293z" fill="none" stroke="#434A54" stroke-linecap="round" stroke-linejoin="round" stroke-miterlimit="1" stroke-width="1"/><path d="M19.589,18.515M19.668,18.57c-0.145,0.142,-0.302,0.272,-0.469,0.389c-0.167,0.117,-0.35,0.218,-0.548,0.303c-0.199,0.084,-0.417,0.15,-0.655,0.198c-0.238,0.048,-0.501,0.072,-0.788,0.072c-0.466,0,-0.896,-0.082,-1.29,-0.245c-0.394,-0.164,-0.734,-0.4,-1.022,-0.707c-0.288,-0.308,-0.512,-0.68,-0.672,-1.118s-0.24,-0.932,-0.24,-1.48c0,-0.529,0.08,-1.012,0.24,-1.448c0.16,-0.437,0.387,-0.811,0.68,-1.124c0.292,-0.312,0.643,-0.554,1.051,-0.724c0.409,-0.17,0.859,-0.256,1.352,-0.256c0.228,0,0.443,0.018,0.645,0.052s0.392,0.087,0.573,0.156c0.18,0.07,0.353,0.155,0.518,0.256c0.165,0.101,0.328,0.217,0.486,0.35l-0.02,0.03" fill="none" stroke="#434A54" stroke-linecap="round" stroke-linejoin="round" stroke-miterlimit="1" stroke-width="1"/><line fill="none" stroke="#434A54" stroke-linecap="round" stroke-linejoin="round" stroke-miterlimit="1" stroke-width="1" x1="9.5" x2="11.9" y1="4.9" y2="4.9"/></g></svg>