<?xml version="1.0" ?><!DOCTYPE svg  PUBLIC '-//W3C//DTD SVG 1.1//EN'  'http://www.w3.org/Graphics/SVG/1.1/DTD/svg11.dtd'><svg enable-background="new 0 0 32 32" height="32px" id="Layer_1" version="1.1" viewBox="0 0 32 32" width="32px" xml:space="preserve" xmlns="http://www.w3.org/2000/svg" xmlns:xlink="http://www.w3.org/1999/xlink"><g id="icon"><path d="M13.4626,22.8376l-4.7577,-4.7787c-0.0375,-0.0377,-0.0885,-0.0589,-0.1417,-0.0589H6.3473c-0.1782,0,-0.2674,0.2154,-0.1414,0.3414L9.8644,22H7.0167C4.246,22,2,19.754,2,16.9833V16.4c0,-0.2209,-0.1791,-0.4,-0.4,-0.4H0.4c-0.2209,0,-0.4,0.1791,-0.4,0.4v0.5833c0,3.7938,3.0114,6.8823,6.7739,7.0105c0.0151,0.0037,0.0307,0.0061,0.047,0.0061h0.1958h2.8009L6.159,27.6586c-0.126,0.126,-0.0368,0.3414,0.1414,0.3414h2.2174c0.0532,0,0.1042,-0.0212,0.1417,-0.0588l4.8031,-4.8213C13.5403,23.0419,13.5403,22.9157,13.4626,22.8376z" fill="#3E79B4"/><g><path d="M8.6798,14c-0.15,0,-0.2742,-0.0419,-0.3692,-0.1246c-0.0887,-0.0771,-0.1554,-0.1401,-0.1981,-0.2537L7.1817,11.1H2.74l-0.9373,2.521c-0.0381,0.1039,-0.1047,0.1814,-0.1979,0.2636C1.505,13.9724,1.383,14,1.2421,14H0.0259L4.188,3h1.546l4.155,11H8.6798zM6.7271,9.8L5.1663,5.5145c-0.0722,-0.1829,-0.1434,-0.4056,-0.2122,-0.6547c-0.0181,0.0682,-0.0359,0.1312,-0.0534,0.1935c-0.0493,0.1767,-0.1008,0.3414,-0.153,0.4724L3.1947,9.8H6.7271z" fill="#6D6E71"/><path d="M10.9,14V3h3.3962c0.6339,0,1.1898,0.054,1.6522,0.1861c0.4666,0.1333,0.8564,0.3203,1.1586,0.5686c0.3043,0.2501,0.5322,0.5575,0.6772,0.9199c0.1434,0.3586,0.2161,0.768,0.2161,1.2199c0,0.2742,-0.0415,0.5414,-0.1232,0.7958c-0.0819,0.2549,-0.2065,0.4949,-0.3704,0.714c-0.1638,0.2191,-0.3734,0.4174,-0.6229,0.5899c-0.1691,0.1169,-0.3586,0.2194,-0.566,0.3063c0.6136,0.1726,1.0937,0.4461,1.4299,0.8153c0.394,0.4328,0.5938,1.0072,0.5938,1.7075c0,0.4673,-0.0823,0.9011,-0.2445,1.2893c-0.163,0.3899,-0.4061,0.7302,-0.7225,1.0113c-0.3157,0.2804,-0.7075,0.499,-1.1646,0.6499c-0.4543,0.15,-0.9787,0.226,-1.5585,0.226H10.9zM14.6167,12.6c0.3824,0,0.714,-0.0208,0.9856,-0.1131c0.2687,-0.0913,0.4922,-0.2067,0.6645,-0.3689c0.1713,-0.1613,0.2989,-0.3513,0.3793,-0.5775c0.0819,-0.2307,0.1235,-0.4834,0.1235,-0.7574c0,-0.5388,-0.1727,-0.9302,-0.5278,-1.2396C15.8881,9.2354,15.339,9.1,14.6098,9.1H12.5v3.5H14.6167zM14.2395,7.8c0.3797,0,0.7121,-0.0395,0.9879,-0.1266c0.2728,-0.0862,0.5014,-0.2037,0.6794,-0.3537c0.1755,-0.1479,0.3073,-0.3303,0.3918,-0.5443c0.0862,-0.2181,0.1298,-0.4579,0.1298,-0.7139c0,-0.5986,-0.1715,-1.0528,-0.5099,-1.3285C15.5747,4.4529,15.0263,4.3,14.2886,4.3H12.5v3.5H14.2395z" fill="#3E79B4"/></g><g><path d="M21.9778,28.9c-0.1513,0,-0.2765,-0.0399,-0.3723,-0.1216c-0.0897,-0.0764,-0.1572,-0.1519,-0.2004,-0.2647L20.4637,26h-4.4946l-0.948,2.5139c-0.0385,0.103,-0.1059,0.1852,-0.2002,0.2667c-0.1007,0.0868,-0.2237,0.1195,-0.3657,0.1195h-1.229l4.2096,-10.9h1.5614l4.2024,10.9H21.9778zM20.0039,24.7l-1.5785,-4.2297c-0.0735,-0.1824,-0.1458,-0.3951,-0.2159,-0.6438c-0.0187,0.0687,-0.037,0.1374,-0.0551,0.2009c-0.0499,0.1753,-0.102,0.3217,-0.1549,0.4516L16.4291,24.7H20.0039z" fill="#6D6E71"/><path d="M28.0806,29.0202c-0.7576,0,-1.454,-0.1372,-2.0697,-0.4078c-0.6164,-0.2708,-1.1494,-0.6574,-1.5843,-1.1495c-0.4337,-0.4904,-0.7753,-1.0853,-1.0155,-1.7679c-0.2396,-0.6809,-0.3611,-1.4407,-0.3611,-2.2583c0,-0.817,0.13,-1.5777,0.3865,-2.2608c0.2569,-0.6843,0.6215,-1.2797,1.0838,-1.7698c0.4628,-0.4906,1.0264,-0.8775,1.6751,-1.15c0.6483,-0.2722,1.3702,-0.4103,2.1457,-0.4103c0.7714,0,1.4478,0.1273,2.0104,0.3785c0.56,0.2501,1.064,0.5929,1.4979,1.019L31.907,19.3l-0.5033,0.7324c-0.0385,0.0571,-0.084,0.1058,-0.1349,0.1438c-0.0605,0.0456,-0.1427,0.0678,-0.2511,0.0678c-0.0813,0,-0.1666,-0.029,-0.2533,-0.0863c-0.0723,-0.0476,-0.1578,-0.1077,-0.2542,-0.1786c-0.0946,-0.0694,-0.2063,-0.1443,-0.3318,-0.2226c-0.123,-0.0767,-0.2725,-0.1489,-0.444,-0.2146c-0.1726,-0.066,-0.3758,-0.1236,-0.6041,-0.171c-0.2272,-0.0472,-0.4951,-0.0711,-0.7962,-0.0711c-0.5373,0,-1.0344,0.0969,-1.4773,0.2879c-0.4425,0.1908,-0.829,0.4667,-1.1489,0.8201c-0.3208,0.3544,-0.575,0.7924,-0.7552,1.3019c-0.181,0.5113,-0.2728,1.0924,-0.2728,1.7272c0,0.6542,0.0917,1.2451,0.2728,1.7565c0.1805,0.5101,0.429,0.9473,0.7386,1.2994c0.308,0.3503,0.6775,0.6197,1.0985,0.8006c0.4216,0.1813,0.8843,0.2732,1.3753,0.2732c0.3034,0,0.5779,-0.018,0.816,-0.0534c0.2358,-0.0352,0.4573,-0.092,0.6583,-0.1688c0.2011,-0.077,0.391,-0.175,0.5645,-0.2913c0.1757,-0.1178,0.3552,-0.2613,0.5338,-0.4265c0.0991,-0.0904,0.2003,-0.136,0.3013,-0.136c0.1018,0,0.1964,0.0411,0.2813,0.122l0.6099,0.6835l-0.0525,0.0634c-0.43,0.5185,-0.9592,0.9293,-1.573,1.2209C29.6902,28.8722,28.942,29.0202,28.0806,29.0202z" fill="#3E79B4"/></g></g></svg>