<?xml version="1.0" standalone="no"?><!DOCTYPE svg PUBLIC "-//W3C//DTD SVG 1.1//EN" "http://www.w3.org/Graphics/SVG/1.1/DTD/svg11.dtd"><svg t="1565139678810" class="icon" viewBox="0 0 1024 1024" version="1.1" xmlns="http://www.w3.org/2000/svg" p-id="16832" xmlns:xlink="http://www.w3.org/1999/xlink" width="200" height="200"><defs><style type="text/css"></style></defs><path d="M448 298.666667C294.826667 298.666667 170.666667 422.826667 170.666667 576 170.666667 729.173333 294.826667 853.333333 448 853.333333L597.333333 853.333333 597.333333 768 448 768C341.333333 768 256 682.666667 256 576 256 469.333333 341.333333 384 448 384L689.92 384 558.506667 515.84 618.666667 576 853.333333 341.333333 618.666667 106.666667 558.08 166.826667 689.92 298.666667 448 298.666667M768 768 682.666667 768 682.666667 853.333333 768 853.333333 768 768Z" p-id="16833"></path></svg>