<?xml version="1.0" standalone="no"?><!DOCTYPE svg PUBLIC "-//W3C//DTD SVG 1.1//EN" "http://www.w3.org/Graphics/SVG/1.1/DTD/svg11.dtd"><svg t="1566029548179" class="icon" viewBox="0 0 1024 1024" version="1.1" xmlns="http://www.w3.org/2000/svg" p-id="1165" xmlns:xlink="http://www.w3.org/1999/xlink" width="200" height="200"><defs><style type="text/css"></style></defs><path d="M511.966 1.058c-282.18 0-510.976 228.659-510.976 510.942 0 282.214 228.796 510.942 510.976 510.942 282.317 0 511.044-228.727 511.044-510.942 0-282.283-228.727-510.942-511.044-510.942zM802.441 353.655l-368.367 377.037c-7.953 8.567-18.978 12.493-30.106 12.22-11.127 0.273-22.05-3.652-30.106-12.22l-152.371-161.041c-15.701-16.589-14.131-43.554 3.447-60.143 17.613-16.589 44.578-16.623 60.245-0.102l119.364 126.191 334.268-342.221c15.701-16.555 42.667-16.452 60.211 0.102 17.613 16.657 19.115 43.622 3.413 60.177z" fill="" p-id="1166"></path></svg>