<?xml version="1.0" standalone="no"?><!DOCTYPE svg PUBLIC "-//W3C//DTD SVG 1.1//EN" "http://www.w3.org/Graphics/SVG/1.1/DTD/svg11.dtd"><svg t="1565139685653" class="icon" viewBox="0 0 1024 1024" version="1.1" xmlns="http://www.w3.org/2000/svg" p-id="16950" xmlns:xlink="http://www.w3.org/1999/xlink" width="200" height="200"><defs><style type="text/css"></style></defs><path d="M576 298.666667C729.173333 298.666667 853.333333 422.826667 853.333333 576 853.333333 729.173333 729.173333 853.333333 576 853.333333L426.666667 853.333333 426.666667 768 576 768C682.666667 768 768 682.666667 768 576 768 469.333333 682.666667 384 576 384L334.08 384 465.493333 515.84 405.333333 576 170.666667 341.333333 405.333333 106.666667 465.92 166.826667 334.08 298.666667 576 298.666667M256 768 341.333333 768 341.333333 853.333333 256 853.333333 256 768Z" p-id="16951"></path></svg>