<?xml version="1.0" standalone="no"?><!DOCTYPE svg PUBLIC "-//W3C//DTD SVG 1.1//EN" "http://www.w3.org/Graphics/SVG/1.1/DTD/svg11.dtd"><svg t="1566029543124" class="icon" viewBox="0 0 1026 1024" version="1.1" xmlns="http://www.w3.org/2000/svg" p-id="1047" xmlns:xlink="http://www.w3.org/1999/xlink" width="200.390625" height="200"><defs><style type="text/css"></style></defs><path d="M512.007923 0C230.407923 0 0.007923 230.4 0.007923 512s230.4 512 512 512 512-230.4 512-512-230.4-512-512-512z m0 816.355556c-22.755556 0-42.666667-19.911111-42.666666-42.666667s19.911111-42.666667 42.666666-42.666667 42.666667 19.911111 42.666667 42.666667-19.911111 42.666667-42.666667 42.666667z m42.666667-184.888889c0 22.755556-19.911111 42.666667-42.666667 42.666666s-42.666667-19.911111-42.666666-42.666666v-369.777778c0-22.755556 19.911111-42.666667 42.666666-42.666667s42.666667 19.911111 42.666667 42.666667v369.777778z" fill="" p-id="1048"></path></svg>