<?xml version="1.0" ?><svg id="Layer_1" style="enable-background:new 0 0 85 85;" version="1.1" viewBox="0 0 85 85" xml:space="preserve" xmlns="http://www.w3.org/2000/svg" xmlns:xlink="http://www.w3.org/1999/xlink"><style type="text/css">
	.st0{fill:#FFFFFF;}
	.st1{fill:#44C4A1;}
	.st2{fill:#FCD462;}
	.st3{fill:#E56353;}
	.st4{fill:#3EA69B;}
	.st5{fill:#F6C358;}
	.st6{fill:#D15241;}
	.st7{fill:#DC8744;}
	.st8{fill:#64798A;}
	.st9{fill:#3A556A;}
	.st10{fill:#2F4859;}
	.st11{fill:#EBF0F3;}
	.st12{fill:#27A2DB;}
	.st13{fill:#31978C;}
	.st14{fill:#CE412D;}
	.st15{fill:#E1E6E9;}
	.st16{fill:#D5D6DB;}
	.st17{fill:#2D93BA;}
	.st18{fill:#6E8696;}
	.st19{fill:#D67838;}
	.st20{fill:#1C75A1;}
	.st21{fill:#54C5ED;}
	.st22{filter:url(#Adobe_OpacityMaskFilter);}
	.st23{filter:url(#Adobe_OpacityMaskFilter_1_);}
	.st24{mask:url(#SVGID_1_);fill:url(#SVGID_2_);}
	.st25{fill:url(#SVGID_3_);}
	.st26{fill:#82D6F4;}
	.st27{fill:#324C5E;}
	.st28{fill:none;}
	.st29{fill:#34BDE2;}
	.st30{fill:#4CC3ED;}
</style><g><g><path class="st10" d="M21.5,41.2c0.2,0,0.4,0,0.6-0.1c0.6-0.3,0.9-1.1,0.6-1.7l-3.2-6.5c-0.1-0.2-0.3-0.4-0.5-0.5L12.2,28    c-0.6-0.4-1.4-0.2-1.7,0.4c-0.4,0.6-0.2,1.4,0.4,1.7l6.5,4.1l3.1,6.2C20.6,40.9,21.1,41.2,21.5,41.2z"/></g><g><path class="st10" d="M12.8,56.8c0.2,0,0.4,0,0.5-0.1l5.9-2.7c0.6-0.3,0.9-1,0.6-1.7c-0.3-0.6-1-0.9-1.7-0.6l-5.5,2.5l-5.5-0.8    c-0.7-0.1-1.3,0.4-1.4,1.1c-0.1,0.7,0.4,1.3,1.1,1.4l5.9,0.9C12.7,56.8,12.7,56.8,12.8,56.8z"/></g><g><path class="st10" d="M13.6,81.5c0.3,0,0.6-0.1,0.9-0.3c0.7-0.7,3-2.5,4.8-2.5c0.4,0,0.8-0.2,1-0.5c0.2-0.3,0.3-0.7,0.2-1.1    c0-0.1-2-7.3,2-9.5c0.6-0.3,0.8-1.1,0.5-1.7c-0.3-0.6-1.1-0.8-1.7-0.5c-4.5,2.4-4,8.3-3.6,11c-2.5,0.7-4.7,2.7-5,3    c-0.5,0.5-0.5,1.3,0,1.8C13,81.4,13.3,81.5,13.6,81.5z"/></g><g><path class="st10" d="M63.5,41.2c-0.2,0-0.4,0-0.6-0.1c-0.6-0.3-0.9-1.1-0.6-1.7l3.2-6.5c0.1-0.2,0.3-0.4,0.5-0.5l6.8-4.3    c0.6-0.4,1.4-0.2,1.7,0.4c0.4,0.6,0.2,1.4-0.4,1.7l-6.5,4.1l-3.1,6.2C64.4,40.9,63.9,41.2,63.5,41.2z"/></g><g><path class="st10" d="M72.2,56.8c-0.2,0-0.4,0-0.5-0.1L65.8,54c-0.6-0.3-0.9-1-0.6-1.7c0.3-0.6,1-0.9,1.7-0.6l5.5,2.5l5.5-0.8    c0.7-0.1,1.3,0.4,1.4,1.1c0.1,0.7-0.4,1.3-1.1,1.4l-5.9,0.9C72.3,56.8,72.3,56.8,72.2,56.8z"/></g><g><path class="st10" d="M71.4,81.5c-0.3,0-0.6-0.1-0.9-0.3c-0.7-0.7-3-2.5-4.8-2.5c-0.4,0-0.8-0.2-1-0.5c-0.2-0.3-0.3-0.7-0.2-1.1    c0-0.1,2-7.3-2-9.5c-0.6-0.3-0.8-1.1-0.5-1.7c0.3-0.6,1.1-0.8,1.7-0.5c4.5,2.4,4,8.3,3.6,11c2.5,0.7,4.7,2.7,5,3    c0.5,0.5,0.5,1.3,0,1.8C72,81.4,71.7,81.5,71.4,81.5z"/></g><g><g><path class="st10" d="M47.7,18.7C47.7,18.7,47.7,18.7,47.7,18.7c-0.7,0-1.3-0.6-1.3-1.3c0.1-4.6,2.7-13.7,11.4-14.9     c0.7-0.1,1.3,0.4,1.4,1.1c0.1,0.7-0.4,1.3-1.1,1.4C49.4,6.2,49,17,49,17.4C49,18.1,48.4,18.7,47.7,18.7z"/></g><g><path class="st10" d="M37.5,18.7c-0.7,0-1.2-0.5-1.3-1.2l0,0C36.3,17,35.8,6.2,27,5c-0.7-0.1-1.2-0.7-1.1-1.4     c0.1-0.7,0.7-1.2,1.4-1.1c8.8,1.2,11.3,10.2,11.4,14.9C38.8,18.1,38.3,18.6,37.5,18.7C37.6,18.7,37.5,18.7,37.5,18.7z"/></g></g><path class="st3" d="M23.1,30.7c-3.5,5.5-5.5,12.4-5.5,20c0,17.6,11.2,31.9,25.1,31.9c13.8,0,25.1-14.3,25.1-31.9   c0-7.6-2.1-14.5-5.5-20H23.1z"/><path class="st9" d="M42.6,14.7c-7.9,0-15,6.2-19.5,16h39.1C57.6,20.9,50.5,14.7,42.6,14.7z"/><path class="st9" d="M40,82.3c0.9,0.1,1.8,0.2,2.7,0.2c0.9,0,1.8-0.1,2.7-0.2l-2.7-39.5L40,82.3z"/><circle class="st9" cx="55.3" cy="36.9" r="0.8"/><circle class="st9" cx="51" cy="53.9" r="1.6"/><circle class="st9" cx="62.2" cy="48" r="1.7"/><circle class="st9" cx="56" cy="65.1" r="2.4"/><circle class="st9" cx="29" cy="61.8" r="1.4"/><circle class="st9" cx="24" cy="49.4" r="2.3"/><circle class="st9" cx="32.5" cy="37.4" r="1.3"/><circle class="st9" cx="35.4" cy="49.6" r="1.6"/><circle class="st9" cx="45.8" cy="37.7" r="1.6"/><circle class="st9" cx="31.3" cy="71.2" r="1.5"/><g><circle class="st10" cx="35.3" cy="22.7" r="2.7"/><circle class="st8" cx="35.3" cy="22.7" r="1.7"/><circle class="st10" cx="50" cy="22.7" r="2.7"/><circle class="st8" cx="50" cy="22.7" r="1.7"/></g></g></svg>