<?xml version="1.0" ?><svg enable-background="new 0 0 192 192.0022" id="tar" version="1.1" viewBox="0 0 192 192.0022" xml:space="preserve" xmlns="http://www.w3.org/2000/svg" xmlns:xlink="http://www.w3.org/1999/xlink"><g><path d="M190.832,85.1818c0.3244,0.3244,0.5744,0.7188,0.7716,1.1408   C191.41,85.9086,191.166,85.5158,190.832,85.1818z" fill="#4A8F9E"/><path d="M188,84.0022c1.1036,0,2.1036,0.4472,2.826,1.172L168,62.3458v21.6564H188z" fill="#4A8F9E"/><path d="M191.7364,86.6974c0.1172,0.336,0.1892,0.6896,0.2128,1.0588   C191.9276,87.393,191.8556,87.0414,191.7364,86.6974z" fill="#4A8F9E"/><path d="M0.3964,86.3226c0.1972-0.422,0.4472-0.8164,0.7716-1.1408C0.834,85.5158,0.59,85.9086,0.3964,86.3226z" fill="#4A8F9E"/><path d="M0.0508,87.7562c0.0236-0.3692,0.0956-0.7228,0.2128-1.0588C0.1444,87.0414,0.0724,87.393,0.0508,87.7562z" fill="#4A8F9E"/><path d="M24,84.0022V62.3458L1.174,85.1742c0.7224-0.7248,1.7224-1.172,2.826-1.172H24z" fill="#4A8F9E"/><path d="M168,84.0022V62.3458v-24l-1.172-1.1716c1.1448,1.1444,1.4864,2.8632,0.8672,4.3592   c-0.6192,1.494-2.078,2.4688-3.6952,2.4688h-36c-2.2088,0-4-1.7912-4-4v-36c0-1.6172,0.9748-3.076,2.4688-3.6952   c1.494-0.6232,3.2128-0.2796,4.3592,0.8672l-1.1716-1.172H24v62.3436v21.6564H168z" fill="#C6DFED"/><rect fill="#C6DFED" height="24" width="144" x="24" y="168.0022"/><polygon fill="#50CCD3" points="90.9336,111.5414 90.662,111.5414 85.4256,135.4106 96.0332,135.4106  "/><path d="M191.9492,87.7562c-0.0236-0.3692-0.0956-0.7228-0.2128-1.0588c-0.0448-0.1268-0.0764-0.2536-0.1328-0.3748   c-0.1972-0.422-0.4472-0.8164-0.7716-1.1408c-0.002-0.004-0.002-0.0076-0.002-0.0076c-0.7264-0.7248-1.7264-1.172-2.83-1.172h-20   H24H4c-1.1036,0-2.1036,0.4472-2.826,1.172c0,0-0.004,0.0036-0.006,0.0076c-0.3244,0.3244-0.5744,0.7188-0.7716,1.1408   c-0.0564,0.1212-0.088,0.248-0.1328,0.3748c-0.1172,0.336-0.1892,0.6896-0.2128,1.0588C0.0448,87.8422,0,87.9142,0,88.0022v76   c0,2.2088,1.7912,4,4,4h20h144h20c2.2088,0,4-1.7912,4-4v-76C192,87.9142,191.9572,87.8422,191.9492,87.7562z M75.0216,110.795   h-9.0432v41.2072h-8.0252V110.795H48.91v-6.9372h26.1116V110.795z M85.7656,103.8578H96.17l11.7636,48.1444h-8.5l-2.3788-10.1992   H84.4064l-2.4492,10.1992h-8.1584L85.7656,103.8578z M132.8908,152.0022L125.41,131.467h-4.5564v20.5352h-7.8868v-48.1444h13.7344   c1.996,0,3.832,0.2616,5.5096,0.7812c1.676,0.5232,3.1152,1.3516,4.3164,2.4844c1.2012,1.1308,2.1428,2.5584,2.8224,4.2832   c0.6796,1.7244,1.0196,3.7832,1.0196,6.1872c0,1.8596-0.2364,3.5-0.7128,4.928c-0.4768,1.4316-1.0764,2.6444-1.8028,3.6404   c-0.7248,0.9964-1.5292,1.8008-2.414,2.4104c-0.8828,0.6172-1.756,1.0332-2.6172,1.2616l8.6348,22.168H132.8908z" fill="#50CCD3"/><path d="M130.1368,112.1546c-0.6584-0.5448-1.3948-0.9296-2.2112-1.1564   c-0.8164-0.2284-1.6308-0.3396-2.4472-0.3396h-4.6248v14.824h4.6248c1.9944,0,3.6368-0.6248,4.93-1.8728   c1.2908-1.2444,1.9372-3.1156,1.9372-5.6076c0-1.4532-0.2032-2.6524-0.6112-3.6036   C131.326,113.4474,130.7928,112.6974,130.1368,112.1546z" fill="#50CCD3"/><path d="M126.4688,0.307C124.9748,0.9262,124,2.385,124,4.0022v36c0,2.2088,1.7912,4,4,4h36   c1.6172,0,3.076-0.9748,3.6952-2.4688c0.6192-1.496,0.2776-3.2148-0.8672-4.3592l-36-36   C129.6816,0.0274,127.9628-0.3162,126.4688,0.307z" fill="#A9C7D8"/><path d="M135.4396,128.5726c0.8848-0.6096,1.6892-1.414,2.414-2.4104c0.7264-0.996,1.326-2.2088,1.8028-3.6404   c0.4764-1.428,0.7128-3.0684,0.7128-4.928c0-2.404-0.34-4.4628-1.0196-6.1872c-0.6796-1.7248-1.6212-3.1524-2.8224-4.2832   c-1.2012-1.1328-2.6404-1.9612-4.3164-2.4844c-1.6776-0.5196-3.5136-0.7812-5.5096-0.7812h-13.7344v48.1444h7.8868V131.467h4.5564   l7.4808,20.5352h8.5664l-8.6348-22.168C133.6836,129.6058,134.5568,129.1898,135.4396,128.5726z M130.4084,123.6098   c-1.2932,1.248-2.9356,1.8728-4.93,1.8728h-4.6248v-14.824h4.6248c0.8164,0,1.6308,0.1112,2.4472,0.3396   c0.8164,0.2268,1.5528,0.6116,2.2112,1.1564c0.656,0.5428,1.1892,1.2928,1.5976,2.244c0.408,0.9512,0.6112,2.1504,0.6112,3.6036   C132.3456,120.4942,131.6992,122.3654,130.4084,123.6098z" fill="#FFE9E1"/><polygon fill="#FFE9E1" points="48.91,110.795 57.9532,110.795 57.9532,152.0022 65.9784,152.0022 65.9784,110.795    75.0216,110.795 75.0216,103.8578 48.91,103.8578  "/><path d="M81.9572,152.0022l2.4492-10.1992h12.6484l2.3788,10.1992h8.5L96.17,103.8578H85.7656l-11.9668,48.1444   H81.9572z M90.662,111.5414h0.2716l5.0996,23.8692H85.4256L90.662,111.5414z" fill="#FFE9E1"/></g></svg>