<?xml version="1.0" ?><svg enable-background="new 0 0 156 212.0052" id="trademark" version="1.1" viewBox="0 0 156 212.0052" xml:space="preserve" xmlns="http://www.w3.org/2000/svg" xmlns:xlink="http://www.w3.org/1999/xlink"><g><path d="M154.8259,40.302L115.6503,1.1732c-0.75-0.746-1.7656-1.168-2.826-1.168H4c-2.2089,0-4,1.7892-4,4v204   c0,2.2108,1.7911,4,4,4h148c2.2087,0,4-1.7892,4-4V43.134C156,42.0716,155.5779,41.056,154.8259,40.302z M78,172.0052   c-29.7753,0-54-24.2228-54-54s24.2247-54,54-54c29.7751,0,54,24.2228,54,54S107.7751,172.0052,78,172.0052z M155.6951,45.5364   c-0.6191,1.496-2.078,2.4688-3.6951,2.4688h-40c-2.2089,0-4-1.7892-4-4v-40c0-1.6172,0.9747-3.078,2.4687-3.6952   c1.496-0.6292,3.2108-0.2812,4.3593,0.8672l40,40C155.9727,42.3216,156.3143,44.0404,155.6951,45.5364z" fill="#D4D4E2"/><path d="M78,64.0052c-29.7753,0-54,24.2228-54,54s24.2247,54,54,54c29.7751,0,54-24.2228,54-54   S107.7751,64.0052,78,64.0052z M78,164.0052c-25.3653,0-46-20.6368-46-46s20.6347-46,46-46c25.3651,0,46,20.6368,46,46   S103.3651,164.0052,78,164.0052z" fill="#3BABB7"/><path d="M78,72.0052c-25.3653,0-46,20.6368-46,46s20.6347,46,46,46c25.3651,0,46-20.6368,46-46   S103.3651,72.0052,78,72.0052z M72.336,107.4584H62.164v28.5468h-6.9377v-28.5468H45.0311v-5.8124H72.336V107.4584z    M109.9063,136.0052h-6.4456v-27.0468l-6.82,27.0468h-6.68l-6.7967-27.0468v27.0468h-6.4453V101.646h10.3828l6.2345,23.4372   L99.5,101.646h10.4063V136.0052z" fill="#DBEEF7"/><polygon fill="#5DD4DC" points="45.0311,107.4584 55.2263,107.4584 55.2263,136.0052 62.164,136.0052 62.164,107.4584    72.336,107.4584 72.336,101.646 45.0311,101.646  "/><polygon fill="#5DD4DC" points="93.336,125.0832 87.1015,101.646 76.7187,101.646 76.7187,136.0052 83.164,136.0052    83.164,108.9584 89.9607,136.0052 96.6407,136.0052 103.4607,108.9584 103.4607,136.0052 109.9063,136.0052 109.9063,101.646    99.5,101.646  "/><path d="M114.828,1.1772c-1.1485-1.1484-2.8633-1.4964-4.3593-0.8672C108.9747,0.9272,108,2.388,108,4.0052v40   c0,2.2108,1.7911,4,4,4h40c1.6171,0,3.076-0.9728,3.6951-2.4688c0.6192-1.496,0.2776-3.2148-0.8671-4.3592L114.828,1.1772z" fill="#A9C7D8"/></g></svg>