<?xml version="1.0" ?><svg enable-background="new 0 0 156.0008 212" id="favorite" version="1.1" viewBox="0 0 156.0008 212" xml:space="preserve" xmlns="http://www.w3.org/2000/svg" xmlns:xlink="http://www.w3.org/1999/xlink"><g><path d="M154.828,40.3009L115.6523,1.1701C114.9023,0.42,113.8827,0,112.8243,0H4C1.7891,0,0,1.7913,0,4v204   c0,2.2089,1.7891,4,4,4h148c2.2107,0,4-1.7911,4-4V43.1309C156,42.0685,155.5779,41.0509,154.828,40.3009z M132,184   c0,2.2089-1.7893,4-4,4H28c-2.2109,0-4-1.7911-4-4V72c0-2.2087,1.7891-4,4-4h100c2.2107,0,4,1.7913,4,4V184z M155.6951,45.5313   C155.0779,47.0253,153.6171,48,152,48h-40c-2.2109,0-4-1.7911-4-4V4c0-1.6171,0.9727-3.076,2.4687-3.6951   c1.496-0.6172,3.2148-0.2776,4.3593,0.8671l40,40C155.9727,42.3165,156.3163,44.0353,155.6951,45.5313z" fill="#FFE9E1"/><path d="M114.828,1.172c-1.1445-1.1447-2.8633-1.4843-4.3593-0.8671C108.9727,0.924,108,2.3829,108,4v40   c0,2.2089,1.7891,4,4,4h40c1.6171,0,3.0779-0.9747,3.6951-2.4687c0.6212-1.496,0.2776-3.2148-0.8671-4.3593L114.828,1.172z" fill="#FCD1C0"/><path d="M128,68H28c-2.2109,0-4,1.7913-4,4v112c0,2.2089,1.7891,4,4,4h100c2.2107,0,4-1.7911,4-4V72   C132,69.7913,130.2107,68,128,68z M113.1287,122.3593l-14.664,14.2912l3.4608,20.1796c0.258,1.5-0.3592,3.0176-1.5895,3.912   c-0.6953,0.5059-1.5237,0.764-2.3517,0.764c-0.6368,0-1.2772-0.1524-1.8592-0.4592L78,151.5197l-18.1249,9.5272   c-1.34,0.7091-2.9728,0.59-4.2111-0.3048c-1.2305-0.8944-1.8477-2.412-1.5897-3.912l3.4608-20.1796l-14.664-14.2912   c-1.09-1.0644-1.4804-2.652-1.012-4.1012c0.4729-1.4476,1.7228-2.504,3.2308-2.7228l20.2616-2.9452l9.0624-18.3596   c1.344-2.7305,5.828-2.7305,7.172,0l9.0624,18.3596l20.2616,2.9452c1.508,0.2188,2.7581,1.2752,3.2308,2.7228   C114.6091,119.7073,114.2187,121.2949,113.1287,122.3593z" fill="#99D59D"/><path d="M110.9099,115.5353l-20.2616-2.9452l-9.0624-18.3596c-1.344-2.7305-5.828-2.7305-7.172,0l-9.0624,18.3596   l-20.2616,2.9452c-1.508,0.2188-2.7579,1.2752-3.2308,2.7228c-0.4684,1.4492-0.078,3.0368,1.012,4.1012l14.664,14.2912   l-3.4608,20.1796c-0.258,1.5,0.3592,3.0176,1.5897,3.912c1.2383,0.8948,2.8711,1.0139,4.2111,0.3048L78,151.5197l18.1251,9.5272   c0.582,0.3068,1.2224,0.4592,1.8592,0.4592c0.828,0,1.6564-0.2581,2.3517-0.764c1.2303-0.8944,1.8475-2.412,1.5895-3.912   l-3.4608-20.1796l14.664-14.2912c1.09-1.0644,1.4804-2.652,1.012-4.1012C113.668,116.8105,112.4179,115.7541,110.9099,115.5353z" fill="#F8A131"/></g></svg>