<?xml version="1.0" ?><svg enable-background="new 0 0 192 192" id="php" version="1.1" viewBox="0 0 192 192" xml:space="preserve" xmlns="http://www.w3.org/2000/svg" xmlns:xlink="http://www.w3.org/1999/xlink"><g><path d="M24,84V62.3436L1.1755,85.168C1.8983,84.4472,2.8943,84,4,84H24z" fill="#4A8F9E"/><path d="M0.0467,87.758c0.0236-0.3712,0.0976-0.7268,0.2148-1.0628C0.1407,87.0392,0.0703,87.3908,0.0467,87.758z" fill="#4A8F9E"/><path d="M0.3983,86.3204c0.1952-0.418,0.4417-0.8068,0.7617-1.1308C0.828,85.5236,0.5899,85.91,0.3983,86.3204z" fill="#4A8F9E"/><path d="M191.7383,86.6952c0.1172,0.336,0.1912,0.6916,0.2148,1.0628   C191.9295,87.3924,191.8591,87.0412,191.7383,86.6952z" fill="#4A8F9E"/><path d="M190.84,85.1896c0.32,0.324,0.5663,0.7128,0.7615,1.1308C191.4139,85.91,191.172,85.5236,190.84,85.1896z" fill="#4A8F9E"/><path d="M188,84c1.1015,0,2.1015,0.4472,2.8243,1.168L168,62.3436V84H188z" fill="#4A8F9E"/><path d="M168,84V62.3436v-24l-1.172-1.1716c1.1447,1.1444,1.4883,2.8632,0.8671,4.3592   C167.0779,43.0252,165.6171,44,164,44h-36c-2.2109,0-4-1.7912-4-4V4c0-1.6172,0.9727-3.076,2.4687-3.6952   c1.5-0.6172,3.2148-0.2776,4.3593,0.8672L129.6563,0H24v62.3436V84H168z" fill="#C6DFED"/><rect fill="#C6DFED" height="24" width="144" x="24" y="168"/><path d="M133.7419,110.7228h-4.6248v15.3008h4.6248c1.9024,0,3.4652-0.668,4.6916-2.004   c1.2228-1.34,1.836-3.2988,1.836-5.8828c0-2.586-0.6132-4.4648-1.836-5.6448   C137.2071,111.3124,135.6443,110.7228,133.7419,110.7228z" fill="#63B473"/><path d="M191.9531,87.758c-0.0236-0.3712-0.0976-0.7268-0.2148-1.0628c-0.0468-0.1288-0.0783-0.2536-0.1368-0.3748   c-0.1952-0.418-0.4415-0.8068-0.7615-1.1308c-0.004-0.006-0.008-0.014-0.0157-0.0216C190.1015,84.4472,189.1015,84,188,84h-20H24H4   c-1.1057,0-2.1017,0.4472-2.8245,1.168C1.168,85.1756,1.164,85.1836,1.16,85.1896c-0.32,0.324-0.5665,0.7128-0.7617,1.1308   c-0.0583,0.1212-0.09,0.246-0.1368,0.3748c-0.1172,0.336-0.1912,0.6916-0.2148,1.0628C0.0427,87.8436,0,87.914,0,88v76   c0,2.2088,1.7891,4,4,4h20h144h20c2.2107,0,4-1.7912,4-4V88C192,87.914,191.9571,87.8436,191.9531,87.758z M47.0391,152v-48.1444   h13.328c1.5428,0,3.1289,0.2284,4.7616,0.6796c1.6328,0.4532,3.094,1.2364,4.3868,2.3456   c1.2892,1.1112,2.3556,2.5744,3.1952,4.3868c0.836,1.8124,1.258,4.08,1.258,6.8008c0,2.4472-0.3752,4.588-1.1212,6.4236   c-0.75,1.84-1.7344,3.3672-2.9608,4.592c-1.2227,1.2244-2.6288,2.1308-4.2147,2.7208c-1.5861,0.586-3.2189,0.8828-4.8949,0.8828   h-5.7148V152H47.0391z M103.2071,123.3712v-19.5156h8.0936V152h-8.0936v-21.3516H88.7927V152h-8.0936v-48.1444h8.0936v19.5156   H103.2071z M146.8983,124.492c-0.75,1.84-1.7343,3.3672-2.9568,4.592c-1.2268,1.2244-2.6292,2.1308-4.2188,2.7208   c-1.586,0.586-3.2187,0.8828-4.8947,0.8828h-5.7109V152h-8.0236v-48.1444h13.3284c1.5388,0,3.1248,0.2284,4.7576,0.6796   c1.6328,0.4532,3.094,1.2364,4.3868,2.3456c1.2928,1.1112,2.3556,2.5744,3.1952,4.3868c0.84,1.8124,1.258,4.08,1.258,6.8008   C148.0195,120.5156,147.6443,122.6564,146.8983,124.492z" fill="#63B473"/><path d="M64.3787,124.0196c1.2268-1.34,1.836-3.2988,1.836-5.8828c0-2.586-0.6092-4.4648-1.836-5.6448   c-1.2224-1.1796-2.7852-1.7692-4.6912-1.7692h-4.6252v15.3008h4.6252C61.5935,126.0236,63.1563,125.3556,64.3787,124.0196z" fill="#63B473"/><path d="M126.4687,0.3048C124.9727,0.924,124,2.3828,124,4v36c0,2.2088,1.7891,4,4,4h36   c1.6171,0,3.0779-0.9748,3.6951-2.4688c0.6212-1.496,0.2776-3.2148-0.8671-4.3592l-36-36   C129.6835,0.0272,127.9687-0.3124,126.4687,0.3048z" fill="#A9C7D8"/><polygon fill="#FFE9E1" points="80.6991,103.8556 80.6991,152 88.7927,152 88.7927,130.6484 103.2071,130.6484 103.2071,152    111.3007,152 111.3007,103.8556 103.2071,103.8556 103.2071,123.3712 88.7927,123.3712 88.7927,103.8556  "/><path d="M143.5663,106.8808c-1.2928-1.1092-2.754-1.8924-4.3868-2.3456c-1.6328-0.4512-3.2188-0.6796-4.7576-0.6796   h-13.3284V152h8.0236v-19.3124h5.7109c1.676,0,3.3087-0.2968,4.8947-0.8828c1.5896-0.59,2.992-1.4964,4.2188-2.7208   c1.2225-1.2248,2.2068-2.752,2.9568-4.592c0.746-1.8356,1.1212-3.9764,1.1212-6.4236c0-2.7208-0.418-4.9884-1.258-6.8008   C145.9219,109.4552,144.8591,107.992,143.5663,106.8808z M138.4335,124.0196c-1.2264,1.336-2.7892,2.004-4.6916,2.004h-4.6248   v-15.3008h4.6248c1.9024,0,3.4652,0.5896,4.6916,1.7692c1.2228,1.18,1.836,3.0588,1.836,5.6448   C140.2695,120.7208,139.6563,122.6796,138.4335,124.0196z" fill="#FFE9E1"/><path d="M60.7771,132.6876c1.676,0,3.3088-0.2968,4.8949-0.8828c1.5859-0.59,2.992-1.4964,4.2147-2.7208   c1.2264-1.2248,2.2108-2.752,2.9608-4.592c0.746-1.8356,1.1212-3.9764,1.1212-6.4236c0-2.7208-0.422-4.9884-1.258-6.8008   c-0.8396-1.8124-1.906-3.2756-3.1952-4.3868c-1.2928-1.1092-2.754-1.8924-4.3868-2.3456   c-1.6327-0.4512-3.2188-0.6796-4.7616-0.6796h-13.328V152h8.0232v-19.3124H60.7771z M55.0623,110.7228h4.6252   c1.906,0,3.4688,0.5896,4.6912,1.7692c1.2268,1.18,1.836,3.0588,1.836,5.6448c0,2.584-0.6092,4.5428-1.836,5.8828   c-1.2224,1.336-2.7852,2.004-4.6912,2.004h-4.6252V110.7228z" fill="#FFE9E1"/></g></svg>