<?xml version="1.0" ?><svg enable-background="new 0 0 216 180" id="_x31_folder" version="1.1" viewBox="0 0 216 180" xml:space="preserve" xmlns="http://www.w3.org/2000/svg" xmlns:xlink="http://www.w3.org/1999/xlink"><g><path d="M4,24h90.1407L79.328,1.7812C78.5859,0.668,77.3379,0,76,0H4C1.7911,0,0,1.7892,0,4v24   C0,25.7892,1.7911,24,4,24z" fill="#FE8657"/><path d="M212,48H4c-2.2089,0-4-1.7892-4-4v116.0116C0,171.0352,8.9607,180,19.9763,180h176.0472   C207.0391,180,216,171.0352,216,160.0116V44C216,46.2108,214.2087,48,212,48z M112,148H72V68h40V148z M144,76v72.1092h-8V76h-12v-8   h12h8V76z" fill="#49A25A"/><rect fill="#49A25A" height="64" width="24" x="80" y="76"/><path d="M212,24H94.1407H4c-2.2089,0-4,1.7892-4,4v16c0,2.2108,1.7911,4,4,4h208c2.2087,0,4-1.7892,4-4V28   C216,25.7892,214.2087,24,212,24z" fill="#FFDC82"/><path d="M72,148h40V68H72V148z M80,76h24v64H80V76z" fill="#FFDC82"/><polygon fill="#FFDC82" points="124,68 124,76 136,76 136,148.1092 144,148.1092 144,76 144,68 136,68  "/></g></svg>