<?xml version="1.0" ?><svg enable-background="new 0 0 156 212.0033" id="shield" version="1.1" viewBox="0 0 156 212.0033" xml:space="preserve" xmlns="http://www.w3.org/2000/svg" xmlns:xlink="http://www.w3.org/1999/xlink"><g><path d="M154.826,40.3082L115.6504,1.1753c-0.75-0.7499-1.7656-1.172-2.826-1.172H4c-2.2088,0-4,1.7893-4,4v204   c0,2.2109,1.7912,4,4,4h148c2.2088,0,4-1.7891,4-4V43.1362C156,42.0738,155.578,41.0582,154.826,40.3082z M132,184.0033   c0,2.2109-1.7912,4-4,4H28c-2.2088,0-4-1.7891-4-4v-112c0-2.2107,1.7912-4,4-4h100c2.2088,0,4,1.7893,4,4V184.0033z    M155.6952,45.5346c-0.6192,1.496-2.078,2.4687-3.6952,2.4687h-40c-2.2088,0-4-1.7891-4-4v-40   c0-1.6171,0.9748-3.0779,2.4688-3.6951c1.498-0.6252,3.2108-0.2812,4.3592,0.8671l40,40   C155.9728,42.3198,156.3144,44.0386,155.6952,45.5346z" fill="#FFE9E1"/><path d="M114.828,1.1753c-1.1484-1.1483-2.8612-1.4923-4.3592-0.8671C108.9748,0.9254,108,2.3862,108,4.0033v40   c0,2.2109,1.7912,4,4,4h40c1.6172,0,3.076-0.9727,3.6952-2.4687c0.6192-1.496,0.2776-3.2148-0.8672-4.3593L114.828,1.1753z" fill="#FCD1C0"/><path d="M128,68.0033H28c-2.2088,0-4,1.7893-4,4v112c0,2.2109,1.7912,4,4,4h100c2.2088,0,4-1.7891,4-4v-112   C132,69.7926,130.2088,68.0033,128,68.0033z M108.5176,145.0033c-7.3164,12.672-19.2188,20.8245-30.3692,20.8245   c-0.1172,0-0.2344,0-0.3592,0c-11.088,0-22.9904-8.1525-30.3068-20.8245c-4.674-8.0975-6.8944-17.0195-6.256-25.1327   c0.6836-8.664,4.51-15.4256,10.7736-19.0428c7.4784-4.3165,17.0312-3.3516,26,2.5035c8.9668-5.8551,18.5236-6.824,26-2.5035   c6.2636,3.6172,10.09,10.3788,10.7736,19.0428C115.412,127.9838,113.1916,136.9058,108.5176,145.0033z" fill="#F7A031"/><path d="M104,100.8278c-7.4764-4.3205-17.0332-3.3516-26,2.5035c-8.9688-5.8551-18.5216-6.82-26-2.5035   c-6.2636,3.6172-10.09,10.3788-10.7736,19.0428c-0.6384,8.1132,1.582,17.0352,6.256,25.1327   c7.3164,12.672,19.2188,20.8245,30.3068,20.8245c0.1248,0,0.242,0,0.3592,0c11.1504,0,23.0528-8.1525,30.3692-20.8245   c4.674-8.0975,6.8944-17.0195,6.256-25.1327C114.09,111.2066,110.2636,104.445,104,100.8278z" fill="#FF427A"/></g></svg>