<?xml version="1.0" ?><svg enable-background="new 0 0 192 192.0022" id="png" version="1.1" viewBox="0 0 192 192.0022" xml:space="preserve" xmlns="http://www.w3.org/2000/svg" xmlns:xlink="http://www.w3.org/1999/xlink"><g><path d="M188,84.0022c1.1036,0,2.1036,0.4472,2.826,1.172L168,62.3458v21.6564H188z" fill="#4A8F9E"/><path d="M191.7364,86.6994c0.1172,0.334,0.1892,0.6876,0.2128,1.0568   C191.9276,87.393,191.8556,87.0414,191.7364,86.6994z" fill="#4A8F9E"/><path d="M190.832,85.1818c0.3244,0.3244,0.5744,0.7188,0.7716,1.1408   C191.41,85.9086,191.166,85.5158,190.832,85.1818z" fill="#4A8F9E"/><path d="M0.3964,86.3226c0.1972-0.422,0.4472-0.8164,0.7716-1.1408C0.834,85.5158,0.59,85.9086,0.3964,86.3226z" fill="#4A8F9E"/><path d="M0.0508,87.7562c0.0236-0.3692,0.0956-0.7228,0.2128-1.0568C0.1444,87.0414,0.0724,87.393,0.0508,87.7562z" fill="#4A8F9E"/><path d="M24,84.0022V62.3458L1.174,85.1742c0.7224-0.7248,1.7224-1.172,2.826-1.172H24z" fill="#4A8F9E"/><path d="M168,84.0022V62.3458v-24l-1.172-1.1716c1.1448,1.1444,1.4864,2.8632,0.8672,4.3592   c-0.6192,1.494-2.078,2.4688-3.6952,2.4688h-36c-2.2088,0-4-1.7912-4-4v-36c0-1.6172,0.9748-3.076,2.4688-3.6952   c1.494-0.6232,3.2128-0.2796,4.3592,0.8672l-1.1716-1.172H24v62.3436v21.6564H168z" fill="#C6DFED"/><rect fill="#C6DFED" height="24" width="144" x="24" y="168.0022"/><path d="M191.9492,87.7562c-0.0236-0.3692-0.0956-0.7228-0.2128-1.0568c-0.0448-0.1288-0.0764-0.2556-0.1328-0.3768   c-0.1972-0.422-0.4472-0.8164-0.7716-1.1408c-0.002-0.004-0.002-0.0076-0.002-0.0076c-0.7264-0.7248-1.7264-1.172-2.83-1.172h-20   H24H4c-1.1036,0-2.1036,0.4472-2.826,1.172c0,0-0.004,0.0036-0.006,0.0076c-0.3244,0.3244-0.5744,0.7188-0.7716,1.1408   c-0.0564,0.1212-0.088,0.248-0.1328,0.3768c-0.1172,0.334-0.1892,0.6876-0.2128,1.0568C0.0448,87.8422,0,87.9142,0,88.0022v76   c0,2.2088,1.7912,4,4,4h20h144h20c2.2088,0,4-1.7912,4-4v-76C192,87.9142,191.9552,87.8422,191.9492,87.7562z M45.4764,152.0022   v-48.1444h13.3284c1.5408,0,3.1268,0.2284,4.7596,0.6796c1.6308,0.4532,3.094,1.2364,4.3848,2.3456   c1.2928,1.1112,2.3576,2.5744,3.1972,4.3868c0.838,1.8124,1.258,4.08,1.258,6.8008c0,2.4472-0.3752,4.588-1.1232,6.4236   c-0.748,1.84-1.7324,3.3672-2.9568,4.592c-1.2248,1.2244-2.6292,2.1308-4.2168,2.7208c-1.586,0.586-3.2188,0.8828-4.8948,0.8828   H53.5v19.3124H45.4764z M102.1192,103.8578h7.0724v48.1444h-8.9748l-13.668-34h-0.2052l0.1368,34h-7.3436v-48.1444h9.3144   l13.5332,34.2028h0.2032L102.1192,103.8578z M147.6112,149.0782c-1.4492,1.18-3.1836,2.1312-5.2012,2.8556   c-2.0176,0.7248-4.4316,1.088-7.242,1.088c-2.8556,0-5.418-0.5996-7.6836-1.8048c-2.2676-1.1992-4.1816-2.91-5.746-5.1308   c-1.5644-2.2208-2.7656-4.8732-3.6036-7.9552c-0.84-3.086-1.258-6.5056-1.258-10.2696c0-3.6716,0.4064-7.0468,1.2228-10.1328   c0.8164-3.082,1.996-5.742,3.5372-7.99c1.5408-2.2444,3.3984-3.9884,5.576-5.2364c2.176-1.244,4.6232-1.8672,7.344-1.8672   c2.8552,0,5.326,0.508,7.412,1.5272c2.084,1.0236,3.7852,2.4592,5.0996,4.3204l-4.6916,5.7112   c-1.8144-2.6292-4.2616-3.9436-7.3456-3.9436c-1.6756,0-3.1388,0.4748-4.3848,1.4276c-1.248,0.9532-2.2792,2.2328-3.0936,3.84   c-0.8164,1.6132-1.4276,3.4804-1.836,5.6132c-0.4084,2.1308-0.6132,4.3752-0.6132,6.7304c0,2.4492,0.2048,4.7484,0.6132,6.9004   c0.4084,2.1564,1.0196,4.0372,1.836,5.6448c0.8144,1.6112,1.8456,2.8672,3.0936,3.7752c1.246,0.9084,2.7304,1.3596,4.4532,1.3596   c1.088,0,2.0744-0.1232,2.9588-0.3752c0.8832-0.248,1.598-0.576,2.1408-0.9844v-12.4432h-5.8476v-7.0724h13.2596V149.0782z" fill="#FE7D71"/><path d="M62.8164,124.0178c1.2228-1.336,1.836-3.2948,1.836-5.8788c0-2.586-0.6132-4.4648-1.836-5.6448   c-1.2248-1.1796-2.7892-1.7692-4.6912-1.7692H53.5v15.3008h4.6252C60.0272,126.0258,61.5916,125.3578,62.8164,124.0178z" fill="#FE7D71"/><path d="M126.4688,0.307C124.9748,0.9262,124,2.385,124,4.0022v36c0,2.2088,1.7912,4,4,4h36   c1.6172,0,3.076-0.9748,3.6952-2.4688c0.6192-1.496,0.2776-3.2148-0.8672-4.3592l-36-36   C129.6816,0.0274,127.9628-0.3162,126.4688,0.307z" fill="#A9C7D8"/><polygon fill="#FFE9E1" points="88.4512,103.8578 79.1368,103.8578 79.1368,152.0022 86.4804,152.0022 86.3436,118.0022    86.5488,118.0022 100.2168,152.0022 109.1916,152.0022 109.1916,103.8578 102.1192,103.8578 102.1876,138.0606 101.9844,138.0606     "/><path d="M134.3516,131.7386h5.8476v12.4432c-0.5428,0.4084-1.2576,0.7364-2.1408,0.9844   c-0.8844,0.252-1.8708,0.3752-2.9588,0.3752c-1.7228,0-3.2072-0.4512-4.4532-1.3596c-1.248-0.908-2.2792-2.164-3.0936-3.7752   c-0.8164-1.6076-1.4276-3.4884-1.836-5.6448c-0.4084-2.152-0.6132-4.4512-0.6132-6.9004c0-2.3552,0.2048-4.5996,0.6132-6.7304   c0.4084-2.1328,1.0196-4,1.836-5.6132c0.8144-1.6072,1.8456-2.8868,3.0936-3.84c1.246-0.9528,2.7092-1.4276,4.3848-1.4276   c3.084,0,5.5312,1.3144,7.3456,3.9436l4.6916-5.7112c-1.3144-1.8612-3.0156-3.2968-5.0996-4.3204   c-2.086-1.0192-4.5568-1.5272-7.412-1.5272c-2.7208,0-5.168,0.6232-7.344,1.8672c-2.1776,1.248-4.0352,2.992-5.576,5.2364   c-1.5412,2.248-2.7208,4.908-3.5372,7.99c-0.8164,3.086-1.2228,6.4612-1.2228,10.1328c0,3.764,0.418,7.1836,1.258,10.2696   c0.838,3.082,2.0392,5.7344,3.6036,7.9552c1.5644,2.2208,3.4784,3.9316,5.746,5.1308c2.2656,1.2052,4.828,1.8048,7.6836,1.8048   c2.8104,0,5.2244-0.3632,7.242-1.088c2.0176-0.7244,3.752-1.6756,5.2012-2.8556v-24.412h-13.2596V131.7386z" fill="#FFE9E1"/><path d="M59.2128,132.6898c1.676,0,3.3088-0.2968,4.8948-0.8828c1.5876-0.59,2.992-1.4964,4.2168-2.7208   c1.2244-1.2248,2.2088-2.752,2.9568-4.592c0.748-1.8356,1.1232-3.9764,1.1232-6.4236c0-2.7208-0.42-4.9884-1.258-6.8008   c-0.8396-1.8124-1.9044-3.2756-3.1972-4.3868c-1.2908-1.1092-2.754-1.8924-4.3848-2.3456   c-1.6328-0.4512-3.2188-0.6796-4.7596-0.6796H45.4764v48.1444H53.5v-19.3124H59.2128z M53.5,110.725h4.6252   c1.902,0,3.4664,0.5896,4.6912,1.7692c1.2228,1.18,1.836,3.0588,1.836,5.6448c0,2.584-0.6132,4.5428-1.836,5.8788   c-1.2248,1.34-2.7892,2.008-4.6912,2.008H53.5V110.725z" fill="#FFE9E1"/></g></svg>