<?xml version="1.0" ?><svg enable-background="new 0 0 216 180" id="_x31_0folders" version="1.1" viewBox="0 0 216 180" xml:space="preserve" xmlns="http://www.w3.org/2000/svg" xmlns:xlink="http://www.w3.org/1999/xlink"><g><path d="M4,24h90.1407L79.328,1.7812C78.5859,0.668,77.336,0,76,0H4C1.7891,0,0,1.7892,0,4v24   C0,25.7892,1.7891,24,4,24z" fill="#FE8657"/><rect fill="#49A25A" height="64" width="24" x="92" y="76"/><path d="M212,48H4c-2.2109,0-4-1.7892-4-4v116.0116C0,171.0352,8.9607,180,19.9763,180h176.0472   C207.0391,180,216,171.0352,216,160.0116V44C216,46.2108,214.2107,48,212,48z M68,76v72.1092h-8V76H48v-8h12h8V76z M124,148H84V68   h40V148z M180,112h-16v16h-8v-16h-16v-8h16V88h8v16h16V112z" fill="#49A25A"/><path d="M212,24H94.1407H4c-2.2109,0-4,1.7892-4,4v16c0,2.2108,1.7891,4,4,4h208c2.2107,0,4-1.7892,4-4V28   C216,25.7892,214.2107,24,212,24z" fill="#FFDC82"/><path d="M84,148h40V68H84V148z M92,76h24v64H92V76z" fill="#FFDC82"/><polygon fill="#FFDC82" points="48,68 48,76 60,76 60,148.1092 68,148.1092 68,76 68,68 60,68  "/><polygon fill="#FFDC82" points="164,88 156,88 156,104 140,104 140,112 156,112 156,128 164,128 164,112 180,112 180,104 164,104     "/></g></svg>