<?xml version="1.0" ?><svg enable-background="new 0 0 216 180" id="foldermovie" version="1.1" viewBox="0 0 216 180" xml:space="preserve" xmlns="http://www.w3.org/2000/svg" xmlns:xlink="http://www.w3.org/1999/xlink"><g><path d="M19.9763,172h176.0472C202.6287,172,208,166.6212,208,160.0116V48H8v112.0116   C8,166.6212,13.3711,172,19.9763,172z M44,64c0-2.2108,1.7891-4,4-4h24h72h24c2.2107,0,4,1.7892,4,4v92c0,2.2108-1.7893,4-4,4h-24   H72H48c-2.2109,0-4-1.7892-4-4V64z" fill="none"/><path d="M4,24h90.1407L79.328,1.7812C78.5859,0.668,77.336,0,76,0H4C1.7891,0,0,1.7892,0,4v24   C0,25.7892,1.7891,24,4,24z" fill="#FCC24C"/><path d="M212,48h-4v112.0116C208,166.6212,202.6287,172,196.0235,172H19.9763C13.3711,172,8,166.6212,8,160.0116V48   H4c-2.2109,0-4-1.7892-4-4v116.0116C0,171.0352,8.9607,180,19.9763,180h176.0472C207.0391,180,216,171.0352,216,160.0116V44   C216,46.2108,214.2107,48,212,48z" fill="#F8A131"/><path d="M212,24H94.1407H4c-2.2109,0-4,1.7892-4,4v16c0,2.2108,1.7891,4,4,4h4h200h4c2.2107,0,4-1.7892,4-4V28   C216,25.7892,214.2107,24,212,24z" fill="#D793FD"/><path d="M76,64v92c0,2.2108-1.7893,4-4,4h72c-2.2109,0-4-1.7892-4-4V64c0-2.2108,1.7891-4,4-4H72   C74.2107,60,76,61.7892,76,64z" fill="#9D57C4"/><path d="M140,64v92c0,2.2108,1.7891,4,4,4h24c2.2107,0,4-1.7892,4-4V64c0-2.2108-1.7893-4-4-4h-24   C141.7891,60,140,61.7892,140,64z M152,72h8v20h-8V72z M152,100h8v20h-8V100z M152,128h8v20h-8V128z" fill="#D793FD"/><rect fill="#DBEEF7" height="20" width="8" x="152" y="72"/><rect fill="#DBEEF7" height="20" width="8" x="152" y="100"/><rect fill="#DBEEF7" height="20" width="8" x="152" y="128"/><path d="M48,160h24c2.2107,0,4-1.7892,4-4V64c0-2.2108-1.7893-4-4-4H48c-2.2109,0-4,1.7892-4,4v92   C44,158.2108,45.7891,160,48,160z M56,72h8v20h-8V72z M56,100h8v20h-8V100z M56,128h8v20h-8V128z" fill="#D793FD"/><rect fill="#DBEEF7" height="20" width="8" x="56" y="72"/><rect fill="#DBEEF7" height="20" width="8" x="56" y="100"/><rect fill="#DBEEF7" height="20" width="8" x="56" y="128"/></g></svg>