<?xml version="1.0" ?><svg enable-background="new 0 0 156 212.0052" id="copyright" version="1.1" viewBox="0 0 156 212.0052" xml:space="preserve" xmlns="http://www.w3.org/2000/svg" xmlns:xlink="http://www.w3.org/1999/xlink"><g><path d="M154.826,40.302L115.6504,1.1732c-0.75-0.746-1.7656-1.168-2.826-1.168H4c-2.2088,0-4,1.7892-4,4v204   c0,2.2108,1.7912,4,4,4h148c2.2088,0,4-1.7892,4-4V43.134C156,42.0716,155.578,41.056,154.826,40.302z M78,172.0052   c-29.7752,0-54-24.2228-54-54s24.2248-54,54-54s54,24.2228,54,54S107.7752,172.0052,78,172.0052z M155.6952,45.5364   c-0.6192,1.496-2.078,2.4688-3.6952,2.4688h-40c-2.2088,0-4-1.7892-4-4v-40c0-1.6172,0.9748-3.078,2.4688-3.6952   c1.494-0.6292,3.2128-0.2812,4.3592,0.8672l40,40C155.9728,42.3216,156.3144,44.0404,155.6952,45.5364z" fill="#D4D4E2"/><path d="M78,64.0052c-29.7752,0-54,24.2228-54,54s24.2248,54,54,54s54-24.2228,54-54S107.7752,64.0052,78,64.0052z    M78,164.0052c-25.3652,0-46-20.6368-46-46s20.6348-46,46-46s46,20.6368,46,46S103.3652,164.0052,78,164.0052z" fill="#3BABB7"/><path d="M78,72.0052c-25.3652,0-46,20.6368-46,46s20.6348,46,46,46s46-20.6368,46-46S103.3652,72.0052,78,72.0052z    M93.4316,140.474c-3.7148,2.9412-8.256,4.41-13.6232,4.41c-5.5544,0-10.072-1.1288-13.5524-3.3944   c-3.4808-2.258-6.1292-5.5352-7.9456-9.8244c-1.8164-4.2888-2.7244-8.8944-2.7244-13.8164c0-5.3672,1.0252-10.0468,3.076-14.0468   c2.0508-3.992,4.9688-7.0312,8.754-9.1016c3.7852-2.078,7.9512-3.1132,12.498-3.1132c5.1564,0,9.4924,1.3124,13.008,3.9376   c3.5156,2.6248,5.9648,6.3164,7.3476,11.074l-6.7148,1.582c-1.1956-3.75-2.9296-6.4804-5.2032-8.1912s-5.1328-2.5664-8.578-2.5664   c-3.9612,0-7.2716,0.9492-9.932,2.8476c-2.66,1.8984-4.5292,4.4452-5.6072,7.6484c-1.078,3.1952-1.6172,6.496-1.6172,9.8944   c0,4.3832,0.6388,8.2072,1.916,11.4808c1.2772,3.2656,3.2636,5.7108,5.9588,7.328c2.6956,1.6172,5.6136,2.4256,8.754,2.4256   c3.8204,0,7.0548-1.1012,9.7032-3.3044c2.6484-2.2032,4.4416-5.4728,5.3788-9.8088l6.8204,1.7228   C99.7188,133.2592,97.1464,137.5324,93.4316,140.474z" fill="#DBEEF7"/><path d="M88.9492,135.7436c-2.6484,2.2032-5.8828,3.3044-9.7032,3.3044c-3.1404,0-6.0584-0.8084-8.754-2.4256   c-2.6952-1.6172-4.6816-4.0624-5.9588-7.328c-1.2772-3.2736-1.916-7.0976-1.916-11.4808c0-3.3984,0.5392-6.6992,1.6172-9.8944   c1.078-3.2032,2.9472-5.75,5.6072-7.6484c2.6604-1.8984,5.9708-2.8476,9.932-2.8476c3.4452,0,6.3044,0.8556,8.578,2.5664   s4.0076,4.4412,5.2032,8.1912l6.7148-1.582c-1.3828-4.7576-3.832-8.4492-7.3476-11.074c-3.5156-2.6252-7.8516-3.9376-13.008-3.9376   c-4.5468,0-8.7128,1.0352-12.498,3.1132c-3.7852,2.0704-6.7032,5.1096-8.754,9.1016c-2.0508,4-3.076,8.6796-3.076,14.0468   c0,4.922,0.908,9.5276,2.7244,13.8164c1.8164,4.2892,4.4648,7.5664,7.9456,9.8244c3.4804,2.2656,7.998,3.3944,13.5524,3.3944   c5.3672,0,9.9084-1.4688,13.6232-4.41c3.7148-2.9416,6.2872-7.2148,7.7168-12.8164l-6.8204-1.7228   C93.3908,130.2708,91.5976,133.5404,88.9492,135.7436z" fill="#5DD4DC"/><path d="M114.828,1.1772c-1.1464-1.1484-2.8652-1.4964-4.3592-0.8672C108.9748,0.9272,108,2.388,108,4.0052v40   c0,2.2108,1.7912,4,4,4h40c1.6172,0,3.076-0.9728,3.6952-2.4688c0.6192-1.496,0.2776-3.2148-0.8672-4.3592L114.828,1.1772z" fill="#A9C7D8"/></g></svg>