<?xml version="1.0" ?><svg enable-background="new 0 0 192 192.0022" id="gif" version="1.1" viewBox="0 0 192 192.0022" xml:space="preserve" xmlns="http://www.w3.org/2000/svg" xmlns:xlink="http://www.w3.org/1999/xlink"><g><path d="M190.832,85.1818c0.3244,0.3244,0.5744,0.7188,0.7716,1.1408   C191.41,85.9086,191.166,85.5158,190.832,85.1818z" fill="#4A8F9E"/><path d="M191.7364,86.6974c0.1172,0.336,0.1892,0.6896,0.2128,1.0588   C191.9276,87.393,191.8556,87.0414,191.7364,86.6974z" fill="#4A8F9E"/><path d="M188,84.0022c1.1036,0,2.1036,0.4472,2.826,1.172L168,62.3458v21.6564H188z" fill="#4A8F9E"/><path d="M0.0508,87.7562c0.0236-0.3692,0.0956-0.7228,0.2128-1.0588C0.1444,87.0414,0.0724,87.393,0.0508,87.7562z" fill="#4A8F9E"/><path d="M0.3964,86.3226c0.1972-0.422,0.4472-0.8164,0.7716-1.1408C0.834,85.5158,0.59,85.9086,0.3964,86.3226z" fill="#4A8F9E"/><path d="M24,84.0022V62.3458L1.174,85.1742c0.7224-0.7248,1.7224-1.172,2.826-1.172H24z" fill="#4A8F9E"/><path d="M168,84.0022V62.3458v-24l-1.172-1.1716c1.1448,1.1444,1.4864,2.8632,0.8672,4.3592   c-0.6192,1.494-2.078,2.4688-3.6952,2.4688h-36c-2.2088,0-4-1.7912-4-4v-36c0-1.6172,0.9748-3.076,2.4688-3.6952   c1.494-0.6232,3.2128-0.2796,4.3592,0.8672l-1.1716-1.172H24v62.3436v21.6564H168z" fill="#C6DFED"/><rect fill="#C6DFED" height="24" width="144" x="24" y="168.0022"/><path d="M191.9492,87.7562c-0.0236-0.3692-0.0956-0.7228-0.2128-1.0588c-0.0448-0.1268-0.0764-0.2536-0.1328-0.3748   c-0.1972-0.422-0.4472-0.8164-0.7716-1.1408c-0.002-0.004-0.002-0.0076-0.002-0.0076c-0.7264-0.7248-1.7264-1.172-2.83-1.172h-20   H24H4c-1.1036,0-2.1036,0.4472-2.826,1.172c0,0-0.004,0.0036-0.006,0.0076c-0.3244,0.3244-0.5744,0.7188-0.7716,1.1408   c-0.0564,0.1212-0.088,0.248-0.1328,0.3748c-0.1172,0.336-0.1892,0.6896-0.2128,1.0588C0.0448,87.8422,0,87.9142,0,88.0022v76   c0,2.2088,1.7912,4,4,4h20h144h20c2.2088,0,4-1.7912,4-4v-76C192,87.9142,191.9552,87.8422,191.9492,87.7562z M65.8084,134.7618   c0.4084,2.1564,1.0196,4.0372,1.836,5.6448c0.8164,1.6112,1.846,2.8672,3.094,3.7752c1.246,0.9084,2.7304,1.3596,4.4532,1.3596   c1.0876,0,2.074-0.1232,2.9588-0.3752c0.8828-0.248,1.5976-0.576,2.1424-0.9844v-12.4432h-5.8496v-7.0724h13.26v24.412   c-1.4492,1.18-3.1836,2.1312-5.2012,2.8556c-2.0176,0.7248-4.4316,1.088-7.2424,1.088c-2.8552,0-5.416-0.5996-7.6836-1.8048   c-2.2676-1.1992-4.1816-2.91-5.746-5.1308c-1.5644-2.2208-2.7656-4.8732-3.6036-7.9552c-0.8396-3.086-1.2576-6.504-1.2576-10.2696   c0-3.6716,0.408-7.0468,1.2228-10.1328c0.8164-3.082,1.996-5.742,3.5368-7.99c1.5412-2.2444,3.4004-3.9884,5.5764-5.2364   c2.1756-1.244,4.6228-1.8672,7.3436-1.8672c2.8556,0,5.3264,0.508,7.412,1.5272c2.084,1.0236,3.7852,2.4592,5.0996,4.3204   l-4.6912,5.7112c-1.8144-2.6272-4.2616-3.9436-7.3436-3.9436c-1.678,0-3.1408,0.4748-4.3868,1.4276   c-1.248,0.9532-2.2776,2.2328-3.094,3.84c-0.8164,1.6132-1.4276,3.4804-1.836,5.6132c-0.408,2.1308-0.6132,4.3752-0.6132,6.7304   C65.1952,130.3106,65.4004,132.6098,65.8084,134.7618z M96.4084,152.0022v-48.1444h8.16v48.1444H96.4084z M135.916,111.2014   h-13.3964v13.1252h12.3768v7.0036H122.588v20.672h-8.2288v-48.1444h21.5568V111.2014z" fill="#F8A131"/><path d="M126.4688,0.307C124.9748,0.9262,124,2.385,124,4.0022v36c0,2.2088,1.7912,4,4,4h36   c1.6172,0,3.076-0.9748,3.6952-2.4688c0.6192-1.496,0.2776-3.2148-0.8672-4.3592l-36-36   C129.6816,0.0274,127.9628-0.3162,126.4688,0.307z" fill="#A9C7D8"/><path d="M67.6444,115.5178c0.8164-1.6072,1.846-2.8868,3.094-3.84c1.246-0.9528,2.7088-1.4276,4.3868-1.4276   c3.082,0,5.5292,1.3164,7.3436,3.9436l4.6912-5.7112c-1.3144-1.8612-3.0156-3.2968-5.0996-4.3204   c-2.0856-1.0192-4.5564-1.5272-7.412-1.5272c-2.7208,0-5.168,0.6232-7.3436,1.8672c-2.176,1.248-4.0352,2.992-5.5764,5.2364   c-1.5408,2.248-2.7204,4.908-3.5368,7.99c-0.8148,3.086-1.2228,6.4612-1.2228,10.1328c0,3.7656,0.418,7.1836,1.2576,10.2696   c0.838,3.082,2.0392,5.7344,3.6036,7.9552c1.5644,2.2208,3.4784,3.9316,5.746,5.1308c2.2676,1.2052,4.8284,1.8048,7.6836,1.8048   c2.8108,0,5.2248-0.3632,7.2424-1.088c2.0176-0.7244,3.752-1.6756,5.2012-2.8556v-24.412h-13.26v7.0724h5.8496v12.4432   c-0.5448,0.4084-1.2596,0.7364-2.1424,0.9844c-0.8848,0.252-1.8712,0.3752-2.9588,0.3752c-1.7228,0-3.2072-0.4512-4.4532-1.3596   c-1.248-0.908-2.2776-2.164-3.094-3.7752c-0.8164-1.6076-1.4276-3.4884-1.836-5.6448c-0.408-2.152-0.6132-4.4512-0.6132-6.9004   c0-2.3552,0.2052-4.5996,0.6132-6.7304C66.2168,118.9982,66.828,117.131,67.6444,115.5178z" fill="#4A8F9E"/><rect fill="#4A8F9E" height="48.1444" width="8.16" x="96.4084" y="103.8578"/><polygon fill="#4A8F9E" points="114.3592,152.0022 122.588,152.0022 122.588,131.3302 134.8964,131.3302 134.8964,124.3266    122.5196,124.3266 122.5196,111.2014 135.916,111.2014 135.916,103.8578 114.3592,103.8578  "/></g></svg>