<?xml version="1.0" ?><svg enable-background="new 0 0 216 180" id="folderpic" version="1.1" viewBox="0 0 216 180" xml:space="preserve" xmlns="http://www.w3.org/2000/svg" xmlns:xlink="http://www.w3.org/1999/xlink"><g><path d="M4,24h90.1408L79.328,1.7812C78.586,0.668,77.338,0,76,0H4C1.7912,0,0,1.7892,0,4v24   C0,25.7892,1.7912,24,4,24z" fill="#3BABB7"/><path d="M212,48H4c-2.2088,0-4-1.7892-4-4v116.0116C0,171.0352,8.9608,180,19.9764,180h176.0472   C207.0392,180,216,171.0352,216,160.0116V44C216,46.2108,214.2088,48,212,48z M176,152c0,2.2108-1.7912,4-4,4h-24H92h-4H48h-4   c-2.2088,0-4-1.7892-4-4V68c0-2.2108,1.7912-4,4-4h128c2.2088,0,4,1.7892,4,4V152z" fill="#3BABB7"/><path d="M212,24H94.1408H4c-2.2088,0-4,1.7892-4,4v16c0,2.2108,1.7912,4,4,4h208c2.2088,0,4-1.7892,4-4V28   C216,25.7892,214.2088,24,212,24z" fill="#7BE5E4"/><path d="M172,64H44c-2.2088,0-4,1.7892-4,4v84c0,2.2108,1.7912,4,4,4h4c-1.3612,0-2.6308-0.6916-3.3672-1.84   c-0.7344-1.1444-0.836-2.5896-0.2696-3.828l22-48C67.0156,100.91,68.4356,100,70,100s2.9844,0.91,3.6368,2.332l18.2068,39.7228   l23.2384-24.7892c1.5116-1.6172,4.3244-1.6172,5.836,0l30,32c1.09,1.16,1.3868,2.8632,0.752,4.3244   c-0.6328,1.4648-2.0764,2.41-3.67,2.41h24c2.2088,0,4-1.7892,4-4V68C176,65.7892,174.2088,64,172,64z M138,108   c-7.7188,0-14-6.2812-14-14s6.2812-14,14-14s14,6.2812,14,14S145.7188,108,138,108z" fill="#DBEEF7"/><path d="M138,80c-7.7188,0-14,6.2812-14,14s6.2812,14,14,14s14-6.2812,14-14S145.7188,80,138,80z" fill="#F8A131"/><path d="M151.67,153.59c0.6348-1.4612,0.338-3.1644-0.752-4.3244l-30-32c-1.5116-1.6172-4.3244-1.6172-5.836,0   l-23.2384,24.7892L73.6368,102.332C72.9844,100.91,71.5644,100,70,100s-2.9844,0.91-3.6368,2.332l-22,48   c-0.5664,1.2384-0.4648,2.6836,0.2696,3.828C45.3692,155.3084,46.6388,156,48,156h40h4h56   C149.5936,156,151.0372,155.0548,151.67,153.59z" fill="#BC9A67"/></g></svg>