<?xml version="1.0" ?><svg enable-background="new 0 0 192 192.0022" id="tif" version="1.1" viewBox="0 0 192 192.0022" xml:space="preserve" xmlns="http://www.w3.org/2000/svg" xmlns:xlink="http://www.w3.org/1999/xlink"><g><path d="M190.832,85.1818c0.3243,0.3244,0.5743,0.7188,0.7715,1.1408   C191.4099,85.9086,191.1659,85.5158,190.832,85.1818z" fill="#4A8F9E"/><path d="M188,84.0022c1.1035,0,2.1035,0.4472,2.8259,1.172L168,62.3458v21.6564H188z" fill="#4A8F9E"/><path d="M191.7363,86.6974c0.1172,0.336,0.1892,0.6896,0.2128,1.0588   C191.9275,87.393,191.8555,87.0414,191.7363,86.6974z" fill="#4A8F9E"/><path d="M0.0507,87.7562c0.0236-0.3692,0.0956-0.7228,0.2128-1.0588C0.1443,87.0414,0.0723,87.393,0.0507,87.7562z" fill="#4A8F9E"/><path d="M24,84.0022V62.3458L1.1739,85.1742c0.7224-0.7248,1.7224-1.172,2.8261-1.172H24z" fill="#4A8F9E"/><path d="M0.3963,86.3226c0.1972-0.422,0.4472-0.8164,0.7717-1.1408C0.8339,85.5158,0.5899,85.9086,0.3963,86.3226z" fill="#4A8F9E"/><path d="M168,84.0022V62.3458v-24l-1.172-1.1716c1.1447,1.1444,1.4863,2.8632,0.8671,4.3592   c-0.6191,1.494-2.078,2.4688-3.6951,2.4688h-36c-2.2089,0-4-1.7912-4-4v-36c0-1.6172,0.9747-3.076,2.4687-3.6952   c1.492-0.6232,3.2128-0.2796,4.3593,0.8672l-1.1717-1.172H24v62.3436v21.6564H168z" fill="#C6DFED"/><rect fill="#C6DFED" height="24" width="144" x="24" y="168.0022"/><path d="M191.9491,87.7562c-0.0236-0.3692-0.0956-0.7228-0.2128-1.0588c-0.0448-0.1268-0.0763-0.2536-0.1328-0.3748   c-0.1972-0.422-0.4472-0.8164-0.7715-1.1408c-0.0021-0.004-0.004-0.0076-0.004-0.0076c-0.7245-0.7248-1.7245-1.172-2.828-1.172h-20   H24H4c-1.1037,0-2.1037,0.4472-2.8261,1.172c0,0-0.004,0.0036-0.0059,0.0076c-0.3245,0.3244-0.5745,0.7188-0.7717,1.1408   c-0.0563,0.1212-0.088,0.248-0.1328,0.3748c-0.1172,0.336-0.1892,0.6896-0.2128,1.0588C0.0447,87.8422,0,87.9142,0,88.0022v76   c0,2.2088,1.7911,4,4,4h20h144h20c2.2087,0,4-1.7912,4-4v-76C192,87.9142,191.9571,87.8422,191.9491,87.7562z M59.7891,110.795   v-6.9372h26.1132v6.9372h-9.0448v41.2072h-8.0236V110.795H59.7891z M90.6619,152.0022v-48.1444h8.1604v48.1444H90.6619z    M130.1699,111.2014h-13.3964v13.1252h12.3768v7.0036h-12.3088v20.672h-8.2284v-48.1444h21.5568V111.2014z" fill="#B976DD"/><path d="M126.4687,0.307C124.9747,0.9262,124,2.385,124,4.0022v36c0,2.2088,1.7911,4,4,4h36   c1.6171,0,3.076-0.9748,3.6951-2.4688c0.6192-1.496,0.2776-3.2148-0.8671-4.3592l-36-36   C129.6815,0.0274,127.9607-0.3162,126.4687,0.307z" fill="#A9C7D8"/><rect fill="#FFE9E1" height="48.1444" width="8.1604" x="90.6619" y="103.8578"/><polygon fill="#FFE9E1" points="108.6131,152.0022 116.8415,152.0022 116.8415,131.3302 129.1503,131.3302 129.1503,124.3266    116.7735,124.3266 116.7735,111.2014 130.1699,111.2014 130.1699,103.8578 108.6131,103.8578  "/><polygon fill="#FFE9E1" points="76.8575,152.0022 76.8575,110.795 85.9023,110.795 85.9023,103.8578 59.7891,103.8578    59.7891,110.795 68.8339,110.795 68.8339,152.0022  "/></g></svg>