<?xml version="1.0" ?><svg enable-background="new 0 0 216 180" id="folderstats" version="1.1" viewBox="0 0 216 180" xml:space="preserve" xmlns="http://www.w3.org/2000/svg" xmlns:xlink="http://www.w3.org/1999/xlink"><g><path d="M4,24h90.1407L79.328,1.7812C78.5859,0.668,77.336,0,76,0H4C1.7891,0,0,1.7892,0,4v24   C0,25.7892,1.7891,24,4,24z" fill="#FFDC82"/><path d="M212,48H4c-2.2109,0-4-1.7892-4-4v116.0116C0,171.0352,8.9607,180,19.9763,180h176.0472   C207.0391,180,216,171.0352,216,160.0116V44C216,46.2108,214.2107,48,212,48z M184.0155,115.4572   c-1.9024,1.1052-4.3555,0.4648-5.4728-1.4416L167.16,94.496l-24.332,24.332c-0.9337,0.9336-2.2657,1.332-3.5585,1.1056   c-1.2968-0.242-2.3908-1.1056-2.926-2.3088l-4.1484-9.3396l-16.4804,41.1992C115.1015,151.0156,113.6251,152,112,152   c-0.1213,0-0.2421-0.004-0.3673-0.0156c-1.7616-0.164-3.2072-1.4648-3.5548-3.1992L94.496,80.8788L77.6367,117.668   c-0.5468,1.1876-1.6407,2.0392-2.9296,2.2696c-1.2816,0.242-2.6056-0.1836-3.5351-1.1096L50.7539,98.41l-13.3476,21.6876   c-1.1564,1.8788-3.6172,2.4648-5.504,1.3088c-1.8788-1.1564-2.4648-3.6212-1.3088-5.504l16-26   c0.6408-1.0432,1.7228-1.7304,2.9416-1.8752c1.1796-0.1444,2.4296,0.2812,3.2929,1.1448l19.9335,19.9336L92.3631,66.332   c0.7188-1.574,2.34-2.5156,4.1016-2.3048c1.7228,0.1992,3.1172,1.4884,3.4572,3.1876l13.3632,66.8048l15-37.504   c0.5976-1.496,2.0312-2.4844,3.6404-2.5156c1.504,0.09,3.0785,0.9064,3.7308,2.3748l5.6328,12.68L165.172,85.172   c0.8787-0.8752,2.1523-1.2736,3.3395-1.1408c1.2304,0.1604,2.3205,0.8828,2.9456,1.9532l14,24   C186.5663,111.8944,185.9219,114.3436,184.0155,115.4572z" fill="#FFDC82"/><path d="M212,24H94.1407H4c-2.2109,0-4,1.7892-4,4v16c0,2.2108,1.7891,4,4,4h208c2.2107,0,4-1.7892,4-4V28   C216,25.7892,214.2107,24,212,24z" fill="#FE8657"/><path d="M171.4571,85.9844c-0.6251-1.0704-1.7152-1.7928-2.9456-1.9532c-1.1872-0.1328-2.4608,0.2656-3.3395,1.1408   l-23.8829,23.8828l-5.6328-12.68c-0.6523-1.4684-2.2268-2.2848-3.7308-2.3748c-1.6092,0.0312-3.0428,1.0196-3.6404,2.5156   l-15,37.504L99.9219,67.2148c-0.34-1.6992-1.7344-2.9884-3.4572-3.1876c-1.7616-0.2108-3.3828,0.7308-4.1016,2.3048   l-19.6016,42.7736L52.828,89.172c-0.8633-0.8636-2.1133-1.2892-3.2929-1.1448c-1.2188,0.1448-2.3008,0.832-2.9416,1.8752l-16,26   c-1.156,1.8828-0.57,4.3476,1.3088,5.504c1.8868,1.156,4.3476,0.57,5.504-1.3088L50.7539,98.41l20.4181,20.418   c0.9295,0.926,2.2535,1.3516,3.5351,1.1096c1.2889-0.2304,2.3828-1.082,2.9296-2.2696L94.496,80.8788l13.5819,67.9064   c0.3476,1.7344,1.7932,3.0352,3.5548,3.1992C111.7579,151.996,111.8787,152,112,152c1.6251,0,3.1015-0.9844,3.7147-2.5156   l16.4804-41.1992l4.1484,9.3396c0.5352,1.2032,1.6292,2.0668,2.926,2.3088c1.2928,0.2264,2.6248-0.172,3.5585-1.1056l24.332-24.332   l11.3827,19.5196c1.1173,1.9064,3.5704,2.5468,5.4728,1.4416c1.9064-1.1136,2.5508-3.5628,1.4416-5.4728L171.4571,85.9844z" fill="#FE8657"/></g></svg>