<?xml version="1.0" ?><svg enable-background="new 0 0 192 192" id="flac" version="1.1" viewBox="0 0 192 192" xml:space="preserve" xmlns="http://www.w3.org/2000/svg" xmlns:xlink="http://www.w3.org/1999/xlink"><g><path d="M190.84,85.1896c0.32,0.322,0.5663,0.7128,0.7615,1.1308C191.4139,85.91,191.172,85.5236,190.84,85.1896z" fill="#4A8F9E"/><path d="M191.7383,86.6952c0.1172,0.336,0.1912,0.6916,0.2148,1.0628   C191.9295,87.3924,191.8591,87.0412,191.7383,86.6952z" fill="#4A8F9E"/><path d="M188,84c1.1015,0,2.1015,0.4472,2.8243,1.168L168,62.3436V84H188z" fill="#4A8F9E"/><path d="M0.0467,87.758c0.0236-0.3712,0.0976-0.7268,0.2148-1.0628C0.1407,87.0392,0.0703,87.3908,0.0467,87.758z" fill="#4A8F9E"/><path d="M0.3983,86.3204c0.1952-0.418,0.4417-0.8088,0.7617-1.1308C0.828,85.5236,0.5899,85.91,0.3983,86.3204z" fill="#4A8F9E"/><path d="M24,84V62.3436L1.1755,85.168C1.8983,84.4472,2.8943,84,4,84H24z" fill="#4A8F9E"/><path d="M168,84V62.3436v-24l-1.172-1.1716c1.1447,1.1444,1.4883,2.8632,0.8671,4.3592   C167.0779,43.0252,165.6171,44,164,44h-36c-2.2109,0-4-1.7912-4-4V4c0-1.6172,0.9727-3.076,2.4687-3.6952   c1.5-0.6152,3.2148-0.2756,4.3593,0.8672L129.6563,0H24v62.3436V84H168z" fill="#C6DFED"/><rect fill="#C6DFED" height="24" width="144" x="24" y="168"/><path d="M191.9531,87.758c-0.0236-0.3712-0.0976-0.7268-0.2148-1.0628c-0.0468-0.1288-0.0783-0.2536-0.1368-0.3748   c-0.1952-0.418-0.4415-0.8088-0.7615-1.1308c-0.004-0.006-0.008-0.014-0.0157-0.0216C190.1015,84.4472,189.1015,84,188,84h-20H24H4   c-1.1057,0-2.1017,0.4472-2.8245,1.168C1.168,85.1756,1.164,85.1836,1.16,85.1896c-0.32,0.322-0.5665,0.7128-0.7617,1.1308   c-0.0583,0.1212-0.09,0.246-0.1368,0.3748c-0.1172,0.336-0.1912,0.6916-0.2148,1.0628C0.0427,87.8436,0,87.914,0,88v76   c0,2.2088,1.7891,4,4,4h20h144h20c2.2107,0,4-1.7912,4-4V88C192,87.914,191.9571,87.8436,191.9531,87.758z M59.992,124.3244v7.0036   H47.6875V152h-8.2304v-48.1444h21.5584v7.3436H47.6171v13.1252H59.992z M89.3007,144.4512V152H67.8123v-48.1444h8.2304v40.5956   H89.3007z M89.8475,152l11.9648-48.1444h10.4064L123.9803,152h-8.5l-2.3788-10.1992h-12.6484L98.008,152H89.8475z    M135.5427,134.7596c0.4064,2.1564,1.0196,4.0236,1.836,5.6116c0.8164,1.5896,1.8476,2.8436,3.094,3.7732   c1.246,0.9316,2.7068,1.3948,4.3864,1.3948c1.586,0,2.9572-0.4064,4.1136-1.2228c1.156-0.8164,2.1172-1.8124,2.8904-2.992   l4.6916,5.5076c-1.2696,1.9044-2.8907,3.4432-4.8632,4.6232c-1.9728,1.1816-4.4532,1.7676-7.4456,1.7676   c-2.7188,0-5.1796-0.6348-7.3788-1.9024c-2.1991-1.2696-4.0548-3.0236-5.5744-5.2736c-1.5192-2.242-2.6992-4.9024-3.5348-7.9884   c-0.84-3.082-1.2619-6.4588-1.2619-10.1288c0-3.6736,0.4219-7.0624,1.2619-10.17c0.8356-3.1032,2.0272-5.7752,3.5664-8.0232   c1.5428-2.2444,3.414-3.9884,5.6132-5.2364c2.1952-1.244,4.6328-1.8672,7.3084-1.8672c2.7656,0,5.1916,0.508,7.2776,1.5272   c2.082,1.0236,3.7848,2.4844,5.0976,4.3868l-4.6916,5.7128c-1.8592-2.6756-4.2615-4.0116-7.2068-4.0116   c-1.6328,0-3.0627,0.4628-4.2852,1.3928c-1.2228,0.9296-2.2424,2.1872-3.0588,3.7752c-0.8164,1.588-1.4296,3.4552-1.836,5.6076   c-0.41,2.156-0.6132,4.4568-0.6132,6.906C134.9295,130.332,135.1327,132.6076,135.5427,134.7596z" fill="#FE7D71"/><polygon fill="#FE7D71" points="106.9803,111.5392 106.7107,111.5392 101.4727,135.4084 112.0819,135.4084  "/><path d="M126.4687,0.3048C124.9727,0.924,124,2.3828,124,4v36c0,2.2088,1.7891,4,4,4h36   c1.6171,0,3.0779-0.9748,3.6951-2.4688c0.6212-1.496,0.2776-3.2148-0.8671-4.3592l-36-36   C129.6835,0.0292,127.9687-0.3104,126.4687,0.3048z" fill="#A9C7D8"/><polygon fill="#FFE9E1" points="67.8123,103.8556 67.8123,152 89.3007,152 89.3007,144.4512 76.0427,144.4512 76.0427,103.8556     "/><polygon fill="#FFE9E1" points="61.0155,111.1992 61.0155,103.8556 39.4571,103.8556 39.4571,152 47.6875,152 47.6875,131.328    59.992,131.328 59.992,124.3244 47.6171,124.3244 47.6171,111.1992  "/><path d="M113.1015,141.8008L115.4803,152h8.5l-11.7616-48.1444h-10.4064L89.8475,152h8.1605l2.4451-10.1992   H113.1015z M106.7107,111.5392h0.2696l5.1016,23.8692h-10.6092L106.7107,111.5392z" fill="#FFE9E1"/><path d="M137.3787,115.416c0.8164-1.588,1.836-2.8456,3.0588-3.7752c1.2225-0.93,2.6524-1.3928,4.2852-1.3928   c2.9453,0,5.3476,1.336,7.2068,4.0116l4.6916-5.7128c-1.3128-1.9024-3.0156-3.3632-5.0976-4.3868   c-2.086-1.0192-4.512-1.5272-7.2776-1.5272c-2.6756,0-5.1132,0.6232-7.3084,1.8672c-2.1992,1.248-4.0704,2.992-5.6132,5.2364   c-1.5392,2.248-2.7308,4.92-3.5664,8.0232c-0.84,3.1076-1.2619,6.4964-1.2619,10.17c0,3.67,0.4219,7.0468,1.2619,10.1288   c0.8356,3.086,2.0156,5.7464,3.5348,7.9884c1.5196,2.25,3.3753,4.004,5.5744,5.2736c2.1992,1.2676,4.66,1.9024,7.3788,1.9024   c2.9924,0,5.4728-0.586,7.4456-1.7676c1.9725-1.18,3.5936-2.7188,4.8632-4.6232l-4.6916-5.5076   c-0.7732,1.1796-1.7344,2.1756-2.8904,2.992c-1.1564,0.8164-2.5276,1.2228-4.1136,1.2228c-1.6796,0-3.1404-0.4632-4.3864-1.3948   c-1.2464-0.9296-2.2776-2.1836-3.094-3.7732c-0.8164-1.588-1.4296-3.4552-1.836-5.6116c-0.41-2.152-0.6132-4.4276-0.6132-6.83   c0-2.4492,0.2032-4.75,0.6132-6.906C135.9491,118.8712,136.5623,117.004,137.3787,115.416z" fill="#FFE9E1"/></g></svg>