<?xml version="1.0" ?><svg enable-background="new 0 0 192 192.0017" id="ps" version="1.1" viewBox="0 0 192 192.0017" xml:space="preserve" xmlns="http://www.w3.org/2000/svg" xmlns:xlink="http://www.w3.org/1999/xlink"><g><path d="M188,84.0017c1.1035,0,2.1035,0.4472,2.8259,1.172L168,62.3453v21.6564H188z" fill="#4A8F9E"/><path d="M190.832,85.1813c0.3243,0.3244,0.5743,0.7188,0.7715,1.1408   C191.4099,85.9081,191.1659,85.5153,190.832,85.1813z" fill="#4A8F9E"/><path d="M191.7363,86.6989c0.1172,0.334,0.1892,0.6876,0.2128,1.0568   C191.9275,87.3925,191.8555,87.0409,191.7363,86.6989z" fill="#4A8F9E"/><path d="M24,84.0017V62.3453L1.1739,85.1737c0.7224-0.7248,1.7224-1.172,2.8261-1.172H24z" fill="#4A8F9E"/><path d="M0.0507,87.7557c0.0236-0.3692,0.0956-0.7228,0.2128-1.0568C0.1443,87.0409,0.0723,87.3925,0.0507,87.7557z   " fill="#4A8F9E"/><path d="M0.3963,86.3221c0.1972-0.422,0.4472-0.8164,0.7717-1.1408C0.8339,85.5153,0.5899,85.9081,0.3963,86.3221z" fill="#4A8F9E"/><path d="M168,84.0017V62.3453v-24l-1.172-1.1716c1.1447,1.1444,1.4863,2.8632,0.8671,4.3592   c-0.6191,1.494-2.078,2.4688-3.6951,2.4688h-36c-2.2089,0-4-1.7912-4-4v-36c0-1.6172,0.9747-3.076,2.4687-3.6952   c1.492-0.6212,3.2128-0.2812,4.3593,0.8672l-1.1717-1.172H24v62.3436v21.6564H168z" fill="#C6DFED"/><rect fill="#C6DFED" height="24" width="144" x="24" y="168.0017"/><path d="M86.1407,124.0173c1.2224-1.336,1.8356-3.2948,1.8356-5.8788c0-2.586-0.6132-4.4648-1.8356-5.6448   c-1.2247-1.1796-2.7892-1.7692-4.6936-1.7692h-4.6228v15.3008h4.6228C83.3515,126.0253,84.916,125.3573,86.1407,124.0173z" fill="#3BABB7"/><path d="M191.9491,87.7557c-0.0236-0.3692-0.0956-0.7228-0.2128-1.0568c-0.0448-0.1288-0.0763-0.2556-0.1328-0.3768   c-0.1972-0.422-0.4472-0.8164-0.7715-1.1408c-0.0021-0.004-0.004-0.0076-0.004-0.0076c-0.7245-0.7248-1.7245-1.172-2.828-1.172h-20   H24H4c-1.1037,0-2.1037,0.4472-2.8261,1.172c0,0-0.004,0.0036-0.0059,0.0076c-0.3245,0.3244-0.5745,0.7188-0.7717,1.1408   c-0.0563,0.1212-0.088,0.248-0.1328,0.3768c-0.1172,0.334-0.1892,0.6876-0.2128,1.0568C0.0447,87.8417,0,87.9137,0,88.0017v76   c0,2.2088,1.7911,4,4,4h20h144h20c2.2087,0,4-1.7912,4-4v-76C192,87.9137,191.9571,87.8417,191.9491,87.7557z M68.8007,152.0017   v-48.1444h13.328c1.5412,0,3.1273,0.2284,4.76,0.6796c1.6308,0.4532,3.0936,1.2364,4.3848,2.3456   c1.2928,1.1112,2.3572,2.5744,3.1972,4.3868c0.8376,1.8124,1.2576,4.08,1.2576,6.8008c0,2.4472-0.3748,4.588-1.1228,6.4236   c-0.748,1.84-1.7344,3.3672-2.9572,4.592c-1.2243,1.2244-2.6288,2.1308-4.2168,2.7208c-1.586,0.586-3.2188,0.8828-4.8964,0.8828   h-5.7108v19.3124H68.8007z M110.416,121.4333c1.2247,1.1112,2.8339,2.168,4.828,3.164c1.1779,0.588,2.3811,1.2676,3.6035,2.0412   c1.2248,0.7716,2.336,1.6992,3.332,2.7872c0.998,1.0896,1.8125,2.3808,2.4492,3.8768c0.6328,1.496,0.9513,3.2616,0.9513,5.3028   c0,2.3572-0.3749,4.4432-1.1229,6.2556c-0.7464,1.8128-1.7444,3.344-2.9904,4.59c-1.248,1.248-2.7088,2.1876-4.3867,2.8224   c-1.6777,0.6368-3.4453,0.9512-5.3049,0.9512c-2.6736,0-5.1444-0.5196-7.412-1.5628c-2.2656-1.0428-4.08-2.3552-5.4391-3.9452   l4.4195-5.9844c1.0432,1.2696,2.3008,2.2696,3.7736,2.9924c1.4744,0.7264,2.9824,1.0896,4.5236,1.0896   c1.7224,0,3.1504-0.5896,4.2833-1.7696c1.1327-1.1796,1.7011-2.832,1.7011-4.9628c0-2.084-0.682-3.74-2.0411-4.9628   c-1.3593-1.2264-3.0821-2.3576-5.168-3.4024c-1.3145-0.6348-2.5509-1.336-3.7053-2.1072c-1.156-0.7716-2.1776-1.6876-3.0604-2.756   c-0.8848-1.0644-1.588-2.3088-2.1076-3.7384c-0.5212-1.4296-0.7832-3.1368-0.7832-5.1328c0-2.492,0.3968-4.6368,1.1896-6.4296   c0.7928-1.7872,1.836-3.2716,3.1288-4.4512c1.2912-1.1796,2.7541-2.0528,4.3868-2.6192c1.6308-0.5644,3.2852-0.8476,4.9628-0.8476   c2.4492,0,4.6348,0.3964,6.5628,1.1876c1.9257,0.7968,3.5468,1.9628,4.8612,3.504l-4.4884,5.8476   c-1.7676-2.1328-3.988-3.1956-6.664-3.1956c-0.7696,0-1.5176,0.1232-2.242,0.3712c-0.7268,0.252-1.3848,0.6484-1.9728,1.1916   c-0.59,0.5448-1.0548,1.248-1.3944,2.1092c-0.34,0.8596-0.5099,1.8808-0.5099,3.0588   C108.58,118.7497,109.1915,120.3261,110.416,121.4333z" fill="#3BABB7"/><path d="M126.4687,0.3065C124.9747,0.9257,124,2.3845,124,4.0017v36c0,2.2088,1.7911,4,4,4h36   c1.6171,0,3.076-0.9748,3.6951-2.4688c0.6192-1.496,0.2776-3.2148-0.8671-4.3592l-36-36   C129.6815,0.0253,127.9607-0.3147,126.4687,0.3065z" fill="#A9C7D8"/><path d="M82.5351,132.6893c1.6776,0,3.3104-0.2968,4.8964-0.8828c1.588-0.59,2.9925-1.4964,4.2168-2.7208   c1.2228-1.2248,2.2092-2.752,2.9572-4.592c0.748-1.8356,1.1228-3.9764,1.1228-6.4236c0-2.7208-0.42-4.9884-1.2576-6.8008   c-0.84-1.8124-1.9044-3.2756-3.1972-4.3868c-1.2912-1.1092-2.754-1.8924-4.3848-2.3456c-1.6327-0.4512-3.2188-0.6796-4.76-0.6796   h-13.328v48.1444h8.0236v-19.3124H82.5351z M76.8243,110.7245h4.6228c1.9044,0,3.4689,0.5896,4.6936,1.7692   c1.2224,1.18,1.8356,3.0588,1.8356,5.6448c0,2.584-0.6132,4.5428-1.8356,5.8788c-1.2247,1.34-2.7892,2.008-4.6936,2.008h-4.6228   V110.7245z" fill="#FFE9E1"/><path d="M110.4843,111.5409c0.588-0.5432,1.246-0.9396,1.9728-1.1916c0.7244-0.248,1.4724-0.3712,2.242-0.3712   c2.676,0,4.8964,1.0628,6.664,3.1956l4.4884-5.8476c-1.3144-1.5412-2.9355-2.7072-4.8612-3.504   c-1.928-0.7912-4.1136-1.1876-6.5628-1.1876c-1.6776,0-3.332,0.2832-4.9628,0.8476c-1.6327,0.5664-3.0956,1.4396-4.3868,2.6192   c-1.2928,1.1796-2.336,2.664-3.1288,4.4512c-0.7928,1.7928-1.1896,3.9376-1.1896,6.4296c0,1.996,0.262,3.7032,0.7832,5.1328   c0.5196,1.4296,1.2228,2.674,2.1076,3.7384c0.8828,1.0684,1.9044,1.9844,3.0604,2.756c1.1544,0.7712,2.3908,1.4724,3.7053,2.1072   c2.0859,1.0448,3.8087,2.176,5.168,3.4024c1.3591,1.2228,2.0411,2.8788,2.0411,4.9628c0,2.1308-0.5684,3.7832-1.7011,4.9628   c-1.1329,1.18-2.5609,1.7696-4.2833,1.7696c-1.5412,0-3.0492-0.3632-4.5236-1.0896c-1.4728-0.7228-2.7304-1.7228-3.7736-2.9924   l-4.4195,5.9844c1.3591,1.59,3.1735,2.9024,5.4391,3.9452c2.2676,1.0432,4.7384,1.5628,7.412,1.5628   c1.8596,0,3.6272-0.3144,5.3049-0.9512c1.6779-0.6348,3.1387-1.5744,4.3867-2.8224c1.246-1.246,2.244-2.7772,2.9904-4.59   c0.748-1.8124,1.1229-3.8984,1.1229-6.2556c0-2.0412-0.3185-3.8068-0.9513-5.3028c-0.6367-1.496-1.4512-2.7872-2.4492-3.8768   c-0.996-1.088-2.1072-2.0156-3.332-2.7872c-1.2224-0.7736-2.4256-1.4532-3.6035-2.0412c-1.9941-0.996-3.6033-2.0528-4.828-3.164   c-1.2245-1.1072-1.836-2.6836-1.836-4.7244c0-1.178,0.1699-2.1992,0.5099-3.0588   C109.4295,112.7889,109.8943,112.0857,110.4843,111.5409z" fill="#FFE9E1"/></g></svg>