<?xml version="1.0" ?><svg enable-background="new 0 0 216 180" id="folderempty" version="1.1" viewBox="0 0 216 180" xml:space="preserve" xmlns="http://www.w3.org/2000/svg" xmlns:xlink="http://www.w3.org/1999/xlink"><g><path d="M4,24h90.1407L79.328,1.7812C78.5859,0.668,77.336,0,76,0H4C1.7891,0,0,1.7892,0,4v24   C0,25.7892,1.7891,24,4,24z" fill="#FCC24C"/><path d="M212,48H4c-2.2109,0-4-1.7892-4-4v116.0116C0,171.0352,8.9607,180,19.9763,180h176.0472   C207.0391,180,216,171.0352,216,160.0116V44C216,46.2108,214.2107,48,212,48z M144,152.0236c0,4.406-3.5705,7.9764-7.9805,7.9764   H79.9803C75.5743,160,72,156.41,72,151.9804V72.0196C72,67.59,75.5427,64,79.996,64h48.6447L144,79.8556V152.0236z" fill="#F8A131"/><path d="M212,24H94.1407H4c-2.2109,0-4,1.7892-4,4v16c0,2.2108,1.7891,4,4,4h208c2.2107,0,4-1.7892,4-4V28   C216,25.7892,214.2107,24,212,24z" fill="#A9C7D8"/><path d="M79.996,64C75.5427,64,72,67.59,72,72.0196v79.9608C72,156.41,75.5743,160,79.9803,160h56.0392   c4.41,0,7.9805-3.5704,7.9805-7.9764v-72.168L128.6407,64H79.996z" fill="#C6DFED"/></g></svg>