<?xml version="1.0" ?><svg enable-background="new 0 0 192 192" id="fla" version="1.1" viewBox="0 0 192 192" xml:space="preserve" xmlns="http://www.w3.org/2000/svg" xmlns:xlink="http://www.w3.org/1999/xlink"><g><path d="M191.7383,86.6952c0.1172,0.336,0.1912,0.6916,0.2148,1.0628   C191.9295,87.3924,191.8591,87.0412,191.7383,86.6952z" fill="#4A8F9E"/><path d="M188,84c1.1015,0,2.1015,0.4472,2.8243,1.168L168,62.3436V84H188z" fill="#4A8F9E"/><path d="M190.84,85.1896c0.32,0.322,0.5663,0.7128,0.7615,1.1308C191.4139,85.91,191.172,85.5236,190.84,85.1896z" fill="#4A8F9E"/><path d="M0.3983,86.3204c0.1952-0.418,0.4417-0.8088,0.7617-1.1308C0.828,85.5236,0.5899,85.91,0.3983,86.3204z" fill="#4A8F9E"/><path d="M0.0467,87.758c0.0236-0.3712,0.0976-0.7268,0.2148-1.0628C0.1407,87.0392,0.0703,87.3908,0.0467,87.758z" fill="#4A8F9E"/><path d="M24,84V62.3436L1.1755,85.168C1.8983,84.4472,2.8943,84,4,84H24z" fill="#4A8F9E"/><path d="M168,84V62.3436v-24l-1.172-1.1716c1.1447,1.1444,1.4883,2.8632,0.8671,4.3592   C167.0779,43.0252,165.6171,44,164,44h-36c-2.2109,0-4-1.7912-4-4V4c0-1.6172,0.9727-3.076,2.4687-3.6952   c1.5-0.6172,3.2148-0.2776,4.3593,0.8672L129.6563,0H24v62.3436V84H168z" fill="#C6DFED"/><rect fill="#C6DFED" height="24" width="144" x="24" y="168"/><polygon fill="#E1AD99" points="118.7107,111.5392 113.4727,135.4084 124.0819,135.4084 118.9803,111.5392  "/><path d="M191.9531,87.758c-0.0236-0.3712-0.0976-0.7268-0.2148-1.0628c-0.0468-0.1288-0.0783-0.2536-0.1368-0.3748   c-0.1952-0.418-0.4415-0.8088-0.7615-1.1308c-0.004-0.006-0.008-0.014-0.0157-0.0216C190.1015,84.4472,189.1015,84,188,84h-20H24H4   c-1.1057,0-2.1017,0.4472-2.8245,1.168C1.168,85.1756,1.164,85.1836,1.16,85.1896c-0.32,0.322-0.5665,0.7128-0.7617,1.1308   c-0.0583,0.1212-0.09,0.246-0.1368,0.3748c-0.1172,0.336-0.1912,0.6916-0.2148,1.0628C0.0427,87.8416,0,87.914,0,88v76   c0,2.2088,1.7891,4,4,4h20h144h20c2.2107,0,4-1.7912,4-4V88C192,87.914,191.9571,87.8436,191.9531,87.758z M71.992,124.3244v7.0036   H59.6875V152h-8.2304v-48.1444h21.5584v7.3436H59.6171v13.1252H71.992z M101.3007,144.4512V152H79.8123v-48.1444h8.2304v40.5956   H101.3007z M127.4803,152l-2.3788-10.1992h-12.6484L110.008,152h-8.1605l11.9648-48.1444h10.4064L135.9803,152H127.4803z" fill="#E1AD99"/><path d="M126.4687,0.3048C124.9727,0.924,124,2.3828,124,4v36c0,2.2088,1.7891,4,4,4h36   c1.6171,0,3.0779-0.9748,3.6951-2.4688c0.6212-1.496,0.2776-3.2148-0.8671-4.3592l-36-36   C129.6835,0.0272,127.9687-0.3124,126.4687,0.3048z" fill="#A9C7D8"/><polygon fill="#FFE9E1" points="73.0155,111.1992 73.0155,103.8556 51.4571,103.8556 51.4571,152 59.6875,152 59.6875,131.328    71.992,131.328 71.992,124.3244 59.6171,124.3244 59.6171,111.1992  "/><path d="M113.8123,103.8556L101.8475,152h8.1605l2.4451-10.1992h12.6484L127.4803,152h8.5l-11.7616-48.1444   H113.8123z M113.4727,135.4084l5.238-23.8692h0.2696l5.1016,23.8692H113.4727z" fill="#FFE9E1"/><polygon fill="#FFE9E1" points="79.8123,103.8556 79.8123,152 101.3007,152 101.3007,144.4512 88.0427,144.4512 88.0427,103.8556     "/></g></svg>