<?xml version="1.0" ?><svg enable-background="new 0 0 192 192" id="sketch" version="1.1" viewBox="0 0 192 192" xml:space="preserve" xmlns="http://www.w3.org/2000/svg" xmlns:xlink="http://www.w3.org/1999/xlink"><g><path d="M190.84,85.1896c0.32,0.324,0.5699,0.7128,0.7615,1.1308C191.4139,85.91,191.172,85.5236,190.84,85.1896z" fill="#4A8F9E"/><path d="M191.7383,86.6952c0.1172,0.336,0.1912,0.6916,0.2148,1.0628   C191.9295,87.3924,191.8591,87.0412,191.7383,86.6952z" fill="#4A8F9E"/><path d="M188,84c1.1015,0,2.1015,0.4472,2.8243,1.168L168,62.3436V84H188z" fill="#4A8F9E"/><path d="M0.0467,87.758c0.0236-0.3712,0.0976-0.7268,0.2148-1.0628C0.1407,87.0392,0.0703,87.3908,0.0467,87.758z" fill="#4A8F9E"/><path d="M0.3983,86.3204c0.1952-0.418,0.4417-0.8068,0.7617-1.1308C0.828,85.5236,0.5899,85.91,0.3983,86.3204z" fill="#4A8F9E"/><path d="M24,84V62.3436L1.1755,85.168C1.8983,84.4472,2.8943,84,4,84H24z" fill="#4A8F9E"/><path d="M168,84V62.3436v-24l-1.172-1.1716c1.1447,1.1444,1.4883,2.8632,0.8671,4.3592   C167.0779,43.0252,165.6171,44,164,44h-36c-2.2109,0-4-1.7912-4-4V4c0-1.6172,0.9727-3.076,2.4687-3.6952   c1.5-0.6152,3.2148-0.2776,4.3593,0.8672L129.6563,0H24v62.3436V84H168z" fill="#C6DFED"/><rect fill="#C6DFED" height="24" width="144" x="24" y="168"/><path d="M191.9531,87.758c-0.0236-0.3712-0.0976-0.7268-0.2148-1.0628c-0.0468-0.1288-0.0783-0.2536-0.1368-0.3748   c-0.1916-0.418-0.4415-0.8068-0.7615-1.1308c-0.004-0.006-0.008-0.014-0.0157-0.0216C190.1015,84.4472,189.1015,84,188,84h-20H24H4   c-1.1057,0-2.1017,0.4472-2.8245,1.168C1.168,85.1756,1.164,85.1836,1.16,85.1896c-0.32,0.324-0.5665,0.7128-0.7617,1.1308   c-0.0583,0.1212-0.09,0.246-0.1368,0.3748c-0.1172,0.336-0.1912,0.6916-0.2148,1.0628C0.0427,87.8436,0,87.914,0,88v76   c0,2.2088,1.7891,4,4,4h20h144h20c2.2107,0,4-1.7912,4-4V88C192,87.914,191.9571,87.8436,191.9531,87.758z M51.6211,125.5428   l10.078-17.1912h7.5624l-11.6484,18.256L69.9883,148h-7.7852l-10.582-19.2636h-0.168V148h-6.7228v-39.6484h6.7228v17.1912H51.6211z    M91.3243,124.8164v5.4884H80.8515v11.7032h11.8712V148H74.4139v-39.6484H92.164v5.9356H80.8515v10.5292H91.3243z    M94.6835,114.0624v-5.7108h21.504v5.7108h-7.4492V148h-6.6056v-33.9376H94.6835z M125.1483,133.8048   c0.336,1.7712,0.84,3.3124,1.5117,4.6192c0.672,1.3064,1.5195,2.3436,2.5471,3.1092c1.0272,0.7636,2.2304,1.1464,3.6132,1.1464   c1.3048,0,2.4376-0.336,3.3868-1.0076c0.9529-0.672,1.746-1.4924,2.3828-2.4648l3.8632,4.5368   c-1.0468,1.5684-2.3828,2.836-4.004,3.8068c-1.6248,0.9728-3.668,1.4572-6.1328,1.4572c-2.2384,0-4.2656-0.5236-6.078-1.5684   c-1.8088-1.0452-3.34-2.4904-4.59-4.34c-1.25-1.8476-2.2228-4.0412-2.914-6.58c-0.6876-2.5392-1.0352-5.3204-1.0352-8.344   c0-3.0232,0.3476-5.8164,1.0352-8.3708c0.6912-2.5568,1.672-4.762,2.9412-6.6076c1.2696-1.8496,2.8088-3.2852,4.6212-4.3144   c1.8088-1.0272,3.8164-1.5392,6.0196-1.5392c2.2772,0,4.2736,0.42,5.992,1.26c1.7152,0.8416,3.1172,2.0448,4.1997,3.6112   l-3.8637,4.7052c-1.5312-2.2052-3.5116-3.3028-5.9372-3.3028c-1.344,0-2.5196,0.3828-3.5276,1.1464   c-1.0075,0.7656-1.8475,1.7988-2.5195,3.1076c-0.6717,1.3084-1.1757,2.8496-1.5117,4.6208c-0.336,1.7716-0.504,3.668-0.504,5.6836   C124.6443,130.1564,124.8123,132.0332,125.1483,133.8048z M16.6755,144.4728l3.6408-4.93   c0.8592,1.0452,1.8944,1.8692,3.1092,2.4652c1.2112,0.5956,2.4532,0.8964,3.7228,0.8964c1.418,0,2.5936-0.4844,3.5272-1.4552   c0.9336-0.9728,1.4024-2.332,1.4024-4.09c0-1.7148-0.5624-3.08-1.6836-4.0876c-1.1172-1.008-2.5388-1.9396-4.2536-2.7988   c-1.0824-0.5236-2.1016-1.1016-3.0508-1.7364c-0.9532-0.6368-1.7932-1.3928-2.5236-2.2676   c-0.7263-0.8772-1.3048-1.9064-1.7343-3.082c-0.4297-1.176-0.6445-2.582-0.6445-4.2268c0-2.0524,0.328-3.8164,0.9805-5.2928   c0.6523-1.4764,1.5115-2.6952,2.5739-3.668c1.0664-0.9728,2.2696-1.6856,3.6136-2.1564c1.3436-0.4668,2.7068-0.6992,4.0896-0.6992   c2.0156,0,3.8164,0.3284,5.4024,0.9808c1.586,0.652,2.922,1.6152,4.004,2.8828l-3.6952,4.8164   c-1.4572-1.756-3.2852-2.6328-5.4883-2.6328c-0.6369,0-1.2501,0.1052-1.8477,0.3084c-0.5976,0.2052-1.1408,0.5312-1.6252,0.9804   c-0.4844,0.4492-0.8671,1.0276-1.1484,1.7364c-0.2772,0.7072-0.418,1.5488-0.418,2.5196c0,1.6816,0.504,2.9764,1.512,3.8924   c1.0076,0.916,2.332,1.7852,3.9764,2.6036c0.9688,0.4844,1.9608,1.0448,2.9688,1.6816c1.0076,0.6348,1.9221,1.4004,2.7421,2.2952   c0.8203,0.8964,1.4923,1.9588,2.0155,3.1912c0.5236,1.2324,0.7852,2.6876,0.7852,4.3692c0,1.9396-0.3084,3.66-0.9256,5.1524   c-0.6132,1.492-1.4376,2.75-2.4648,3.7792c-1.0236,1.0292-2.2303,1.7988-3.6096,2.3224c-1.3828,0.5252-2.8396,0.7852-4.3672,0.7852   c-2.2032,0-4.238-0.428-6.1052-1.2872C19.2891,146.8592,17.7967,145.7792,16.6755,144.4728z M172.4139,148h-6.664v-17.584h-11.8748   V148h-6.6644v-39.6484h6.6644v16.0724h11.8748v-16.0724h6.664V148z" fill="#F8A131"/><path d="M126.4687,0.3048C124.9727,0.924,124,2.3828,124,4v36c0,2.2088,1.7891,4,4,4h36   c1.6171,0,3.0779-0.9748,3.6951-2.4688c0.6212-1.496,0.2776-3.2148-0.8671-4.3592l-36-36   C129.6835,0.0272,127.9687-0.3104,126.4687,0.3048z" fill="#A9C7D8"/><polygon fill="#FFE9E1" points="108.7383,148 108.7383,114.0624 116.1875,114.0624 116.1875,108.3516 94.6835,108.3516    94.6835,114.0624 102.1327,114.0624 102.1327,148  "/><polygon fill="#FFE9E1" points="92.164,114.2872 92.164,108.3516 74.4139,108.3516 74.4139,148 92.7227,148 92.7227,142.008    80.8515,142.008 80.8515,130.3048 91.3243,130.3048 91.3243,124.8164 80.8515,124.8164 80.8515,114.2872  "/><path d="M126.66,117.8712c0.672-1.3088,1.512-2.342,2.5195-3.1076c1.008-0.7636,2.1836-1.1464,3.5276-1.1464   c2.4256,0,4.406,1.0976,5.9372,3.3028l3.8637-4.7052c-1.0825-1.5664-2.4845-2.7696-4.1997-3.6112   c-1.7184-0.84-3.7148-1.26-5.992-1.26c-2.2032,0-4.2108,0.512-6.0196,1.5392c-1.8124,1.0292-3.3516,2.4648-4.6212,4.3144   c-1.2692,1.8456-2.25,4.0508-2.9412,6.6076c-0.6876,2.5544-1.0352,5.3476-1.0352,8.3708c0,3.0236,0.3476,5.8048,1.0352,8.344   c0.6912,2.5388,1.664,4.7324,2.914,6.58c1.25,1.8496,2.7812,3.2948,4.59,4.34c1.8124,1.0448,3.8396,1.5684,6.078,1.5684   c2.4648,0,4.508-0.4844,6.1328-1.4572c1.6212-0.9708,2.9572-2.2384,4.004-3.8068l-3.8632-4.5368   c-0.6368,0.9724-1.4299,1.7928-2.3828,2.4648c-0.9492,0.6716-2.082,1.0076-3.3868,1.0076c-1.3828,0-2.586-0.3828-3.6132-1.1464   c-1.0276-0.7656-1.8751-1.8028-2.5471-3.1092c-0.6717-1.3068-1.1757-2.848-1.5117-4.6192c-0.336-1.7716-0.504-3.6484-0.504-5.6292   c0-2.0156,0.168-3.912,0.504-5.6836C125.4843,120.7208,125.9883,119.1796,126.66,117.8712z" fill="#FFE9E1"/><polygon fill="#FFE9E1" points="165.7499,124.424 153.8751,124.424 153.8751,108.3516 147.2107,108.3516 147.2107,148    153.8751,148 153.8751,130.416 165.7499,130.416 165.7499,148 172.4139,148 172.4139,108.3516 165.7499,108.3516  "/><path d="M31.6287,148.2228c1.3793-0.5236,2.586-1.2932,3.6096-2.3224c1.0272-1.0292,1.8516-2.2872,2.4648-3.7792   c0.6172-1.4924,0.9256-3.2128,0.9256-5.1524c0-1.6816-0.2616-3.1368-0.7852-4.3692c-0.5232-1.2324-1.1952-2.2948-2.0155-3.1912   c-0.82-0.8948-1.7345-1.6604-2.7421-2.2952c-1.008-0.6368-2-1.1972-2.9688-1.6816c-1.6444-0.8184-2.9688-1.6876-3.9764-2.6036   c-1.008-0.916-1.512-2.2108-1.512-3.8924c0-0.9708,0.1408-1.8124,0.418-2.5196c0.2813-0.7088,0.664-1.2872,1.1484-1.7364   c0.4844-0.4492,1.0276-0.7752,1.6252-0.9804c0.5976-0.2032,1.2108-0.3084,1.8477-0.3084c2.2031,0,4.0311,0.8768,5.4883,2.6328   l3.6952-4.8164c-1.082-1.2676-2.418-2.2308-4.004-2.8828c-1.586-0.6524-3.3868-0.9808-5.4024-0.9808   c-1.3828,0-2.746,0.2324-4.0896,0.6992c-1.344,0.4708-2.5472,1.1836-3.6136,2.1564c-1.0624,0.9728-1.9216,2.1916-2.5739,3.668   c-0.6525,1.4764-0.9805,3.2404-0.9805,5.2928c0,1.6448,0.2148,3.0508,0.6445,4.2268c0.4295,1.1756,1.008,2.2048,1.7343,3.082   c0.7304,0.8748,1.5704,1.6308,2.5236,2.2676c0.9492,0.6348,1.9684,1.2128,3.0508,1.7364c1.7148,0.8592,3.1364,1.7908,4.2536,2.7988   c1.1212,1.0076,1.6836,2.3728,1.6836,4.0876c0,1.758-0.4688,3.1172-1.4024,4.09c-0.9336,0.9708-2.1092,1.4552-3.5272,1.4552   c-1.2696,0-2.5116-0.3008-3.7228-0.8964c-1.2148-0.596-2.25-1.42-3.1092-2.4652l-3.6408,4.93   c1.1212,1.3064,2.6136,2.3864,4.4808,3.248c1.8672,0.8592,3.902,1.2872,6.1052,1.2872   C28.7891,149.008,30.2459,148.748,31.6287,148.2228z" fill="#FFE9E1"/><polygon fill="#FFE9E1" points="44.7303,108.3516 44.7303,148 51.4531,148 51.4531,128.7364 51.6211,128.7364 62.2031,148    69.9883,148 57.6131,126.6076 69.2615,108.3516 61.6991,108.3516 51.6211,125.5428 51.4531,125.5428 51.4531,108.3516  "/></g></svg>