<?xml version="1.0" ?><svg enable-background="new 0 0 156 212.0052" id="protected" version="1.1" viewBox="0 0 156 212.0052" xml:space="preserve" xmlns="http://www.w3.org/2000/svg" xmlns:xlink="http://www.w3.org/1999/xlink"><g><path d="M154.826,40.302L115.6504,1.1732c-0.75-0.746-1.7656-1.168-2.826-1.168H4c-2.2088,0-4,1.7892-4,4v204   c0,2.2108,1.7912,4,4,4h148c2.2088,0,4-1.7892,4-4V43.134C156,42.0716,155.578,41.056,154.826,40.302z M78,172.0052   c-29.7752,0-54-24.2228-54-54s24.2248-54,54-54s54,24.2228,54,54S107.7752,172.0052,78,172.0052z M155.6952,45.5364   c-0.6192,1.496-2.078,2.4688-3.6952,2.4688h-40c-2.2088,0-4-1.7892-4-4v-40c0-1.6172,0.9748-3.078,2.4688-3.6952   c1.496-0.6292,3.2108-0.2812,4.3592,0.8672l40,40C155.9728,42.3216,156.3144,44.0404,155.6952,45.5364z" fill="#D4D4E2"/><path d="M78,64.0052c-29.7752,0-54,24.2228-54,54s24.2248,54,54,54s54-24.2228,54-54S107.7752,64.0052,78,64.0052z    M78,164.0052c-25.3652,0-46-20.6368-46-46s20.6348-46,46-46s46,20.6368,46,46S103.3652,164.0052,78,164.0052z" fill="#3BABB7"/><path d="M78,72.0052c-25.3652,0-46,20.6368-46,46s20.6348,46,46,46s46-20.6368,46-46S103.3652,72.0052,78,72.0052z    M96.7108,118.4972c-2.7888,3.0392-7.828,4.5548-15.1172,4.5548H68.3752v20.9532h-6.8204V92.466H80.996   c3.422,0,6.0352,0.164,7.84,0.4924c2.5312,0.4216,4.6524,1.2264,6.3632,2.406c1.7108,1.1876,3.088,2.844,4.1308,4.9768   c1.0432,2.1328,1.5644,4.4764,1.5644,7.0312C100.8944,111.7552,99.5,115.466,96.7108,118.4972z" fill="#DBEEF7"/><path d="M87.922,99.0052c-1.1484-0.3048-3.2696-0.4572-6.3636-0.4572H68.3752v18.422h13.324   c4.4064,0,7.5352-0.8204,9.3868-2.4608c1.8516-1.6408,2.7772-3.9492,2.7772-6.926c0-2.156-0.5448-4-1.6348-5.5388   C91.1388,100.5132,89.7032,99.4972,87.922,99.0052z" fill="#DBEEF7"/><path d="M95.1992,95.3644c-1.7108-1.1796-3.832-1.9844-6.3632-2.406c-1.8048-0.3284-4.418-0.4924-7.84-0.4924   H61.5548v51.5392h6.8204V123.052h13.2184c7.2892,0,12.3284-1.5156,15.1172-4.5548c2.7892-3.0312,4.1836-6.742,4.1836-11.1248   c0-2.5548-0.5212-4.8984-1.5644-7.0312C98.2872,98.2084,96.91,96.552,95.1992,95.3644z M91.086,114.5092   c-1.8516,1.6404-4.9804,2.4608-9.3868,2.4608h-13.324V98.548h13.1832c3.094,0,5.2152,0.1524,6.3636,0.4572   c1.7812,0.492,3.2168,1.508,4.3064,3.0392c1.09,1.5388,1.6348,3.3828,1.6348,5.5388   C93.8632,110.56,92.9376,112.8684,91.086,114.5092z" fill="#5DD4DC"/><path d="M114.828,1.1772c-1.1484-1.1484-2.8632-1.4964-4.3592-0.8672C108.9748,0.9272,108,2.388,108,4.0052v40   c0,2.2108,1.7912,4,4,4h40c1.6172,0,3.076-0.9728,3.6952-2.4688c0.6192-1.496,0.2776-3.2148-0.8672-4.3592L114.828,1.1772z" fill="#A9C7D8"/></g></svg>