<?xml version="1.0" ?><svg enable-background="new 0 0 192 192" id="mp3" version="1.1" viewBox="0 0 192 192" xml:space="preserve" xmlns="http://www.w3.org/2000/svg" xmlns:xlink="http://www.w3.org/1999/xlink"><g><path d="M188,84c1.1015,0,2.1015,0.4472,2.8243,1.168L168,62.3436V84H188z" fill="#4A8F9E"/><path d="M191.7383,86.6952c0.1172,0.336,0.1912,0.6916,0.2148,1.0628   C191.9295,87.3924,191.8591,87.0412,191.7383,86.6952z" fill="#4A8F9E"/><path d="M190.84,85.1896c0.32,0.322,0.5699,0.7128,0.7615,1.1308C191.4139,85.91,191.172,85.5236,190.84,85.1896z" fill="#4A8F9E"/><path d="M0.0467,87.758c0.0236-0.3712,0.0976-0.7268,0.2148-1.0628C0.1407,87.0392,0.0703,87.3908,0.0467,87.758z" fill="#4A8F9E"/><path d="M0.3983,86.3204c0.1952-0.418,0.4417-0.8088,0.7617-1.1308C0.828,85.5236,0.5899,85.91,0.3983,86.3204z" fill="#4A8F9E"/><path d="M24,84V62.3436L1.1755,85.168C1.8983,84.4472,2.8943,84,4,84H24z" fill="#4A8F9E"/><path d="M168,84V62.3436v-24l-1.172-1.1716c1.1447,1.1444,1.4883,2.8632,0.8671,4.3592   C167.0779,43.0252,165.6171,44,164,44h-36c-2.2109,0-4-1.7912-4-4V4c0-1.6172,0.9727-3.076,2.4687-3.6952   c1.5-0.6172,3.2148-0.2776,4.3593,0.8672L129.6563,0H24v62.3436V84H168z" fill="#C6DFED"/><rect fill="#C6DFED" height="24" width="144" x="24" y="168"/><path d="M191.9531,87.758c-0.0236-0.3712-0.0976-0.7268-0.2148-1.0628c-0.0468-0.1288-0.0783-0.2536-0.1368-0.3748   c-0.1916-0.418-0.4415-0.8088-0.7615-1.1308c-0.004-0.006-0.008-0.014-0.0157-0.0216C190.1015,84.4472,189.1015,84,188,84h-20H24H4   c-1.1057,0-2.1017,0.4472-2.8245,1.168C1.168,85.1756,1.164,85.1836,1.16,85.1896c-0.32,0.322-0.5665,0.7128-0.7617,1.1308   c-0.0583,0.1212-0.09,0.246-0.1368,0.3748c-0.1172,0.336-0.1912,0.6916-0.2148,1.0628C0.0427,87.8416,0,87.914,0,88v76   c0,2.2088,1.7891,4,4,4h20h144h20c2.2107,0,4-1.7912,4-4V88C192,87.914,191.9571,87.8436,191.9531,87.758z M74.6835,115.008   L65.0271,152h-6.3944l-9.4492-36.992h-0.2072L49.1131,152h-7.41v-48.1444h10.9452l9.25,35.2244h0.2737l9.0427-35.2244h11.4924V152   h-7.9572l0.1368-36.992H74.6835z M92.4295,152v-48.1444h13.3284c1.5428,0,3.1288,0.2284,4.7616,0.6796   c1.6288,0.4532,3.0936,1.2364,4.3828,2.3476c1.2928,1.1092,2.3592,2.5724,3.1992,4.3848c0.836,1.8124,1.2576,4.08,1.2576,6.8008   c0,2.4472-0.3748,4.588-1.1248,6.4276c-0.746,1.836-1.7343,3.3632-2.9572,4.588c-1.2224,1.2244-2.6288,2.1308-4.2148,2.7208   c-1.586,0.586-3.2188,0.8828-4.8983,0.8828h-5.7109V152H92.4295z M150.6367,144.2832c-0.6796,1.7872-1.6287,3.33-2.8556,4.6252   c-1.2228,1.2908-2.7068,2.2868-4.4531,2.992c-1.7461,0.6992-3.66,1.0508-5.7461,1.0508c-3.6288,0-6.6876-0.916-9.1796-2.752   c-2.4924-1.84-4.1952-4.5664-5.1016-8.1952l7.2108-1.9044c0.4965,1.7248,1.3008,3.1152,2.414,4.1836   c1.1096,1.0644,2.5472,1.5956,4.3164,1.5956c1.1332,0,2.1096-0.2264,2.9221-0.6796c0.8163-0.4512,1.496-1.0508,2.0431-1.7988   c0.5428-0.752,0.9412-1.588,1.1872-2.5176c0.25-0.9316,0.3752-1.8712,0.3752-2.8244c0-2.582-0.7268-4.5312-2.176-5.8476   c-1.4492-1.3144-3.332-1.9704-5.6444-1.9704h-2.0392v-6.3244h2.2424c2.0428,0,3.664-0.6444,4.8632-1.9356   c1.2032-1.2968,1.8008-3.0976,1.8008-5.41c0-0.7696-0.1016-1.5508-0.3048-2.344c-0.2032-0.7948-0.5312-1.5056-0.9844-2.1424   c-0.4528-0.6348-1.0428-1.1544-1.7692-1.5644c-0.7268-0.4064-1.5859-0.6112-2.5859-0.6112c-1.3129,0-2.4221,0.4316-3.3285,1.2908   c-0.91,0.8592-1.6092,1.9492-2.1092,3.2656l-7.0743-1.9728c0.5471-1.6756,1.2931-3.1288,2.2463-4.3512   c0.9528-1.2248,2.0156-2.2208,3.1952-2.9924c1.1796-0.7736,2.4256-1.336,3.742-1.6992c1.3128-0.3652,2.6292-0.5448,3.9416-0.5448   c1.7696,0,3.422,0.2832,4.9648,0.8516c1.5428,0.5644,2.9024,1.3924,4.0781,2.4804c1.18,1.088,2.1095,2.412,2.7891,3.9784   c0.6796,1.5644,1.0196,3.34,1.0196,5.336c0,2.7208-0.6096,5.1016-1.836,7.1408c-1.2228,2.0408-2.9452,3.3552-5.168,3.9452v0.2032   c2.4492,0.6364,4.3984,2.0036,5.8476,4.1152c1.4532,2.1092,2.176,4.5876,2.176,7.4452   C151.6563,140.5332,151.3163,142.492,150.6367,144.2832z" fill="#FF6B97"/><path d="M109.7695,124.0196c1.2225-1.34,1.836-3.2988,1.836-5.8828c0-2.586-0.6135-4.4648-1.836-5.6448   c-1.2228-1.1796-2.7892-1.7692-4.6916-1.7692h-4.6248v15.3008h4.6248C106.9803,126.0236,108.5467,125.3556,109.7695,124.0196z" fill="#FF6B97"/><path d="M126.4687,0.3048C124.9727,0.924,124,2.3828,124,4v36c0,2.2088,1.7891,4,4,4h36   c1.6171,0,3.0779-0.9748,3.6951-2.4688c0.6212-1.496,0.2776-3.2148-0.8671-4.3592l-36-36   C129.6835,0.0272,127.9687-0.3124,126.4687,0.3048z" fill="#A9C7D8"/><path d="M106.164,132.6876c1.6795,0,3.3123-0.2968,4.8983-0.8828c1.586-0.59,2.9924-1.4964,4.2148-2.7208   c1.2229-1.2248,2.2112-2.752,2.9572-4.588c0.75-1.8396,1.1248-3.9804,1.1248-6.4276c0-2.7208-0.4216-4.9884-1.2576-6.8008   c-0.84-1.8124-1.9064-3.2756-3.1992-4.3848c-1.2892-1.1112-2.754-1.8944-4.3828-2.3476c-1.6328-0.4512-3.2188-0.6796-4.7616-0.6796   H92.4295V152h8.0236v-19.3124H106.164z M100.4531,110.7228h4.6248c1.9024,0,3.4688,0.5896,4.6916,1.7692   c1.2225,1.18,1.836,3.0588,1.836,5.6448c0,2.584-0.6135,4.5428-1.836,5.8828c-1.2228,1.336-2.7892,2.004-4.6916,2.004h-4.6248   V110.7228z" fill="#FFE9E1"/><path d="M143.6327,126.84v-0.2032c2.2228-0.59,3.9452-1.9044,5.168-3.9452c1.2264-2.0392,1.836-4.42,1.836-7.1408   c0-1.996-0.34-3.7716-1.0196-5.336c-0.6796-1.5664-1.6091-2.8904-2.7891-3.9784c-1.1757-1.088-2.5353-1.916-4.0781-2.4804   c-1.5428-0.5684-3.1952-0.8516-4.9648-0.8516c-1.3124,0-2.6288,0.1796-3.9416,0.5448c-1.3164,0.3632-2.5624,0.9256-3.742,1.6992   c-1.1796,0.7716-2.2424,1.7676-3.1952,2.9924c-0.9532,1.2224-1.6992,2.6756-2.2463,4.3512l7.0743,1.9728   c0.5-1.3164,1.1992-2.4064,2.1092-3.2656c0.9064-0.8592,2.0156-1.2908,3.3285-1.2908c1,0,1.8591,0.2048,2.5859,0.6112   c0.7264,0.41,1.3164,0.9296,1.7692,1.5644c0.4532,0.6368,0.7812,1.3476,0.9844,2.1424c0.2032,0.7932,0.3048,1.5744,0.3048,2.344   c0,2.3124-0.5976,4.1132-1.8008,5.41c-1.1992,1.2912-2.8204,1.9356-4.8632,1.9356h-2.2424v6.3244h2.0392   c2.3124,0,4.1952,0.656,5.6444,1.9704c1.4492,1.3164,2.176,3.2656,2.176,5.8476c0,0.9532-0.1252,1.8928-0.3752,2.8244   c-0.246,0.9296-0.6444,1.7656-1.1872,2.5176c-0.5471,0.748-1.2268,1.3476-2.0431,1.7988   c-0.8125,0.4532-1.7889,0.6796-2.9221,0.6796c-1.7692,0-3.2068-0.5312-4.3164-1.5956c-1.1132-1.0684-1.9175-2.4588-2.414-4.1836   l-7.2108,1.9044c0.9064,3.6288,2.6092,6.3552,5.1016,8.1952c2.492,1.836,5.5508,2.752,9.1796,2.752   c2.0861,0,4-0.3516,5.7461-1.0508c1.7463-0.7052,3.2303-1.7012,4.4531-2.992c1.2269-1.2952,2.176-2.838,2.8556-4.6252   c0.6796-1.7912,1.0196-3.75,1.0196-5.8828c0-2.8576-0.7228-5.336-2.176-7.4452   C148.0311,128.8436,146.0819,127.4764,143.6327,126.84z" fill="#FFE9E1"/><polygon fill="#FFE9E1" points="82.7071,152 82.7071,103.8556 71.2147,103.8556 62.172,139.08 61.8983,139.08 52.6483,103.8556    41.7031,103.8556 41.7031,152 49.1131,152 48.9763,115.008 49.1835,115.008 58.6327,152 65.0271,152 74.6835,115.008    74.8867,115.008 74.7499,152  "/></g></svg>