<?xml version="1.0" ?><svg enable-background="new 0 0 156 212.0034" id="filecss" version="1.1" viewBox="0 0 156 212.0034" xml:space="preserve" xmlns="http://www.w3.org/2000/svg" xmlns:xlink="http://www.w3.org/1999/xlink"><g><path d="M154.826,40.3082L115.6504,1.1754c-0.75-0.75-1.7656-1.172-2.826-1.172H4c-2.2088,0-4,1.7892-4,4v204   c0,2.2108,1.7912,4,4,4h148c2.2088,0,4-1.7892,4-4V43.1362C156,42.0738,155.578,41.0582,154.826,40.3082z M70.8808,103.683   L43.84,115.765l27.0408,12.0784v8.8008l-40.4804-18v-5.762l40.4804-18V103.683z M124.16,118.6442l-40.4804,18v-8.8008   l27.0412-12.0784l-27.0412-12.082v-8.8008l40.4804,18V118.6442z M155.6952,45.5346c-0.6192,1.496-2.078,2.4688-3.6952,2.4688h-40   c-2.2088,0-4-1.7892-4-4v-40c0-1.6172,0.9748-3.078,2.4688-3.6952c1.494-0.6252,3.2128-0.2812,4.3592,0.8672l40,40   C155.9728,42.3198,156.3144,44.0386,155.6952,45.5346z" fill="#FFE9E1"/><path d="M114.828,1.1754c-1.1464-1.1484-2.8652-1.4924-4.3592-0.8672C108.9748,0.9254,108,2.3862,108,4.0034v40   c0,2.2108,1.7912,4,4,4h40c1.6172,0,3.076-0.9728,3.6952-2.4688c0.6192-1.496,0.2776-3.2148-0.8672-4.3592L114.828,1.1754z" fill="#FCD1C0"/><polygon fill="#4F676D" points="83.6796,103.683 110.7208,115.765 83.6796,127.8434 83.6796,136.6442 124.16,118.6442    124.16,112.8822 83.6796,94.8822  "/><polygon fill="#4F676D" points="30.4004,118.6442 70.8808,136.6442 70.8808,127.8434 43.84,115.765 70.8808,103.683    70.8808,94.8822 30.4004,112.8822  "/></g></svg>