<?xml version="1.0" ?><svg enable-background="new 0 0 216 180" id="folderphoto" version="1.1" viewBox="0 0 216 180" xml:space="preserve" xmlns="http://www.w3.org/2000/svg" xmlns:xlink="http://www.w3.org/1999/xlink"><g><path d="M4,24h90.1407L79.328,1.7812C78.5859,0.668,77.336,0,76,0H4C1.7891,0,0,1.7892,0,4v24   C0,25.7892,1.7891,24,4,24z" fill="#FCC24C"/><path d="M212,48H4c-2.2109,0-4-1.7892-4-4v116.0116C0,171.0352,8.9607,180,19.9763,180h176.0472   C207.0391,180,216,171.0352,216,160.0116V44C216,46.2108,214.2107,48,212,48z M168,156c0,2.2108-1.7893,4-4,4H60   c-2.2109,0-4-1.7892-4-4V84c0-2.2108,1.7891-4,4-4h16V68c0-2.2108,1.7891-4,4-4h28c2.2107,0,4,1.7892,4,4v12h52   c2.2107,0,4,1.7892,4,4V156z" fill="#F8A131"/><path d="M212,24H94.1407H4c-2.2109,0-4,1.7892-4,4v16c0,2.2108,1.7891,4,4,4h208c2.2107,0,4-1.7892,4-4V28   C216,25.7892,214.2107,24,212,24z" fill="#456782"/><path d="M164,80h-52V68c0-2.2108-1.7893-4-4-4H80c-2.2109,0-4,1.7892-4,4v12H60c-2.2109,0-4,1.7892-4,4v72   c0,2.2108,1.7891,4,4,4h104c2.2107,0,4-1.7892,4-4V84C168,81.7892,166.2107,80,164,80z M112,144c-13.2345,0-24-10.7656-24-24   s10.7655-24,24-24c13.2343,0,24,10.7656,24,24S125.2343,144,112,144z" fill="#4A8F9E"/><path d="M112,104c-8.8245,0-16,7.1756-16,16s7.1755,16,16,16c8.8243,0,16-7.1756,16-16S120.8243,104,112,104z    M112,132c-6.6173,0-12-5.3828-12-12s5.3827-12,12-12c6.6171,0,12,5.3828,12,12S118.6171,132,112,132z" fill="#4A8F9E"/><circle cx="112" cy="120" fill="#4A8F9E" r="4"/><path d="M112,96c-13.2345,0-24,10.7656-24,24s10.7655,24,24,24c13.2343,0,24-10.7656,24-24S125.2343,96,112,96z    M112,136c-8.8245,0-16-7.1756-16-16s7.1755-16,16-16c8.8243,0,16,7.1756,16,16S120.8243,136,112,136z" fill="#50CCD3"/><path d="M112,108c-6.6173,0-12,5.3828-12,12s5.3827,12,12,12c6.6171,0,12-5.3828,12-12S118.6171,108,112,108z    M112,124c-2.2073,0-4-1.7928-4-4s1.7927-4,4-4c2.2071,0,4,1.7928,4,4S114.2071,124,112,124z" fill="#7BE5E4"/></g></svg>