<?xml version="1.0" ?><svg enable-background="new 0 0 156.0008 212.0009" id="fileplay" version="1.1" viewBox="0 0 156.0008 212.0009" xml:space="preserve" xmlns="http://www.w3.org/2000/svg" xmlns:xlink="http://www.w3.org/1999/xlink"><g><path d="M154.828,40.3057L115.6523,1.1729c-0.75-0.75-1.7696-1.172-2.828-1.172H4c-2.2109,0-4,1.7892-4,4v204   c0,2.2108,1.7891,4,4,4h148c2.2107,0,4-1.7892,4-4V43.1337C156,42.0713,155.5779,41.0557,154.828,40.3057z M113.9843,123.4737   l-56,32c-0.6132,0.3516-1.3008,0.5272-1.9843,0.5272c-0.6953,0-1.3869-0.1796-2.008-0.5392   c-1.2341-0.7188-1.992-2.0352-1.992-3.4608v-64c0-1.4256,0.7579-2.742,1.992-3.4608c1.2343-0.7148,2.7579-0.7188,3.9923-0.012   l56,32c1.246,0.7112,2.0157,2.0392,2.0157,3.4728C116,121.4345,115.2303,122.7625,113.9843,123.4737z M155.6951,45.5321   c-0.6172,1.496-2.078,2.4688-3.6951,2.4688h-40c-2.2109,0-4-1.7892-4-4v-40c0-1.6172,0.9727-3.078,2.4687-3.6952   c1.496-0.6212,3.2148-0.2776,4.3593,0.8672l40,40C155.9727,42.3173,156.3163,44.0361,155.6951,45.5321z" fill="#FFE9E1"/><path d="M114.828,1.1729c-1.1445-1.1448-2.8633-1.4884-4.3593-0.8672C108.9727,0.9229,108,2.3837,108,4.0009v40   c0,2.2108,1.7891,4,4,4h40c1.6171,0,3.0779-0.9728,3.6951-2.4688c0.6212-1.496,0.2776-3.2148-0.8671-4.3592L114.828,1.1729z" fill="#FCD1C0"/><path d="M113.9843,116.5281l-56-32c-1.2344-0.7068-2.758-0.7028-3.9923,0.012   C52.7579,85.2589,52,86.5753,52,88.0009v64c0,1.4256,0.7579,2.742,1.992,3.4608c0.6211,0.3596,1.3127,0.5392,2.008,0.5392   c0.6835,0,1.3711-0.1756,1.9843-0.5272l56-32c1.246-0.7112,2.0157-2.0392,2.0157-3.4728   C116,118.5673,115.2303,117.2393,113.9843,116.5281z" fill="#63B473"/></g></svg>