<?xml version="1.0" ?><svg enable-background="new 0 0 156.0008 212.0009" id="fileattach" version="1.1" viewBox="0 0 156.0008 212.0009" xml:space="preserve" xmlns="http://www.w3.org/2000/svg" xmlns:xlink="http://www.w3.org/1999/xlink"><g><path d="M154.828,40.3057L115.6523,1.1729c-0.75-0.75-1.7696-1.172-2.828-1.172H4c-2.2109,0-4,1.7892-4,4v204   c0,2.2108,1.7891,4,4,4h148c2.2107,0,4-1.7892,4-4V43.1337C156,42.0713,155.5779,41.0557,154.828,40.3057z M89.0115,142.0829   l-15.5508,15.5468c-3.9296,3.9296-9.1992,6.0588-14.9492,6.0588c-0.41,0-0.824-0.012-1.242-0.0352   c-6.0664-0.3164-11.8712-2.9572-16.34-7.4296c-4.4764-4.4728-7.1132-10.2852-7.4295-16.3596   c-0.3205-6.2224,1.8163-11.9688,6.0235-16.1716l15.5468-15.5508c1.5624-1.5628,4.0937-1.5628,5.656,0   c1.5628,1.5624,1.5628,4.0936,0,5.656l-15.5468,15.5508c-2.582,2.582-3.8944,6.172-3.6875,10.1056   c0.2111,4.0936,2.0195,8.0388,5.0939,11.1132c3.0704,3.0744,7.0156,4.8828,11.1056,5.0976   c3.9452,0.2108,7.5272-1.1056,10.1132-3.6912l15.5508-15.5472c1.5624-1.5624,4.0936-1.5624,5.656,0   C90.5743,137.9893,90.5743,140.5205,89.0115,142.0829z M94.668,108.1417l-28.2853,28.2848c-0.7812,0.7816-1.8048,1.172-2.828,1.172   c-1.0236,0-2.0467-0.3904-2.8284-1.172c-1.5623-1.5624-1.5623-4.0936,0-5.656l28.2852-28.2852c1.5628-1.5624,4.094-1.5624,5.6565,0   C96.2303,104.0477,96.2303,106.5789,94.668,108.1417z M118.7031,112.3917l-15.5508,15.5468   c-0.7812,0.7812-1.8048,1.1716-2.828,1.1716c-1.0236,0-2.0472-0.3904-2.8283-1.1716c-1.5625-1.5628-1.5625-4.094,0-5.6564   l15.5507-15.5468c5.4613-5.4648,4.8284-14.9844-1.406-21.2228c-6.2344-6.238-15.762-6.8632-21.2228-1.406L74.8711,99.6573   c-1.5628,1.5624-4.094,1.5624-5.6564,0c-1.5624-1.5628-1.5624-4.094,0-5.6564l15.5468-15.5508   c8.586-8.578,23.176-7.9492,32.5352,1.4064C126.6523,89.2157,127.2811,103.8093,118.7031,112.3917z M155.6951,45.5321   c-0.6172,1.496-2.078,2.4688-3.6951,2.4688h-40c-2.2109,0-4-1.7892-4-4v-40c0-1.6172,0.9727-3.078,2.4687-3.6952   c1.5-0.6212,3.2148-0.2776,4.3593,0.8672l40,40C155.9727,42.3173,156.3163,44.0361,155.6951,45.5321z" fill="#FFE9E1"/><path d="M114.828,1.1729c-1.1445-1.1448-2.8593-1.4884-4.3593-0.8672C108.9727,0.9229,108,2.3837,108,4.0009v40   c0,2.2108,1.7891,4,4,4h40c1.6171,0,3.0779-0.9728,3.6951-2.4688c0.6212-1.496,0.2776-3.2148-0.8671-4.3592L114.828,1.1729z" fill="#FCD1C0"/><path d="M83.3555,136.4265l-15.5508,15.5472c-2.586,2.5856-6.168,3.902-10.1132,3.6912   c-4.09-0.2148-8.0352-2.0232-11.1056-5.0976c-3.0744-3.0744-4.8828-7.0196-5.0939-11.1132   c-0.2069-3.9336,1.1055-7.5236,3.6875-10.1056l15.5468-15.5508c1.5628-1.5624,1.5628-4.0936,0-5.656   c-1.5623-1.5628-4.0936-1.5628-5.656,0l-15.5468,15.5508c-4.2072,4.2028-6.344,9.9492-6.0235,16.1716   c0.3163,6.0744,2.9531,11.8868,7.4295,16.3596c4.4688,4.4724,10.2736,7.1132,16.34,7.4296c0.418,0.0232,0.832,0.0352,1.242,0.0352   c5.75,0,11.0196-2.1292,14.9492-6.0588l15.5508-15.5468c1.5628-1.5624,1.5628-4.0936,0-5.6564   C87.4491,134.8641,84.9179,134.8641,83.3555,136.4265z" fill="#49A25A"/><path d="M84.7615,78.4501L69.2147,94.0009c-1.5624,1.5624-1.5624,4.0936,0,5.6564   c1.5624,1.5624,4.0936,1.5624,5.6564,0l15.5468-15.5508c5.4608-5.4572,14.9884-4.832,21.2228,1.406   c6.2344,6.2384,6.8673,15.758,1.406,21.2228L97.496,122.2821c-1.5625,1.5624-1.5625,4.0936,0,5.6564   c0.7811,0.7812,1.8047,1.1716,2.8283,1.1716c1.0232,0,2.0468-0.3904,2.828-1.1716l15.5508-15.5468   c8.578-8.5824,7.9492-23.176-1.4064-32.5352C107.9375,70.5009,93.3475,69.8721,84.7615,78.4501z" fill="#49A25A"/><path d="M89.0115,102.4853l-28.2852,28.2852c-1.5623,1.5624-1.5623,4.0936,0,5.656   c0.7817,0.7816,1.8048,1.172,2.8284,1.172c1.0232,0,2.0468-0.3904,2.828-1.172l28.2853-28.2848   c1.5623-1.5628,1.5623-4.094,0-5.6564C93.1055,100.9229,90.5743,100.9229,89.0115,102.4853z" fill="#49A25A"/></g></svg>