<?xml version="1.0" ?><svg enable-background="new 0 0 216 180" id="foldertag" version="1.1" viewBox="0 0 216 180" xml:space="preserve" xmlns="http://www.w3.org/2000/svg" xmlns:xlink="http://www.w3.org/1999/xlink"><g><path d="M4,24h90.1407L79.328,1.7812C78.5859,0.668,77.336,0,76,0H4C1.7891,0,0,1.7892,0,4v24   C0,25.7892,1.7891,24,4,24z" fill="#FE8657"/><path d="M212,48h-24v100c0,1.7228-1.1017,3.25-2.7345,3.7928C184.8475,151.9336,184.4219,152,184,152   c-1.2345,0-2.4297-0.5744-3.1993-1.6016L154,114.668l-26.8009,35.7304c-1.0271,1.3788-2.8204,1.9532-4.4648,1.3944   C121.1015,151.25,120,149.7228,120,148V48H4c-2.2109,0-4-1.7892-4-4v116.0116C0,171.0352,8.9607,180,19.9763,180h176.0472   C207.0391,180,216,171.0352,216,160.0116V44C216,46.2108,214.2107,48,212,48z" fill="#FFAE8E"/><path d="M212,24H94.1407H4c-2.2109,0-4,1.7892-4,4v16c0,2.2108,1.7891,4,4,4h116v-4c0-2.2108,1.7891-4,4-4h60   c2.2107,0,4,1.7892,4,4v4h24c2.2107,0,4-1.7892,4-4V28C216,25.7892,214.2107,24,212,24z" fill="#63B473"/><path d="M122.7343,151.7928c1.6444,0.5588,3.4377-0.0156,4.4648-1.3944L154,114.668l26.8007,35.7304   C181.5703,151.4256,182.7655,152,184,152c0.4219,0,0.8475-0.0664,1.2655-0.2072C186.8983,151.25,188,149.7228,188,148V48v-4   c0-2.2108-1.7893-4-4-4h-60c-2.2109,0-4,1.7892-4,4v4v100C120,149.7228,121.1015,151.25,122.7343,151.7928z" fill="#C1DB66"/></g></svg>