<?xml version="1.0" ?><svg enable-background="new 0 0 192 192" id="flv" version="1.1" viewBox="0 0 192 192" xml:space="preserve" xmlns="http://www.w3.org/2000/svg" xmlns:xlink="http://www.w3.org/1999/xlink"><g><path d="M168,84V62.3436v-24l-1.172-1.1716c1.1447,1.1444,1.4883,2.8632,0.8671,4.3592   C167.0779,43.0252,165.6171,44,164,44h-36c-2.2109,0-4-1.7912-4-4V4c0-1.6172,0.9727-3.076,2.4687-3.6952   c1.5-0.6152,3.2148-0.2756,4.3593,0.8672L129.6563,0H24v62.3436V84H168z" fill="#C6DFED"/><rect fill="#C6DFED" height="24" width="144" x="24" y="168"/><path d="M191.9531,87.758c-0.0236-0.3656-0.094-0.7168-0.2148-1.0628c-0.0468-0.1288-0.0783-0.2536-0.1368-0.3748   c-0.1876-0.4104-0.4295-0.7968-0.7615-1.1308c-0.004-0.006-0.008-0.014-0.0157-0.0216L168,62.3436V84H24V62.3436L1.1755,85.168   C1.168,85.1756,1.164,85.1836,1.16,85.1896c-0.332,0.334-0.5701,0.7204-0.7617,1.1308c-0.0583,0.1212-0.09,0.246-0.1368,0.3748   c-0.1208,0.344-0.1912,0.6956-0.2148,1.0628C0.0427,87.8436,0,87.914,0,88v76c0,2.2088,1.7891,4,4,4h20h144h20   c2.2107,0,4-1.7912,4-4V88C192,87.914,191.9571,87.8436,191.9531,87.758z M77.8435,124.3244v7.0036H65.5351V152h-8.2268v-48.1444   h21.5548v7.3436H65.4687v13.1252H77.8435z M107.1523,144.4512V152H85.664v-48.1444h8.2267v40.5956H107.1523z M127.4179,152h-10.34   l-11.7616-48.1444h9.1132l8.0236,38.6248h0.2032l8.0232-38.6248h8.7032L127.4179,152z" fill="#4A8F9E"/><path d="M126.4687,0.3048C124.9727,0.924,124,2.3828,124,4v36c0,2.2088,1.7891,4,4,4h36   c1.6171,0,3.0779-0.9748,3.6951-2.4688c0.6212-1.496,0.2776-3.2148-0.8671-4.3592l-36-36   C129.6835,0.0292,127.9687-0.3104,126.4687,0.3048z" fill="#A9C7D8"/><polygon fill="#FFE9E1" points="122.6563,142.4804 122.4531,142.4804 114.4295,103.8556 105.3163,103.8556 117.0779,152    127.4179,152 139.3827,103.8556 130.6795,103.8556  "/><polygon fill="#FFE9E1" points="85.664,103.8556 85.664,152 107.1523,152 107.1523,144.4512 93.8907,144.4512 93.8907,103.8556     "/><polygon fill="#FFE9E1" points="78.8631,111.1992 78.8631,103.8556 57.3083,103.8556 57.3083,152 65.5351,152 65.5351,131.328    77.8435,131.328 77.8435,124.3244 65.4687,124.3244 65.4687,111.1992  "/></g></svg>