<?xml version="1.0" ?><svg enable-background="new 0 0 216 180" id="folder" version="1.1" viewBox="0 0 216 180" xml:space="preserve" xmlns="http://www.w3.org/2000/svg" xmlns:xlink="http://www.w3.org/1999/xlink"><g><path d="M4,24h90.1408L79.328,1.7812C78.586,0.668,77.338,0,76,0H4C1.7912,0,0,1.7892,0,4v24   C0,25.7892,1.7912,24,4,24z" fill="#FCC24C"/><path d="M212,48H4c-2.2088,0-4-1.7892-4-4v116.0116C0,171.0352,8.9608,180,19.9764,180h176.0472   C207.0392,180,216,171.0352,216,160.0116V44C216,46.2108,214.2088,48,212,48z" fill="#F8A131"/><path d="M212,24H94.1408H4c-2.2088,0-4,1.7892-4,4v16c0,2.2108,1.7912,4,4,4h208c2.2088,0,4-1.7892,4-4V28   C216,25.7892,214.2088,24,212,24z" fill="#FD5A5A"/></g></svg>