<?xml version="1.0" ?><svg enable-background="new 0 0 156 212.0034" id="filephp" version="1.1" viewBox="0 0 156 212.0034" xml:space="preserve" xmlns="http://www.w3.org/2000/svg" xmlns:xlink="http://www.w3.org/1999/xlink"><g><path d="M154.826,40.3082L115.6504,1.1754c-0.75-0.75-1.7656-1.172-2.826-1.172H4c-2.2088,0-4,1.7892-4,4v204   c0,2.2108,1.7912,4,4,4h148c2.2088,0,4-1.7892,4-4V43.1362C156,42.0738,155.578,41.0582,154.826,40.3082z M65.7596,87.765h-2.5604   c-1.492,0-2.506,0.5976-3.0392,1.7968c-0.5332,1.2032-0.8008,2.7344-0.8008,4.6016v13.4416c0,1.5976-0.16,2.9728-0.4784,4.1172   c-0.3204,1.1484-0.7344,2.082-1.24,2.8008c-0.508,0.7188-1.0548,1.2656-1.6408,1.6404c-0.586,0.3712-1.1464,0.6136-1.6796,0.7188   v0.1604c0.5332,0.1092,1.0936,0.3476,1.6796,0.7224c0.586,0.3712,1.1328,0.918,1.6408,1.6368   c0.5056,0.7228,0.9196,1.6564,1.24,2.8008c0.3184,1.1484,0.4784,2.5196,0.4784,4.1212v13.4412   c0,1.8632,0.2676,3.3984,0.8008,4.5976s1.5472,1.8008,3.0392,1.8008h2.5604v6.3204h-4.6404c-3.1992,0-5.4784-1.0936-6.84-3.2812   c-1.3592-2.1876-2.0388-5.1212-2.0388-8.8008V127.605c0-1.4416-0.1076-2.6288-0.3204-3.5624   c-0.2128-0.9336-0.506-1.6644-0.8808-2.1992c-0.3732-0.5316-0.8128-0.9064-1.3184-1.1212c-0.508-0.2108-1.08-0.3204-1.7208-0.3204   v-6.8788c0.6408,0,1.2128-0.1056,1.7208-0.3204c0.5056-0.2108,0.9452-0.586,1.3184-1.1212   c0.3748-0.5312,0.668-1.2656,0.8808-2.1992c0.2128-0.9336,0.3204-2.1172,0.3204-3.5584V93.523   c0-3.6796,0.6796-6.6132,2.0388-8.8008c1.3616-2.1876,3.6408-3.2772,6.84-3.2772h4.6404V87.765z M106.4804,120.4018   c-0.6404,0-1.2264,0.1096-1.7596,0.3204c-0.5332,0.2148-0.9748,0.5896-1.3204,1.1212c-0.3476,0.5348-0.6268,1.2656-0.84,2.1992   c-0.2128,0.9336-0.32,2.1208-0.32,3.5624v12.7968c0,3.6796-0.68,6.6132-2.0412,8.8008c-1.3592,2.1876-3.6388,3.2812-6.84,3.2812   h-4.7184v-6.3204h2.5584c1.5468,0,2.588-0.6016,3.1212-1.8008c0.5332-1.1992,0.7988-2.7344,0.7988-4.5976v-13.4412   c0-1.6016,0.16-2.9728,0.4804-4.1212c0.3204-1.1444,0.7208-2.078,1.2012-2.8008c0.4784-0.7188,1.0116-1.2656,1.5996-1.6368   c0.586-0.3748,1.1464-0.6132,1.6796-0.7224v-0.1604c-0.5332-0.1052-1.0936-0.3476-1.6796-0.7188   c-0.588-0.3748-1.1212-0.9216-1.5996-1.6404c-0.4804-0.7188-0.8808-1.6524-1.2012-2.8008   c-0.3204-1.1444-0.4804-2.5196-0.4804-4.1172V94.1634c0-1.8672-0.2656-3.3984-0.7988-4.6016   c-0.5332-1.1992-1.5744-1.7968-3.1212-1.7968h-2.5584v-6.32h4.7184c3.2012,0,5.4808,1.0896,6.84,3.2772   c1.3612,2.1876,2.0412,5.1212,2.0412,8.8008v12.8008c0,1.4412,0.1072,2.6248,0.32,3.5584c0.2132,0.9336,0.4924,1.668,0.84,2.1992   c0.3456,0.5352,0.7872,0.9104,1.3204,1.1212c0.5332,0.2148,1.1192,0.3204,1.7596,0.3204V120.4018z M155.6952,45.5346   c-0.6192,1.496-2.078,2.4688-3.6952,2.4688h-40c-2.2088,0-4-1.7892-4-4v-40c0-1.6172,0.9748-3.078,2.4688-3.6952   c1.494-0.6252,3.2128-0.2812,4.3592,0.8672l40,40C155.9728,42.3198,156.3144,44.0386,155.6952,45.5346z" fill="#FFE9E1"/><path d="M114.828,1.1754c-1.1464-1.1484-2.8652-1.4924-4.3592-0.8672C108.9748,0.9254,108,2.3862,108,4.0034v40   c0,2.2108,1.7912,4,4,4h40c1.6172,0,3.076-0.9728,3.6952-2.4688c0.6192-1.496,0.2776-3.2148-0.8672-4.3592L114.828,1.1754z" fill="#FCD1C0"/><path d="M103.4004,112.0814c-0.3476-0.5312-0.6268-1.2656-0.84-2.1992c-0.2128-0.9336-0.32-2.1172-0.32-3.5584   V93.523c0-3.6796-0.68-6.6132-2.0412-8.8008c-1.3592-2.1876-3.6388-3.2772-6.84-3.2772h-4.7184v6.32h2.5584   c1.5468,0,2.588,0.5976,3.1212,1.7968c0.5332,1.2032,0.7988,2.7344,0.7988,4.6016v13.4416c0,1.5976,0.16,2.9728,0.4804,4.1172   c0.3204,1.1484,0.7208,2.082,1.2012,2.8008c0.4784,0.7188,1.0116,1.2656,1.5996,1.6404c0.586,0.3712,1.1464,0.6136,1.6796,0.7188   v0.1604c-0.5332,0.1092-1.0936,0.3476-1.6796,0.7224c-0.588,0.3712-1.1212,0.918-1.5996,1.6368   c-0.4804,0.7228-0.8808,1.6564-1.2012,2.8008c-0.3204,1.1484-0.4804,2.5196-0.4804,4.1212v13.4412   c0,1.8632-0.2656,3.3984-0.7988,4.5976c-0.5332,1.1992-1.5744,1.8008-3.1212,1.8008h-2.5584v6.3204h4.7184   c3.2012,0,5.4808-1.0936,6.84-3.2812c1.3612-2.1876,2.0412-5.1212,2.0412-8.8008V127.605c0-1.4416,0.1072-2.6288,0.32-3.5624   c0.2132-0.9336,0.4924-1.6644,0.84-2.1992c0.3456-0.5316,0.7872-0.9064,1.3204-1.1212c0.5332-0.2108,1.1192-0.3204,1.7596-0.3204   v-6.8788c-0.6404,0-1.2264-0.1056-1.7596-0.3204C104.1876,112.9918,103.746,112.6166,103.4004,112.0814z" fill="#B976DD"/><path d="M54.2792,84.7222c-1.3592,2.1876-2.0388,5.1212-2.0388,8.8008v12.8008   c0,1.4412-0.1076,2.6248-0.3204,3.5584c-0.2128,0.9336-0.506,1.668-0.8808,2.1992c-0.3732,0.5352-0.8128,0.9104-1.3184,1.1212   c-0.508,0.2148-1.08,0.3204-1.7208,0.3204v6.8788c0.6408,0,1.2128,0.1096,1.7208,0.3204c0.5056,0.2148,0.9452,0.5896,1.3184,1.1212   c0.3748,0.5348,0.668,1.2656,0.8808,2.1992c0.2128,0.9336,0.3204,2.1208,0.3204,3.5624v12.7968   c0,3.6796,0.6796,6.6132,2.0388,8.8008c1.3616,2.1876,3.6408,3.2812,6.84,3.2812h4.6404v-6.3204h-2.5604   c-1.492,0-2.506-0.6016-3.0392-1.8008s-0.8008-2.7344-0.8008-4.5976v-13.4412c0-1.6016-0.16-2.9728-0.4784-4.1212   c-0.3204-1.1444-0.7344-2.078-1.24-2.8008c-0.508-0.7188-1.0548-1.2656-1.6408-1.6368c-0.586-0.3748-1.1464-0.6132-1.6796-0.7224   v-0.1604c0.5332-0.1052,1.0936-0.3476,1.6796-0.7188c0.586-0.3748,1.1328-0.9216,1.6408-1.6404   c0.5056-0.7188,0.9196-1.6524,1.24-2.8008c0.3184-1.1444,0.4784-2.5196,0.4784-4.1172V94.1634   c0-1.8672,0.2676-3.3984,0.8008-4.6016c0.5332-1.1992,1.5472-1.7968,3.0392-1.7968h2.5604v-6.32h-4.6404   C57.92,81.445,55.6408,82.5346,54.2792,84.7222z" fill="#B976DD"/></g></svg>