<?xml version="1.0" ?><svg enable-background="new 0 0 156.0008 212.0008" id="fileminus" version="1.1" viewBox="0 0 156.0008 212.0008" xml:space="preserve" xmlns="http://www.w3.org/2000/svg" xmlns:xlink="http://www.w3.org/1999/xlink"><g><path d="M154.828,40.3057L115.6523,1.1728c-0.75-0.7499-1.7696-1.172-2.828-1.172H4c-2.2109,0-4,1.7893-4,4v204   c0,2.2109,1.7891,4,4,4h148c2.2107,0,4-1.7891,4-4V43.1337C156,42.0713,155.5779,41.0557,154.828,40.3057z M134,164.0008H80   c-2.2109,0-4-1.7891-4-4c0-2.2107,1.7891-4,4-4h54c2.2107,0,4,1.7893,4,4C138,162.2117,136.2107,164.0008,134,164.0008z    M155.6951,45.5321c-0.6172,1.496-2.078,2.4687-3.6951,2.4687h-40c-2.2109,0-4-1.7891-4-4v-40   c0-1.6171,0.9727-3.0779,2.4687-3.6951c1.5-0.6212,3.2148-0.2776,4.3593,0.8671l40,40   C155.9727,42.3173,156.3163,44.0361,155.6951,45.5321z" fill="#FFE9E1"/><path d="M114.828,1.1728c-1.1445-1.1447-2.8593-1.4883-4.3593-0.8671C108.9727,0.9229,108,2.3837,108,4.0008v40   c0,2.2109,1.7891,4,4,4h40c1.6171,0,3.0779-0.9727,3.6951-2.4687c0.6212-1.496,0.2776-3.2148-0.8671-4.3593L114.828,1.1728z" fill="#FCD1C0"/><path d="M134,156.0008H80c-2.2109,0-4,1.7893-4,4c0,2.2109,1.7891,4,4,4h54c2.2107,0,4-1.7891,4-4   C138,157.7901,136.2107,156.0008,134,156.0008z" fill="#FD5A5A"/></g></svg>