<?xml version="1.0" ?><svg enable-background="new 0 0 156.0008 212" id="search" version="1.1" viewBox="0 0 156.0008 212" xml:space="preserve" xmlns="http://www.w3.org/2000/svg" xmlns:xlink="http://www.w3.org/1999/xlink"><g><path d="M154.828,40.3009L115.6523,1.1701C114.9023,0.42,113.8827,0,112.8243,0H4C1.7891,0,0,1.7913,0,4v204   c0,2.2089,1.7891,4,4,4h148c2.2107,0,4-1.7911,4-4V43.1309C156,42.0685,155.5779,41.0509,154.828,40.3009z M132,184   c0,2.2089-1.7893,4-4,4H28c-2.2109,0-4-1.7911-4-4V72c0-2.2087,1.7891-4,4-4h100c2.2107,0,4,1.7913,4,4V184z M155.6951,45.5313   C155.0779,47.0253,153.6171,48,152,48h-40c-2.2109,0-4-1.7911-4-4V4c0-1.6171,0.9727-3.076,2.4687-3.6951   c1.5-0.6172,3.2148-0.2776,4.3593,0.8671l40,40C155.9727,42.3165,156.3163,44.0353,155.6951,45.5313z" fill="#FFE9E1"/><path d="M114.828,1.172c-1.1445-1.1447-2.8593-1.4843-4.3593-0.8671C108.9727,0.924,108,2.3829,108,4v40   c0,2.2089,1.7891,4,4,4h40c1.6171,0,3.0779-0.9747,3.6951-2.4687c0.6212-1.496,0.2776-3.2148-0.8671-4.3593L114.828,1.172z" fill="#FCD1C0"/><path d="M128,68H28c-2.2109,0-4,1.7913-4,4v112c0,2.2089,1.7891,4,4,4h100c2.2107,0,4-1.7911,4-4V72   C132,69.7913,130.2107,68,128,68z M110.5547,166.6565l-30.6956-30.6956C75.84,138.504,71.0975,140,66,140   c-14.336,0-26-11.664-26-26s11.664-26,26-26s26,11.664,26,26c0,6.3517-2.2969,12.1741-6.0937,16.6933L116.2107,161   L110.5547,166.6565z" fill="#49A25A"/><path d="M92,114c0-14.336-11.664-26-26-26s-26,11.664-26,26s11.664,26,26,26c5.0975,0,9.84-1.496,13.8591-4.0391   l30.6956,30.6956l5.656-5.6565l-30.3044-30.3067C89.7031,126.1741,92,120.3517,92,114z M48,114c0-9.9255,8.0743-18,18-18   c9.9255,0,18,8.0745,18,18c0,9.9257-8.0745,18-18,18C56.0743,132,48,123.9257,48,114z" fill="#50CCD3"/><path d="M84,114c0-9.9255-8.0745-18-18-18c-9.9257,0-18,8.0745-18,18c0,9.9257,8.0743,18,18,18   C75.9255,132,84,123.9257,84,114z" fill="#7BE5E4"/></g></svg>