<?xml version="1.0" ?><svg enable-background="new 0 0 192 192.0022" id="mkv" version="1.1" viewBox="0 0 192 192.0022" xml:space="preserve" xmlns="http://www.w3.org/2000/svg" xmlns:xlink="http://www.w3.org/1999/xlink"><g><path d="M190.832,85.1818c0.3244,0.3244,0.5744,0.7188,0.7716,1.1408   C191.41,85.9086,191.166,85.5158,190.832,85.1818z" fill="#4A8F9E"/><path d="M191.7364,86.6974c0.1172,0.336,0.1892,0.6896,0.2128,1.0588   C191.9276,87.393,191.8556,87.0414,191.7364,86.6974z" fill="#4A8F9E"/><path d="M188,84.0022c1.1036,0,2.1036,0.4472,2.826,1.172L168,62.3458v21.6564H188z" fill="#4A8F9E"/><path d="M0.0508,87.7562c0.0236-0.3692,0.0956-0.7228,0.2128-1.0588C0.1444,87.0414,0.0724,87.393,0.0508,87.7562z" fill="#4A8F9E"/><path d="M0.3964,86.3226c0.1972-0.422,0.4472-0.8164,0.7716-1.1408C0.834,85.5158,0.59,85.9086,0.3964,86.3226z" fill="#4A8F9E"/><path d="M24,84.0022V62.3458L1.174,85.1742c0.7224-0.7248,1.7224-1.172,2.826-1.172H24z" fill="#4A8F9E"/><path d="M168,84.0022V62.3458v-24l-1.172-1.1716c1.1448,1.1444,1.4864,2.8632,0.8672,4.3592   c-0.6192,1.494-2.078,2.4688-3.6952,2.4688h-36c-2.2088,0-4-1.7912-4-4v-36c0-1.6172,0.9748-3.076,2.4688-3.6952   c1.494-0.6232,3.2128-0.2796,4.3592,0.8672l-1.1716-1.172H24v62.3436v21.6564H168z" fill="#C6DFED"/><rect fill="#C6DFED" height="24" width="144" x="24" y="168.0022"/><path d="M191.9492,87.7562c-0.0236-0.3692-0.0956-0.7228-0.2128-1.0588c-0.0448-0.1268-0.0764-0.2536-0.1328-0.3748   c-0.1972-0.422-0.4472-0.8164-0.7716-1.1408c-0.002-0.004-0.002-0.0076-0.002-0.0076c-0.7264-0.7248-1.7264-1.172-2.83-1.172h-20   H24H4c-1.1036,0-2.1036,0.4472-2.826,1.172c0,0-0.004,0.0036-0.006,0.0076c-0.3244,0.3244-0.5744,0.7188-0.7716,1.1408   c-0.0564,0.1212-0.088,0.248-0.1328,0.3748c-0.1172,0.336-0.1892,0.6896-0.2128,1.0588C0.0448,87.8422,0,87.9142,0,88.0022v76   c0,2.2088,1.7912,4,4,4h20h144h20c2.2088,0,4-1.7912,4-4v-76C192,87.9142,191.9572,87.8422,191.9492,87.7562z M73.662,115.0102   l-9.656,36.992h-6.3928l-9.4512-36.992h-0.2048l0.1364,36.992h-7.412v-48.1444h10.9492l9.248,35.2244h0.2716l9.0428-35.2244   h11.4924v48.1444h-7.9552l0.1348-36.992H73.662z M99.7736,124.7346l12.24-20.8768h9.1796l-14.1424,22.168l15.0272,25.9764h-9.4528   l-12.8516-23.3924h-0.2032v23.3924H91.41v-48.1444h8.1604v20.8768H99.7736z M144.0428,152.0022h-10.3376l-11.7636-48.1444h9.1132   l8.0232,38.6248h0.2032l8.0256-38.6248h8.7028L144.0428,152.0022z" fill="#3BABB7"/><path d="M126.4688,0.307C124.9748,0.9262,124,2.385,124,4.0022v36c0,2.2088,1.7912,4,4,4h36   c1.6172,0,3.076-0.9748,3.6952-2.4688c0.6192-1.496,0.2776-3.2148-0.8672-4.3592l-36-36   C129.6816,0.0274,127.9628-0.3162,126.4688,0.307z" fill="#A9C7D8"/><polygon fill="#FFE9E1" points="91.41,103.8578 91.41,152.0022 99.5704,152.0022 99.5704,128.6098 99.7736,128.6098    112.6252,152.0022 122.078,152.0022 107.0508,126.0258 121.1932,103.8578 112.0136,103.8578 99.7736,124.7346 99.5704,124.7346    99.5704,103.8578  "/><polygon fill="#FFE9E1" points="81.6856,152.0022 81.6856,103.8578 70.1932,103.8578 61.1504,139.0822 60.8788,139.0822    51.6308,103.8578 40.6816,103.8578 40.6816,152.0022 48.0936,152.0022 47.9572,115.0102 48.162,115.0102 57.6132,152.0022    64.006,152.0022 73.662,115.0102 73.8652,115.0102 73.7304,152.0022  "/><polygon fill="#FFE9E1" points="139.2812,142.4826 139.078,142.4826 131.0548,103.8578 121.9416,103.8578 133.7052,152.0022    144.0428,152.0022 156.0096,103.8578 147.3068,103.8578  "/></g></svg>