<?xml version="1.0" ?><svg enable-background="new 0 0 156 212.0033" id="protect" version="1.1" viewBox="0 0 156 212.0033" xml:space="preserve" xmlns="http://www.w3.org/2000/svg" xmlns:xlink="http://www.w3.org/1999/xlink"><g><path d="M154.826,40.3082L115.6504,1.1753c-0.75-0.7499-1.7656-1.172-2.826-1.172H4c-2.2088,0-4,1.7893-4,4v204   c0,2.2109,1.7912,4,4,4h148c2.2088,0,4-1.7891,4-4V43.1362C156,42.0738,155.578,41.0582,154.826,40.3082z M132,184.0033   c0,2.2109-1.7912,4-4,4H28c-2.2088,0-4-1.7891-4-4v-112c0-2.2107,1.7912-4,4-4h100c2.2088,0,4,1.7893,4,4V184.0033z    M155.6952,45.5346c-0.6192,1.496-2.078,2.4687-3.6952,2.4687h-40c-2.2088,0-4-1.7891-4-4v-40   c0-1.6171,0.9748-3.0779,2.4688-3.6951c1.496-0.6252,3.2108-0.2812,4.3592,0.8671l40,40   C155.9728,42.3198,156.3144,44.0386,155.6952,45.5346z" fill="#FFE9E1"/><path d="M114.828,1.1753c-1.1484-1.1483-2.8632-1.4923-4.3592-0.8671C108.9748,0.9254,108,2.3862,108,4.0033v40   c0,2.2109,1.7912,4,4,4h40c1.6172,0,3.076-0.9727,3.6952-2.4687c0.6192-1.496,0.2776-3.2148-0.8672-4.3593L114.828,1.1753z" fill="#FCD1C0"/><path d="M128,68.0033H28c-2.2088,0-4,1.7893-4,4v112c0,2.2109,1.7912,4,4,4h100c2.2088,0,4-1.7891,4-4v-112   C132,69.7926,130.2088,68.0033,128,68.0033z M108,160.0033c0,2.2109-1.7912,4-4,4H52c-2.2088,0-4-1.7891-4-4v-36   c0-2.2107,1.7912-4,4-4h0.1016c1.0272-13.4023,12.2384-24,25.8984-24s24.8712,10.5977,25.8984,24H104c2.2088,0,4,1.7893,4,4   V160.0033z" fill="#50CCD3"/><path d="M78,104.0033c-9.2404,0-16.7872,7.0237-17.7988,16h35.5976C94.7892,111.027,87.2404,104.0033,78,104.0033z" fill="#50CCD3"/><path d="M104,120.0033h-0.1016c-1.0272-13.4023-12.2384-24-25.8984-24s-24.8712,10.5977-25.8984,24H52   c-2.2088,0-4,1.7893-4,4v36c0,2.2109,1.7912,4,4,4h52c2.2088,0,4-1.7891,4-4v-36C108,121.7926,106.2088,120.0033,104,120.0033z    M78,104.0033c9.2404,0,16.7892,7.0237,17.7988,16H60.2012C61.2128,111.027,68.7596,104.0033,78,104.0033z" fill="#4F676D"/></g></svg>