<?xml version="1.0" ?><svg enable-background="new 0 0 216 180" id="folderleft" version="1.1" viewBox="0 0 216 180" xml:space="preserve" xmlns="http://www.w3.org/2000/svg" xmlns:xlink="http://www.w3.org/1999/xlink"><g><path d="M4,24h90.1408L79.328,1.7812C78.586,0.668,77.338,0,76,0H4C1.7912,0,0,1.7892,0,4v24   C0,25.7892,1.7912,24,4,24z" fill="#456782"/><path d="M212,48H4c-2.2088,0-4-1.7892-4-4v116.0116C0,171.0352,8.9608,180,19.9764,180h176.0472   C207.0392,180,216,171.0352,216,160.0116V44C216,46.2108,214.2088,48,212,48z M152,116H77.0292l15.7988,15.8008   c1.5628,1.5624,1.5628,4.0936,0,5.6564c-0.7812,0.7812-1.8044,1.1716-2.828,1.1716s-2.0468-0.3904-2.828-1.1716L64.5448,114.828   c-1.5624-1.5624-1.5624-4.0936,0-5.656L87.172,86.5428c1.5624-1.5624,4.0936-1.5624,5.656,0c1.5628,1.5628,1.5628,4.094,0,5.6564   L77.0292,108H152V116z" fill="#618287"/><path d="M212,24H94.1408H4c-2.2088,0-4,1.7892-4,4v16c0,2.2108,1.7912,4,4,4h208c2.2088,0,4-1.7892,4-4V28   C216,25.7892,214.2088,24,212,24z" fill="#F8A131"/><path d="M92.828,92.1992c1.5628-1.5624,1.5628-4.0936,0-5.6564c-1.5624-1.5624-4.0936-1.5624-5.656,0   L64.5448,109.172c-1.5624,1.5624-1.5624,4.0936,0,5.656l22.6272,22.6292c0.7812,0.7812,1.8044,1.1716,2.828,1.1716   s2.0468-0.3904,2.828-1.1716c1.5628-1.5628,1.5628-4.094,0-5.6564L77.0292,116H152v-8H77.0292L92.828,92.1992z" fill="#FFDC82"/></g></svg>