<?xml version="1.0" ?><svg enable-background="new 0 0 156.0008 212" id="accessdeny" version="1.1" viewBox="0 0 156.0008 212" xml:space="preserve" xmlns="http://www.w3.org/2000/svg" xmlns:xlink="http://www.w3.org/1999/xlink"><g><path d="M154.828,40.3009L115.6523,1.1701C114.9023,0.42,113.8827,0,112.8243,0H4C1.7891,0,0,1.7913,0,4v204   c0,2.2089,1.7891,4,4,4h148c2.2107,0,4-1.7911,4-4V43.1309C156,42.0685,155.5779,41.0509,154.828,40.3009z M132,184   c0,2.2089-1.7893,4-4,4H28c-2.2109,0-4-1.7911-4-4V72c0-2.2087,1.7891-4,4-4h100c2.2107,0,4,1.7913,4,4V184z M155.6951,45.5313   C155.0779,47.0253,153.6171,48,152,48h-40c-2.2109,0-4-1.7911-4-4V4c0-1.6171,0.9727-3.076,2.4687-3.6951   c1.5-0.6172,3.2188-0.2776,4.3593,0.8671l40,40C155.9727,42.3165,156.3163,44.0353,155.6951,45.5313z" fill="#FFE9E1"/><path d="M114.828,1.172c-1.1405-1.1447-2.8593-1.4843-4.3593-0.8671C108.9727,0.924,108,2.3829,108,4v40   c0,2.2089,1.7891,4,4,4h40c1.6171,0,3.0779-0.9747,3.6951-2.4687c0.6212-1.496,0.2776-3.2148-0.8671-4.3593L114.828,1.172z" fill="#FCD1C0"/><path d="M128,68H28c-2.2109,0-4,1.7913-4,4v112c0,2.2089,1.7891,4,4,4h100c2.2107,0,4-1.7911,4-4V72   C132,69.7913,130.2107,68,128,68z M78,164c-18.7461,0-34-15.252-34-34s15.2539-34,34-34c18.7459,0,34,15.252,34,34   S96.7459,164,78,164z" fill="#FD5A5A"/><path d="M63.6915,151.6877C67.8007,154.4065,72.7147,156,78,156c14.336,0,26-11.664,26-26   c0-6.1699-2.172-11.836-5.7737-16.3007L63.6915,151.6877z" fill="#FD5A5A"/><path d="M92.3083,108.3125C88.1991,105.5937,83.2851,104,78,104c-14.336,0-26,11.664-26,26   c0,6.1701,2.172,11.836,5.7735,16.3009L92.3083,108.3125z" fill="#FD5A5A"/><path d="M78,96c-18.7461,0-34,15.252-34,34s15.2539,34,34,34c18.7459,0,34-15.252,34-34S96.7459,96,78,96z M52,130   c0-14.336,11.664-26,26-26c5.2851,0,10.1991,1.5937,14.3083,4.3125l-34.5348,37.9884C54.172,141.836,52,136.1701,52,130z M78,156   c-5.2853,0-10.1993-1.5935-14.3085-4.3123l34.5348-37.9884C101.828,118.164,104,123.8301,104,130C104,144.336,92.336,156,78,156z" fill="#FFDC82"/></g></svg>