<?xml version="1.0" ?><svg enable-background="new 0 0 156 212.0033" id="pencil" version="1.1" viewBox="0 0 156 212.0033" xml:space="preserve" xmlns="http://www.w3.org/2000/svg" xmlns:xlink="http://www.w3.org/1999/xlink"><g><path d="M154.826,40.3082L115.6504,1.1753c-0.75-0.7499-1.7656-1.172-2.826-1.172H4c-2.2088,0-4,1.7893-4,4v204   c0,2.2109,1.7912,4,4,4h148c2.2088,0,4-1.7891,4-4V43.1362C156,42.0738,155.578,41.0582,154.826,40.3082z M132,184.0033   c0,2.2109-1.7912,4-4,4H28c-2.2088,0-4-1.7891-4-4v-112c0-2.2107,1.7912-4,4-4h100c2.2088,0,4,1.7893,4,4V184.0033z    M155.6952,45.5346c-0.6192,1.496-2.078,2.4687-3.6952,2.4687h-40c-2.2088,0-4-1.7891-4-4v-40   c0-1.6171,0.9748-3.0779,2.4688-3.6951c1.498-0.6252,3.2108-0.2812,4.3592,0.8671l40,40   C155.9728,42.3198,156.3144,44.0386,155.6952,45.5346z" fill="#FFE9E1"/><path d="M114.828,1.1753c-1.1484-1.1483-2.8612-1.4923-4.3592-0.8671C108.9748,0.9254,108,2.3862,108,4.0033v40   c0,2.2109,1.7912,4,4,4h40c1.6172,0,3.076-0.9727,3.6952-2.4687c0.6192-1.496,0.2776-3.2148-0.8672-4.3593L114.828,1.1753z" fill="#FCD1C0"/><path d="M128,68.0033H28c-2.2088,0-4,1.7893-4,4v112c0,2.2109,1.7912,4,4,4h100c2.2088,0,4-1.7891,4-4v-112   C132,69.7926,130.2088,68.0033,128,68.0033z M110.922,115.8002l-42.4472,42.4452c-0.004,0.004-0.01,0.004-0.014,0.008   c-0.332,0.328-0.7324,0.5779-1.162,0.7736c-0.1152,0.0508-0.2264,0.0936-0.3436,0.1363c-0.1152,0.0393-0.2188,0.1017-0.338,0.1329   l-22.6268,5.6564c-0.3224,0.082-0.6488,0.1212-0.9708,0.1212c-1.0468,0-2.0684-0.414-2.828-1.172   c-0.9944-0.992-1.3928-2.4336-1.0528-3.7968l5.656-22.6252c0.0332-0.1328,0.1016-0.246,0.1484-0.3708   c0.0392-0.1137,0.0784-0.2228,0.1292-0.332c0.1972-0.422,0.4412-0.8128,0.7636-1.1408c0.0056-0.004,0.0076-0.0116,0.0116-0.0156   l42.4472-42.4493c6.2364-6.2303,16.3752-6.2147,22.6076,0.0237c3.0176,3.0156,4.6796,7.0348,4.6776,11.32   C115.58,108.7926,113.924,112.8002,110.922,115.8002z" fill="#9D57C4"/><path d="M88.2948,93.1713l-42.4472,42.4493c-0.004,0.004-0.006,0.0116-0.0116,0.0156   c0.4824-0.4844,1.088-0.8516,1.7716-1.0428c1.3924-0.3868,2.8768,0.0036,3.8964,1.0272l16.9708,16.9688   c1.0192,1.0196,1.412,2.5076,1.0272,3.8944c-0.1896,0.6835-0.5548,1.2892-1.0412,1.7696c0.004-0.004,0.01-0.004,0.014-0.008   l42.4472-42.4452c3.002-3,4.658-7.0076,4.658-11.2852c0.002-4.2852-1.66-8.3044-4.6776-11.32   C104.67,86.9566,94.5312,86.941,88.2948,93.1713z" fill="#F8A131"/><path d="M67.2988,159.027c-0.1112,0.0508-0.2264,0.0936-0.3436,0.1363   C67.0724,159.1206,67.1836,159.0779,67.2988,159.027z" fill="#F8A131"/><path d="M44.9432,137.109c0.0392-0.1137,0.0804-0.2228,0.1292-0.332   C45.0216,136.8862,44.9824,136.9953,44.9432,137.109z" fill="#F8A131"/><path d="M68.4748,152.5894L51.504,135.6206c-1.0196-1.0236-2.504-1.414-3.8964-1.0272   c-0.6836,0.1912-1.2892,0.5584-1.7716,1.0428c-0.3224,0.328-0.5664,0.7188-0.7636,1.1408c-0.0488,0.1092-0.09,0.2183-0.1292,0.332   c-0.0468,0.1248-0.1152,0.238-0.1484,0.3708l-5.656,22.6252c-0.34,1.3632,0.0584,2.8048,1.0528,3.7968   c0.7596,0.758,1.7812,1.172,2.828,1.172c0.322,0,0.6484-0.0392,0.9708-0.1212l22.6268-5.6564   c0.1192-0.0312,0.2228-0.0936,0.338-0.1329c0.1172-0.0427,0.2324-0.0855,0.3436-0.1363c0.4296-0.1957,0.83-0.4456,1.162-0.7736   c0.4864-0.4804,0.8516-1.0861,1.0412-1.7696C69.8868,155.097,69.494,153.609,68.4748,152.5894z" fill="#49A25A"/></g></svg>