<?xml version="1.0" ?><svg enable-background="new 0 0 192 192.0022" id="mov" version="1.1" viewBox="0 0 192 192.0022" xml:space="preserve" xmlns="http://www.w3.org/2000/svg" xmlns:xlink="http://www.w3.org/1999/xlink"><g><path d="M191.7364,86.6974c0.1172,0.336,0.1892,0.6896,0.2128,1.0588   C191.9276,87.393,191.8556,87.0414,191.7364,86.6974z" fill="#4A8F9E"/><path d="M188,84.0022c1.1036,0,2.1036,0.4472,2.826,1.172L168,62.3458v21.6564H188z" fill="#4A8F9E"/><path d="M190.832,85.1818c0.3244,0.3244,0.5744,0.7188,0.7716,1.1408   C191.41,85.9086,191.166,85.5158,190.832,85.1818z" fill="#4A8F9E"/><path d="M0.0508,87.7562c0.0236-0.3692,0.0956-0.7228,0.2128-1.0588C0.1444,87.0414,0.0724,87.393,0.0508,87.7562z" fill="#4A8F9E"/><path d="M0.3964,86.3226c0.1972-0.422,0.4472-0.8164,0.7716-1.1408C0.834,85.5158,0.59,85.9086,0.3964,86.3226z" fill="#4A8F9E"/><path d="M24,84.0022V62.3458L1.174,85.1742c0.7224-0.7248,1.7224-1.172,2.826-1.172H24z" fill="#4A8F9E"/><path d="M168,84.0022V62.3458v-24l-1.172-1.1716c1.1448,1.1444,1.4864,2.8632,0.8672,4.3592   c-0.6192,1.494-2.078,2.4688-3.6952,2.4688h-36c-2.2088,0-4-1.7912-4-4v-36c0-1.6172,0.9748-3.076,2.4688-3.6952   c1.494-0.6232,3.2128-0.2796,4.3592,0.8672l-1.1716-1.172H24v62.3436v21.6564H168z" fill="#C6DFED"/><rect fill="#C6DFED" height="24" width="144" x="24" y="168.0022"/><path d="M191.9492,87.7562c-0.0236-0.3692-0.0956-0.7228-0.2128-1.0588c-0.0448-0.1268-0.0764-0.2536-0.1328-0.3748   c-0.1972-0.422-0.4472-0.8164-0.7716-1.1408c-0.002-0.004-0.002-0.0076-0.002-0.0076c-0.7264-0.7248-1.7264-1.172-2.83-1.172h-20   H24H4c-1.1036,0-2.1036,0.4472-2.826,1.172c0,0-0.004,0.0036-0.006,0.0076c-0.3244,0.3244-0.5744,0.7188-0.7716,1.1408   c-0.0564,0.1212-0.088,0.248-0.1328,0.3748c-0.1172,0.336-0.1892,0.6896-0.2128,1.0588C0.0448,87.8422,0,87.9142,0,88.0022v76   c0,2.2088,1.7912,4,4,4h20h144h20c2.2088,0,4-1.7912,4-4v-76C192,87.9142,191.9572,87.8422,191.9492,87.7562z M71.3848,115.0102   l-9.6564,36.992H55.336l-9.4512-36.992h-0.2052l0.1368,36.992h-7.412v-48.1444h10.9472l9.248,35.2244h0.2716l9.0448-35.2244   h11.4924v48.1444h-7.9572l0.1368-36.992H71.3848z M87.0236,127.8614c0-3.8084,0.3864-7.2516,1.156-10.3356   c0.7716-3.084,1.9044-5.7364,3.4004-7.9552c1.496-2.2208,3.3204-3.9316,5.4748-5.1368c2.1524-1.1992,4.5896-1.7988,7.3084-1.7988   c2.676,0,5.09,0.5996,7.2424,1.7988c2.154,1.2052,3.9784,2.916,5.4744,5.1368c1.496,2.2188,2.6408,4.8712,3.4336,7.9552   c0.7932,3.084,1.1896,6.5272,1.1896,10.3356c0,3.8088-0.3964,7.2656-1.1896,10.3672c-0.7928,3.1096-1.9376,5.7736-3.4336,7.9944   c-1.496,2.2188-3.3204,3.9432-5.4744,5.166c-2.1524,1.2264-4.5664,1.836-7.2424,1.836c-2.7188,0-5.1444-0.6096-7.2752-1.836   c-2.1308-1.2228-3.9436-2.9472-5.4396-5.166c-1.496-2.2208-2.6404-4.8848-3.4336-7.9944   C87.42,135.127,87.0236,131.6702,87.0236,127.8614z M146.3204,152.0022h-10.336l-11.7636-48.1444h9.1112l8.0236,38.6248h0.2048   l8.0236-38.6248h8.7052L146.3204,152.0022z" fill="#4F676D"/><path d="M97.666,140.3734c0.748,1.5896,1.6776,2.832,2.7872,3.742c1.1112,0.9064,2.414,1.3596,3.91,1.3596   c1.496,0,2.8008-0.4532,3.9104-1.3596c1.1112-0.91,2.0408-2.1524,2.7888-3.742c0.748-1.588,1.3028-3.4552,1.666-5.6116   c0.3616-2.152,0.5432-4.4512,0.5432-6.9004c0-2.4472-0.1916-4.746-0.5784-6.904c-0.3848-2.1504-0.9512-4.006-1.6992-5.5764   c-0.748-1.5624-1.6776-2.7948-2.7888-3.7032c-1.1096-0.908-2.3908-1.3592-3.842-1.3592c-1.496,0-2.7988,0.4512-3.91,1.3592   c-1.1096,0.9084-2.0392,2.1408-2.7872,3.7032c-0.748,1.5704-1.3028,3.426-1.666,5.5764c-0.3632,2.158-0.5428,4.4568-0.5428,6.904   c0,2.4492,0.1796,4.7484,0.5428,6.9004C96.3632,136.9182,96.918,138.7854,97.666,140.3734z" fill="#4F676D"/><path d="M126.4688,0.307C124.9748,0.9262,124,2.385,124,4.0022v36c0,2.2088,1.7912,4,4,4h36   c1.6172,0,3.076-0.9748,3.6952-2.4688c0.6192-1.496,0.2776-3.2148-0.8672-4.3592l-36-36   C129.6816,0.0274,127.9628-0.3162,126.4688,0.307z" fill="#A9C7D8"/><polygon fill="#FFE9E1" points="141.5604,142.4826 141.3556,142.4826 133.332,103.8578 124.2208,103.8578 135.9844,152.0022    146.3204,152.0022 158.2892,103.8578 149.584,103.8578  "/><polygon fill="#FFE9E1" points="79.4084,152.0022 79.4084,103.8578 67.916,103.8578 58.8712,139.0822 58.5996,139.0822    49.3516,103.8578 38.4044,103.8578 38.4044,152.0022 45.8164,152.0022 45.6796,115.0102 45.8848,115.0102 55.336,152.0022    61.7284,152.0022 71.3848,115.0102 71.588,115.0102 71.4512,152.0022  "/><path d="M97.088,151.389c2.1308,1.2264,4.5564,1.836,7.2752,1.836c2.676,0,5.09-0.6096,7.2424-1.836   c2.154-1.2228,3.9784-2.9472,5.4744-5.166c1.496-2.2208,2.6408-4.8848,3.4336-7.9944c0.7932-3.1016,1.1896-6.5584,1.1896-10.3672   c0-3.8084-0.3964-7.2516-1.1896-10.3356c-0.7928-3.084-1.9376-5.7364-3.4336-7.9552c-1.496-2.2208-3.3204-3.9316-5.4744-5.1368   c-2.1524-1.1992-4.5664-1.7988-7.2424-1.7988c-2.7188,0-5.156,0.5996-7.3084,1.7988c-2.1544,1.2052-3.9788,2.916-5.4748,5.1368   c-1.496,2.2188-2.6288,4.8712-3.4004,7.9552c-0.7696,3.084-1.156,6.5272-1.156,10.3356c0,3.8088,0.3964,7.2656,1.1912,10.3672   c0.7932,3.1096,1.9376,5.7736,3.4336,7.9944C93.1444,148.4418,94.9572,150.1662,97.088,151.389z M96,120.9574   c0.3632-2.1504,0.918-4.006,1.666-5.5764c0.748-1.5624,1.6776-2.7948,2.7872-3.7032c1.1112-0.908,2.414-1.3592,3.91-1.3592   c1.4512,0,2.7324,0.4512,3.842,1.3592c1.1112,0.9084,2.0408,2.1408,2.7888,3.7032c0.748,1.5704,1.3144,3.426,1.6992,5.5764   c0.3868,2.158,0.5784,4.4568,0.5784,6.904c0,2.4492-0.1816,4.7484-0.5432,6.9004c-0.3632,2.1564-0.918,4.0236-1.666,5.6116   c-0.748,1.5896-1.6776,2.832-2.7888,3.742c-1.1096,0.9064-2.4144,1.3596-3.9104,1.3596c-1.496,0-2.7988-0.4532-3.91-1.3596   c-1.1096-0.91-2.0392-2.1524-2.7872-3.742c-0.748-1.588-1.3028-3.4552-1.666-5.6116c-0.3632-2.152-0.5428-4.4512-0.5428-6.9004   C95.4572,125.4142,95.6368,123.1154,96,120.9574z" fill="#FFE9E1"/></g></svg>