<?xml version="1.0" ?><svg enable-background="new 0 0 192 192.0022" id="zip" version="1.1" viewBox="0 0 192 192.0022" xml:space="preserve" xmlns="http://www.w3.org/2000/svg" xmlns:xlink="http://www.w3.org/1999/xlink"><g><path d="M188,84.0022c1.1036,0,2.1036,0.4472,2.826,1.172L168,62.3458v21.6564H188z" fill="#4A8F9E"/><path d="M191.7364,86.6994c0.1172,0.334,0.1892,0.6876,0.2128,1.0568   C191.9276,87.393,191.8556,87.0414,191.7364,86.6994z" fill="#4A8F9E"/><path d="M190.832,85.1818c0.3244,0.3244,0.5744,0.7188,0.7716,1.1408   C191.41,85.9086,191.166,85.5158,190.832,85.1818z" fill="#4A8F9E"/><path d="M0.3964,86.3226c0.1972-0.422,0.4472-0.8164,0.7716-1.1408C0.834,85.5158,0.59,85.9086,0.3964,86.3226z" fill="#4A8F9E"/><path d="M0.0508,87.7562c0.0236-0.3692,0.0956-0.7228,0.2128-1.0568C0.1444,87.0414,0.0724,87.393,0.0508,87.7562z" fill="#4A8F9E"/><path d="M24,84.0022V62.3458L1.174,85.1742c0.7224-0.7248,1.7224-1.172,2.826-1.172H24z" fill="#4A8F9E"/><path d="M168,84.0022V62.3458v-24l-1.172-1.1716c1.1448,1.1444,1.4864,2.8632,0.8672,4.3592   c-0.6192,1.494-2.078,2.4688-3.6952,2.4688h-36c-2.2088,0-4-1.7912-4-4v-36c0-1.6172,0.9748-3.076,2.4688-3.6952   c1.494-0.6232,3.2128-0.2796,4.3592,0.8672l-1.1716-1.172H24v62.3436v21.6564H168z" fill="#C6DFED"/><rect fill="#C6DFED" height="24" width="144" x="24" y="168.0022"/><path d="M120.3436,110.725h-4.6228v15.3008h4.6228c1.9044,0,3.4688-0.668,4.6916-2.004   c1.2244-1.34,1.836-3.2988,1.836-5.8828c0-2.586-0.6116-4.4648-1.836-5.6448C123.8124,111.3146,122.248,110.725,120.3436,110.725z" fill="#FCC24C"/><path d="M191.9492,87.7562c-0.0236-0.3692-0.0956-0.7228-0.2128-1.0568c-0.0448-0.1288-0.0764-0.2556-0.1328-0.3768   c-0.1972-0.422-0.4472-0.8164-0.7716-1.1408c-0.002-0.004-0.002-0.0076-0.002-0.0076c-0.7264-0.7248-1.7264-1.172-2.83-1.172h-20   H24H4c-1.1036,0-2.1036,0.4472-2.826,1.172c0,0-0.004,0.0036-0.006,0.0076c-0.3244,0.3244-0.5744,0.7188-0.7716,1.1408   c-0.0564,0.1212-0.088,0.248-0.1328,0.3768c-0.1172,0.334-0.1892,0.6876-0.2128,1.0568C0.0448,87.8422,0,87.9142,0,88.0022v76   c0,2.2088,1.7912,4,4,4h20h144h20c2.2088,0,4-1.7912,4-4v-76C192,87.9142,191.9572,87.8422,191.9492,87.7562z M58.328,111.0666   v-7.2088h24.0724v6.5956l-16.1172,34.2052h16.1172v7.3436h-25.16v-6.7324l16.1836-34.2032H58.328z M89.744,152.0022v-48.1444   h8.1604v48.1444H89.744z M133.502,124.4942c-0.748,1.84-1.7344,3.3672-2.9572,4.592c-1.2244,1.2244-2.6308,2.1308-4.2168,2.7208   c-1.586,0.586-3.2188,0.8828-4.8964,0.8828h-5.7108v19.3124h-8.0256v-48.1444h13.3284c1.5408,0,3.1288,0.2284,4.7596,0.6796   c1.6328,0.4532,3.0956,1.2364,4.3868,2.3436c1.2908,1.1132,2.3572,2.5764,3.1952,4.3888c0.84,1.8124,1.26,4.08,1.26,6.8008   C134.6252,120.5178,134.25,122.6586,133.502,124.4942z" fill="#FCC24C"/><path d="M126.4688,0.307C124.9748,0.9262,124,2.385,124,4.0022v36c0,2.2088,1.7912,4,4,4h36   c1.6172,0,3.076-0.9748,3.6952-2.4688c0.6192-1.496,0.2776-3.2148-0.8672-4.3592l-36-36   C129.6816,0.0274,127.9628-0.3162,126.4688,0.307z" fill="#A9C7D8"/><rect fill="#4A8F9E" height="48.1444" width="8.1604" x="89.744" y="103.8578"/><path d="M130.17,106.881c-1.2912-1.1072-2.754-1.8904-4.3868-2.3436c-1.6308-0.4512-3.2188-0.6796-4.7596-0.6796   h-13.3284v48.1444h8.0256v-19.3124h5.7108c1.6776,0,3.3104-0.2968,4.8964-0.8828c1.586-0.59,2.9924-1.4964,4.2168-2.7208   c1.2228-1.2248,2.2092-2.752,2.9572-4.592c0.748-1.8356,1.1232-3.9764,1.1232-6.4236c0-2.7208-0.42-4.9884-1.26-6.8008   C132.5272,109.4574,131.4608,107.9942,130.17,106.881z M125.0352,124.0218c-1.2228,1.336-2.7872,2.004-4.6916,2.004h-4.6228   V110.725h4.6228c1.9044,0,3.4688,0.5896,4.6916,1.7692c1.2244,1.18,1.836,3.0588,1.836,5.6448   C126.8712,120.723,126.2596,122.6818,125.0352,124.0218z" fill="#4A8F9E"/><polygon fill="#4A8F9E" points="57.2404,152.0022 82.4004,152.0022 82.4004,144.6586 66.2832,144.6586 82.4004,110.4534    82.4004,103.8578 58.328,103.8578 58.328,111.0666 73.424,111.0666 57.2404,145.2698  "/></g></svg>