<?xml version="1.0" ?><svg enable-background="new 0 0 192 192.0031" id="jpg" version="1.1" viewBox="0 0 192 192.0031" xml:space="preserve" xmlns="http://www.w3.org/2000/svg" xmlns:xlink="http://www.w3.org/1999/xlink"><g><path d="M190.832,85.1827c0.3244,0.3244,0.5744,0.7188,0.7716,1.1408   C191.41,85.9095,191.166,85.5167,190.832,85.1827z" fill="#4A8F9E"/><path d="M188,84.0031c1.1036,0,2.1036,0.4472,2.826,1.172L168,62.3467v21.6564H188z" fill="#4A8F9E"/><path d="M191.7364,86.6983c0.1172,0.336,0.1892,0.6896,0.2128,1.0588   C191.9276,87.3939,191.8556,87.0423,191.7364,86.6983z" fill="#4A8F9E"/><path d="M0.0508,87.7571c0.0236-0.3692,0.0956-0.7228,0.2128-1.0588C0.1444,87.0423,0.0724,87.3939,0.0508,87.7571z   " fill="#4A8F9E"/><path d="M0.3964,86.3235c0.1972-0.422,0.4472-0.8164,0.7716-1.1408C0.834,85.5167,0.59,85.9095,0.3964,86.3235z" fill="#4A8F9E"/><path d="M24,84.0031V62.3467L1.174,85.1751c0.7224-0.7248,1.7224-1.172,2.826-1.172H24z" fill="#4A8F9E"/><path d="M168,84.0031V62.3467v-24l-1.172-1.1716c1.1448,1.1444,1.4864,2.8632,0.8672,4.3592   c-0.6192,1.494-2.078,2.4688-3.6952,2.4688h-36c-2.2088,0-4-1.7912-4-4v-36c0-1.6172,0.9748-3.076,2.4688-3.6952   c1.494-0.6252,3.2128-0.2796,4.3592,0.8672l-1.1716-1.172H24v62.3436v21.6564H168z" fill="#C6DFED"/><rect fill="#C6DFED" height="24" width="144" x="24" y="168.0031"/><path d="M96.8848,124.0187c1.2228-1.336,1.836-3.2948,1.836-5.8788c0-2.586-0.6132-4.4648-1.836-5.6448   c-1.2248-1.1796-2.7892-1.7692-4.6932-1.7692h-4.6232v15.3008h4.6232C94.0956,126.0267,95.66,125.3587,96.8848,124.0187z" fill="#FE8657"/><path d="M191.9492,87.7571c-0.0236-0.3692-0.0956-0.7228-0.2128-1.0588c-0.0448-0.1268-0.0764-0.2536-0.1328-0.3748   c-0.1972-0.422-0.4472-0.8164-0.7716-1.1408c-0.002-0.004-0.002-0.0076-0.002-0.0076c-0.7264-0.7248-1.7264-1.172-2.83-1.172h-20   H24H4c-1.1036,0-2.1036,0.4472-2.826,1.172c0,0-0.004,0.0036-0.006,0.0076c-0.3244,0.3244-0.5744,0.7188-0.7716,1.1408   c-0.0564,0.1212-0.088,0.248-0.1328,0.3748c-0.1172,0.336-0.1892,0.6896-0.2128,1.0588C0.0448,87.8431,0,87.9151,0,88.0031v76   c0,2.2088,1.7912,4,4,4h20h144h20c2.2088,0,4-1.7912,4-4v-76C192,87.9151,191.9552,87.8431,191.9492,87.7571z M45.748,143.8431   l6.8008-2.924c0.2716,1.1796,0.8048,2.256,1.5976,3.2284c0.7932,0.9768,1.8476,1.4632,3.162,1.4632   c1.8576,0,3.1056-0.7484,3.7404-2.2444S62,139.8311,62,137.2471v-33.3884h8.0916v34.1364c0,4.8048-1.0076,8.5432-3.0252,11.2188   c-2.0176,2.676-5.1796,4.012-9.4864,4.012c-3.1288,0-5.7128-0.848-7.752-2.5508C47.7872,148.9759,46.4276,146.6983,45.748,143.8431   z M79.5448,152.0031v-48.1444h13.3264c1.5428,0,3.1288,0.2284,4.7616,0.6796c1.6308,0.4532,3.0936,1.2364,4.3848,2.3436   c1.2928,1.1132,2.3576,2.5764,3.1972,4.3888c0.838,1.8124,1.258,4.08,1.258,6.8008c0,2.4472-0.3752,4.588-1.1232,6.4236   c-0.748,1.84-1.7344,3.3672-2.9572,4.592c-1.2244,1.2244-2.6288,2.1308-4.2168,2.7208c-1.5856,0.586-3.2184,0.8828-4.8964,0.8828   h-5.7108v19.3124H79.5448z M141.832,149.0791c-1.4512,1.18-3.1856,2.1312-5.2012,2.8556c-2.0176,0.7248-4.4316,1.088-7.242,1.088   c-2.8576,0-5.418-0.5996-7.6856-1.8048c-2.2656-1.1992-4.1816-2.91-5.746-5.1308c-1.5628-2.2208-2.764-4.8732-3.6036-7.9552   c-0.838-3.086-1.258-6.504-1.258-10.2696c0-3.6716,0.4084-7.0468,1.2248-10.1308c0.8164-3.084,1.994-5.744,3.5352-7.992   c1.5408-2.2444,3.4004-3.9884,5.576-5.2364c2.176-1.244,4.6252-1.8672,7.3436-1.8672c2.8576,0,5.3284,0.508,7.4124,1.5272   c2.086,1.0236,3.7852,2.4592,5.0996,4.3204l-4.6916,5.7112c-1.8124-2.6272-4.2616-3.9436-7.3436-3.9436   c-1.6776,0-3.1388,0.4748-4.3868,1.4276c-1.246,0.9532-2.2772,2.2328-3.0936,3.84c-0.8164,1.6132-1.428,3.4804-1.836,5.6132   c-0.4084,2.1308-0.6112,4.3752-0.6112,6.7304c0,2.4492,0.2028,4.7484,0.6112,6.9004c0.408,2.1564,1.0196,4.0372,1.836,5.6448   c0.8164,1.6112,1.8476,2.8672,3.0936,3.7752c1.248,0.9084,2.7324,1.3596,4.4552,1.3596c1.088,0,2.074-0.1232,2.9568-0.3752   c0.8848-0.248,1.5996-0.576,2.1428-0.9844v-12.4432h-5.8476v-7.0724h13.2596V149.0791z" fill="#FE8657"/><path d="M126.4688,0.3079C124.9748,0.9271,124,2.3859,124,4.0031v36c0,2.2088,1.7912,4,4,4h36   c1.6172,0,3.076-0.9748,3.6952-2.4688c0.6192-1.496,0.2776-3.2148-0.8672-4.3592l-36-36   C129.6816,0.0283,127.9628-0.3173,126.4688,0.3079z" fill="#A9C7D8"/><path d="M57.58,153.2259c4.3068,0,7.4688-1.336,9.4864-4.012c2.0176-2.6756,3.0252-6.414,3.0252-11.2188v-34.1364   H62v33.3884c0,2.584-0.3164,4.6232-0.9512,6.1192s-1.8828,2.2444-3.7404,2.2444c-1.3144,0-2.3688-0.4864-3.162-1.4632   c-0.7928-0.9724-1.326-2.0488-1.5976-3.2284l-6.8008,2.924c0.6796,2.8552,2.0392,5.1328,4.08,6.832   C51.8672,152.3779,54.4512,153.2259,57.58,153.2259z" fill="#FFE9E1"/><path d="M128.5724,131.7395h5.8476v12.4432c-0.5432,0.4084-1.258,0.7364-2.1428,0.9844   c-0.8828,0.252-1.8688,0.3752-2.9568,0.3752c-1.7228,0-3.2072-0.4512-4.4552-1.3596c-1.246-0.908-2.2772-2.164-3.0936-3.7752   c-0.8164-1.6076-1.428-3.4884-1.836-5.6448c-0.4084-2.152-0.6112-4.4512-0.6112-6.9004c0-2.3552,0.2028-4.5996,0.6112-6.7304   c0.408-2.1328,1.0196-4,1.836-5.6132c0.8164-1.6072,1.8476-2.8868,3.0936-3.84c1.248-0.9528,2.7092-1.4276,4.3868-1.4276   c3.082,0,5.5312,1.3164,7.3436,3.9436l4.6916-5.7112c-1.3144-1.8612-3.0136-3.2968-5.0996-4.3204   c-2.084-1.0192-4.5548-1.5272-7.4124-1.5272c-2.7184,0-5.1676,0.6232-7.3436,1.8672c-2.1756,1.248-4.0352,2.992-5.576,5.2364   c-1.5412,2.248-2.7188,4.908-3.5352,7.992c-0.8164,3.084-1.2248,6.4592-1.2248,10.1308c0,3.7656,0.42,7.1836,1.258,10.2696   c0.8396,3.082,2.0408,5.7344,3.6036,7.9552c1.5644,2.2208,3.4804,3.9316,5.746,5.1308c2.2676,1.2052,4.828,1.8048,7.6856,1.8048   c2.8104,0,5.2244-0.3632,7.242-1.088c2.0156-0.7244,3.75-1.6756,5.2012-2.8556v-24.412h-13.2596V131.7395z" fill="#FFE9E1"/><path d="M93.2792,132.6907c1.678,0,3.3108-0.2968,4.8964-0.8828c1.588-0.59,2.9924-1.4964,4.2168-2.7208   c1.2228-1.2248,2.2092-2.752,2.9572-4.592c0.748-1.8356,1.1232-3.9764,1.1232-6.4236c0-2.7208-0.42-4.9884-1.258-6.8008   c-0.8396-1.8124-1.9044-3.2756-3.1972-4.3888c-1.2912-1.1072-2.754-1.8904-4.3848-2.3436   c-1.6328-0.4512-3.2188-0.6796-4.7616-0.6796H79.5448v48.1444h8.0236v-19.3124H93.2792z M87.5684,110.7259h4.6232   c1.904,0,3.4684,0.5896,4.6932,1.7692c1.2228,1.18,1.836,3.0588,1.836,5.6448c0,2.584-0.6132,4.5428-1.836,5.8788   c-1.2248,1.34-2.7892,2.008-4.6932,2.008h-4.6232V110.7259z" fill="#FFE9E1"/></g></svg>