<?xml version="1.0" ?><svg enable-background="new 0 0 192 192" id="svg" version="1.1" viewBox="0 0 192 192" xml:space="preserve" xmlns="http://www.w3.org/2000/svg" xmlns:xlink="http://www.w3.org/1999/xlink"><g><path d="M0.0467,87.758c0.0236-0.3712,0.0976-0.7268,0.2148-1.0628C0.1407,87.0392,0.0703,87.3908,0.0467,87.758z" fill="#4A8F9E"/><path d="M0.3983,86.3204c0.1952-0.418,0.4417-0.8068,0.7617-1.1308C0.828,85.5236,0.5899,85.91,0.3983,86.3204z" fill="#4A8F9E"/><path d="M24,84V62.3436L1.1755,85.168C1.8983,84.4472,2.8943,84,4,84H24z" fill="#4A8F9E"/><path d="M190.84,85.1896c0.32,0.324,0.5663,0.7128,0.7615,1.1308C191.4139,85.91,191.172,85.5236,190.84,85.1896z" fill="#4A8F9E"/><path d="M188,84c1.1015,0,2.1015,0.4472,2.8243,1.168L168,62.3436V84H188z" fill="#4A8F9E"/><path d="M191.7383,86.6952c0.1172,0.336,0.1912,0.6916,0.2148,1.0628   C191.9295,87.3924,191.8591,87.0412,191.7383,86.6952z" fill="#4A8F9E"/><path d="M168,84V62.3436v-24l-1.172-1.1716c1.1447,1.1444,1.4883,2.8632,0.8671,4.3592   C167.0779,43.0252,165.6171,44,164,44h-36c-2.2109,0-4-1.7912-4-4V4c0-1.6172,0.9727-3.076,2.4687-3.6952   c1.5-0.6152,3.2148-0.2776,4.3593,0.8672L129.6563,0H24v62.3436V84H168z" fill="#C6DFED"/><rect fill="#C6DFED" height="24" width="144" x="24" y="168"/><path d="M191.9531,87.758c-0.0236-0.3712-0.0976-0.7268-0.2148-1.0628c-0.0468-0.1288-0.0783-0.2536-0.1368-0.3748   c-0.1952-0.418-0.4415-0.8068-0.7615-1.1308c-0.004-0.006-0.008-0.014-0.0157-0.0216C190.1015,84.4472,189.1015,84,188,84h-20H24H4   c-1.1057,0-2.1017,0.4472-2.8245,1.168C1.168,85.1756,1.164,85.1836,1.16,85.1896c-0.32,0.324-0.5665,0.7128-0.7617,1.1308   c-0.0583,0.1212-0.09,0.246-0.1368,0.3748c-0.1172,0.336-0.1912,0.6916-0.2148,1.0628C0.0427,87.8436,0,87.914,0,88v76   c0,2.2088,1.7891,4,4,4h20h144h20c2.2107,0,4-1.7912,4-4V88C192,87.914,191.9571,87.8436,191.9531,87.758z M63.4607,134.1172   c-1.3592-1.2264-3.082-2.3576-5.168-3.4024c-1.3124-0.6348-2.5508-1.336-3.7028-2.1072c-1.1564-0.7716-2.176-1.6876-3.0628-2.756   c-0.8828-1.0644-1.5856-2.3088-2.1052-3.7384c-0.5236-1.4296-0.7852-3.1368-0.7852-5.1328c0-2.492,0.3984-4.6368,1.1913-6.4296   c0.7931-1.7872,1.836-3.2716,3.1291-4.4512c1.2928-1.1796,2.7536-2.0528,4.3864-2.6192c1.6292-0.5644,3.2852-0.8476,4.9612-0.8476   c2.4492,0,4.6368,0.3964,6.5624,1.1876c1.9256,0.7968,3.5468,1.9628,4.8632,3.504l-4.4884,5.8476   c-1.7692-2.1328-3.988-3.1956-6.664-3.1956c-0.7696,0-1.5196,0.1232-2.2419,0.3712c-0.7269,0.252-1.3829,0.6484-1.9729,1.1916   c-0.5896,0.5448-1.0548,1.248-1.3944,2.1092c-0.34,0.8596-0.5116,1.8808-0.5116,3.0588c0,2.0408,0.6132,3.6172,1.8356,4.7244   c1.2268,1.1112,2.836,2.168,4.8284,3.164c1.1796,0.588,2.3789,1.2676,3.6052,2.0412c1.2228,0.7716,2.336,1.6992,3.332,2.7872   c0.9964,1.0896,1.8128,2.3808,2.4497,3.8768c0.6327,1.496,0.9491,3.2616,0.9491,5.3028c0,2.3572-0.3712,4.4432-1.1211,6.2556   c-0.7461,1.8128-1.7461,3.344-2.9925,4.59c-1.246,1.248-2.7068,2.1876-4.3864,2.8224c-1.676,0.6368-3.4456,0.9512-5.3048,0.9512   c-2.672,0-5.1443-0.5196-7.4104-1.5628c-2.2656-1.0428-4.0819-2.3552-5.4412-3.9452l4.422-5.9844   C52.2655,143,53.5235,144,54.996,144.7228c1.4727,0.7264,2.9803,1.0896,4.5235,1.0896c1.7224,0,3.1485-0.5896,4.2812-1.7696   c1.1328-1.1796,1.6993-2.832,1.6993-4.9628C65.5,136.996,64.8203,135.34,63.4607,134.1172z M75.3631,103.8556h9.1096   l8.0233,38.6248h0.2071l8.0232-38.6248h8.7032L97.4607,152H87.1251L75.3631,103.8556z M142.7499,149.076   c-1.4492,1.18-3.1836,2.1312-5.2032,2.8556c-2.0156,0.7248-4.4296,1.088-7.242,1.088c-2.8556,0-5.414-0.5996-7.6836-1.8048   c-2.2656-1.1992-4.1796-2.91-5.746-5.1308c-1.5628-2.2208-2.766-4.8732-3.6016-7.9552c-0.84-3.086-1.258-6.5056-1.258-10.2696   c0-3.6716,0.4064-7.0468,1.2228-10.1328c0.8164-3.082,1.996-5.742,3.5352-7.99c1.5428-2.2444,3.3985-3.9884,5.578-5.2364   c2.1756-1.244,4.6212-1.8672,7.3436-1.8672c2.8556,0,5.3244,0.508,7.4104,1.5272c2.086,1.0236,3.7852,2.4592,5.1016,4.3204   l-4.6916,5.7112c-1.8164-2.6292-4.2616-3.9436-7.3435-3.9436c-1.68,0-3.1409,0.4748-4.3869,1.4276   c-1.246,0.9532-2.2771,2.2328-3.0936,3.84c-0.8164,1.6132-1.43,3.4804-1.836,5.6132c-0.4104,2.1308-0.6136,4.3752-0.6136,6.7304   c0,2.4492,0.2032,4.7484,0.6136,6.9004c0.406,2.1564,1.0196,4.0372,1.836,5.6448c0.8165,1.6112,1.8476,2.8672,3.0936,3.7752   c1.246,0.9084,2.7304,1.3596,4.4532,1.3596c1.086,0,2.074-0.1232,2.9568-0.3752c0.8828-0.248,1.5976-0.576,2.1409-0.9844v-12.4432   h-5.8477v-7.0724h13.2616V149.076z" fill="#8F89F5"/><path d="M126.4687,0.3048C124.9727,0.924,124,2.3828,124,4v36c0,2.2088,1.7891,4,4,4h36   c1.6171,0,3.0779-0.9748,3.6951-2.4688c0.6212-1.496,0.2776-3.2148-0.8671-4.3592l-36-36   C129.6835,0.0272,127.9687-0.3104,126.4687,0.3048z" fill="#A9C7D8"/><polygon fill="#FFE9E1" points="109.4295,103.8556 100.7263,103.8556 92.7031,142.4804 92.496,142.4804 84.4727,103.8556    75.3631,103.8556 87.1251,152 97.4607,152  "/><path d="M59.5195,145.8124c-1.5432,0-3.0508-0.3632-4.5235-1.0896C53.5235,144,52.2655,143,51.2227,141.7304   l-4.422,5.9844c1.3593,1.59,3.1756,2.9024,5.4412,3.9452c2.2661,1.0432,4.7384,1.5628,7.4104,1.5628   c1.8592,0,3.6288-0.3144,5.3048-0.9512c1.6796-0.6348,3.1404-1.5744,4.3864-2.8224c1.2464-1.246,2.2464-2.7772,2.9925-4.59   c0.7499-1.8124,1.1211-3.8984,1.1211-6.2556c0-2.0412-0.3164-3.8068-0.9491-5.3028c-0.6369-1.496-1.4533-2.7872-2.4497-3.8768   c-0.996-1.088-2.1092-2.0156-3.332-2.7872c-1.2263-0.7736-2.4256-1.4532-3.6052-2.0412c-1.9924-0.996-3.6016-2.0528-4.8284-3.164   c-1.2224-1.1072-1.8356-2.6836-1.8356-4.7244c0-1.178,0.1716-2.1992,0.5116-3.0588c0.3396-0.8612,0.8048-1.5644,1.3944-2.1092   c0.59-0.5432,1.246-0.9396,1.9729-1.1916c0.7223-0.248,1.4723-0.3712,2.2419-0.3712c2.676,0,4.8948,1.0628,6.664,3.1956   l4.4884-5.8476c-1.3164-1.5412-2.9376-2.7072-4.8632-3.504c-1.9256-0.7912-4.1132-1.1876-6.5624-1.1876   c-1.676,0-3.332,0.2832-4.9612,0.8476c-1.6328,0.5664-3.0936,1.4396-4.3864,2.6192c-1.2931,1.1796-2.336,2.664-3.1291,4.4512   c-0.7929,1.7928-1.1913,3.9376-1.1913,6.4296c0,1.996,0.2616,3.7032,0.7852,5.1328c0.5196,1.4296,1.2224,2.674,2.1052,3.7384   c0.8868,1.0684,1.9064,1.9844,3.0628,2.756c1.152,0.7712,2.3904,1.4724,3.7028,2.1072c2.086,1.0448,3.8088,2.176,5.168,3.4024   C64.8203,135.34,65.5,136.996,65.5,139.08c0,2.1308-0.5665,3.7832-1.6993,4.9628   C62.668,145.2228,61.2419,145.8124,59.5195,145.8124z" fill="#FFE9E1"/><path d="M129.4883,131.7364h5.8477v12.4432c-0.5433,0.4084-1.2581,0.7364-2.1409,0.9844   c-0.8828,0.252-1.8708,0.3752-2.9568,0.3752c-1.7228,0-3.2072-0.4512-4.4532-1.3596c-1.246-0.908-2.2771-2.164-3.0936-3.7752   c-0.8164-1.6076-1.43-3.4884-1.836-5.6448c-0.4104-2.152-0.6136-4.4512-0.6136-6.9004c0-2.3552,0.2032-4.5996,0.6136-6.7304   c0.406-2.1328,1.0196-4,1.836-5.6132c0.8165-1.6072,1.8476-2.8868,3.0936-3.84c1.246-0.9528,2.7069-1.4276,4.3869-1.4276   c3.0819,0,5.5271,1.3144,7.3435,3.9436l4.6916-5.7112c-1.3164-1.8612-3.0156-3.2968-5.1016-4.3204   c-2.086-1.0192-4.5548-1.5272-7.4104-1.5272c-2.7224,0-5.168,0.6232-7.3436,1.8672c-2.1795,1.248-4.0352,2.992-5.578,5.2364   c-1.5392,2.248-2.7188,4.908-3.5352,7.99c-0.8164,3.086-1.2228,6.4612-1.2228,10.1328c0,3.764,0.418,7.1836,1.258,10.2696   c0.8356,3.082,2.0388,5.7344,3.6016,7.9552c1.5664,2.2208,3.4804,3.9316,5.746,5.1308c2.2696,1.2052,4.828,1.8048,7.6836,1.8048   c2.8124,0,5.2264-0.3632,7.242-1.088c2.0196-0.7244,3.754-1.6756,5.2032-2.8556v-24.412h-13.2616V131.7364z" fill="#FFE9E1"/></g></svg>