<?xml version="1.0" ?><svg enable-background="new 0 0 192 192" id="cdr" version="1.1" viewBox="0 0 192 192" xml:space="preserve" xmlns="http://www.w3.org/2000/svg" xmlns:xlink="http://www.w3.org/1999/xlink"><g><path d="M0.0467,87.758c0.0236-0.3712,0.0976-0.7268,0.2148-1.0628C0.1407,87.0392,0.0703,87.3908,0.0467,87.758z" fill="#4A8F9E"/><path d="M24,84V62.3436L1.1755,85.168C1.8983,84.4472,2.8943,84,4,84H24z" fill="#4A8F9E"/><path d="M0.3983,86.3204c0.1952-0.418,0.4417-0.8068,0.7617-1.1308C0.828,85.5236,0.5899,85.91,0.3983,86.3204z" fill="#4A8F9E"/><path d="M191.7383,86.6952c0.1172,0.336,0.1912,0.6916,0.2148,1.0628   C191.9295,87.3924,191.8591,87.0412,191.7383,86.6952z" fill="#4A8F9E"/><path d="M190.84,85.1896c0.32,0.324,0.5663,0.7128,0.7615,1.1308C191.4139,85.91,191.172,85.5236,190.84,85.1896z" fill="#4A8F9E"/><path d="M188,84c1.1015,0,2.1015,0.4472,2.8243,1.168L168,62.3436V84H188z" fill="#4A8F9E"/><path d="M168,84V62.3436v-24l-1.172-1.1716c1.1447,1.1444,1.4883,2.8632,0.8671,4.3592   C167.0779,43.0252,165.6171,44,164,44h-36c-2.2109,0-4-1.7912-4-4V4c0-1.6172,0.9727-3.076,2.4687-3.6952   c1.5-0.6152,3.2148-0.2776,4.3593,0.8672L129.6563,0H24v62.3436V84H168z" fill="#C6DFED"/><rect fill="#C6DFED" height="24" width="144" x="24" y="168"/><path d="M136.836,112.1524c-0.6605-0.5448-1.3945-0.9296-2.2109-1.1564c-0.8168-0.2284-1.6331-0.3396-2.4496-0.3396   h-4.6248v14.824h4.6248c1.9965,0,3.6368-0.6248,4.93-1.8728c1.2928-1.2444,1.9372-3.1156,1.9372-5.6076   c0-1.4532-0.2027-2.6524-0.6092-3.6056C138.0235,113.4452,137.492,112.6972,136.836,112.1524z" fill="#9AB040"/><path d="M191.9531,87.758c-0.0236-0.3712-0.0976-0.7268-0.2148-1.0628c-0.0468-0.1288-0.0783-0.2536-0.1368-0.3748   c-0.1952-0.418-0.4415-0.8068-0.7615-1.1308c-0.004-0.006-0.008-0.014-0.0157-0.0216C190.1015,84.4472,189.1015,84,188,84h-20H24H4   c-1.1057,0-2.1017,0.4472-2.8245,1.168C1.168,85.1756,1.164,85.1836,1.16,85.1896c-0.32,0.324-0.5665,0.7128-0.7617,1.1308   c-0.0583,0.1212-0.09,0.246-0.1368,0.3748c-0.1172,0.336-0.1912,0.6916-0.2148,1.0628C0.0427,87.8436,0,87.914,0,88v76   c0,2.2088,1.7891,4,4,4h20h144h20c2.2107,0,4-1.7912,4-4V88C192,87.914,191.9571,87.8436,191.9531,87.758z M54.1795,134.7596   c0.4104,2.1564,1.0196,4.0236,1.836,5.6116c0.8165,1.5896,1.8476,2.8436,3.0936,3.7732c1.2464,0.9316,2.7112,1.3948,4.3869,1.3948   c1.5859,0,2.9571-0.4064,4.1131-1.2228c1.1564-0.8164,2.1212-1.8124,2.8909-2.992l4.6915,5.5076   c-1.2696,1.9044-2.8908,3.4432-4.8635,4.6232c-1.9689,1.1816-4.4529,1.7676-7.4453,1.7676c-2.7187,0-5.1796-0.6348-7.3747-1.9024   c-2.1997-1.2696-4.0589-3.0236-5.5785-5.2736c-1.5196-2.242-2.6952-4.9024-3.5352-7.9884   c-0.8396-3.082-1.2576-6.4588-1.2576-10.1288c0-3.6736,0.418-7.0624,1.2576-10.17c0.84-3.1032,2.0276-5.7752,3.5704-8.0232   c1.5393-2.2444,3.4104-3.9884,5.6096-5.2364c2.1992-1.244,4.6364-1.8672,7.3084-1.8672c2.7656,0,5.1916,0.508,7.2773,1.5272   c2.0859,1.0236,3.7851,2.4844,5.1015,4.3868l-4.6952,5.7128c-1.8556-2.6756-4.2616-4.0116-7.2072-4.0116   c-1.6328,0-3.0584,0.4628-4.2812,1.3928c-1.2264,0.9296-2.2459,2.1872-3.0624,3.7752c-0.8164,1.588-1.4256,3.4552-1.836,5.6076   c-0.406,2.156-0.6132,4.4568-0.6132,6.906C53.5663,130.332,53.7735,132.6076,54.1795,134.7596z M80.9727,152v-48.1444h12.1052   c6.164,0,10.844,2.1208,14.0392,6.3552c3.1952,4.2404,4.7968,10.168,4.7968,17.7852s-1.6016,13.5196-4.7968,17.7112   C103.9219,149.9044,99.2187,152,93.008,152H80.9727z M139.5899,152l-7.4808-20.5352h-4.5584V152h-7.8867v-48.1444h13.7343   c1.996,0,3.832,0.2616,5.508,0.7812c1.6796,0.5232,3.1172,1.3516,4.32,2.4844c1.1992,1.1308,2.1408,2.5584,2.8204,4.2832   c0.6796,1.7244,1.0196,3.7832,1.0196,6.1872c0,1.8596-0.2383,3.5-0.7108,4.928c-0.4768,1.4316-1.0784,2.6444-1.8048,3.6404   c-0.7227,0.9964-1.5272,1.8008-2.414,2.4104c-0.8828,0.6172-1.754,1.0332-2.6172,1.2616L148.1563,152H139.5899z" fill="#9AB040"/><path d="M100.7615,115.2108c-0.9532-1.4024-2.086-2.4588-3.4024-3.164c-1.3124-0.6992-2.742-1.0508-4.2812-1.0508   h-3.8788v33.8632h3.8788c1.5392,0,2.9688-0.3512,4.2812-1.0544c1.3164-0.7012,2.4492-1.758,3.4024-3.1604   c0.9492-1.404,1.6876-3.16,2.2072-5.2732c0.5233-2.1076,0.7852-4.5628,0.7852-7.3752c0-2.8552-0.2619-5.3476-0.7852-7.4804   C102.4491,118.3828,101.7107,116.6172,100.7615,115.2108z" fill="#9AB040"/><path d="M126.4687,0.3048C124.9727,0.924,124,2.3828,124,4v36c0,2.2088,1.7891,4,4,4h36   c1.6171,0,3.0779-0.9748,3.6951-2.4688c0.6212-1.496,0.2776-3.2148-0.8671-4.3592l-36-36   C129.6835,0.0272,127.9687-0.3104,126.4687,0.3048z" fill="#A9C7D8"/><path d="M107.1171,145.7072c3.1952-4.1916,4.7968-10.094,4.7968-17.7112s-1.6016-13.5448-4.7968-17.7852   c-3.1952-4.2344-7.8752-6.3552-14.0392-6.3552H80.9727V152H93.008C99.2187,152,103.9219,149.9044,107.1171,145.7072z    M102.9687,135.3712c-0.5196,2.1132-1.258,3.8692-2.2072,5.2732c-0.9532,1.4024-2.086,2.4592-3.4024,3.1604   c-1.3124,0.7032-2.742,1.0544-4.2812,1.0544h-3.8788V110.996h3.8788c1.5392,0,2.9688,0.3516,4.2812,1.0508   c1.3164,0.7052,2.4492,1.7616,3.4024,3.164c0.9492,1.4064,1.6876,3.172,2.2072,5.3048c0.5233,2.1328,0.7852,4.6252,0.7852,7.4804   C103.7539,130.8084,103.492,133.2636,102.9687,135.3712z" fill="#FFE9E1"/><path d="M142.1367,128.5704c0.8868-0.6096,1.6913-1.414,2.414-2.4104c0.7264-0.996,1.328-2.2088,1.8048-3.6404   c0.4725-1.428,0.7108-3.0684,0.7108-4.928c0-2.404-0.34-4.4628-1.0196-6.1872c-0.6796-1.7248-1.6212-3.1524-2.8204-4.2832   c-1.2028-1.1328-2.6404-1.9612-4.32-2.4844c-1.676-0.5196-3.512-0.7812-5.508-0.7812H119.664V152h7.8867v-20.5352h4.5584   L139.5899,152h8.5664l-8.6368-22.168C140.3827,129.6036,141.2539,129.1876,142.1367,128.5704z M137.1055,123.6076   c-1.2932,1.248-2.9335,1.8728-4.93,1.8728h-4.6248v-14.824h4.6248c0.8165,0,1.6328,0.1112,2.4496,0.3396   c0.8164,0.2268,1.5504,0.6116,2.2109,1.1564c0.656,0.5448,1.1875,1.2928,1.5975,2.242c0.4065,0.9532,0.6092,2.1524,0.6092,3.6056   C139.0427,120.492,138.3983,122.3632,137.1055,123.6076z" fill="#FFE9E1"/><path d="M56.0155,115.416c0.8165-1.588,1.836-2.8456,3.0624-3.7752c1.2228-0.93,2.6484-1.3928,4.2812-1.3928   c2.9456,0,5.3516,1.336,7.2072,4.0116l4.6952-5.7128c-1.3164-1.9024-3.0156-3.3632-5.1015-4.3868   c-2.0857-1.0192-4.5117-1.5272-7.2773-1.5272c-2.672,0-5.1092,0.6232-7.3084,1.8672c-2.1992,1.248-4.0703,2.992-5.6096,5.2364   c-1.5428,2.248-2.7304,4.92-3.5704,8.0232c-0.8396,3.1076-1.2576,6.4964-1.2576,10.17c0,3.67,0.418,7.0468,1.2576,10.1288   c0.84,3.086,2.0156,5.7464,3.5352,7.9884c1.5196,2.25,3.3788,4.004,5.5785,5.2736c2.1951,1.2676,4.656,1.9024,7.3747,1.9024   c2.9924,0,5.4764-0.586,7.4453-1.7676c1.9727-1.18,3.5939-2.7188,4.8635-4.6232L70.5,141.3244   c-0.7697,1.1796-1.7345,2.1756-2.8909,2.992c-1.156,0.8164-2.5272,1.2228-4.1131,1.2228c-1.6757,0-3.1405-0.4632-4.3869-1.3948   c-1.246-0.9296-2.2771-2.1836-3.0936-3.7732c-0.8164-1.588-1.4256-3.4552-1.836-5.6116c-0.406-2.152-0.6132-4.4276-0.6132-6.83   c0-2.4492,0.2072-4.75,0.6132-6.906C54.5899,118.8712,55.1991,117.004,56.0155,115.416z" fill="#FFE9E1"/></g></svg>