<?xml version="1.0" ?><svg enable-background="new 0 0 192 192" id="xls" version="1.1" viewBox="0 0 192 192" xml:space="preserve" xmlns="http://www.w3.org/2000/svg" xmlns:xlink="http://www.w3.org/1999/xlink"><g><path d="M190.84,85.1896c0.32,0.324,0.5663,0.7128,0.7615,1.1308C191.4139,85.91,191.172,85.5236,190.84,85.1896z" fill="#4A8F9E"/><path d="M188,84c1.1015,0,2.1015,0.4472,2.8243,1.168L168,62.3436V84H188z" fill="#4A8F9E"/><path d="M191.7383,86.6952c0.1172,0.336,0.1912,0.6916,0.2148,1.0628   C191.9295,87.3924,191.8591,87.0412,191.7383,86.6952z" fill="#4A8F9E"/><path d="M24,84V62.3436L1.1755,85.168C1.8983,84.4472,2.8943,84,4,84H24z" fill="#4A8F9E"/><path d="M0.0467,87.758c0.0236-0.3712,0.0976-0.7268,0.2148-1.0628C0.1407,87.0392,0.0703,87.3908,0.0467,87.758z" fill="#4A8F9E"/><path d="M0.3983,86.3204c0.1952-0.418,0.4417-0.8068,0.7617-1.1308C0.828,85.5236,0.5899,85.91,0.3983,86.3204z" fill="#4A8F9E"/><path d="M168,84V62.3436v-24l-1.172-1.1716c1.1447,1.1444,1.4883,2.8632,0.8671,4.3592   C167.0779,43.0252,165.6171,44,164,44h-36c-2.2109,0-4-1.7912-4-4V4c0-1.6172,0.9727-3.076,2.4687-3.6952   c1.5-0.6132,3.2148-0.2756,4.3593,0.8672L129.6563,0H24v62.3436V84H168z" fill="#C6DFED"/><rect fill="#C6DFED" height="24" width="144" x="24" y="168"/><path d="M191.9531,87.758c-0.0236-0.3712-0.0976-0.7268-0.2148-1.0628c-0.0468-0.1288-0.0783-0.2536-0.1368-0.3748   c-0.1952-0.418-0.4415-0.8068-0.7615-1.1308c-0.004-0.006-0.008-0.014-0.0157-0.0216C190.1015,84.4472,189.1015,84,188,84h-20H24H4   c-1.1057,0-2.1017,0.4472-2.8245,1.168C1.168,85.1756,1.164,85.1836,1.16,85.1896c-0.32,0.324-0.5665,0.7128-0.7617,1.1308   c-0.0583,0.1212-0.09,0.246-0.1368,0.3748c-0.1172,0.336-0.1912,0.6916-0.2148,1.0628C0.0427,87.8436,0,87.914,0,88v76   c0,2.2088,1.7891,4,4,4h20h144h20c2.2107,0,4-1.7912,4-4V88C192,87.914,191.9571,87.8436,191.9531,87.758z M51.8007,103.8556h8.5   l7.1408,16.5936l7.07-16.5936h8.3636l-10.9456,22.7812L84.0311,152h-8.7696l-8.0272-18.4296L59.1443,152h-8.5l12.0352-25.3632   L51.8007,103.8556z M110.7579,144.4512V152H89.2695v-48.1444h8.2265v40.5956H110.7579z M124.0155,121.4316   c1.2228,1.1112,2.832,2.168,4.828,3.164c1.18,0.588,2.3792,1.2676,3.6056,2.0412c1.2229,0.7716,2.332,1.6992,3.332,2.7872   c0.996,1.0896,1.8124,2.3808,2.4452,3.8768c0.6368,1.496,0.9532,3.2636,0.9532,5.3028c0,2.3572-0.3748,4.4432-1.1212,6.2556   c-0.75,1.8128-1.746,3.344-2.992,4.59c-1.246,1.248-2.7108,2.1876-4.3868,2.8224c-1.6755,0.6368-3.4452,0.9512-5.3044,0.9512   c-2.672,0-5.1448-0.5196-7.4104-1.5628c-2.2696-1.0428-4.082-2.3552-5.4412-3.9452l4.4216-5.9824   c1.0432,1.2676,2.3008,2.2676,3.7736,2.9904c1.4728,0.7264,2.9804,1.0896,4.5196,1.0896c1.7224,0,3.1524-0.5896,4.2852-1.7696   c1.1328-1.1796,1.6992-2.832,1.6992-4.9628c0-2.084-0.68-3.74-2.0392-4.9628c-1.3592-1.2264-3.082-2.3576-5.168-3.4024   c-1.3124-0.6348-2.5508-1.336-3.7072-2.1072c-1.156-0.7716-2.1756-1.6876-3.0584-2.756c-0.8828-1.0644-1.5859-2.3088-2.1092-3.7384   c-0.5196-1.4296-0.7816-3.1368-0.7816-5.1328c0-2.492,0.3988-4.6368,1.1916-6.4296c0.7928-1.7872,1.836-3.2716,3.1288-4.4512   c1.2892-1.1796,2.754-2.0528,4.3828-2.6192c1.6328-0.5644,3.2892-0.8476,4.9648-0.8476c2.4492,0,4.6369,0.3944,6.5628,1.1876   c1.9256,0.7968,3.5468,1.9628,4.8632,3.504l-4.4884,5.8476c-1.7696-2.1328-3.9884-3.1956-6.664-3.1956   c-0.7736,0-1.5196,0.1232-2.246,0.3712c-0.7227,0.252-1.3827,0.6484-1.9688,1.1916c-0.5899,0.5448-1.0548,1.248-1.3944,2.1092   c-0.34,0.8596-0.512,1.8788-0.512,3.0588C122.1795,118.748,122.7927,120.3244,124.0155,121.4316z" fill="#63B473"/><path d="M126.4687,0.3048C124.9727,0.924,124,2.3828,124,4v36c0,2.2088,1.7891,4,4,4h36   c1.6171,0,3.0779-0.9748,3.6951-2.4688c0.6212-1.496,0.2776-3.2148-0.8671-4.3592l-36-36   C129.6835,0.0292,127.9687-0.3084,126.4687,0.3048z" fill="#A9C7D8"/><polygon fill="#FFE9E1" points="89.2695,103.8556 89.2695,152 110.7579,152 110.7579,144.4512 97.496,144.4512 97.496,103.8556     "/><path d="M124.0859,111.5392c0.5861-0.5432,1.2461-0.9396,1.9688-1.1916c0.7264-0.248,1.4724-0.3712,2.246-0.3712   c2.6756,0,4.8944,1.0628,6.664,3.1956l4.4884-5.8476c-1.3164-1.5412-2.9376-2.7072-4.8632-3.504   c-1.9259-0.7932-4.1136-1.1876-6.5628-1.1876c-1.6756,0-3.332,0.2832-4.9648,0.8476c-1.6288,0.5664-3.0936,1.4396-4.3828,2.6192   c-1.2928,1.1796-2.336,2.664-3.1288,4.4512c-0.7928,1.7928-1.1916,3.9376-1.1916,6.4296c0,1.996,0.262,3.7032,0.7816,5.1328   c0.5233,1.4296,1.2264,2.674,2.1092,3.7384c0.8828,1.0684,1.9024,1.9844,3.0584,2.756c1.1564,0.7712,2.3948,1.4724,3.7072,2.1072   c2.086,1.0448,3.8088,2.176,5.168,3.4024c1.3592,1.2228,2.0392,2.8788,2.0392,4.9628c0,2.1308-0.5664,3.7832-1.6992,4.9628   c-1.1328,1.18-2.5628,1.7696-4.2852,1.7696c-1.5392,0-3.0468-0.3632-4.5196-1.0896c-1.4728-0.7228-2.7304-1.7228-3.7736-2.9904   l-4.4216,5.9824c1.3592,1.59,3.1716,2.9024,5.4412,3.9452c2.2656,1.0432,4.7384,1.5628,7.4104,1.5628   c1.8592,0,3.6289-0.3144,5.3044-0.9512c1.676-0.6348,3.1408-1.5744,4.3868-2.8224c1.246-1.246,2.242-2.7772,2.992-4.59   c0.7464-1.8124,1.1212-3.8984,1.1212-6.2556c0-2.0392-0.3164-3.8068-0.9532-5.3028c-0.6328-1.496-1.4492-2.7872-2.4452-3.8768   c-1-1.088-2.1091-2.0156-3.332-2.7872c-1.2264-0.7736-2.4256-1.4532-3.6056-2.0412c-1.996-0.996-3.6052-2.0528-4.828-3.164   c-1.2228-1.1072-1.836-2.6836-1.836-4.7244c0-1.18,0.172-2.1992,0.512-3.0588C123.0311,112.7872,123.496,112.084,124.0859,111.5392   z" fill="#FFE9E1"/><polygon fill="#FFE9E1" points="59.1443,152 67.2343,133.5704 75.2615,152 84.0311,152 71.9295,126.6368 82.8751,103.8556    74.5115,103.8556 67.4415,120.4492 60.3007,103.8556 51.8007,103.8556 62.6795,126.6368 50.6443,152  "/></g></svg>