<?xml version="1.0" ?><svg enable-background="new 0 0 156 212.0052" id="registered" version="1.1" viewBox="0 0 156 212.0052" xml:space="preserve" xmlns="http://www.w3.org/2000/svg" xmlns:xlink="http://www.w3.org/1999/xlink"><g><path d="M154.826,40.302L115.6504,1.1732c-0.75-0.746-1.7656-1.168-2.826-1.168H4c-2.2088,0-4,1.7892-4,4v204   c0,2.2108,1.7912,4,4,4h148c2.2088,0,4-1.7892,4-4V43.134C156,42.0716,155.578,41.056,154.826,40.302z M78,172.0052   c-29.7752,0-54-24.2228-54-54s24.2248-54,54-54s54,24.2228,54,54S107.7752,172.0052,78,172.0052z M155.6952,45.5364   c-0.6192,1.496-2.078,2.4688-3.6952,2.4688h-40c-2.2088,0-4-1.7892-4-4v-40c0-1.6172,0.9748-3.078,2.4688-3.6952   c1.498-0.6292,3.2108-0.2812,4.3592,0.8672l40,40C155.9728,42.3216,156.3144,44.0404,155.6952,45.5364z" fill="#D4D4E2"/><path d="M78,64.0052c-29.7752,0-54,24.2228-54,54s24.2248,54,54,54s54-24.2228,54-54S107.7752,64.0052,78,64.0052z    M78,164.0052c-25.3652,0-46-20.6368-46-46s20.6348-46,46-46s46,20.6368,46,46S103.3652,164.0052,78,164.0052z" fill="#3BABB7"/><path d="M78,72.0052c-25.3652,0-46,20.6368-46,46s20.6348,46,46,46s46-20.6368,46-46S103.3652,72.0052,78,72.0052z    M94.504,144.0052l-6.8204-10.7228c-1.992-3.0936-3.6328-5.4608-4.922-7.1016c-1.2888-1.6404-2.4432-2.7888-3.4628-3.4452   c-1.0196-0.656-2.0568-1.1132-3.1112-1.3712c-0.7736-0.164-2.0392-0.246-3.7968-0.246h-7.9104v22.8868H57.66V92.466h22.8516   c4.594,0,8.086,0.4648,10.4768,1.3908c2.3904,0.9256,4.3008,2.5584,5.7304,4.9024c1.4296,2.3436,2.1444,4.9336,2.1444,7.7696   c0,3.656-1.1836,6.738-3.5508,9.246c-2.3672,2.5076-6.0232,4.1016-10.9688,4.7812c1.8048,0.8672,3.176,1.7228,4.1136,2.5664   c1.992,1.828,3.8788,4.1132,5.66,6.8556l8.9648,14.0272H94.504z" fill="#DBEEF7"/><path d="M90.4608,111.1536c0.9144-1.418,1.3712-2.9608,1.3712-4.6248c0-2.4376-0.8848-4.4416-2.6544-6.012   c-1.7692-1.57-4.5644-2.3552-8.3848-2.3552H64.4804v17.0508h14.6604c3.1172,0,5.5544-0.3204,7.3124-0.9652   C88.2108,113.6028,89.5468,112.5716,90.4608,111.1536z" fill="#DBEEF7"/><path d="M88.4572,123.1224c-0.9376-0.8436-2.3088-1.6992-4.1136-2.5664c4.9456-0.6796,8.6016-2.2736,10.9688-4.7812   c2.3672-2.508,3.5508-5.59,3.5508-9.246c0-2.836-0.7148-5.426-2.1444-7.7696c-1.4296-2.344-3.34-3.9768-5.7304-4.9024   c-2.3908-0.926-5.8828-1.3908-10.4768-1.3908H57.66v51.5392h6.8204v-22.8868h7.9104c1.7576,0,3.0232,0.082,3.7968,0.246   c1.0544,0.258,2.0916,0.7152,3.1112,1.3712c1.0196,0.6564,2.174,1.8048,3.4628,3.4452c1.2892,1.6408,2.93,4.008,4.922,7.1016   l6.8204,10.7228h8.578l-8.9648-14.0272C92.336,127.2356,90.4492,124.9504,88.4572,123.1224z M79.1408,115.2124H64.4804V98.1616   h16.3124c3.8204,0,6.6156,0.7852,8.3848,2.3552c1.7696,1.5704,2.6544,3.5744,2.6544,6.012c0,1.664-0.4568,3.2068-1.3712,4.6248   c-0.914,1.418-2.25,2.4492-4.0076,3.0936C84.6952,114.892,82.258,115.2124,79.1408,115.2124z" fill="#5DD4DC"/><path d="M114.828,1.1772c-1.1484-1.1484-2.8612-1.4964-4.3592-0.8672C108.9748,0.9272,108,2.388,108,4.0052v40   c0,2.2108,1.7912,4,4,4h40c1.6172,0,3.076-0.9728,3.6952-2.4688c0.6192-1.496,0.2776-3.2148-0.8672-4.3592L114.828,1.1772z" fill="#A9C7D8"/></g></svg>