<?xml version="1.0" ?><svg enable-background="new 0 0 192 192.0022" id="id" version="1.1" viewBox="0 0 192 192.0022" xml:space="preserve" xmlns="http://www.w3.org/2000/svg" xmlns:xlink="http://www.w3.org/1999/xlink"><g><polygon fill="none" points="168,84.0022 178.3435,84.0022 168,73.6586  "/><path d="M0.0507,87.7562c0.0236-0.3692,0.0956-0.7228,0.2128-1.0568C0.1443,87.0414,0.0723,87.393,0.0507,87.7562z" fill="#4A8F9E"/><path d="M0.3963,86.3226c0.1972-0.422,0.4472-0.8164,0.7717-1.1408C0.8339,85.5158,0.5899,85.9086,0.3963,86.3226z" fill="#4A8F9E"/><path d="M24,84.0022V62.3458L1.1739,85.1742c0.7224-0.7248,1.7224-1.172,2.8261-1.172H24z" fill="#4A8F9E"/><path d="M191.7363,86.6994c0.1172,0.334,0.1892,0.6876,0.2128,1.0568   C191.9275,87.393,191.8555,87.0414,191.7363,86.6994z" fill="#4A8F9E"/><path d="M178.3435,84.0022H188c1.1035,0,2.1035,0.4472,2.8259,1.172L168,62.3458v11.3128L178.3435,84.0022z" fill="#4A8F9E"/><path d="M190.832,85.1818c0.3243,0.3244,0.5743,0.7188,0.7715,1.1408   C191.4099,85.9086,191.1659,85.5158,190.832,85.1818z" fill="#4A8F9E"/><path d="M168,84.0022V73.6586V62.3458v-24l-1.172-1.1716c1.1447,1.1444,1.4863,2.8632,0.8671,4.3592   c-0.6191,1.494-2.078,2.4688-3.6951,2.4688h-36c-2.2089,0-4-1.7912-4-4v-36c0-1.6172,0.9747-3.076,2.4687-3.6952   c1.492-0.6232,3.2128-0.2796,4.3593,0.8672l-1.1717-1.172H24v62.3436v21.6564H168z" fill="#C6DFED"/><rect fill="#C6DFED" height="24" width="144" x="24" y="168.0022"/><path d="M191.9491,87.7562c-0.0236-0.3692-0.0956-0.7228-0.2128-1.0568c-0.0448-0.1288-0.0763-0.2556-0.1328-0.3768   c-0.1972-0.422-0.4472-0.8164-0.7715-1.1408c-0.0021-0.004-0.004-0.0076-0.004-0.0076c-0.7245-0.7248-1.7245-1.172-2.828-1.172   h-9.6565H168H24H4c-1.1037,0-2.1037,0.4472-2.8261,1.172c0,0-0.004,0.0036-0.0059,0.0076   c-0.3245,0.3244-0.5745,0.7188-0.7717,1.1408c-0.0563,0.1212-0.088,0.248-0.1328,0.3768c-0.1172,0.334-0.1892,0.6876-0.2128,1.0568   C0.0447,87.8422,0,87.9142,0,88.0022v76c0,2.2088,1.7911,4,4,4h20h144h20c2.2087,0,4-1.7912,4-4v-76   C192,87.9142,191.9571,87.8422,191.9491,87.7562z M72.5743,152.0022v-48.1444h8.16v48.1444H72.5743z M116.672,145.713   c-3.1957,4.1936-7.8985,6.2892-14.1097,6.2892H90.5251v-48.1444h12.1056c6.164,0,10.8456,2.1208,14.0413,6.3552   c3.1951,4.2404,4.7947,10.168,4.7947,17.7852C121.4667,135.6154,119.8671,141.5178,116.672,145.713z" fill="#D793FD"/><path d="M110.3143,115.213c-0.9532-1.4024-2.086-2.4588-3.4004-3.16c-1.3144-0.7032-2.7419-1.0548-4.2832-1.0548   h-3.8768v33.8632h3.8768c1.5413,0,2.9688-0.3512,4.2832-1.0544c1.3144-0.7012,2.4472-1.758,3.4004-3.1604   c0.9512-1.404,1.6876-3.16,2.2092-5.2732c0.5212-2.1076,0.7832-4.5628,0.7832-7.3752c0-2.8552-0.262-5.3476-0.7832-7.4804   C112.0019,118.385,111.2655,116.6194,110.3143,115.213z" fill="#D793FD"/><path d="M126.4687,0.307C124.9747,0.9262,124,2.385,124,4.0022v36c0,2.2088,1.7911,4,4,4h36   c1.6171,0,3.076-0.9748,3.6951-2.4688c0.6192-1.496,0.2776-3.2148-0.8671-4.3592l-36-36   C129.6815,0.0274,127.9607-0.3162,126.4687,0.307z" fill="#A9C7D8"/><path d="M102.6307,103.8578H90.5251v48.1444h12.0372c6.2112,0,10.914-2.0956,14.1097-6.2892   c3.1951-4.1952,4.7947-10.0976,4.7947-17.7148c0-7.6172-1.5996-13.5448-4.7947-17.7852   C113.4763,105.9786,108.7947,103.8578,102.6307,103.8578z M112.5235,135.3734c-0.5216,2.1132-1.258,3.8692-2.2092,5.2732   c-0.9532,1.4024-2.086,2.4592-3.4004,3.1604c-1.3144,0.7032-2.7419,1.0544-4.2832,1.0544h-3.8768v-33.8632h3.8768   c1.5413,0,2.9688,0.3516,4.2832,1.0548c1.3144,0.7012,2.4472,1.7576,3.4004,3.16c0.9512,1.4064,1.6876,3.172,2.2092,5.3048   c0.5212,2.1328,0.7832,4.6252,0.7832,7.4804C113.3067,130.8106,113.0447,133.2658,112.5235,135.3734z" fill="#FFE9E1"/><rect fill="#FFE9E1" height="48.1444" width="8.16" x="72.5743" y="103.8578"/></g></svg>