<?xml version="1.0" ?><svg enable-background="new 0 0 192 192.0022" id="_x40_3x" version="1.1" viewBox="0 0 192 192.0022" xml:space="preserve" xmlns="http://www.w3.org/2000/svg" xmlns:xlink="http://www.w3.org/1999/xlink"><g><polygon fill="none" points="168,84.0022 178.3436,84.0022 168,73.6586  "/><path d="M24,84.0022V62.3458L1.174,85.1742c0.7224-0.7248,1.7224-1.172,2.826-1.172H24z" fill="#4A8F9E"/><path d="M0.0508,87.7562c0.0236-0.3692,0.0956-0.7228,0.2128-1.0568C0.1444,87.0414,0.0724,87.393,0.0508,87.7562z" fill="#4A8F9E"/><path d="M0.3964,86.3226c0.1972-0.422,0.4472-0.8164,0.7716-1.1408C0.834,85.5158,0.59,85.9086,0.3964,86.3226z" fill="#4A8F9E"/><path d="M191.7364,86.6994c0.1172,0.334,0.1892,0.6876,0.2128,1.0568   C191.9276,87.393,191.8556,87.0414,191.7364,86.6994z" fill="#4A8F9E"/><path d="M190.832,85.1818c0.3244,0.3244,0.5744,0.7188,0.7716,1.1408   C191.41,85.9086,191.166,85.5158,190.832,85.1818z" fill="#4A8F9E"/><path d="M178.3436,84.0022H188c1.1036,0,2.1036,0.4472,2.826,1.172L168,62.3458v11.3128L178.3436,84.0022z" fill="#4A8F9E"/><path d="M168,84.0022V73.6586V62.3458v-24l-1.172-1.1716c1.1448,1.1444,1.4864,2.8632,0.8672,4.3592   c-0.6192,1.494-2.078,2.4688-3.6952,2.4688h-36c-2.2088,0-4-1.7912-4-4v-36c0-1.6172,0.9748-3.076,2.4688-3.6952   c1.494-0.6232,3.2128-0.2796,4.3592,0.8672l-1.1716-1.172H24v62.3436v21.6564H168z" fill="#C6DFED"/><rect fill="#C6DFED" height="24" width="144" x="24" y="168.0022"/><path d="M65.4336,119.2934c-0.8164,0-1.5412,0.328-2.1756,0.984c-0.6348,0.6604-1.168,1.508-1.598,2.5528   c-0.4316,1.0432-0.7596,2.2188-0.986,3.5352c-0.2268,1.3164-0.34,2.6096-0.34,3.8772c0,1.5876,0.2596,2.9004,0.7812,3.9432   s1.3944,1.5644,2.6192,1.5644c0.8164,0,1.5292-0.3964,2.1424-1.1932c0.6116-0.7912,1.1096-1.7424,1.4944-2.8556   c0.3868-1.1076,0.6816-2.2988,0.8848-3.5664c0.2048-1.2696,0.3064-2.3808,0.3064-3.332c0-1.496-0.2148-2.7872-0.6464-3.8768   C67.4844,119.8382,66.6584,119.2934,65.4336,119.2934z" fill="#618287"/><path d="M191.9492,87.7562c-0.0236-0.3692-0.0956-0.7228-0.2128-1.0568c-0.0448-0.1288-0.0764-0.2556-0.1328-0.3768   c-0.1972-0.422-0.4472-0.8164-0.7716-1.1408c-0.002-0.004-0.002-0.0076-0.002-0.0076c-0.7264-0.7248-1.7264-1.172-2.83-1.172   h-9.6564H168H24H4c-1.1036,0-2.1036,0.4472-2.826,1.172c0,0-0.004,0.0036-0.006,0.0076c-0.3244,0.3244-0.5744,0.7188-0.7716,1.1408   c-0.0564,0.1212-0.088,0.248-0.1328,0.3768c-0.1172,0.334-0.1892,0.6876-0.2128,1.0568C0.0448,87.8422,0,87.9142,0,88.0022v76   c0,2.2088,1.7912,4,4,4h20h144h20c2.2088,0,4-1.7912,4-4v-76C192,87.9142,191.9572,87.8422,191.9492,87.7562z M72.9824,134.9338   c0.2716,0.5448,0.7928,0.8164,1.5644,0.8164c1.4044,0,2.594-1.0216,3.5684-3.0604c0.9748-2.0392,1.4628-4.7364,1.4628-8.092   c0-2.6756-0.3164-5.0876-0.9528-7.244c-0.6332-2.1524-1.5628-3.9884-2.7872-5.508c-1.2248-1.5156-2.7092-2.6836-4.4532-3.5   c-1.746-0.8164-3.7304-1.2224-5.9512-1.2224c-2.3124,0-4.3964,0.5544-6.256,1.662c-1.8592,1.1112-3.4452,2.6212-4.7596,4.5252   c-1.3144,1.9024-2.3244,4.1116-3.0256,6.6272c-0.7028,2.5196-1.0544,5.1816-1.0544,7.994c0,2.9904,0.3516,5.7424,1.0544,8.258   c0.7012,2.5196,1.7228,4.6932,3.0588,6.5272c1.338,1.84,2.9708,3.2656,4.8964,4.2852c1.9276,1.0236,4.1368,1.5332,6.6308,1.5332   c2.4472,0,4.7248-0.5096,6.834-1.5332c2.1076-1.0196,3.9316-2.3672,5.4728-4.0448l2.6524,3.9452   c-2.0392,2.1328-4.3068,3.7168-6.7988,4.7596c-2.4944,1.0432-5.3732,1.5628-8.6368,1.5628c-3.2636,0-6.1428-0.6232-8.6368-1.8712   c-2.492-1.244-4.5996-2.9884-6.3224-5.2344c-1.7244-2.246-3.0272-4.9064-3.91-7.9884c-0.8848-3.086-1.326-6.4608-1.326-10.1328   c0-3.58,0.4744-6.912,1.4276-9.996c0.9512-3.084,2.3008-5.7676,4.0448-8.0604c1.746-2.2872,3.8536-4.0764,6.3244-5.3712   c2.4708-1.2932,5.248-1.9356,8.33-1.9356c5.8944,0,10.4844,1.8908,13.7696,5.6756c3.2872,3.7872,4.9316,9.172,4.9316,16.1504   c0,2.3576-0.25,4.5568-0.748,6.596c-0.5,2.0408-1.2128,3.8084-2.1428,5.3044c-0.9296,1.4964-2.0508,2.6644-3.3652,3.5   c-1.3164,0.84-2.7888,1.262-4.4216,1.262c-1.4492,0-2.6172-0.3848-3.5-1.1564c-0.8848-0.7732-1.3496-1.9492-1.3948-3.5352h-0.1368   c-0.2264,0.5432-0.5212,1.086-0.8828,1.6288c-0.3632,0.5452-0.8064,1.0452-1.326,1.4964c-0.5216,0.4532-1.1112,0.828-1.7696,1.1208   c-0.656,0.2972-1.416,0.4456-2.2772,0.4456c-1.178,0-2.2208-0.2968-3.1272-0.8848c-0.908-0.588-1.666-1.3848-2.2792-2.3808   c-0.6112-0.9964-1.076-2.164-1.3944-3.504c-0.3164-1.336-0.4748-2.752-0.4748-4.248c0-1.9472,0.2148-3.8888,0.6448-5.8164   c0.4316-1.924,1.0544-3.6464,1.8708-5.166c0.8164-1.5176,1.836-2.754,3.0608-3.7052c1.2224-0.9512,2.6288-1.4276,4.2148-1.4276   c1.496,0,2.664,0.4412,3.502,1.324c0.8396,0.8868,1.3496,1.914,1.5312,3.096h0.2032l0.5448-2.7208h4.8944l-1.9704,10.2676   c-0.2736,1.4532-0.4768,2.8124-0.6136,4.08c-0.1348,1.2696-0.2028,2.2208-0.2028,2.8556   C72.5744,133.7094,72.7108,134.389,72.9824,134.9338z M106.8456,132.213c-1.4512-1.3164-3.332-1.9704-5.6444-1.9704H99.162v-6.3244   h2.2444c2.0388,0,3.66-0.6444,4.8612-1.9396c1.2012-1.2928,1.8028-3.0936,1.8028-5.406c0-0.7696-0.1016-1.5508-0.3068-2.3476   c-0.2032-0.7912-0.5332-1.502-0.9864-2.1388c-0.4528-0.6348-1.0428-1.1544-1.7676-1.5644   c-0.7244-0.4064-1.5856-0.6112-2.584-0.6112c-1.3144,0-2.4256,0.4316-3.332,1.2908c-0.906,0.8592-1.6092,1.9492-2.1072,3.2656   l-7.0724-1.9728c0.5432-1.6756,1.2912-3.1288,2.2444-4.3512c0.9508-1.2248,2.0172-2.2208,3.1952-2.9924   c1.1796-0.7736,2.4256-1.336,3.74-1.6992c1.3148-0.3652,2.6292-0.5448,3.9436-0.5448c1.7696,0,3.4236,0.2832,4.9648,0.8476   c1.5408,0.5684,2.9004,1.3964,4.08,2.4844c1.1796,1.088,2.1076,2.412,2.7872,3.9744c0.6816,1.5684,1.0216,3.344,1.0216,5.34   c0,2.7208-0.6136,5.1016-1.836,7.1408c-1.2248,2.0408-2.9472,3.3552-5.168,3.9452v0.2032   c2.4472,0.6364,4.3964,2.0036,5.8476,4.1112c1.4512,2.1112,2.1756,4.5916,2.1756,7.4492c0,2.1328-0.3396,4.0916-1.0192,5.8788   c-0.68,1.7912-1.6328,3.334-2.8576,4.6252c-1.2228,1.2948-2.7088,2.2928-4.4532,2.99c-1.746,0.7052-3.66,1.0568-5.746,1.0568   c-3.6268,0-6.6876-0.916-9.1796-2.754c-2.4944-1.838-4.1936-4.5644-5.0996-8.1932l7.2068-1.9044   c0.5,1.7248,1.3028,3.1152,2.414,4.1796c1.1116,1.0684,2.5508,1.6016,4.3184,1.6016c1.1328,0,2.1076-0.2284,2.924-0.6816   c0.8164-0.4512,1.496-1.0508,2.0392-1.8048c0.5448-0.746,0.9412-1.582,1.1912-2.5136c0.248-0.9296,0.3732-1.8672,0.3732-2.8224   C109.0216,135.4786,108.2968,133.5294,106.8456,132.213z M140.166,152.0022l-5.3732-12.6484l-5.5076,12.6484h-8.4316   l8.9764-18.1564l-8.16-16.5232h8.3632l4.828,11.2872l4.76-11.2872h8.2968l-8.092,16.5232l8.84,18.1564H140.166z" fill="#618287"/><path d="M126.4688,0.307C124.9748,0.9262,124,2.385,124,4.0022v36c0,2.2088,1.7912,4,4,4h36   c1.6172,0,3.076-0.9748,3.6952-2.4688c0.6192-1.496,0.2776-3.2148-0.8672-4.3592l-36-36   C129.6816,0.0274,127.9628-0.3162,126.4688,0.307z" fill="#A9C7D8"/><path d="M107.4572,143.3966c-0.5432,0.754-1.2228,1.3536-2.0392,1.8048c-0.8164,0.4532-1.7912,0.6816-2.924,0.6816   c-1.7676,0-3.2068-0.5332-4.3184-1.6016c-1.1112-1.0644-1.914-2.4548-2.414-4.1796l-7.2068,1.9044   c0.906,3.6288,2.6052,6.3552,5.0996,8.1932c2.492,1.838,5.5528,2.754,9.1796,2.754c2.086,0,4-0.3516,5.746-1.0568   c1.7444-0.6972,3.2304-1.6952,4.4532-2.99c1.2248-1.2912,2.1776-2.834,2.8576-4.6252c0.6796-1.7872,1.0192-3.746,1.0192-5.8788   c0-2.8576-0.7244-5.338-2.1756-7.4492c-1.4512-2.1076-3.4004-3.4748-5.8476-4.1112v-0.2032c2.2208-0.59,3.9432-1.9044,5.168-3.9452   c1.2224-2.0392,1.836-4.42,1.836-7.1408c0-1.996-0.34-3.7716-1.0216-5.34c-0.6796-1.5624-1.6076-2.8864-2.7872-3.9744   c-1.1796-1.088-2.5392-1.916-4.08-2.4844c-1.5412-0.5644-3.1952-0.8476-4.9648-0.8476c-1.3144,0-2.6288,0.1796-3.9436,0.5448   c-1.3144,0.3632-2.5604,0.9256-3.74,1.6992c-1.178,0.7716-2.2444,1.7676-3.1952,2.9924c-0.9532,1.2224-1.7012,2.6756-2.2444,4.3512   l7.0724,1.9728c0.498-1.3164,1.2012-2.4064,2.1072-3.2656c0.9064-0.8592,2.0176-1.2908,3.332-1.2908   c0.9984,0,1.8596,0.2048,2.584,0.6112c0.7248,0.41,1.3148,0.9296,1.7676,1.5644c0.4532,0.6368,0.7832,1.3476,0.9864,2.1388   c0.2052,0.7968,0.3068,1.578,0.3068,2.3476c0,2.3124-0.6016,4.1132-1.8028,5.406c-1.2012,1.2952-2.8224,1.9396-4.8612,1.9396   H99.162v6.3244h2.0392c2.3124,0,4.1932,0.654,5.6444,1.9704c1.4512,1.3164,2.176,3.2656,2.176,5.8476   c0,0.9552-0.1252,1.8928-0.3732,2.8224C108.3984,141.8146,108.002,142.6506,107.4572,143.3966z" fill="#FFE9E1"/><path d="M73.3908,125.9574l1.9704-10.2676h-4.8944l-0.5448,2.7208h-0.2032   c-0.1816-1.182-0.6916-2.2092-1.5312-3.096c-0.838-0.8828-2.006-1.324-3.502-1.324c-1.586,0-2.9924,0.4764-4.2148,1.4276   c-1.2248,0.9512-2.2444,2.1876-3.0608,3.7052c-0.8164,1.5196-1.4392,3.242-1.8708,5.166c-0.43,1.9276-0.6448,3.8692-0.6448,5.8164   c0,1.496,0.1584,2.912,0.4748,4.248c0.3184,1.34,0.7832,2.5076,1.3944,3.504c0.6132,0.996,1.3712,1.7928,2.2792,2.3808   c0.9064,0.588,1.9492,0.8848,3.1272,0.8848c0.8612,0,1.6212-0.1484,2.2772-0.4456c0.6584-0.2928,1.248-0.6676,1.7696-1.1208   c0.5196-0.4512,0.9628-0.9512,1.326-1.4964c0.3616-0.5428,0.6564-1.0856,0.8828-1.6288h0.1368   c0.0452,1.586,0.51,2.762,1.3948,3.5352c0.8828,0.7716,2.0508,1.1564,3.5,1.1564c1.6328,0,3.1052-0.422,4.4216-1.262   c1.3144-0.8356,2.4356-2.0036,3.3652-3.5c0.93-1.496,1.6428-3.2636,2.1428-5.3044c0.498-2.0392,0.748-4.2384,0.748-6.596   c0-6.9784-1.6444-12.3632-4.9316-16.1504c-3.2852-3.7848-7.8752-5.6756-13.7696-5.6756c-3.082,0-5.8592,0.6424-8.33,1.9356   c-2.4708,1.2948-4.5784,3.084-6.3244,5.3712c-1.744,2.2928-3.0936,4.9764-4.0448,8.0604c-0.9532,3.084-1.4276,6.416-1.4276,9.996   c0,3.672,0.4412,7.0468,1.326,10.1328c0.8828,3.082,2.1856,5.7424,3.91,7.9884c1.7228,2.246,3.8304,3.9904,6.3224,5.2344   c2.494,1.248,5.3732,1.8712,8.6368,1.8712c3.2636,0,6.1424-0.5196,8.6368-1.5628c2.492-1.0428,4.7596-2.6268,6.7988-4.7596   l-2.6524-3.9452c-1.5412,1.6776-3.3652,3.0252-5.4728,4.0448c-2.1092,1.0236-4.3868,1.5332-6.834,1.5332   c-2.494,0-4.7032-0.5096-6.6308-1.5332c-1.9256-1.0196-3.5584-2.4452-4.8964-4.2852c-1.336-1.834-2.3576-4.0076-3.0588-6.5272   c-0.7028-2.5156-1.0544-5.2676-1.0544-8.258c0-2.8124,0.3516-5.4744,1.0544-7.994c0.7012-2.5156,1.7112-4.7248,3.0256-6.6272   c1.3144-1.904,2.9004-3.414,4.7596-4.5252c1.8596-1.1076,3.9436-1.662,6.256-1.662c2.2208,0,4.2052,0.406,5.9512,1.2224   c1.744,0.8164,3.2284,1.9844,4.4532,3.5c1.2244,1.5196,2.154,3.3556,2.7872,5.508c0.6364,2.1564,0.9528,4.5684,0.9528,7.244   c0,3.3556-0.488,6.0528-1.4628,8.092c-0.9744,2.0388-2.164,3.0604-3.5684,3.0604c-0.7716,0-1.2928-0.2716-1.5644-0.8164   s-0.408-1.2244-0.408-2.0408c0-0.6348,0.068-1.586,0.2028-2.8556C72.914,128.7698,73.1172,127.4106,73.3908,125.9574z    M68.256,128.135c-0.2032,1.2676-0.498,2.4588-0.8848,3.5664c-0.3848,1.1132-0.8828,2.0644-1.4944,2.8556   c-0.6132,0.7968-1.326,1.1932-2.1424,1.1932c-1.2248,0-2.0976-0.5216-2.6192-1.5644s-0.7812-2.3556-0.7812-3.9432   c0-1.2676,0.1132-2.5608,0.34-3.8772c0.2264-1.3164,0.5544-2.492,0.986-3.5352c0.43-1.0448,0.9632-1.8924,1.598-2.5528   c0.6344-0.656,1.3592-0.984,2.1756-0.984c1.2248,0,2.0508,0.5448,2.4824,1.6328c0.4316,1.0896,0.6464,2.3808,0.6464,3.8768   C68.5624,125.7542,68.4608,126.8654,68.256,128.135z" fill="#FFE9E1"/><polygon fill="#FFE9E1" points="147.918,117.3226 139.6212,117.3226 134.8612,128.6098 130.0332,117.3226 121.67,117.3226    129.83,133.8458 120.8536,152.0022 129.2852,152.0022 134.7928,139.3538 140.166,152.0022 148.666,152.0022 139.826,133.8458  "/></g></svg>