<?xml version="1.0" ?><svg enable-background="new 0 0 156 212.0003" id="newfile" version="1.1" viewBox="0 0 156 212.0003" xml:space="preserve" xmlns="http://www.w3.org/2000/svg" xmlns:xlink="http://www.w3.org/1999/xlink"><g><path d="M154.826,40.3012L115.6504,1.1704c-0.75-0.7501-1.7656-1.1701-2.826-1.1701H4c-2.2088,0-4,1.7913-4,4v204   c0,2.2089,1.7912,4,4,4h148c2.2088,0,4-1.7911,4-4V43.1312C156,42.0688,155.578,41.0512,154.826,40.3012z M155.6952,45.5316   c-0.6192,1.494-2.078,2.4687-3.6952,2.4687h-40c-2.2088,0-4-1.7911-4-4v-40c0-1.6171,0.9748-3.076,2.4688-3.6951   c1.494-0.6192,3.2128-0.2796,4.3592,0.8671l40,40C155.9728,42.3168,156.3144,44.0356,155.6952,45.5316z" fill="#FFE9E1"/><path d="M114.828,1.1723c-1.1464-1.1467-2.8652-1.4863-4.3592-0.8671C108.9748,0.9243,108,2.3832,108,4.0003v40   c0,2.2089,1.7912,4,4,4h40c1.6172,0,3.076-0.9747,3.6952-2.4687c0.6192-1.496,0.2776-3.2148-0.8672-4.3593L114.828,1.1723z" fill="#FCD1C0"/></g></svg>