<?xml version="1.0" ?><svg enable-background="new 0 0 192 192.0017" id="ae" version="1.1" viewBox="0 0 192 192.0017" xml:space="preserve" xmlns="http://www.w3.org/2000/svg" xmlns:xlink="http://www.w3.org/1999/xlink"><g><path d="M168,84.0017V62.3453v-24l-1.172-1.1716c1.1448,1.1444,1.4864,2.8632,0.8672,4.3592   c-0.6192,1.494-2.078,2.4688-3.6952,2.4688h-36c-2.2088,0-4-1.7912-4-4v-36c0-1.6172,0.9748-3.076,2.4688-3.6952   c1.494-0.6212,3.2128-0.2812,4.3592,0.8672l-1.1716-1.172H24v62.3436v21.6564H168z" fill="#C6DFED"/><rect fill="#C6DFED" height="24" width="144" x="24" y="168.0017"/><path d="M191.9492,87.7557c-0.0216-0.3632-0.0936-0.7148-0.2128-1.0568c-0.0448-0.1288-0.0764-0.2556-0.1328-0.3768   c-0.1936-0.414-0.4376-0.8068-0.7716-1.1408c-0.002-0.004-0.002-0.0076-0.002-0.0076L168,62.3453v21.6564H24V62.3453L1.174,85.1737   c0,0-0.004,0.0036-0.006,0.0076c-0.334,0.334-0.578,0.7268-0.7716,1.1408c-0.0564,0.1212-0.088,0.248-0.1328,0.3768   c-0.1192,0.342-0.1912,0.6936-0.2128,1.0568C0.0448,87.8417,0,87.9137,0,88.0017v76c0,2.2088,1.7912,4,4,4h20h144h20   c2.2088,0,4-1.7912,4-4v-76C192,87.9137,191.9572,87.8417,191.9492,87.7557z M64.1076,152.0017l11.9684-48.1444h10.4044   l11.7636,48.1444h-8.5l-2.3808-10.1992H74.7168l-2.4492,10.1992H64.1076z M125.5116,152.0017h-22.2364v-48.1444h21.5568v7.2068   h-13.7364v12.7852h12.7168v6.666h-12.7168v14.2092h14.416V152.0017z" fill="#4A8F9E"/><polygon fill="#4A8F9E" points="81.244,111.5409 80.9728,111.5409 75.7364,135.4101 86.3436,135.4101  "/><path d="M126.4688,0.3065C124.9748,0.9257,124,2.3845,124,4.0017v36c0,2.2088,1.7912,4,4,4h36   c1.6172,0,3.076-0.9748,3.6952-2.4688c0.6192-1.496,0.2776-3.2148-0.8672-4.3592l-36-36   C129.6816,0.0253,127.9628-0.3147,126.4688,0.3065z" fill="#A9C7D8"/><path d="M87.3632,141.8025l2.3808,10.1992h8.5l-11.7636-48.1444H76.076l-11.9684,48.1444h8.16l2.4492-10.1992   H87.3632z M80.9728,111.5409h0.2712l5.0996,23.8692H75.7364L80.9728,111.5409z" fill="#FFE9E1"/><polygon fill="#FFE9E1" points="111.0956,130.5153 123.8124,130.5153 123.8124,123.8493 111.0956,123.8493 111.0956,111.0641    124.832,111.0641 124.832,103.8573 103.2752,103.8573 103.2752,152.0017 125.5116,152.0017 125.5116,144.7245 111.0956,144.7245     "/></g></svg>