<?xml version="1.0" ?><svg enable-background="new 0 0 160 208" id="duplicate" version="1.1" viewBox="0 0 160 208" xml:space="preserve" xmlns="http://www.w3.org/2000/svg" xmlns:xlink="http://www.w3.org/1999/xlink"><g><path d="M156,0H20c-2.2088,0-4,1.7913-4,4v12h88c0.086,0,0.164,0.0429,0.25,0.0509   c0.3536,0.0216,0.6952,0.09,1.0312,0.2032c0.1272,0.0448,0.252,0.0779,0.3752,0.1348c0.4236,0.1932,0.828,0.4391,1.1716,0.7831   l36,36c0.344,0.3437,0.588,0.7461,0.7832,1.1717c0.0568,0.1232,0.09,0.248,0.1348,0.3772c0.1132,0.334,0.1816,0.6736,0.2032,1.0271   C143.9552,55.836,144,55.912,144,56v136h12c2.2088,0,4-1.7911,4-4V4C160,1.7913,158.2088,0,156,0z" fill="#E1AD99"/><path d="M143.6112,54.3437c0.0548,0.1212,0.09,0.25,0.1348,0.3772   C143.7012,54.5917,143.668,54.4669,143.6112,54.3437z" fill="#FFE9E1"/><path d="M105.2812,16.2541c0.1252,0.0448,0.252,0.0779,0.3752,0.1348   C105.5332,16.332,105.4084,16.2989,105.2812,16.2541z" fill="#FFE9E1"/><path d="M144,56c0-0.088-0.0448-0.164-0.0508-0.252c0.0392,0.5977-0.0156,1.2053-0.254,1.7833   C143.076,59.0253,141.6172,60,140,60h-36c-2.2088,0-4-1.7911-4-4V20c0-1.6171,0.9748-3.076,2.4688-3.6951   c0.576-0.2384,1.1816-0.2932,1.7812-0.254C104.164,16.0429,104.086,16,104,16H16H4c-2.2088,0-4,1.7913-4,4v184   c0,2.2089,1.7912,4,4,4h136c2.2088,0,4-1.7911,4-4v-12V56z" fill="#FFE9E1"/><path d="M102.4688,16.3049C100.9748,16.924,100,18.3829,100,20v36c0,2.2089,1.7912,4,4,4h36   c1.6172,0,3.076-0.9747,3.6952-2.4687c0.2384-0.578,0.2932-1.1856,0.254-1.7833c-0.0216-0.3535-0.09-0.6931-0.2032-1.0271   c-0.0448-0.1272-0.08-0.256-0.1348-0.3772c-0.1952-0.4256-0.4392-0.828-0.7832-1.1717l-36-36   c-0.3436-0.344-0.748-0.5899-1.1716-0.7831c-0.1232-0.0569-0.25-0.09-0.3752-0.1348c-0.336-0.1132-0.6776-0.1816-1.0312-0.2032   C103.6504,16.0117,103.0448,16.0665,102.4688,16.3049z" fill="#FCD1C0"/></g></svg>