<?xml version="1.0" ?><svg enable-background="new 0 0 216 180" id="foldercoded" version="1.1" viewBox="0 0 216 180" xml:space="preserve" xmlns="http://www.w3.org/2000/svg" xmlns:xlink="http://www.w3.org/1999/xlink"><g><path d="M4,24h90.1407L79.328,1.7812C78.5859,0.668,77.336,0,76,0H4C1.7891,0,0,1.7892,0,4v24   C0,25.7892,1.7891,24,4,24z" fill="#FCC24C"/><path d="M212,48H4c-2.2109,0-4-1.7892-4-4v116.0116C0,171.0352,8.9607,180,19.9763,180h176.0472   C207.0391,180,216,171.0352,216,160.0116V44C216,46.2108,214.2107,48,212,48z M75.7967,123.8008   c-0.7812,0.7812-1.8047,1.172-2.828,1.172c-1.0236,0-2.0468-0.3908-2.828-1.172L55.5819,109.242l-15.1404,15.1408   c-0.7815,0.7812-1.8048,1.172-2.8284,1.172c-1.0232,0-2.0468-0.3908-2.828-1.172c-1.5624-1.5624-1.5624-4.0936,0-5.6564   l15.1404-15.1404L36.2031,89.8592c-1.5624-1.5624-1.5624-4.0936,0-5.656c1.5624-1.5624,4.0936-1.5624,5.656,0l13.7268,13.7264   l13.1404-13.1404c1.5628-1.5628,4.094-1.5628,5.6564,0c1.5624,1.5624,1.5624,4.0936,0,5.656L61.2419,103.586l14.5548,14.5584   C77.3591,119.7072,77.3591,122.2384,75.7967,123.8008z M127.7967,123.8008c-0.7812,0.7812-1.8047,1.172-2.828,1.172   c-1.0236,0-2.0468-0.3908-2.828-1.172l-14.5588-14.5588l-15.1404,15.1408c-0.7815,0.7812-1.8048,1.172-2.8284,1.172   c-1.0232,0-2.0468-0.3908-2.828-1.172c-1.5624-1.5624-1.5624-4.0936,0-5.6564l15.1404-15.1404L88.2031,89.8592   c-1.5624-1.5624-1.5624-4.0936,0-5.656s4.0936-1.5624,5.656,0l13.7268,13.7264l13.1404-13.1404   c1.5628-1.5628,4.094-1.5628,5.6564,0c1.5624,1.5624,1.5624,4.0936,0,5.656l-13.1408,13.1408l14.5548,14.5584   C129.3591,119.7072,129.3591,122.2384,127.7967,123.8008z M179.7967,123.8008c-0.7812,0.7812-1.8047,1.172-2.828,1.172   c-1.0236,0-2.0468-0.3908-2.828-1.172l-14.5588-14.5588l-15.1404,15.1408c-0.7815,0.7812-1.8048,1.172-2.8284,1.172   c-1.0232,0-2.0468-0.3908-2.828-1.172c-1.5624-1.5624-1.5624-4.0936,0-5.6564l15.1404-15.1404l-13.7224-13.7268   c-1.5624-1.5624-1.5624-4.0936,0-5.656c1.5624-1.5624,4.0936-1.5624,5.656,0l13.7268,13.7264l13.1404-13.1404   c1.5628-1.5628,4.094-1.5628,5.6564,0c1.5624,1.5624,1.5624,4.0936,0,5.656l-13.1408,13.1408l14.5548,14.5584   C181.3591,119.7072,181.3591,122.2384,179.7967,123.8008z" fill="#F8A131"/><path d="M212,24H94.1407H4c-2.2109,0-4,1.7892-4,4v16c0,2.2108,1.7891,4,4,4h208c2.2107,0,4-1.7892,4-4V28   C216,25.7892,214.2107,24,212,24z" fill="#FE7D71"/><path d="M61.2419,103.586l13.1408-13.1408c1.5624-1.5624,1.5624-4.0936,0-5.656   c-1.5624-1.5628-4.0936-1.5628-5.6564,0L55.5859,97.9296L41.8591,84.2032c-1.5624-1.5624-4.0936-1.5624-5.656,0   c-1.5624,1.5624-1.5624,4.0936,0,5.656l13.7224,13.7268l-15.1404,15.1404c-1.5624,1.5628-1.5624,4.094,0,5.6564   c0.7812,0.7812,1.8048,1.172,2.828,1.172c1.0236,0,2.0469-0.3908,2.8284-1.172l15.1404-15.1408l14.5588,14.5588   c0.7812,0.7812,1.8044,1.172,2.828,1.172c1.0233,0,2.0468-0.3908,2.828-1.172c1.5624-1.5624,1.5624-4.0936,0-5.6564   L61.2419,103.586z" fill="#EB4548"/><path d="M113.2419,103.586l13.1408-13.1408c1.5624-1.5624,1.5624-4.0936,0-5.656   c-1.5624-1.5628-4.0936-1.5628-5.6564,0l-13.1404,13.1404L93.8591,84.2032c-1.5624-1.5624-4.0936-1.5624-5.656,0   s-1.5624,4.0936,0,5.656l13.7224,13.7268l-15.1404,15.1404c-1.5624,1.5628-1.5624,4.094,0,5.6564   c0.7812,0.7812,1.8048,1.172,2.828,1.172c1.0236,0,2.0469-0.3908,2.8284-1.172l15.1404-15.1408l14.5588,14.5588   c0.7812,0.7812,1.8044,1.172,2.828,1.172c1.0233,0,2.0468-0.3908,2.828-1.172c1.5624-1.5624,1.5624-4.0936,0-5.6564   L113.2419,103.586z" fill="#EB4548"/><path d="M165.2419,103.586l13.1408-13.1408c1.5624-1.5624,1.5624-4.0936,0-5.656   c-1.5624-1.5628-4.0936-1.5628-5.6564,0l-13.1404,13.1404l-13.7268-13.7264c-1.5624-1.5624-4.0936-1.5624-5.656,0   c-1.5624,1.5624-1.5624,4.0936,0,5.656l13.7224,13.7268l-15.1404,15.1404c-1.5624,1.5628-1.5624,4.094,0,5.6564   c0.7812,0.7812,1.8048,1.172,2.828,1.172c1.0236,0,2.0469-0.3908,2.8284-1.172l15.1404-15.1408l14.5588,14.5588   c0.7812,0.7812,1.8044,1.172,2.828,1.172c1.0233,0,2.0468-0.3908,2.828-1.172c1.5624-1.5624,1.5624-4.0936,0-5.6564   L165.2419,103.586z" fill="#EB4548"/></g></svg>