<?xml version="1.0" ?><svg enable-background="new 0 0 192 192" id="eps" version="1.1" viewBox="0 0 192 192" xml:space="preserve" xmlns="http://www.w3.org/2000/svg" xmlns:xlink="http://www.w3.org/1999/xlink"><g><path d="M0.0467,87.758c0.0236-0.3712,0.0976-0.7268,0.2148-1.0628C0.1407,87.0392,0.0703,87.3908,0.0467,87.758z" fill="#4A8F9E"/><path d="M24,84V62.3436L1.1755,85.168C1.8983,84.4472,2.8943,84,4,84H24z" fill="#4A8F9E"/><path d="M0.3983,86.3204c0.1952-0.418,0.4417-0.8068,0.7617-1.1308C0.828,85.5236,0.5899,85.91,0.3983,86.3204z" fill="#4A8F9E"/><path d="M190.84,85.1896c0.32,0.324,0.5699,0.7128,0.7615,1.1308C191.4139,85.91,191.172,85.5236,190.84,85.1896z" fill="#4A8F9E"/><path d="M188,84c1.1015,0,2.1015,0.4472,2.8243,1.168L168,62.3436V84H188z" fill="#4A8F9E"/><path d="M191.7383,86.6952c0.1172,0.336,0.1912,0.6916,0.2148,1.0628   C191.9295,87.3924,191.8591,87.0412,191.7383,86.6952z" fill="#4A8F9E"/><path d="M168,84V62.3436v-24l-1.172-1.1716c1.1447,1.1444,1.4883,2.8632,0.8671,4.3592   C167.0779,43.0252,165.6171,44,164,44h-36c-2.2109,0-4-1.7912-4-4V4c0-1.6172,0.9727-3.076,2.4687-3.6952   c1.496-0.6152,3.2148-0.2776,4.3593,0.8672L129.6563,0H24v62.3436V84H168z" fill="#C6DFED"/><rect fill="#C6DFED" height="24" width="144" x="24" y="168"/><path d="M191.9531,87.758c-0.0236-0.3712-0.0976-0.7268-0.2148-1.0628c-0.0468-0.1288-0.0783-0.2536-0.1368-0.3748   c-0.1916-0.418-0.4415-0.8068-0.7615-1.1308c-0.004-0.006-0.008-0.014-0.0157-0.0216C190.1015,84.4472,189.1015,84,188,84h-20H24H4   c-1.1057,0-2.1017,0.4472-2.8245,1.168C1.168,85.1756,1.164,85.1836,1.16,85.1896c-0.32,0.324-0.5665,0.7128-0.7617,1.1308   c-0.0583,0.1212-0.09,0.246-0.1368,0.3748c-0.1172,0.336-0.1912,0.6916-0.2148,1.0628C0.0427,87.8436,0,87.914,0,88v76   c0,2.2088,1.7891,4,4,4h20h144h20c2.2107,0,4-1.7912,4-4V88C192,87.914,191.9571,87.8436,191.9531,87.758z M74.5115,123.8476v6.666   H61.7967v14.2092h14.414V152H53.9763v-48.1444h21.5548v7.2068H61.7967v12.7852H74.5115z M83.6251,152v-48.1444h13.328   c1.5389,0,3.1248,0.2284,4.7576,0.6796c1.6328,0.4532,3.094,1.2364,4.3868,2.3456c1.2932,1.1112,2.3556,2.5744,3.1952,4.3868   c0.84,1.8124,1.258,4.08,1.258,6.8008c0,2.4472-0.3712,4.588-1.1212,6.4236c-0.746,1.84-1.7344,3.3672-2.9568,4.592   c-1.2228,1.2244-2.6292,2.1308-4.2148,2.7208c-1.5899,0.586-3.2188,0.8828-4.8988,0.8828h-5.7108V152H83.6251z M125.2383,121.4316   c1.2264,1.1112,2.836,2.168,4.828,3.164c1.1796,0.588,2.3828,1.2676,3.6057,2.0412c1.2223,0.7716,2.336,1.6992,3.332,2.7872   c0.996,1.0896,1.8123,2.3808,2.4491,3.8768c0.6328,1.496,0.9492,3.2616,0.9492,5.3028c0,2.3572-0.3712,4.4432-1.1212,6.2556   c-0.746,1.8128-1.746,3.344-2.992,4.59c-1.2464,1.248-2.7072,2.1876-4.3868,2.8224c-1.676,0.6368-3.4452,0.9512-5.3008,0.9512   c-2.676,0-5.1484-0.5196-7.414-1.5628c-2.2656-1.0428-4.0784-2.3552-5.4376-3.9452l4.4181-5.9844   c1.0427,1.2696,2.3007,2.2696,3.7735,2.9924c1.4724,0.7264,2.9804,1.0896,4.5232,1.0896c1.7228,0,3.1484-0.5896,4.2852-1.7696   c1.1328-1.1796,1.6992-2.832,1.6992-4.9628c0-2.084-0.6796-3.74-2.0428-4.9628c-1.3596-1.2264-3.082-2.3576-5.168-3.4024   c-1.3128-0.6348-2.5468-1.336-3.7032-2.1072c-1.1564-0.7716-2.176-1.6876-3.0624-2.756c-0.8828-1.0644-1.586-2.3088-2.1056-3.7384   c-0.5236-1.4296-0.7812-3.1368-0.7812-5.1328c0-2.492,0.3944-4.6368,1.1876-6.4296c0.7928-1.7872,1.8356-3.2716,3.1288-4.4512   c1.2928-1.1796,2.754-2.0528,4.3868-2.6192c1.6328-0.5644,3.2852-0.8476,4.9648-0.8476c2.4452,0,4.6328,0.3964,6.5584,1.1876   c1.9296,0.7968,3.5468,1.9628,4.8632,3.504l-4.488,5.8476c-1.7656-2.1328-3.9884-3.1956-6.664-3.1956   c-0.7696,0-1.5195,0.1232-2.2424,0.3712c-0.7264,0.252-1.3828,0.6484-1.9728,1.1916c-0.5896,0.5448-1.0544,1.248-1.3944,2.1092   c-0.3396,0.8596-0.5116,1.8808-0.5116,3.0588C123.4023,118.748,124.0155,120.3244,125.2383,121.4316z" fill="#B976DD"/><path d="M100.9647,124.0156c1.2228-1.336,1.836-3.2948,1.836-5.8788c0-2.586-0.6132-4.4648-1.836-5.6448   c-1.2228-1.1796-2.7892-1.7692-4.6912-1.7692h-4.6252v15.3008h4.6252C98.1755,126.0236,99.7419,125.3556,100.9647,124.0156z" fill="#B976DD"/><path d="M126.4687,0.3048C124.9727,0.924,124,2.3828,124,4v36c0,2.2088,1.7891,4,4,4h36   c1.6171,0,3.0779-0.9748,3.6951-2.4688c0.6212-1.496,0.2776-3.2148-0.8671-4.3592l-36-36   C129.6835,0.0272,127.9647-0.3104,126.4687,0.3048z" fill="#A9C7D8"/><path d="M125.3083,111.5392c0.59-0.5432,1.2464-0.9396,1.9728-1.1916c0.7229-0.248,1.4728-0.3712,2.2424-0.3712   c2.6756,0,4.8984,1.0628,6.664,3.1956l4.488-5.8476c-1.3164-1.5412-2.9336-2.7072-4.8632-3.504   c-1.9256-0.7912-4.1132-1.1876-6.5584-1.1876c-1.6796,0-3.332,0.2832-4.9648,0.8476c-1.6328,0.5664-3.094,1.4396-4.3868,2.6192   c-1.2932,1.1796-2.336,2.664-3.1288,4.4512c-0.7932,1.7928-1.1876,3.9376-1.1876,6.4296c0,1.996,0.2576,3.7032,0.7812,5.1328   c0.5196,1.4296,1.2228,2.674,2.1056,3.7384c0.8864,1.0684,1.906,1.9844,3.0624,2.756c1.1564,0.7712,2.3904,1.4724,3.7032,2.1072   c2.086,1.0448,3.8084,2.176,5.168,3.4024c1.3632,1.2228,2.0428,2.8788,2.0428,4.9628c0,2.1308-0.5664,3.7832-1.6992,4.9628   c-1.1368,1.18-2.5624,1.7696-4.2852,1.7696c-1.5428,0-3.0508-0.3632-4.5232-1.0896c-1.4728-0.7228-2.7308-1.7228-3.7735-2.9924   l-4.4181,5.9844c1.3592,1.59,3.172,2.9024,5.4376,3.9452c2.2656,1.0432,4.738,1.5628,7.414,1.5628   c1.8556,0,3.6248-0.3144,5.3008-0.9512c1.6796-0.6348,3.1404-1.5744,4.3868-2.8224c1.246-1.246,2.246-2.7772,2.992-4.59   c0.75-1.8124,1.1212-3.8984,1.1212-6.2556c0-2.0412-0.3164-3.8068-0.9492-5.3028c-0.6368-1.496-1.4531-2.7872-2.4491-3.8768   c-0.996-1.088-2.1097-2.0156-3.332-2.7872c-1.2229-0.7736-2.4261-1.4532-3.6057-2.0412c-1.992-0.996-3.6016-2.0528-4.828-3.164   c-1.2228-1.1072-1.836-2.6836-1.836-4.7244c0-1.178,0.172-2.1992,0.5116-3.0588   C124.2539,112.7872,124.7187,112.084,125.3083,111.5392z" fill="#FFE9E1"/><polygon fill="#FFE9E1" points="75.5311,111.0624 75.5311,103.8556 53.9763,103.8556 53.9763,152 76.2107,152 76.2107,144.7228    61.7967,144.7228 61.7967,130.5136 74.5115,130.5136 74.5115,123.8476 61.7967,123.8476 61.7967,111.0624  "/><path d="M97.3591,132.6876c1.68,0,3.3089-0.2968,4.8988-0.8828c1.5856-0.59,2.992-1.4964,4.2148-2.7208   c1.2224-1.2248,2.2108-2.752,2.9568-4.592c0.75-1.8356,1.1212-3.9764,1.1212-6.4236c0-2.7208-0.418-4.9884-1.258-6.8008   c-0.8396-1.8124-1.902-3.2756-3.1952-4.3868c-1.2928-1.1092-2.754-1.8924-4.3868-2.3456   c-1.6328-0.4512-3.2187-0.6796-4.7576-0.6796h-13.328V152h8.0232v-19.3124H97.3591z M91.6483,110.7228h4.6252   c1.902,0,3.4684,0.5896,4.6912,1.7692c1.2228,1.18,1.836,3.0588,1.836,5.6448c0,2.584-0.6132,4.5428-1.836,5.8788   c-1.2228,1.34-2.7892,2.008-4.6912,2.008h-4.6252V110.7228z" fill="#FFE9E1"/></g></svg>