<?xml version="1.0" ?><svg enable-background="new 0 0 216 180" id="folderok" version="1.1" viewBox="0 0 216 180" xml:space="preserve" xmlns="http://www.w3.org/2000/svg" xmlns:xlink="http://www.w3.org/1999/xlink"><g><path d="M4,24h90.1407L79.328,1.7812C78.5859,0.668,77.336,0,76,0H4C1.7891,0,0,1.7892,0,4v24   C0,25.7892,1.7891,24,4,24z" fill="#89714D"/><path d="M212,48H4c-2.2109,0-4-1.7892-4-4v116.0116C0,171.0352,8.9607,180,19.9763,180h176.0472   C207.0391,180,216,171.0352,216,160.0116V44C216,46.2108,214.2107,48,212,48z M108,160c-26.4689,0-48-21.5312-48-48   s21.5311-48,48-48c26.4687,0,48,21.5312,48,48S134.4687,160,108,160z" fill="#BC9A67"/><path d="M212,24H94.1407H4c-2.2109,0-4,1.7892-4,4v16c0,2.2108,1.7891,4,4,4h208c2.2107,0,4-1.7892,4-4V28   C216,25.7892,214.2107,24,212,24z" fill="#C1DB66"/><path d="M108,64c-26.4689,0-48,21.5312-48,48s21.5311,48,48,48c26.4687,0,48-21.5312,48-48S134.4687,64,108,64z    M131.4607,98.004l-22,38c-0.57,0.988-1.5428,1.6876-2.66,1.914C106.5351,137.9728,106.2655,138,106,138   c-0.8593,0-1.7033-0.2772-2.3985-0.8008l-16-12c-1.7695-1.3244-2.1288-3.832-0.8008-5.5976   c1.328-1.7696,3.832-2.1252,5.5976-0.8008l12.3984,9.2968l19.7424-34.1016c1.1052-1.914,3.5584-2.574,5.4649-1.4568   C131.9139,93.6444,132.5703,96.0936,131.4607,98.004z" fill="#C1DB66"/><path d="M130.004,92.5392c-1.9065-1.1172-4.3597-0.4572-5.4649,1.4568l-19.7424,34.1016l-12.3984-9.2968   c-1.7656-1.3244-4.2696-0.9688-5.5976,0.8008c-1.328,1.7656-0.9687,4.2732,0.8008,5.5976l16,12   C104.2967,137.7228,105.1407,138,106,138c0.2655,0,0.5351-0.0272,0.8007-0.082c1.1172-0.2264,2.09-0.926,2.66-1.914l22-38   C132.5703,96.0936,131.9139,93.6444,130.004,92.5392z" fill="#FFE9E1"/></g></svg>