<?xml version="1.0" ?><svg enable-background="new 0 0 216 180" id="folderfiles" version="1.1" viewBox="0 0 216 180" xml:space="preserve" xmlns="http://www.w3.org/2000/svg" xmlns:xlink="http://www.w3.org/1999/xlink"><g><path d="M4,24h90.1408L79.328,1.7812C78.586,0.668,77.338,0,76,0H4C1.7912,0,0,1.7892,0,4v24   C0,25.7892,1.7912,24,4,24z" fill="#89714D"/><path d="M212,48H4c-2.2088,0-4-1.7892-4-4v116.0116C0,171.0352,8.9608,180,19.9764,180h176.0472   C207.0392,180,216,171.0352,216,160.0116V44C216,46.2108,214.2088,48,212,48z M143.6092,99.5548l-3.6072,30.6716   C144.7596,133,148,138.1056,148,144c0,8.8244-7.1776,16-16,16s-16-7.1756-16-16c0-0.4844,0.0996-0.9376,0.1424-1.41   l-40.6872-19.4572C72.5468,126.1248,68.494,128,64,128c-8.8224,0-16-7.1756-16-16s7.1776-16,16-16   c4.8672,0,9.1796,2.2304,12.1152,5.668l47.9628-18.4452C124.494,74.7656,131.4432,68,140,68c8.8224,0,16,7.1756,16,16   C156,91.578,150.6932,97.9064,143.6092,99.5548z" fill="#FFDC82"/><path d="M125.7616,91.1484l-46.078,17.7228C79.8848,109.8828,80,110.9296,80,112   c0,1.4416-0.254,2.8124-0.6112,4.1408l39.406,18.8476C121.6796,130.7736,126.5196,128,132,128   c0.0704,0,0.1348,0.0196,0.2052,0.0196l3.3788-28.7188C131.2812,98.0548,127.746,95.082,125.7616,91.1484z" fill="#FFDC82"/><path d="M212,24H94.1408H4c-2.2088,0-4,1.7892-4,4v16c0,2.2108,1.7912,4,4,4h208c2.2088,0,4-1.7892,4-4V28   C216,25.7892,214.2088,24,212,24z" fill="#A48659"/><path d="M140,68c-8.5568,0-15.506,6.7656-15.922,15.2228L76.1152,101.668C73.1796,98.2304,68.8672,96,64,96   c-8.8224,0-16,7.1756-16,16s7.1776,16,16,16c4.494,0,8.5468-1.8752,11.4552-4.8672l40.6872,19.4572   C116.0996,143.0624,116,143.5156,116,144c0,8.8244,7.1776,16,16,16s16-7.1756,16-16c0-5.8944-3.2404-11-7.998-13.7736   l3.6072-30.6716C150.6932,97.9064,156,91.578,156,84C156,75.1756,148.8224,68,140,68z M132,128   c-5.4804,0-10.3204,2.7736-13.2052,6.9884l-39.406-18.8476C79.746,114.8124,80,113.4416,80,112   c0-1.0704-0.1152-2.1172-0.3164-3.1288l46.078-17.7228c1.9844,3.9336,5.5196,6.9064,9.8224,8.1524l-3.3788,28.7188   C132.1348,128.0196,132.0704,128,132,128z" fill="#FE8657"/></g></svg>