<?xml version="1.0" ?><svg data-name="Layer 1" id="Layer_1" viewBox="0 0 64 64" xmlns="http://www.w3.org/2000/svg"><defs><style>.cls-1{fill:none;stroke:#ffb90b;stroke-linecap:round;stroke-linejoin:round;stroke-width:2px;}</style></defs><title/><path class="cls-1" d="M55.13,24.85A56.55,56.55,0,0,0,39.34,9a4,4,0,0,0-4.63.14,47.45,47.45,0,0,0-13.16,14.4,4.06,4.06,0,0,0-.34,3.26l2.22,6.78L10.14,46.92a5.15,5.15,0,0,0-.48,6.86,5,5,0,0,0,7.4.36L30.5,40.71,37.34,43a4,4,0,0,0,3.41-.39,56.76,56.76,0,0,0,14.17-13A4,4,0,0,0,55.13,24.85Z"/><circle class="cls-1" cx="41.1" cy="23.03" r="3" transform="translate(-4.24 35.81) rotate(-45)"/><line class="cls-1" x1="12.82" x2="26.25" y1="49.9" y2="36.46"/></svg>