<?xml version="1.0" ?><!DOCTYPE svg  PUBLIC '-//W3C//DTD SVG 1.1//EN'  'http://www.w3.org/Graphics/SVG/1.1/DTD/svg11.dtd'><svg enable-background="new 0 0 64 64" id="Layer_1" version="1.1" viewBox="0 0 64 64" xml:space="preserve" xmlns="http://www.w3.org/2000/svg" xmlns:xlink="http://www.w3.org/1999/xlink"><path d="  M56.3,8c0,0-18.8,2.8-28.2,13.8c-3.3-1-5.5-1.3-6.9-1.3c-2,0-2.5,0.5-2.5,0.5s-6.4,6.7-6.9,10.9c0.3,0,0.6,0,0.8,0  c4.2,0,6.9,2.2,6.9,2.2S18,37.9,18,39.8c0,0.2,0,0.5,0,0.8c1.6,0.2,3.3,1,4.3,2.2c0.8,1,1.4,2.2,1.6,3.5c0.2,0,0.4,0,0.6,0  c0,0,0,0,0,0c2,0,5.7-1.5,5.7-1.5s2.5,3.1,2.1,7.7c4.2-0.5,10.9-6.9,10.9-6.9s1.6-1.6-0.7-9.5C53.4,26.8,56.3,8,56.3,8L56.3,8z" fill="none" stroke="#2C3E50" stroke-linecap="round" stroke-linejoin="round" stroke-miterlimit="10" stroke-width="2"/><circle cx="38.1" cy="26.1" fill="none" r="4.1" stroke="#2C3E50" stroke-linecap="round" stroke-linejoin="round" stroke-miterlimit="10" stroke-width="2"/><circle cx="30" cy="34.3" fill="none" r="2.8" stroke="#2C3E50" stroke-linecap="round" stroke-linejoin="round" stroke-miterlimit="10" stroke-width="2"/><path d="  M20.4,46.7c0,0-3.8,4.2-5.4,2.6s2.6-5.4,2.6-5.4s-3.5,0.8-5.1,2.5C10.9,48,9,50.7,9.2,55.2c4.5,0.2,7.1-1.7,8.8-3.4  C19.6,50.2,20.4,46.7,20.4,46.7z" fill="none" stroke="#2C3E50" stroke-linecap="round" stroke-linejoin="round" stroke-miterlimit="10" stroke-width="2"/></svg>