<?xml version="1.0" ?><svg viewBox="0 0 24.03 24" xmlns="http://www.w3.org/2000/svg"><defs><style>.cls-1{fill:#2db674;}.cls-2{fill:#fff;}.cls-3{fill:none;}</style></defs><title/><g data-name="Layer 2" id="Layer_2"><g data-name="Layer 1" id="Layer_1-2"><path class="cls-1" d="M22.31,9.76l-1-.76c.13-.46.24-.85.34-1.19.4-1.34.62-2.08.07-2.84S20.42,4.18,19,4.14l-1.24,0c-.17-.44-.3-.83-.42-1.17-.46-1.32-.72-2-1.61-2.33s-1.53.14-2.69.94l-1,.69-1-.67C10,.79,9.24.29,8.33.59s-1.15,1-1.62,2.33c-.12.33-.25.72-.42,1.16L5,4.13c-1.4,0-2.17.05-2.72.81S2,6.44,2.38,7.79c.1.34.22.73.34,1.19l-1,.76C.64,10.58,0,11.05,0,12s.61,1.41,1.72,2.26l1,.76c-.12.46-.24.85-.34,1.19-.4,1.34-.62,2.08-.07,2.84s1.33.78,2.72.82l1.23,0c.17.44.3.83.42,1.17.46,1.32.72,2,1.62,2.34s1.53-.15,2.69-.94l1-.69,1,.67a4.2,4.2,0,0,0,2.19,1,1.71,1.71,0,0,0,.53-.09c.9-.29,1.15-1,1.62-2.33.12-.33.25-.72.42-1.17l1.24,0c1.4,0,2.17-.05,2.72-.81s.34-1.5-.06-2.84c-.1-.34-.22-.73-.34-1.19l1-.76C23.41,13.43,24,13,24,12S23.42,10.61,22.31,9.76Z"/><path class="cls-2" d="M10.38,17.26h0a1,1,0,0,1-.71-.34L6.71,13.63a1,1,0,0,1,1.5-1.33l2.22,2.51,6.32-6.16a1,1,0,1,1,1.4,1.43L11.08,17A1,1,0,0,1,10.38,17.26Z"/><rect class="cls-3" height="24" width="24"/></g></g></svg>