<?xml version="1.0" ?><!DOCTYPE svg  PUBLIC '-//W3C//DTD SVG 1.1//EN'  'http://www.w3.org/Graphics/SVG/1.1/DTD/svg11.dtd'><svg enable-background="new 0 0 164 164" height="164px" id="Layer_1" version="1.1" viewBox="0 0 164 164" width="164px" xml:space="preserve" xmlns="http://www.w3.org/2000/svg" xmlns:xlink="http://www.w3.org/1999/xlink"><path clip-rule="evenodd" d="M54.293,40.448c-19.789,22.263-36.392,55.396-28.641,84.866  c11.841,45.019,70.736,2.411,98.938,1.3c16.318-0.644,19.303,1.88,35.092,6.95c3.646,1.437,5.438,5.558,4.001,9.205  c-1.437,3.646-5.558,5.438-9.205,4.001c-33.779-10.934-36.002-5.44-67.693,5.816c-30.306,10.764-64.806,14.326-74.882-23.741  c-9.144-34.543,9.029-72.098,32.065-98.028c-9.488,2.667-18.877,3.875-35.835,5.764c-3.909,0.297-7.317-2.632-7.613-6.541  c-0.296-3.909,2.632-7.317,6.541-7.613C36.72,19.13,40.98,18.223,68.211,6.187c5.868-2.844,12.75,3.255,9.946,9.496  C66.922,43.253,66.14,47.538,63.711,77.28c-0.182,3.916-3.504,6.943-7.419,6.761s-6.943-3.503-6.761-7.419  C50.934,59.506,51.87,50.074,54.293,40.448z" fill="#333333" fill-rule="evenodd"/></svg>