<?xml version="1.0" ?><!DOCTYPE svg  PUBLIC '-//W3C//DTD SVG 1.1//EN'  'http://www.w3.org/Graphics/SVG/1.1/DTD/svg11.dtd'><svg enable-background="new 0 0 164 164" height="164px" id="Layer_1" version="1.1" viewBox="0 0 164 164" width="164px" xml:space="preserve" xmlns="http://www.w3.org/2000/svg" xmlns:xlink="http://www.w3.org/1999/xlink"><path clip-rule="evenodd" d="M85.141,10.988v59.571c0,1.823-1.479,3.302-3.302,3.302  c-1.822,0-3.301-1.479-3.301-3.302v-59.6L58.319,29.074c-1.353,1.21-3.432,1.094-4.642-0.258c-1.209-1.353-1.094-3.432,0.258-4.642  L79.627,1.157c1.231-1.104,3.122-1.127,4.383,0l25.732,23.018c1.353,1.21,1.469,3.289,0.259,4.642  c-1.21,1.352-3.29,1.468-4.642,0.258L85.141,10.988L85.141,10.988z M130.844,47.919c10.795,12.075,16.695,27.588,16.695,43.781  c0,36.284-29.411,65.697-65.696,65.697c-36.287,0-65.702-29.409-65.702-65.697c0-16.193,5.9-31.706,16.695-43.781  c1.21-1.353,1.094-3.432-0.258-4.642s-3.432-1.094-4.641,0.258C16.048,56.833,9.538,73.862,9.538,91.7  c0,39.932,32.374,72.3,72.305,72.3c39.929,0,72.3-32.372,72.3-72.3c0-17.839-6.51-34.866-18.399-48.165  c-1.21-1.352-3.289-1.468-4.642-0.258C129.75,44.487,129.634,46.566,130.844,47.919z" fill="#5E5349" fill-rule="evenodd"/></svg>