<?xml version="1.0" ?><!DOCTYPE svg  PUBLIC '-//W3C//DTD SVG 1.1//EN'  'http://www.w3.org/Graphics/SVG/1.1/DTD/svg11.dtd'><svg height="32px" id="Слой_1" style="enable-background:new 0 0 32 32;" version="1.1" viewBox="0 0 32 32" width="32px" xml:space="preserve" xmlns="http://www.w3.org/2000/svg" xmlns:xlink="http://www.w3.org/1999/xlink"><g><g><path d="M23,2h-5c0-1.1-0.9-2-2-2s-2,0.9-2,2H9C6.8,2,5,3.8,5,6h4h4h6h4h4C27,3.8,25.2,2,23,2z" style="fill:#282A2D;"/><path d="M29,8c0,0-0.8,0-2,0H3C2.5,8,2,8.5,2,9v2c0,0.5,0.5,1,1,1c1.1,0,2,0.9,2,2v14c0,2.2,1.8,4,4,4h14     c2.2,0,4-1.8,4-4V14c0-1.1,0.9-2,2-2c0.5,0,1-0.5,1-1V9C30,8.5,29.5,8,29,8z M12,25c0,0.5-0.5,1-1,1s-1-0.5-1-1v-8     c0-0.5,0.5-1,1-1s1,0.5,1,1V25z M17,25c0,0.5-0.5,1-1,1s-1-0.5-1-1v-8c0-0.5,0.5-1,1-1s1,0.5,1,1V25z M22,25c0,0.5-0.5,1-1,1     s-1-0.5-1-1v-8c0-0.5,0.5-1,1-1s1,0.5,1,1V25z" style="fill:#282A2D;"/></g></g></svg>