<?xml version="1.0" ?><!DOCTYPE svg  PUBLIC '-//W3C//DTD SVG 1.1//EN'  'http://www.w3.org/Graphics/SVG/1.1/DTD/svg11.dtd'><svg height="6.82666in" style="shape-rendering:geometricPrecision; text-rendering:geometricPrecision; image-rendering:optimizeQuality; fill-rule:evenodd; clip-rule:evenodd" viewBox="0 0 6.82666 6.82666" width="6.82666in" xml:space="preserve" xmlns="http://www.w3.org/2000/svg" xmlns:xlink="http://www.w3.org/1999/xlink"><defs><style type="text/css">
   <![CDATA[
    .fil1 {fill:none}
    .fil0 {fill:#141414}
   ]]>
  </style></defs><g id="Layer_x0020_1"><g id="_280307760"><path class="fil0" d="M5.94214 2.50028c0.0414606,-0.184287 0.0415197,-0.37761 0.000543307,-0.565378l-0.721819 0.721819 -0.0354331 0.0354331 -0.048563 -0.0140984 -0.720976 -0.209311 -0.0449488 -0.0130472 -0.0130472 -0.0449488 -0.209295 -0.720965 -0.0140984 -0.048563 0.0354331 -0.0354331 0.721815 -0.721815c-0.187772,-0.0409764 -0.381087,-0.0409173 -0.565374,0.000543307 -0.220681,0.0496496 -0.428591,0.159114 -0.598449,0.328976 -0.169862,0.169862 -0.279331,0.377772 -0.32898,0.598453 -0.0516378,0.229531 -0.0390748,0.473067 0.0370433,0.702445l0.0166102 0.0500551 -0.0369409 0.0369409 -2.39546 2.39545c-0.111248,0.111244 -0.166874,0.257996 -0.166874,0.404803 0,0.146669 0.0555276,0.29328 0.166551,0.40448l0.000326772 0.000326772c0.11124,0.111244 0.257996,0.166874 0.404803,0.166874 0.146807,0 0.293563,-0.0556299 0.404803,-0.166874l2.39545 -2.39545 0.0369409 -0.0369409 0.0500551 0.0166102c0.229382,0.0761181 0.472913,0.0886811 0.702449,0.0370394 0.220681,-0.0496457 0.428591,-0.159114 0.598453,-0.328976 0.169862,-0.169858 0.279327,-0.377768 0.328976,-0.598449zm-4.48502 2.53093c0.0934173,0 0.178004,0.037874 0.239228,0.0991024 0.0612283,0.0612244 0.0991024,0.145811 0.0991024,0.239228 0,0.0934213 -0.037874,0.178004 -0.0991024,0.239232 -0.0612244,0.0612244 -0.145811,0.0990984 -0.239228,0.0990984 -0.0934213,0 -0.178004,-0.037874 -0.239232,-0.0990984 -0.0612244,-0.0612283 -0.0990984,-0.145811 -0.0990984,-0.239232 0,-0.0934173 0.037874,-0.178004 0.0990984,-0.239228 0.0612283,-0.0612283 0.145811,-0.0991024 0.239232,-0.0991024z" id="_280307832"/><path class="fil0" d="M1.6248 5.36954c0,-0.0463031 -0.0187677,-0.0882323 -0.0491024,-0.118571 -0.0303386,-0.0303346 -0.0722677,-0.0491024 -0.118571,-0.0491024 -0.046311,0 -0.0882362,0.0187677 -0.118571,0.0491024 -0.0303346,0.0303386 -0.0491063,0.0722677 -0.0491063,0.118571 0,0.046311 0.0187717,0.0882362 0.0491063,0.118571 0.0303346,0.0303346 0.0722598,0.0491063 0.118571,0.0491063 0.0463031,0 0.0882323,-0.0187717 0.118571,-0.0491063 0.0303346,-0.0303346 0.0491024,-0.0722598 0.0491024,-0.118571z" id="_280307808"/></g></g><rect class="fil1" height="6.82666" width="6.82666"/></svg>