<?xml version="1.0" ?><!DOCTYPE svg  PUBLIC '-//W3C//DTD SVG 1.1//EN'  'http://www.w3.org/Graphics/SVG/1.1/DTD/svg11.dtd'><svg enable-background="new 0 0 164 164" height="164px" id="Layer_1" version="1.1" viewBox="0 0 164 164" width="164px" xml:space="preserve" xmlns="http://www.w3.org/2000/svg" xmlns:xlink="http://www.w3.org/1999/xlink"><path clip-rule="evenodd" d="M81.843,164c-22.601,0-43.062-9.16-57.871-23.969  c-14.811-14.81-23.971-35.27-23.971-57.868c0-22.601,9.161-43.063,23.97-57.872C38.781,9.48,59.242,0.32,81.843,0.32  c22.599,0,43.058,9.162,57.867,23.971c14.81,14.81,23.97,35.272,23.97,57.872c0,22.598-9.16,43.059-23.97,57.867  C124.9,154.84,104.441,164,81.843,164L81.843,164z M28.592,135.41c13.625,13.625,32.454,22.055,53.25,22.055  c20.795,0,39.621-8.43,53.246-22.055c13.626-13.625,22.055-32.453,22.055-53.247c0-20.797-8.428-39.625-22.053-53.252  C121.464,15.284,102.638,6.855,81.843,6.855c-20.797,0-39.625,8.429-53.251,22.056C14.964,42.538,6.537,61.365,6.537,82.163  C6.537,102.958,14.964,121.785,28.592,135.41L28.592,135.41z M112.313,78.894H85.108V51.686c0-1.804-1.464-3.268-3.268-3.268  c-1.804,0-3.268,1.463-3.268,3.268v27.208H51.367c-1.804,0-3.268,1.463-3.268,3.268c0,1.805,1.464,3.268,3.268,3.268h27.207v27.204  c0,1.805,1.463,3.268,3.268,3.268c1.804,0,3.268-1.463,3.268-3.268V85.429h27.204c1.804,0,3.268-1.463,3.268-3.268  C115.58,80.357,114.116,78.894,112.313,78.894z" fill="#5E5349" fill-rule="evenodd"/></svg>