<?xml version="1.0" ?><svg enable-background="new 0 0 256 256" id="Layer_1" version="1.1" viewBox="0 0 256 256" xml:space="preserve" xmlns="http://www.w3.org/2000/svg" xmlns:xlink="http://www.w3.org/1999/xlink"><g id="Arquivo"/><g id="Arrow_2"/><g id="Edit"/><g><path clip-rule="evenodd" d="M71.564,57h61.873c2.52,0,4.564-1.573,4.564-4.093V35.034   c0-2.52-2.043-5.034-4.564-5.034H118.55c0.002,0,0.015,0.038,0.015-0.063c0-8.639-7.002-15.525-15.643-15.525   c-8.639,0-15.643,6.827-15.643,15.466c0,0.101,0.013,0.122,0.015,0.122H71.564C69.043,30,67,32.513,67,35.034v17.873   C67,55.427,69.043,57,71.564,57z M102.922,22.749c4.101,0,7.424,3.324,7.424,7.423s-3.323,7.423-7.424,7.423   c-4.1,0-7.423-3.324-7.423-7.423S98.823,22.749,102.922,22.749z" fill-rule="evenodd"/><path clip-rule="evenodd" d="M175,57.7c0-9.617-7.96-17.7-17.577-17.7H147v12.778   C147,57.983,143.547,63,138.892,64H175V57.7z" fill-rule="evenodd"/><path clip-rule="evenodd" d="M103.836,65H71.89C64.963,65,59,59.706,59,52.778V40H44.518   C34.9,40,27,48.083,27,57.7v149.838C27,217.155,34.9,225,44.518,225h41.509c-0.014,0-0.027-0.217-0.027-0.564V89.153   C86,77.977,93.582,68,103.836,65z" fill-rule="evenodd"/><path clip-rule="evenodd" d="M224.314,101.029l-22.172-23.41C198.871,74.217,194.369,72,189.649,72h-78.888   C101.596,72,94,79.988,94,89.153v135.283c0,9.165,7.596,16.564,16.761,16.564H212.7c9.165,0,16.3-7.399,16.3-16.564V113.062   C229,108.553,227.439,104.279,224.314,101.029z M212.7,232H110.761c-4.209,0-7.761-3.355-7.761-7.564V89.153   c0-4.21,3.551-8.153,7.761-8.153h76.487c2.888,1,4.753,3.961,4.753,7.099v0.949v5.443v9.887c0,4.37,3.8,7.621,8.17,7.621h7.006   h5.375h1.018c3.463,0,6.431,2.874,6.431,6.217v106.219C220,228.645,216.909,232,212.7,232z" fill-rule="evenodd"/><rect clip-rule="evenodd" fill-rule="evenodd" height="9" width="89" x="117" y="128"/><rect clip-rule="evenodd" fill-rule="evenodd" height="9" width="89" x="117" y="152"/><rect clip-rule="evenodd" fill-rule="evenodd" height="9" width="89" x="117" y="176"/><rect clip-rule="evenodd" fill-rule="evenodd" height="9" width="89" x="117" y="200"/></g><g id="Scissors"/><g id="Delete"/></svg>