<?xml version="1.0" ?><svg enable-background="new 0 0 156.0008 212.0008" id="fileaccepted" version="1.1" viewBox="0 0 156.0008 212.0008" xml:space="preserve" xmlns="http://www.w3.org/2000/svg" xmlns:xlink="http://www.w3.org/1999/xlink"><g><path d="M154.828,40.3057L115.6523,1.1728c-0.75-0.7499-1.7696-1.172-2.828-1.172H4c-2.2109,0-4,1.7893-4,4v204   c0,2.2109,1.7891,4,4,4h148c2.2107,0,4-1.7891,4-4V43.1337C156,42.0713,155.5779,41.0557,154.828,40.3057z M133.3515,144.1805   l-29.8008,45.8008c-0.6132,0.9492-1.6016,1.59-2.7187,1.7696c-0.2109,0.0352-0.4221,0.0508-0.6329,0.0508   c-0.9024,0-1.7892-0.3049-2.504-0.8788L75.496,173.1221c-1.7225-1.3828-2-3.8984-0.6173-5.6253   c1.3792-1.7187,3.9024-1.996,5.6253-0.6171l18.7499,15.0392l27.3944-42.0976c1.2032-1.8516,3.6797-2.3868,5.5312-1.172   C134.0311,139.8525,134.5583,142.3288,133.3515,144.1805z M155.6951,45.5321c-0.6172,1.496-2.078,2.4687-3.6951,2.4687h-40   c-2.2109,0-4-1.7891-4-4v-40c0-1.6171,0.9727-3.0779,2.4687-3.6951c1.496-0.6212,3.2148-0.2776,4.3593,0.8671l40,40   C155.9727,42.3173,156.3163,44.0361,155.6951,45.5321z" fill="#FFE9E1"/><path d="M114.828,1.1728c-1.1445-1.1447-2.8633-1.4883-4.3593-0.8671C108.9727,0.9229,108,2.3837,108,4.0008v40   c0,2.2109,1.7891,4,4,4h40c1.6171,0,3.0779-0.9727,3.6951-2.4687c0.6212-1.496,0.2776-3.2148-0.8671-4.3593L114.828,1.1728z" fill="#FCD1C0"/><path d="M132.1795,138.6493c-1.8515-1.2148-4.328-0.6796-5.5312,1.172l-27.3944,42.0976L80.504,166.8797   c-1.7229-1.3789-4.2461-1.1016-5.6253,0.6171c-1.3827,1.7269-1.1052,4.2425,0.6173,5.6253l22.1991,17.8008   c0.7148,0.5739,1.6016,0.8788,2.504,0.8788c0.2108,0,0.422-0.0156,0.6329-0.0508c1.1171-0.1796,2.1055-0.8204,2.7187-1.7696   l29.8008-45.8008C134.5583,142.3288,134.0311,139.8525,132.1795,138.6493z" fill="#49A25A"/></g></svg>