<?xml version="1.0" ?><svg enable-background="new 0 0 186.192 186.1972" id="emptytag" version="1.1" viewBox="0 0 186.192 186.1972" xml:space="preserve" xmlns="http://www.w3.org/2000/svg" xmlns:xlink="http://www.w3.org/1999/xlink"><g><path d="M183.3596,6.6424c-0.0996-2.0588-1.746-3.7072-3.8068-3.8048l-59.3964-2.828   c-1.1308-0.082-2.2208,0.3672-3.0176,1.168L1.172,117.1424c-0.75,0.75-1.172,1.7656-1.172,2.828   c0,1.0628,0.422,2.0784,1.172,2.8284l62.2264,62.2264c0.7816,0.7812,1.8048,1.172,2.8284,1.172c1.0232,0,2.0468-0.3908,2.828-1.172   L185.0196,69.0604c0.7968-0.7968,1.2208-1.8944,1.168-3.0196L183.3596,6.6424z M151.0784,57.744   c-3.0216,3.0232-7.0392,4.6876-11.3128,4.6876c-4.2732,0-8.2908-1.6644-11.3144-4.6876   c-3.0212-3.0196-4.6856-7.0392-4.6856-11.3124c0-4.2736,1.6644-8.2892,4.6856-11.3128c6.0432-6.0468,16.584-6.0468,22.6272,0   c3.0232,3.0236,4.6872,7.0392,4.6872,11.3128C155.7656,50.7088,154.0996,54.7244,151.0784,57.744z" fill="#C1DB66"/><path d="M128.4512,35.1188c-3.0212,3.0236-4.6856,7.0392-4.6856,11.3128c0,4.2732,1.6644,8.2928,4.6856,11.3124   c3.0236,3.0232,7.0412,4.6876,11.3144,4.6876c4.2736,0,8.2912-1.6644,11.3128-4.6876c3.0212-3.0196,4.6872-7.0352,4.6872-11.3124   c0-4.2736-1.664-8.2892-4.6872-11.3128C145.0352,29.072,134.4944,29.072,128.4512,35.1188z" fill="#9AB040"/></g></svg>