<?xml version="1.0" ?><svg enable-background="new 0 0 156.0008 212.0008" id="filedenied" version="1.1" viewBox="0 0 156.0008 212.0008" xml:space="preserve" xmlns="http://www.w3.org/2000/svg" xmlns:xlink="http://www.w3.org/1999/xlink"><g><path d="M154.828,40.3057L115.6523,1.1728c-0.75-0.7499-1.7696-1.172-2.828-1.172H4c-2.2109,0-4,1.7893-4,4v204   c0,2.2109,1.7891,4,4,4h148c2.2107,0,4-1.7891,4-4V43.1337C156,42.0713,155.5779,41.0557,154.828,40.3057z M130.6287,143.0321   l-17.9724,17.9727l15.9688,15.9689c1.5624,1.5624,1.5624,4.0936,0,5.656c-0.7816,0.7812-1.8048,1.172-2.8284,1.172   c-1.0232,0-2.0468-0.3908-2.828-1.172L107,166.6608l-15.9729,15.9689c-0.7812,0.7812-1.8044,1.172-2.828,1.172   c-1.0236,0-2.0468-0.3908-2.828-1.172c-1.5628-1.5624-1.5628-4.0936,0-5.656l15.9724-15.9689l-16.5584-16.5587   c-1.5624-1.5624-1.5624-4.0936,0-5.656c1.5624-1.5628,4.0936-1.5628,5.6564,0L107,155.3485l17.9727-17.9728   c1.5624-1.5624,4.0936-1.5624,5.656,0C132.1915,138.9385,132.1915,141.4697,130.6287,143.0321z M155.6951,45.5321   c-0.6172,1.496-2.078,2.4687-3.6951,2.4687h-40c-2.2109,0-4-1.7891-4-4v-40c0-1.6171,0.9727-3.0779,2.4687-3.6951   c1.5-0.6212,3.2188-0.2776,4.3593,0.8671l40,40C155.9727,42.3173,156.3163,44.0361,155.6951,45.5321z" fill="#FFE9E1"/><path d="M114.828,1.1728c-1.1405-1.1447-2.8593-1.4883-4.3593-0.8671C108.9727,0.9229,108,2.3837,108,4.0008v40   c0,2.2109,1.7891,4,4,4h40c1.6171,0,3.0779-0.9727,3.6951-2.4687c0.6212-1.496,0.2776-3.2148-0.8671-4.3593L114.828,1.1728z" fill="#FCD1C0"/><path d="M124.9727,137.3757L107,155.3485l-16.5585-16.5584c-1.5628-1.5628-4.094-1.5628-5.6564,0   c-1.5624,1.5624-1.5624,4.0936,0,5.656l16.5584,16.5587l-15.9724,15.9689c-1.5628,1.5624-1.5628,4.0936,0,5.656   c0.7812,0.7812,1.8044,1.172,2.828,1.172c1.0236,0,2.0468-0.3908,2.828-1.172L107,166.6608l15.9687,15.9689   c0.7812,0.7812,1.8048,1.172,2.828,1.172c1.0236,0,2.0468-0.3908,2.8284-1.172c1.5624-1.5624,1.5624-4.0936,0-5.656   l-15.9688-15.9689l17.9724-17.9727c1.5628-1.5624,1.5628-4.0936,0-5.6564C129.0663,135.8133,126.5351,135.8133,124.9727,137.3757z" fill="#FD5A5A"/></g></svg>