<?xml version="1.0" ?><svg enable-background="new 0 0 156 212.0034" id="filemessage" version="1.1" viewBox="0 0 156 212.0034" xml:space="preserve" xmlns="http://www.w3.org/2000/svg" xmlns:xlink="http://www.w3.org/1999/xlink"><g><path d="M154.8259,40.3082L115.6503,1.1754c-0.75-0.75-1.7656-1.172-2.826-1.172H4c-2.2089,0-4,1.7892-4,4v204   c0,2.2108,1.7911,4,4,4h148c2.2087,0,4-1.7892,4-4V43.1362C156,42.0738,155.5779,41.0582,154.8259,40.3082z M78,156.0034   c-4.3165,0-8.5725-0.5936-12.6797-1.7696l-17.4376,9.3008c-0.5936,0.3124-1.2404,0.4688-1.8827,0.4688   c-0.9729,0-1.9377-0.3556-2.6917-1.0392c-1.25-1.1364-1.65-2.9372-1-4.5l5.668-13.6052C37.7831,136.109,32,123.5738,32,110.0034   c0-25.3632,20.6347-46,46-46c25.3651,0,46,20.6368,46,46S103.3651,156.0034,78,156.0034z M155.6951,45.5346   c-0.6191,1.496-2.078,2.4688-3.6951,2.4688h-40c-2.2089,0-4-1.7892-4-4v-40c0-1.6172,0.9747-3.078,2.4687-3.6952   c1.496-0.6252,3.2108-0.2812,4.3593,0.8672l40,40C155.9727,42.3198,156.3143,44.0386,155.6951,45.5346z" fill="#FFE9E1"/><path d="M114.828,1.1754c-1.1485-1.1484-2.8633-1.4924-4.3593-0.8672C108.9747,0.9254,108,2.3862,108,4.0034v40   c0,2.2108,1.7911,4,4,4h40c1.6171,0,3.076-0.9728,3.6951-2.4688c0.6192-1.496,0.2776-3.2148-0.8671-4.3592L114.828,1.1754z" fill="#FCD1C0"/><path d="M78,64.0034c-25.3653,0-46,20.6368-46,46c0,13.5704,5.7831,26.1056,15.9763,34.8556l-5.668,13.6052   c-0.65,1.5628-0.25,3.3636,1,4.5c0.754,0.6836,1.7188,1.0392,2.6917,1.0392c0.6423,0,1.2891-0.1564,1.8827-0.4688l17.4376-9.3008   c4.1072,1.176,8.3632,1.7696,12.6797,1.7696c25.3651,0,46-20.6368,46-46S103.3651,64.0034,78,64.0034z M60,116.0034   c-4.412,0-8-3.59-8-8c0-4.41,3.588-8,8-8c4.412,0,8,3.59,8,8C68,112.4134,64.412,116.0034,60,116.0034z M80,116.0034   c-4.412,0-8-3.59-8-8c0-4.41,3.588-8,8-8c4.412,0,8,3.59,8,8C88,112.4134,84.412,116.0034,80,116.0034z M100,116.0034   c-4.412,0-8-3.59-8-8c0-4.41,3.588-8,8-8c4.412,0,8,3.59,8,8C108,112.4134,104.412,116.0034,100,116.0034z" fill="#50CCD3"/><path d="M60,100.0034c-4.412,0-8,3.59-8,8c0,4.41,3.588,8,8,8c4.412,0,8-3.59,8-8   C68,103.5934,64.412,100.0034,60,100.0034z" fill="#456782"/><path d="M80,100.0034c-4.412,0-8,3.59-8,8c0,4.41,3.588,8,8,8c4.412,0,8-3.59,8-8   C88,103.5934,84.412,100.0034,80,100.0034z" fill="#456782"/><path d="M100,100.0034c-4.412,0-8,3.59-8,8c0,4.41,3.588,8,8,8c4.412,0,8-3.59,8-8   C108,103.5934,104.412,100.0034,100,100.0034z" fill="#456782"/></g></svg>