<?xml version="1.0" ?><svg enable-background="new 0 0 156.0008 212.0009" id="filetrash" version="1.1" viewBox="0 0 156.0008 212.0009" xml:space="preserve" xmlns="http://www.w3.org/2000/svg" xmlns:xlink="http://www.w3.org/1999/xlink"><g><path d="M154.828,40.3057L115.6523,1.1729c-0.75-0.75-1.7696-1.172-2.828-1.172H4c-2.2109,0-4,1.7892-4,4v204   c0,2.2108,1.7891,4,4,4h148c2.2107,0,4-1.7892,4-4V43.1337C156,42.0713,155.5779,41.0557,154.828,40.3057z M128,100.0009h-12v80   c0,2.2108-1.7893,4-4,4H48c-2.2109,0-4-1.7892-4-4v-80H32v-8h16h12v-0.004c0-11.0272,8.9727-19.996,20-19.996   c11.0271,0,20,8.9688,20,19.996v0.004h12h16V100.0009z M155.6951,45.5321c-0.6172,1.496-2.078,2.4688-3.6951,2.4688h-40   c-2.2109,0-4-1.7892-4-4v-40c0-1.6172,0.9727-3.078,2.4687-3.6952c1.5-0.6212,3.2188-0.2776,4.3593,0.8672l40,40   C155.9727,42.3173,156.3163,44.0361,155.6951,45.5321z" fill="#FFE9E1"/><path d="M80,80.0009c-6.6173,0-12,5.3828-12,11.996v0.004h24v-0.004C92,85.3837,86.6171,80.0009,80,80.0009z" fill="#FFE9E1"/><path d="M114.828,1.1729c-1.1405-1.1448-2.8593-1.4884-4.3593-0.8672C108.9727,0.9229,108,2.3837,108,4.0009v40   c0,2.2108,1.7891,4,4,4h40c1.6171,0,3.0779-0.9728,3.6951-2.4688c0.6212-1.496,0.2776-3.2148-0.8671-4.3592L114.828,1.1729z" fill="#FCD1C0"/><path d="M100,160.0009c0,2.2108-1.7893,4-4,4c-2.2109,0-4-1.7892-4-4v-60H68v60c0,2.2108-1.7893,4-4,4   c-2.2109,0-4-1.7892-4-4v-60H44v80c0,2.2108,1.7891,4,4,4h64c2.2107,0,4-1.7892,4-4v-80h-16V160.0009z" fill="#FCC24C"/><path d="M100,92.0009v-0.004c0-11.0272-8.9729-19.996-20-19.996c-11.0273,0-20,8.9688-20,19.996v0.004H48H32v8h12   h16v60c0,2.2108,1.7891,4,4,4c2.2107,0,4-1.7892,4-4v-60h24v60c0,2.2108,1.7891,4,4,4c2.2107,0,4-1.7892,4-4v-60h16h12v-8h-16H100z    M68,92.0009v-0.004c0-6.6132,5.3827-11.996,12-11.996c6.6171,0,12,5.3828,12,11.996v0.004H68z" fill="#F8A131"/></g></svg>