<?xml version="1.0" ?><svg enable-background="new 0 0 192 192" id="ot" version="1.1" viewBox="0 0 192 192" xml:space="preserve" xmlns="http://www.w3.org/2000/svg" xmlns:xlink="http://www.w3.org/1999/xlink"><g><path d="M188,84c1.1015,0,2.1015,0.4472,2.8243,1.168L168,62.3436V84H188z" fill="#4A8F9E"/><path d="M191.7383,86.6952c0.1172,0.336,0.1912,0.6916,0.2148,1.0628   C191.9295,87.3924,191.8591,87.0412,191.7383,86.6952z" fill="#4A8F9E"/><path d="M190.84,85.1896c0.32,0.322,0.5699,0.7128,0.7615,1.1308C191.4139,85.91,191.172,85.5236,190.84,85.1896z" fill="#4A8F9E"/><path d="M0.0467,87.758c0.0236-0.3712,0.0976-0.7268,0.2148-1.0628C0.1407,87.0392,0.0703,87.3908,0.0467,87.758z" fill="#4A8F9E"/><path d="M24,84V62.3436L1.1755,85.168C1.8983,84.4472,2.8943,84,4,84H24z" fill="#4A8F9E"/><path d="M0.3983,86.3204c0.1952-0.418,0.4417-0.8088,0.7617-1.1308C0.828,85.5236,0.5899,85.91,0.3983,86.3204z" fill="#4A8F9E"/><path d="M168,84V62.3436v-24l-1.172-1.1716c1.1447,1.1444,1.4883,2.8632,0.8671,4.3592   C167.0779,43.0252,165.6171,44,164,44h-36c-2.2109,0-4-1.7912-4-4V4c0-1.6172,0.9727-3.076,2.4687-3.6952   c1.5-0.6132,3.2148-0.2796,4.3593,0.8672L129.6563,0H24v62.3436V84H168z" fill="#C6DFED"/><rect fill="#C6DFED" height="24" width="144" x="24" y="168"/><path d="M75.2579,140.3712c0.7501,1.5896,1.6756,2.832,2.7888,3.742c1.1096,0.9064,2.414,1.3596,3.9104,1.3596   c1.496,0,2.7968-0.4532,3.91-1.3596c1.1092-0.91,2.0392-2.1524,2.7852-3.742c0.75-1.588,1.3048-3.4552,1.668-5.6116   c0.3632-2.152,0.5428-4.4512,0.5428-6.9004c0-2.4472-0.1911-4.746-0.578-6.904c-0.3828-2.1504-0.9491-4.006-1.6992-5.5764   c-0.7499-1.5624-1.676-2.7948-2.7892-3.7032c-1.1092-0.908-2.3904-1.3592-3.8396-1.3592c-1.4964,0-2.8008,0.4512-3.9104,1.3592   c-1.1132,0.9084-2.0387,2.1408-2.7888,3.7032c-0.7464,1.5704-1.3048,3.426-1.6644,5.5764c-0.3632,2.158-0.5468,4.4568-0.5468,6.904   c0,2.4492,0.1836,4.7484,0.5468,6.9004C73.9531,136.916,74.5115,138.7832,75.2579,140.3712z" fill="#A48659"/><path d="M191.9531,87.758c-0.0236-0.3712-0.0976-0.7268-0.2148-1.0628c-0.0468-0.1288-0.0783-0.2536-0.1368-0.3748   c-0.1916-0.418-0.4415-0.8088-0.7615-1.1308c-0.004-0.006-0.008-0.014-0.0157-0.0216C190.1015,84.4472,189.1015,84,188,84h-20H24H4   c-1.1057,0-2.1017,0.4472-2.8245,1.168C1.168,85.1756,1.164,85.1836,1.16,85.1896c-0.32,0.322-0.5665,0.7128-0.7617,1.1308   c-0.0583,0.1212-0.09,0.246-0.1368,0.3748c-0.1172,0.336-0.1912,0.6916-0.2148,1.0628C0.0427,87.8416,0,87.914,0,88v76   c0,2.2088,1.7891,4,4,4h20h144h20c2.2107,0,4-1.7912,4-4V88C192,87.914,191.9571,87.8436,191.9531,87.758z M64.6171,127.8592   c0-3.8084,0.3829-7.2516,1.1564-10.3356c0.7692-3.084,1.902-5.7364,3.3985-7.9552c1.496-2.2208,3.32-3.9316,5.4723-5.1368   c2.1564-1.1992,4.59-1.7988,7.3128-1.7988c2.6756,0,5.0856,0.5996,7.242,1.7988c2.1524,1.2052,3.9764,2.916,5.4729,5.1368   c1.496,2.2188,2.6403,4.8712,3.4335,7.9552c0.7928,3.084,1.1912,6.5272,1.1912,10.3356c0,3.8088-0.3984,7.2656-1.1912,10.3692   c-0.7932,3.1076-1.9375,5.7716-3.4335,7.9924c-1.4965,2.2188-3.3205,3.9432-5.4729,5.166c-2.1564,1.2264-4.5664,1.836-7.242,1.836   c-2.7228,0-5.1448-0.6096-7.2776-1.836c-2.1288-1.2228-3.9452-2.9472-5.4412-5.166c-1.4964-2.2208-2.6408-4.8848-3.4336-7.9924   C65.0115,135.1248,64.6171,131.668,64.6171,127.8592z M125.9531,110.7928h-9.0468V152h-8.0236v-41.2072H99.84v-6.9372h26.1131   V110.7928z" fill="#A48659"/><path d="M126.4687,0.3048C124.9727,0.924,124,2.3828,124,4v36c0,2.2088,1.7891,4,4,4h36   c1.6171,0,3.0779-0.9748,3.6951-2.4688c0.6212-1.496,0.2776-3.2148-0.8671-4.3592l-36-36   C129.6835,0.0252,127.9687-0.3084,126.4687,0.3048z" fill="#A9C7D8"/><polygon fill="#FFE9E1" points="99.84,110.7928 108.8827,110.7928 108.8827,152 116.9063,152 116.9063,110.7928 125.9531,110.7928    125.9531,103.8556 99.84,103.8556  "/><path d="M74.6795,151.3868c2.1328,1.2264,4.5548,1.836,7.2776,1.836c2.6756,0,5.0856-0.6096,7.242-1.836   c2.1524-1.2228,3.9764-2.9472,5.4729-5.166c1.496-2.2208,2.6403-4.8848,3.4335-7.9924c0.7928-3.1036,1.1912-6.5604,1.1912-10.3692   c0-3.8084-0.3984-7.2516-1.1912-10.3356c-0.7932-3.084-1.9375-5.7364-3.4335-7.9552c-1.4965-2.2208-3.3205-3.9316-5.4729-5.1368   c-2.1564-1.1992-4.5664-1.7988-7.242-1.7988c-2.7228,0-5.1564,0.5996-7.3128,1.7988c-2.1523,1.2052-3.9763,2.916-5.4723,5.1368   c-1.4965,2.2188-2.6293,4.8712-3.3985,7.9552c-0.7735,3.084-1.1564,6.5272-1.1564,10.3356c0,3.8088,0.3944,7.2656,1.1876,10.3692   c0.7928,3.1076,1.9372,5.7716,3.4336,7.9924C70.7343,148.4396,72.5507,150.164,74.6795,151.3868z M73.5935,120.9552   c0.3596-2.1504,0.918-4.006,1.6644-5.5764c0.7501-1.5624,1.6756-2.7948,2.7888-3.7032c1.1096-0.908,2.414-1.3592,3.9104-1.3592   c1.4492,0,2.7304,0.4512,3.8396,1.3592c1.1132,0.9084,2.0393,2.1408,2.7892,3.7032c0.7501,1.5704,1.3164,3.426,1.6992,5.5764   c0.3869,2.158,0.578,4.4568,0.578,6.904c0,2.4492-0.1796,4.7484-0.5428,6.9004c-0.3632,2.1564-0.918,4.0236-1.668,5.6116   c-0.746,1.5896-1.676,2.832-2.7852,3.742c-1.1132,0.9064-2.414,1.3596-3.91,1.3596c-1.4964,0-2.8008-0.4532-3.9104-1.3596   c-1.1132-0.91-2.0387-2.1524-2.7888-3.742c-0.7464-1.588-1.3048-3.4552-1.6644-5.6116c-0.3632-2.152-0.5468-4.4512-0.5468-6.9004   C73.0467,125.412,73.2303,123.1132,73.5935,120.9552z" fill="#FFE9E1"/></g></svg>