<?xml version="1.0" ?><svg enable-background="new 0 0 192 192.0017" id="ai" version="1.1" viewBox="0 0 192 192.0017" xml:space="preserve" xmlns="http://www.w3.org/2000/svg" xmlns:xlink="http://www.w3.org/1999/xlink"><g><path d="M188,84.0017c1.1036,0,2.1036,0.4472,2.826,1.172L168,62.3453v21.6564H188z" fill="#4A8F9E"/><path d="M190.832,85.1813c0.3244,0.3244,0.5744,0.7188,0.7716,1.1408   C191.41,85.9081,191.166,85.5153,190.832,85.1813z" fill="#4A8F9E"/><path d="M191.7364,86.6989c0.1172,0.334,0.1892,0.6876,0.2128,1.0568   C191.9276,87.3925,191.8556,87.0409,191.7364,86.6989z" fill="#4A8F9E"/><path d="M0.3964,86.3221c0.1972-0.422,0.4472-0.8164,0.7716-1.1408C0.834,85.5153,0.59,85.9081,0.3964,86.3221z" fill="#4A8F9E"/><path d="M0.0508,87.7557c0.0236-0.3692,0.0956-0.7228,0.2128-1.0568C0.1444,87.0409,0.0724,87.3925,0.0508,87.7557z   " fill="#4A8F9E"/><path d="M24,84.0017V62.3453L1.174,85.1737c0.7224-0.7248,1.7224-1.172,2.826-1.172H24z" fill="#4A8F9E"/><path d="M168,84.0017V62.3453v-24l-1.172-1.1716c1.1448,1.1444,1.4864,2.8632,0.8672,4.3592   c-0.6192,1.494-2.078,2.4688-3.6952,2.4688h-36c-2.2088,0-4-1.7912-4-4v-36c0-1.6172,0.9748-3.076,2.4688-3.6952   c1.494-0.6212,3.2128-0.2812,4.3592,0.8672l-1.1716-1.172H24v62.3436v21.6564H168z" fill="#C6DFED"/><rect fill="#C6DFED" height="24" width="144" x="24" y="168.0017"/><path d="M191.9492,87.7557c-0.0236-0.3692-0.0956-0.7228-0.2128-1.0568c-0.0448-0.1288-0.0764-0.2556-0.1328-0.3768   c-0.1972-0.422-0.4472-0.8164-0.7716-1.1408c-0.002-0.004-0.002-0.0076-0.002-0.0076c-0.7264-0.7248-1.7264-1.172-2.83-1.172h-20   H24H4c-1.1036,0-2.1036,0.4472-2.826,1.172c0,0-0.004,0.0036-0.006,0.0076c-0.3244,0.3244-0.5744,0.7188-0.7716,1.1408   c-0.0564,0.1212-0.088,0.248-0.1328,0.3768c-0.1172,0.334-0.1892,0.6876-0.2128,1.0568C0.0448,87.8417,0,87.9137,0,88.0017v76   c0,2.2088,1.7912,4,4,4h20h144h20c2.2088,0,4-1.7912,4-4v-76C192,87.9137,191.9552,87.8417,191.9492,87.7557z M69.9552,152.0017   l11.9688-48.1444h10.404l11.7636,48.1444h-8.5l-2.3788-10.1992H80.5644l-2.4492,10.1992H69.9552z M117.2832,152.0017h-8.158   v-48.1444h8.158V152.0017z" fill="#FE8657"/><polygon fill="#FE8657" points="87.0916,111.5409 86.8204,111.5409 81.584,135.4101 92.1916,135.4101  "/><path d="M126.4688,0.3065C124.9748,0.9257,124,2.3845,124,4.0017v36c0,2.2088,1.7912,4,4,4h36   c1.6172,0,3.076-0.9748,3.6952-2.4688c0.6192-1.496,0.2776-3.2148-0.8672-4.3592l-36-36   C129.6816,0.0253,127.9628-0.3147,126.4688,0.3065z" fill="#A9C7D8"/><rect fill="#FFE9E1" height="48.1444" width="8.158" x="109.1252" y="103.8573"/><path d="M93.2128,141.8025l2.3788,10.1992h8.5L92.328,103.8573H81.924l-11.9688,48.1444h8.16l2.4492-10.1992   H93.2128z M86.8204,111.5409h0.2712l5.1,23.8692H81.584L86.8204,111.5409z" fill="#FFE9E1"/></g></svg>