<?xml version="1.0" ?><svg enable-background="new 0 0 192 192.0022" id="otf" version="1.1" viewBox="0 0 192 192.0022" xml:space="preserve" xmlns="http://www.w3.org/2000/svg" xmlns:xlink="http://www.w3.org/1999/xlink"><g><path d="M168,84.0022V62.3458v-24l-1.172-1.1716c1.1448,1.1444,1.4864,2.8632,0.8672,4.3592   c-0.6192,1.494-2.078,2.4688-3.6952,2.4688h-36c-2.2088,0-4-1.7912-4-4v-36c0-1.6172,0.9748-3.076,2.4688-3.6952   c1.494-0.6232,3.2128-0.2796,4.3592,0.8672l-1.1716-1.172H24v62.3436v21.6564H168z" fill="#C6DFED"/><rect fill="#C6DFED" height="24" width="144" x="24" y="168.0022"/><path d="M191.9492,87.7562c-0.0216-0.3632-0.0936-0.7148-0.2128-1.0568c-0.0448-0.1288-0.0764-0.2556-0.1328-0.3768   c-0.1936-0.414-0.4376-0.8068-0.7716-1.1408c-0.002-0.004-0.002-0.0076-0.002-0.0076L168,62.3458v21.6564H24V62.3458L1.174,85.1742   c0,0-0.004,0.0036-0.006,0.0076c-0.334,0.334-0.578,0.7268-0.7716,1.1408c-0.0564,0.1212-0.088,0.248-0.1328,0.3768   c-0.1192,0.342-0.1912,0.6936-0.2128,1.0568C0.0448,87.8422,0,87.9142,0,88.0022v76c0,2.2088,1.7912,4,4,4h20h144h20   c2.2088,0,4-1.7912,4-4v-76C192,87.9142,191.9572,87.8422,191.9492,87.7562z M52.6152,127.8614   c0-3.8084,0.3868-7.2516,1.1564-10.3356c0.7712-3.084,1.904-5.7364,3.4004-7.9552c1.496-2.2208,3.32-3.9316,5.4744-5.1368   c2.1524-1.1992,4.59-1.7988,7.3108-1.7988c2.6736,0,5.0876,0.5996,7.24,1.7988c2.1544,1.2052,3.9784,2.916,5.4748,5.1368   c1.496,2.2188,2.6404,4.8712,3.4336,7.9552c0.7928,3.084,1.1912,6.5272,1.1912,10.3356c0,3.8088-0.3984,7.264-1.1912,10.3672   c-0.7932,3.1096-1.9376,5.7736-3.4336,7.9944c-1.4964,2.2188-3.3204,3.9432-5.4748,5.166c-2.1524,1.2264-4.5664,1.836-7.24,1.836   c-2.7208,0-5.1468-0.6096-7.2776-1.836c-2.1308-1.2228-3.9432-2.9472-5.4392-5.166c-1.4964-2.2208-2.6408-4.8848-3.4336-7.9944   C53.0136,135.1254,52.6152,131.6702,52.6152,127.8614z M87.84,110.7934v-6.9356h26.1112v6.9356h-9.0428v41.2088h-8.0236v-41.2088   H87.84z M140.2676,111.2014h-13.3964v13.1252h12.3768v7.0036h-12.3084v20.672h-8.2268v-48.1444h21.5548V111.2014z" fill="#4A8F9E"/><path d="M63.258,140.3734c0.748,1.5896,1.6776,2.832,2.7888,3.742c1.1096,0.9064,2.414,1.3596,3.9104,1.3596   c1.494,0,2.7988-0.4532,3.908-1.3596c1.1112-0.91,2.0412-2.1524,2.7892-3.742c0.748-1.588,1.3028-3.4552,1.666-5.6116   c0.3632-2.152,0.5428-4.4512,0.5428-6.9004c0-2.4472-0.1912-4.746-0.578-6.904c-0.3848-2.1504-0.9512-4.006-1.6992-5.5764   c-0.748-1.5624-1.6776-2.7948-2.7872-3.7032c-1.1112-0.908-2.3924-1.3592-3.8416-1.3592c-1.4964,0-2.8008,0.4512-3.9104,1.3592   c-1.1112,0.9084-2.0408,2.1408-2.7888,3.7032c-0.7484,1.5704-1.3028,3.426-1.6664,5.5764c-0.3632,2.158-0.5428,4.4568-0.5428,6.904   c0,2.4492,0.1796,4.7484,0.5428,6.9004C61.9552,136.9182,62.5096,138.7854,63.258,140.3734z" fill="#4A8F9E"/><path d="M126.4688,0.307C124.9748,0.9262,124,2.385,124,4.0022v36c0,2.2088,1.7912,4,4,4h36   c1.6172,0,3.076-0.9748,3.6952-2.4688c0.6192-1.496,0.2776-3.2148-0.8672-4.3592l-36-36   C129.6816,0.0274,127.9628-0.3162,126.4688,0.307z" fill="#A9C7D8"/><path d="M62.6796,151.389c2.1308,1.2264,4.5568,1.836,7.2776,1.836c2.6736,0,5.0876-0.6096,7.24-1.836   c2.1544-1.2228,3.9784-2.9472,5.4748-5.166c1.496-2.2208,2.6404-4.8848,3.4336-7.9944c0.7928-3.1032,1.1912-6.5584,1.1912-10.3672   c0-3.8084-0.3984-7.2516-1.1912-10.3356c-0.7932-3.084-1.9376-5.7364-3.4336-7.9552c-1.4964-2.2208-3.3204-3.9316-5.4748-5.1368   c-2.1524-1.1992-4.5664-1.7988-7.24-1.7988c-2.7208,0-5.1584,0.5996-7.3108,1.7988c-2.1544,1.2052-3.9784,2.916-5.4744,5.1368   c-1.4964,2.2188-2.6292,4.8712-3.4004,7.9552c-0.7696,3.084-1.1564,6.5272-1.1564,10.3356c0,3.8088,0.3984,7.264,1.1916,10.3672   c0.7928,3.1096,1.9372,5.7736,3.4336,7.9944C58.7364,148.4418,60.5488,150.1662,62.6796,151.389z M61.5916,120.9574   c0.3636-2.1504,0.918-4.006,1.6664-5.5764c0.748-1.5624,1.6776-2.7948,2.7888-3.7032c1.1096-0.908,2.414-1.3592,3.9104-1.3592   c1.4492,0,2.7304,0.4512,3.8416,1.3592c1.1096,0.9084,2.0392,2.1408,2.7872,3.7032c0.748,1.5704,1.3144,3.426,1.6992,5.5764   c0.3868,2.158,0.578,4.4568,0.578,6.904c0,2.4492-0.1796,4.7484-0.5428,6.9004c-0.3632,2.1564-0.918,4.0236-1.666,5.6116   c-0.748,1.5896-1.678,2.832-2.7892,3.742c-1.1092,0.9064-2.414,1.3596-3.908,1.3596c-1.4964,0-2.8008-0.4532-3.9104-1.3596   c-1.1112-0.91-2.0408-2.1524-2.7888-3.742c-0.7484-1.588-1.3028-3.4552-1.6664-5.6116c-0.3632-2.152-0.5428-4.4512-0.5428-6.9004   C61.0488,125.4142,61.2284,123.1154,61.5916,120.9574z" fill="#FFE9E1"/><polygon fill="#FFE9E1" points="104.9084,152.0022 104.9084,110.7934 113.9512,110.7934 113.9512,103.8578 87.84,103.8578    87.84,110.7934 96.8848,110.7934 96.8848,152.0022  "/><polygon fill="#FFE9E1" points="118.7128,152.0022 126.9396,152.0022 126.9396,131.3302 139.248,131.3302 139.248,124.3266    126.8712,124.3266 126.8712,111.2014 140.2676,111.2014 140.2676,103.8578 118.7128,103.8578  "/></g></svg>