<?xml version="1.0" ?><svg enable-background="new 0 0 192 192.0031" id="ppt" version="1.1" viewBox="0 0 192 192.0031" xml:space="preserve" xmlns="http://www.w3.org/2000/svg" xmlns:xlink="http://www.w3.org/1999/xlink"><g><path d="M188,84.0031c1.1036,0,2.1036,0.4472,2.826,1.172L168,62.3467v21.6564H188z" fill="#4A8F9E"/><path d="M191.7364,86.6983c0.1172,0.336,0.1892,0.6896,0.2128,1.0588   C191.9276,87.3939,191.8556,87.0423,191.7364,86.6983z" fill="#4A8F9E"/><path d="M190.832,85.1827c0.3244,0.3244,0.5744,0.7188,0.7716,1.1408   C191.41,85.9095,191.166,85.5167,190.832,85.1827z" fill="#4A8F9E"/><path d="M0.0508,87.7571c0.0236-0.3692,0.0956-0.7228,0.2128-1.0588C0.1444,87.0423,0.0724,87.3939,0.0508,87.7571z   " fill="#4A8F9E"/><path d="M0.3964,86.3235c0.1972-0.422,0.4472-0.8164,0.7716-1.1408C0.834,85.5167,0.59,85.9095,0.3964,86.3235z" fill="#4A8F9E"/><path d="M24,84.0031V62.3467L1.174,85.1751c0.7224-0.7248,1.7224-1.172,2.826-1.172H24z" fill="#4A8F9E"/><path d="M168,84.0031V62.3467v-24l-1.172-1.1716c1.1448,1.1444,1.4864,2.8632,0.8672,4.3592   c-0.6192,1.494-2.078,2.4688-3.6952,2.4688h-36c-2.2088,0-4-1.7912-4-4v-36c0-1.6172,0.9748-3.076,2.4688-3.6952   c1.494-0.6252,3.2128-0.2796,4.3592,0.8672l-1.1716-1.172H24v62.3436v21.6564H168z" fill="#C6DFED"/><rect fill="#C6DFED" height="24" width="144" x="24" y="168.0031"/><path d="M105.5196,124.0227c1.2244-1.34,1.836-3.2988,1.836-5.8828c0-2.586-0.6116-4.4648-1.836-5.6448   c-1.2228-1.1796-2.7872-1.7692-4.6916-1.7692h-4.6248v15.3008h4.6248C102.7324,126.0267,104.2968,125.3587,105.5196,124.0227z" fill="#9AB040"/><path d="M191.9492,87.7571c-0.0236-0.3692-0.0956-0.7228-0.2128-1.0588c-0.0448-0.1268-0.0764-0.2536-0.1328-0.3748   c-0.1972-0.422-0.4472-0.8164-0.7716-1.1408c-0.002-0.004-0.002-0.0076-0.002-0.0076c-0.7264-0.7248-1.7264-1.172-2.83-1.172h-20   H24H4c-1.1036,0-2.1036,0.4472-2.826,1.172c0,0-0.004,0.0036-0.006,0.0076c-0.3244,0.3244-0.5744,0.7188-0.7716,1.1408   c-0.0564,0.1212-0.088,0.248-0.1328,0.3748c-0.1172,0.336-0.1892,0.6896-0.2128,1.0588C0.0448,87.8431,0,87.9151,0,88.0031v76   c0,2.2088,1.7912,4,4,4h20h144h20c2.2088,0,4-1.7912,4-4v-76C192,87.9151,191.9572,87.8431,191.9492,87.7571z M54.5196,152.0031   v-48.1444h13.328c1.5412,0,3.1288,0.2284,4.76,0.6796c1.6328,0.4532,3.0936,1.2364,4.3864,2.3436   c1.2912,1.1132,2.3576,2.5764,3.1956,4.3888c0.8396,1.8124,1.2576,4.08,1.2576,6.8008c0,2.4472-0.3728,4.588-1.1212,6.4236   c-0.748,1.84-1.7344,3.3672-2.9588,4.592c-1.2228,1.2244-2.6288,2.1308-4.2148,2.7208c-1.588,0.586-3.2188,0.8828-4.8964,0.8828   h-5.7112v19.3124H54.5196z M88.1796,152.0031v-48.1444h13.3284c1.5408,0,3.1288,0.2284,4.7596,0.6796   c1.6328,0.4532,3.0936,1.2364,4.3868,2.3436c1.2908,1.1132,2.3572,2.5764,3.1952,4.3888c0.84,1.8124,1.258,4.08,1.258,6.8008   c0,2.4472-0.3732,4.588-1.1212,6.4236c-0.748,1.84-1.7344,3.3672-2.9592,4.592c-1.2224,1.2244-2.6288,2.1308-4.2148,2.7208   c-1.5876,0.586-3.2188,0.8828-4.8964,0.8828h-5.7128v19.3124H88.1796z M142.5116,110.7959h-9.0428v41.2072h-8.0256v-41.2072   h-9.0428v-6.9372h26.1112V110.7959z" fill="#9AB040"/><path d="M71.8592,124.0227c1.2248-1.34,1.836-3.2988,1.836-5.8828c0-2.586-0.6112-4.4648-1.836-5.6448   c-1.2224-1.1796-2.7868-1.7692-4.6912-1.7692h-4.6232v15.3008h4.6232C69.0724,126.0267,70.6368,125.3587,71.8592,124.0227z" fill="#9AB040"/><path d="M126.4688,0.3079C124.9748,0.9271,124,2.3859,124,4.0031v36c0,2.2088,1.7912,4,4,4h36   c1.6172,0,3.076-0.9748,3.6952-2.4688c0.6192-1.496,0.2776-3.2148-0.8672-4.3592l-36-36   C129.6816,0.0283,127.9628-0.3173,126.4688,0.3079z" fill="#A9C7D8"/><path d="M68.256,132.6907c1.6776,0,3.3084-0.2968,4.8964-0.8828c1.586-0.59,2.992-1.4964,4.2148-2.7208   c1.2244-1.2248,2.2108-2.752,2.9588-4.592c0.7484-1.8356,1.1212-3.9764,1.1212-6.4236c0-2.7208-0.418-4.9884-1.2576-6.8008   c-0.838-1.8124-1.9044-3.2756-3.1956-4.3888c-1.2928-1.1072-2.7536-1.8904-4.3864-2.3436c-1.6312-0.4512-3.2188-0.6796-4.76-0.6796   h-13.328v48.1444h8.0252v-19.3124H68.256z M62.5448,110.7259h4.6232c1.9044,0,3.4688,0.5896,4.6912,1.7692   c1.2248,1.18,1.836,3.0588,1.836,5.6448c0,2.584-0.6112,4.5428-1.836,5.8828c-1.2224,1.336-2.7868,2.004-4.6912,2.004h-4.6232   V110.7259z" fill="#FFE9E1"/><polygon fill="#FFE9E1" points="116.4004,110.7959 125.4432,110.7959 125.4432,152.0031 133.4688,152.0031 133.4688,110.7959    142.5116,110.7959 142.5116,103.8587 116.4004,103.8587  "/><path d="M101.916,132.6907c1.6776,0,3.3088-0.2968,4.8964-0.8828c1.586-0.59,2.9924-1.4964,4.2148-2.7208   c1.2248-1.2248,2.2112-2.752,2.9592-4.592c0.748-1.8356,1.1212-3.9764,1.1212-6.4236c0-2.7208-0.418-4.9884-1.258-6.8008   c-0.838-1.8124-1.9044-3.2756-3.1952-4.3888c-1.2932-1.1072-2.754-1.8904-4.3868-2.3436   c-1.6308-0.4512-3.2188-0.6796-4.7596-0.6796H88.1796v48.1444h8.0236v-19.3124H101.916z M96.2032,110.7259h4.6248   c1.9044,0,3.4688,0.5896,4.6916,1.7692c1.2244,1.18,1.836,3.0588,1.836,5.6448c0,2.584-0.6116,4.5428-1.836,5.8828   c-1.2228,1.336-2.7872,2.004-4.6916,2.004h-4.6248V110.7259z" fill="#FFE9E1"/></g></svg>