<?xml version="1.0" ?><svg enable-background="new 0 0 192 192.0022" id="html" version="1.1" viewBox="0 0 192 192.0022" xml:space="preserve" xmlns="http://www.w3.org/2000/svg" xmlns:xlink="http://www.w3.org/1999/xlink"><g><path d="M191.7363,86.6974c0.1172,0.336,0.1892,0.6896,0.2128,1.0588   C191.9275,87.393,191.8555,87.0414,191.7363,86.6974z" fill="#4A8F9E"/><path d="M190.832,85.1818c0.3243,0.3244,0.5743,0.7188,0.7715,1.1408   C191.4099,85.9086,191.1659,85.5158,190.832,85.1818z" fill="#4A8F9E"/><path d="M188,84.0022c1.1035,0,2.1035,0.4472,2.8259,1.172L168,62.3458v21.6564H188z" fill="#4A8F9E"/><path d="M0.3963,86.3226c0.1972-0.422,0.4472-0.8164,0.7717-1.1408C0.8339,85.5158,0.5899,85.9086,0.3963,86.3226z" fill="#4A8F9E"/><path d="M0.0507,87.7562c0.0236-0.3692,0.0956-0.7228,0.2128-1.0588C0.1443,87.0414,0.0723,87.393,0.0507,87.7562z" fill="#4A8F9E"/><path d="M24,84.0022V62.3458L1.1739,85.1742c0.7224-0.7248,1.7224-1.172,2.8261-1.172H24z" fill="#4A8F9E"/><path d="M168,84.0022V62.3458v-24l-1.172-1.1716c1.1447,1.1444,1.4863,2.8632,0.8671,4.3592   c-0.6191,1.494-2.078,2.4688-3.6951,2.4688h-36c-2.2089,0-4-1.7912-4-4v-36c0-1.6172,0.9747-3.076,2.4687-3.6952   c1.492-0.6232,3.2128-0.2796,4.3593,0.8672l-1.1717-1.172H24v62.3436v21.6564H168z" fill="#C6DFED"/><rect fill="#C6DFED" height="24" width="144" x="24" y="168.0022"/><path d="M191.9491,87.7562c-0.0236-0.3692-0.0956-0.7228-0.2128-1.0588c-0.0448-0.1268-0.0763-0.2536-0.1328-0.3748   c-0.1972-0.422-0.4472-0.8164-0.7715-1.1408c-0.0021-0.004-0.004-0.0076-0.004-0.0076c-0.7245-0.7248-1.7245-1.172-2.828-1.172h-20   H24H4c-1.1037,0-2.1037,0.4472-2.8261,1.172c0,0-0.004,0.0036-0.0059,0.0076c-0.3245,0.3244-0.5745,0.7188-0.7717,1.1408   c-0.0563,0.1212-0.088,0.248-0.1328,0.3748c-0.1172,0.336-0.1892,0.6896-0.2128,1.0588C0.0447,87.8422,0,87.9142,0,88.0022v76   c0,2.2088,1.7911,4,4,4h20h144h20c2.2087,0,4-1.7912,4-4v-76C192,87.9142,191.9571,87.8422,191.9491,87.7562z M167.4687,152.0022   h-21.4884v-48.1444h8.2284v40.5956h13.26V152.0022z M29.0195,103.8578h8.0916v19.5156h14.416v-19.5156h8.094v48.1444h-8.094   v-21.3516h-14.416v21.3516h-8.0916V103.8578z M128.2323,115.0102l-9.6563,36.992h-6.3925l-9.4512-36.992h-0.2052l0.1369,36.992   h-7.412v-48.1444h10.9471l9.248,35.2244h0.2736l9.0428-35.2244h11.4925v48.1444h-7.9553l0.1348-36.992H128.2323z M64.3807,110.795   v-6.9372H90.492v6.9372h-9.0449v41.2072H73.424V110.795H64.3807z" fill="#63B473"/><path d="M126.4687,0.307C124.9747,0.9262,124,2.385,124,4.0022v36c0,2.2088,1.7911,4,4,4h36   c1.6171,0,3.076-0.9748,3.6951-2.4688c0.6192-1.496,0.2776-3.2148-0.8671-4.3592l-36-36   C129.6815,0.0274,127.9607-0.3162,126.4687,0.307z" fill="#A9C7D8"/><polygon fill="#FFE9E1" points="81.4471,152.0022 81.4471,110.795 90.492,110.795 90.492,103.8578 64.3807,103.8578    64.3807,110.795 73.424,110.795 73.424,152.0022  "/><polygon fill="#FFE9E1" points="136.256,152.0022 136.256,103.8578 124.7635,103.8578 115.7207,139.0822 115.4471,139.0822    106.1991,103.8578 95.252,103.8578 95.252,152.0022 102.664,152.0022 102.5271,115.0102 102.7323,115.0102 112.1835,152.0022    118.576,152.0022 128.2323,115.0102 128.4355,115.0102 128.3007,152.0022  "/><polygon fill="#FFE9E1" points="154.2087,103.8578 145.9803,103.8578 145.9803,152.0022 167.4687,152.0022 167.4687,144.4534    154.2087,144.4534  "/><polygon fill="#FFE9E1" points="37.1111,130.6506 51.5271,130.6506 51.5271,152.0022 59.6211,152.0022 59.6211,103.8578    51.5271,103.8578 51.5271,123.3734 37.1111,123.3734 37.1111,103.8578 29.0195,103.8578 29.0195,152.0022 37.1111,152.0022  "/></g></svg>