<?xml version="1.0" ?><svg enable-background="new 0 0 192 192" id="wma" version="1.1" viewBox="0 0 192 192" xml:space="preserve" xmlns="http://www.w3.org/2000/svg" xmlns:xlink="http://www.w3.org/1999/xlink"><g><path d="M190.84,85.1896c0.32,0.322,0.5663,0.7128,0.7615,1.1308C191.4139,85.91,191.172,85.5236,190.84,85.1896z" fill="#4A8F9E"/><path d="M188,84c1.1015,0,2.1015,0.4472,2.8243,1.168L168,62.3436V84H188z" fill="#4A8F9E"/><path d="M191.7383,86.6952c0.1172,0.336,0.1912,0.6916,0.2148,1.0628   C191.9295,87.3924,191.8591,87.0412,191.7383,86.6952z" fill="#4A8F9E"/><path d="M0.0467,87.758c0.0236-0.3712,0.0976-0.7268,0.2148-1.0628C0.1407,87.0392,0.0703,87.3908,0.0467,87.758z" fill="#4A8F9E"/><path d="M0.3983,86.3204c0.1952-0.418,0.4417-0.8088,0.7617-1.1308C0.828,85.5236,0.5899,85.91,0.3983,86.3204z" fill="#4A8F9E"/><path d="M24,84V62.3436L1.1755,85.168C1.8983,84.4472,2.8943,84,4,84H24z" fill="#4A8F9E"/><path d="M168,84V62.3436v-24l-1.172-1.1716c1.1447,1.1444,1.4883,2.8632,0.8671,4.3592   C167.0779,43.0252,165.6171,44,164,44h-36c-2.2109,0-4-1.7912-4-4V4c0-1.6172,0.9727-3.076,2.4687-3.6952   c1.5-0.6172,3.2148-0.2776,4.3593,0.8672L129.6563,0H24v62.3436V84H168z" fill="#C6DFED"/><rect fill="#C6DFED" height="24" width="144" x="24" y="168"/><path d="M191.9531,87.758c-0.0236-0.3712-0.0976-0.7268-0.2148-1.0628c-0.0468-0.1288-0.0783-0.2536-0.1368-0.3748   c-0.1952-0.418-0.4415-0.8088-0.7615-1.1308c-0.004-0.006-0.008-0.014-0.0157-0.0216C190.1015,84.4472,189.1015,84,188,84h-20H24H4   c-1.1057,0-2.1017,0.4472-2.8245,1.168C1.168,85.1756,1.164,85.1836,1.16,85.1896c-0.32,0.322-0.5665,0.7128-0.7617,1.1308   c-0.0583,0.1212-0.09,0.246-0.1368,0.3748c-0.1172,0.336-0.1912,0.6916-0.2148,1.0628C0.0427,87.8416,0,87.914,0,88v76   c0,2.2088,1.7891,4,4,4h20h144h20c2.2107,0,4-1.7912,4-4V88C192,87.914,191.9571,87.8436,191.9531,87.758z M36.3983,103.8556   l6.1876,37.4004h0.2732l6.4572-37.4004h8.5704l6.664,37.4004h0.1368l6.1876-37.4004h7.8864L69.5155,152h-9.3868l-6.664-36.1756   H53.328L46.664,152h-9.3829l-9.1796-48.1444H36.3983z M117.4531,115.008L107.7967,152h-6.3904l-9.4532-36.992h-0.2032L91.8867,152   h-7.414v-48.1444h10.9492l9.2501,35.2244h0.2695l9.0428-35.2244h11.492V152h-7.9528l0.1328-36.992H117.4531z M153.6991,141.8008   h-12.6484L138.6015,152h-8.16l11.9684-48.1444h10.4024L164.5779,152h-8.5L153.6991,141.8008z" fill="#9AB040"/><polygon fill="#9AB040" points="147.3047,111.5392 142.0703,135.4084 152.6795,135.4084 147.5779,111.5392  "/><path d="M126.4687,0.3048C124.9727,0.924,124,2.3828,124,4v36c0,2.2088,1.7891,4,4,4h36   c1.6171,0,3.0779-0.9748,3.6951-2.4688c0.6212-1.496,0.2776-3.2148-0.8671-4.3592l-36-36   C129.6835,0.0272,127.9687-0.3124,126.4687,0.3048z" fill="#A9C7D8"/><polygon fill="#FFE9E1" points="46.664,152 53.328,115.8244 53.4647,115.8244 60.1287,152 69.5155,152 78.7615,103.8556    70.8751,103.8556 64.6875,141.256 64.5507,141.256 57.8867,103.8556 49.3163,103.8556 42.8591,141.256 42.5859,141.256    36.3983,103.8556 28.1015,103.8556 37.2811,152  "/><polygon fill="#FFE9E1" points="125.4763,152 125.4763,103.8556 113.9843,103.8556 104.9415,139.08 104.672,139.08    95.4219,103.8556 84.4727,103.8556 84.4727,152 91.8867,152 91.7499,115.008 91.9531,115.008 101.4063,152 107.7967,152    117.4531,115.008 117.6563,115.008 117.5235,152  "/><path d="M152.8123,103.8556h-10.4024L130.4415,152h8.16l2.4492-10.1992h12.6484L156.0779,152h8.5L152.8123,103.8556   z M142.0703,135.4084l5.2344-23.8692h0.2732l5.1016,23.8692H142.0703z" fill="#FFE9E1"/></g></svg>