<?xml version="1.0" ?><svg enable-background="new 0 0 208 216" id="copyfile" version="1.1" viewBox="0 0 208 216" xml:space="preserve" xmlns="http://www.w3.org/2000/svg" xmlns:xlink="http://www.w3.org/1999/xlink"><g><path d="M71.5195,1.1564C70.7695,0.414,69.7579,0,68.7071,0H4C1.7891,0,0,1.7892,0,4v120c0,2.2108,1.7891,4,4,4h88   c2.2107,0,4-1.7892,4-4V27.0196c0-1.0704-0.4297-2.094-1.1877-2.844L71.5195,1.1564z M95.6991,29.0508   c-0.6172,1.5-2.078,2.4804-3.6991,2.4804H68.2147c-2.2107,0-4-1.7892-4-4V4c0-1.6132,0.9688-3.0704,2.4608-3.6916   c1.4845-0.6132,3.2112-0.2848,4.3516,0.848l23.7852,23.5312C95.9647,25.828,96.3163,27.5508,95.6991,29.0508z" fill="#50CCD3"/><path d="M71.0271,1.1564c-1.1404-1.1328-2.8671-1.4612-4.3516-0.848C65.1835,0.9296,64.2147,2.3868,64.2147,4   v23.5312c0,2.2108,1.7893,4,4,4H92c1.6211,0,3.0819-0.9804,3.6991-2.4804c0.6172-1.5,0.2656-3.2228-0.8868-4.3632L71.0271,1.1564z" fill="#3BABB7"/><path d="M206.8123,112.1756l-23.2928-23.0192C182.7695,88.414,181.7579,88,180.7071,88H116c-2.2109,0-4,1.7892-4,4   v120c0,2.2108,1.7891,4,4,4h88c2.2107,0,4-1.7892,4-4v-96.9804C208,113.9492,207.5703,112.9256,206.8123,112.1756z    M207.6991,117.0508c-0.6172,1.5-2.078,2.4804-3.6991,2.4804h-23.7853c-2.2107,0-4-1.7892-4-4V92   c0-1.6132,0.9688-3.0704,2.4608-3.6916c1.4845-0.6168,3.2072-0.2848,4.3516,0.848l23.7852,23.5312   C207.9647,113.828,208.3163,115.5508,207.6991,117.0508z" fill="#FE7D71"/><path d="M183.0271,89.1564c-1.1444-1.1328-2.8671-1.4648-4.3516-0.848c-1.492,0.6212-2.4608,2.0784-2.4608,3.6916   v23.5312c0,2.2108,1.7893,4,4,4H204c1.6211,0,3.0819-0.9804,3.6991-2.4804s0.2656-3.2228-0.8868-4.3632L183.0271,89.1564z" fill="#EB4548"/></g></svg>