<?xml version="1.0" ?><svg enable-background="new 0 0 216 180" id="folderdown" version="1.1" viewBox="0 0 216 180" xml:space="preserve" xmlns="http://www.w3.org/2000/svg" xmlns:xlink="http://www.w3.org/1999/xlink"><g><path d="M4,24h90.1407L79.328,1.7812C78.5859,0.668,77.336,0,76,0H4C1.7891,0,0,1.7892,0,4v24   C0,25.7892,1.7891,24,4,24z" fill="#456782"/><path d="M212,48H4c-2.2109,0-4-1.7892-4-4v116.0116C0,171.0352,8.9607,180,19.9763,180h176.0472   C207.0391,180,216,171.0352,216,160.0116V44C216,46.2108,214.2107,48,212,48z M133.4571,128.1992L110.828,150.828   C110.0467,151.6092,109.0235,152,108,152c-1.0237,0-2.0469-0.3908-2.828-1.172l-22.6293-22.6288   c-1.5624-1.5624-1.5624-4.0936,0-5.6564c1.5628-1.5624,4.094-1.5624,5.6564,0L104,138.3436V68h8v70.3436l15.8007-15.8008   c1.5624-1.5624,4.0936-1.5624,5.6564,0C135.0195,124.1056,135.0195,126.6368,133.4571,128.1992z" fill="#618287"/><path d="M212,24H94.1407H4c-2.2109,0-4,1.7892-4,4v16c0,2.2108,1.7891,4,4,4h208c2.2107,0,4-1.7892,4-4V28   C216,25.7892,214.2107,24,212,24z" fill="#50CCD3"/><path d="M127.8007,122.5428L112,138.3436V68h-8v70.3436l-15.8009-15.8008c-1.5624-1.5624-4.0936-1.5624-5.6564,0   c-1.5624,1.5628-1.5624,4.094,0,5.6564l22.6293,22.6288c0.7811,0.7812,1.8043,1.172,2.828,1.172   c1.0235,0,2.0467-0.3908,2.828-1.172l22.6291-22.6288c1.5624-1.5624,1.5624-4.0936,0-5.6564   C131.8943,120.9804,129.3631,120.9804,127.8007,122.5428z" fill="#FFDC82"/></g></svg>