<?xml version="1.0" ?><svg enable-background="new 0 0 216 180" id="_x31_00folders" version="1.1" viewBox="0 0 216 180" xml:space="preserve" xmlns="http://www.w3.org/2000/svg" xmlns:xlink="http://www.w3.org/1999/xlink"><g><path d="M4,24h90.1407L79.328,1.7812C78.5859,0.668,77.336,0,76,0H4C1.7891,0,0,1.7892,0,4v24   C0,25.7892,1.7891,24,4,24z" fill="#FE8657"/><rect fill="#49A25A" height="64" width="24" x="64" y="76"/><rect fill="#49A25A" height="64" width="24" x="116" y="76"/><path d="M212,48H4c-2.2109,0-4-1.7892-4-4v116.0116C0,171.0352,8.9607,180,19.9763,180h176.0472   C207.0391,180,216,171.0352,216,160.0116V44C216,46.2108,214.2107,48,212,48z M40,76v72.1092h-8V76H20v-8h12h8V76z M96,148H56V68   h40V148z M148,148h-40V68h40V148z M196,112h-16v16h-8v-16h-16v-8h16V88h8v16h16V112z" fill="#49A25A"/><path d="M212,24H94.1407H4c-2.2109,0-4,1.7892-4,4v16c0,2.2108,1.7891,4,4,4h208c2.2107,0,4-1.7892,4-4V28   C216,25.7892,214.2107,24,212,24z" fill="#FFDC82"/><path d="M56,148h40V68H56V148z M64,76h24v64H64V76z" fill="#FFDC82"/><path d="M108,148h40V68h-40V148z M116,76h24v64h-24V76z" fill="#FFDC82"/><polygon fill="#FFDC82" points="20,68 20,76 32,76 32,148.1092 40,148.1092 40,76 40,68 32,68  "/><polygon fill="#FFDC82" points="180,88 172,88 172,104 156,104 156,112 172,112 172,128 180,128 180,112 196,112 196,104 180,104     "/></g></svg>