<?xml version="1.0" ?><svg enable-background="new 0 0 156 212.0003" id="cut" version="1.1" viewBox="0 0 156 212.0003" xml:space="preserve" xmlns="http://www.w3.org/2000/svg" xmlns:xlink="http://www.w3.org/1999/xlink"><g><path d="M148,63.7192V48.0003h-36c-2.2088,0-4-1.7911-4-4v-36H92.7832c-2.2088,0-4-1.7911-4-4h-16   c0,2.2089-1.7912,4-4,4h-16c-2.2088,0-4-1.7911-4-4h-16c0,2.2089-1.7912,4-4,4h-16c-2.2088,0-4-1.7911-4-4H4v11.2169   c2.2088,0,4,1.7911,4,4v16c0,2.2088-1.7912,4-4,4v16c2.2088,0,4,1.7911,4,4v16c0,2.2088-1.7912,4-4,4v9.5664v6.4336   c2.2088,0,4,1.7911,4,4v16c0,2.2088-1.7912,4-4,4v16c2.2088,0,4,1.7911,4,4v16c0,2.2088-1.7912,4-4,4v16c2.2088,0,4,1.7911,4,4v16   c0,2.2088-1.7912,4-4,4v8.7831h7.2168c0-2.2087,1.7912-4,4-4h16c2.2088,0,4,1.7913,4,4h16c0-2.2087,1.7912-4,4-4h16   c2.2088,0,4,1.7913,4,4h16c0-2.2087,1.7912-4,4-4h16c2.2088,0,4,1.7913,4,4h16c0-2.2087,1.7912-4,4-4h16   c0.2772,0,0.5216,0.1057,0.7832,0.1585v-15.3752c-2.2088,0-4-1.7913-4-4v-16c0-2.2088,1.7912-4,4-4v-16c-2.2088,0-4-1.7913-4-4v-16   c0-2.2088,1.7912-4,4-4v-16c-2.2088,0-4-1.7913-4-4V87.7192c0-2.2092,1.7912-4,4-4v-16C149.7912,67.7192,148,65.928,148,63.7192z" fill="#FFE9E1"/><path d="M148,87.7192v17.0644c0,2.2087,1.7912,4,4,4s4-1.7913,4-4V87.7192c0-2.2092-1.7912-4-4-4   S148,85.51,148,87.7192z" fill="#E1AD99"/><path d="M8,195.2172v-16c0-2.2089-1.7912-4-4-4s-4,1.7911-4,4v16c0,2.2088,1.7912,4,4,4S8,197.426,8,195.2172z" fill="#E1AD99"/><path d="M71.2168,204.0003h-16c-2.2088,0-4,1.7913-4,4c0,2.2089,1.7912,4,4,4h16c2.2088,0,4-1.7911,4-4   C75.2168,205.7916,73.4256,204.0003,71.2168,204.0003z" fill="#E1AD99"/><path d="M92.7832,8.0003H108v36c0,2.2089,1.7912,4,4,4h36v15.7189c0,2.2088,1.7912,4,4,4s4-1.7912,4-4v-16   c0-0.6776-0.2108-1.2872-0.5096-1.8456c0.0624-0.1192,0.152-0.2168,0.2048-0.342c0.6192-1.496,0.2776-3.2148-0.8672-4.3593   l-12.7556-12.756c-0.174-0.668-0.4572-1.3103-0.9808-1.8339l-11.32-11.3068c-0.5196-0.5172-1.1544-0.7988-1.8144-0.9744   L114.828,1.1723c-1.1484-1.1467-2.8632-1.4863-4.3592-0.8671c-0.0272,0.0116-0.0488,0.0332-0.0764,0.0448   c-0.494-0.2188-1.0332-0.3497-1.6092-0.3497h-16c-2.2088,0-4,1.7913-4,4C88.7832,6.2092,90.5744,8.0003,92.7832,8.0003z" fill="#E1AD99"/><path d="M111.2168,204.0003h-16c-2.2088,0-4,1.7913-4,4c0,2.2089,1.7912,4,4,4h16c2.2088,0,4-1.7911,4-4   C115.2168,205.7916,113.4256,204.0003,111.2168,204.0003z" fill="#E1AD99"/><path d="M148,128.7836v16c0,2.2087,1.7912,4,4,4s4-1.7913,4-4v-16c0-2.2088-1.7912-4-4-4S148,126.5748,148,128.7836   z" fill="#E1AD99"/><path d="M135.2168,204.0003c-2.2088,0-4,1.7913-4,4c0,2.2089,1.7912,4,4,4h16c2.2088,0,4-1.7911,4-4   c0-1.9315-1.3964-3.4667-3.2168-3.8415c-0.2616-0.0528-0.506-0.1585-0.7832-0.1585H135.2168z" fill="#E1AD99"/><path d="M148,168.7836v16c0,2.2087,1.7912,4,4,4s4-1.7913,4-4v-16c0-2.2088-1.7912-4-4-4S148,166.5748,148,168.7836   z" fill="#E1AD99"/><path d="M31.2168,204.0003h-16c-2.2088,0-4,1.7913-4,4c0,2.2089,1.7912,4,4,4h16c2.2088,0,4-1.7911,4-4   C35.2168,205.7916,33.4256,204.0003,31.2168,204.0003z" fill="#E1AD99"/><path d="M12.7832,8.0003h16c2.2088,0,4-1.7911,4-4c0-2.2087-1.7912-4-4-4h-16c-2.2088,0-4,1.7913-4,4   C8.7832,6.2092,10.5744,8.0003,12.7832,8.0003z" fill="#E1AD99"/><path d="M52.7832,8.0003h16c2.2088,0,4-1.7911,4-4c0-2.2087-1.7912-4-4-4h-16c-2.2088,0-4,1.7913-4,4   C48.7832,6.2092,50.5744,8.0003,52.7832,8.0003z" fill="#E1AD99"/><path d="M8,155.2172v-16c0-2.2089-1.7912-4-4-4s-4,1.7911-4,4v16c0,2.2088,1.7912,4,4,4S8,157.426,8,155.2172z" fill="#E1AD99"/><path d="M8,35.2172v-16c0-2.2089-1.7912-4-4-4s-4,1.7911-4,4v16c0,2.2088,1.7912,4,4,4S8,37.426,8,35.2172z" fill="#E1AD99"/><path d="M8,75.2172v-16c0-2.2089-1.7912-4-4-4s-4,1.7911-4,4v16c0,2.2088,1.7912,4,4,4S8,77.426,8,75.2172z" fill="#E1AD99"/><path d="M8,115.2172v-16c0-2.2089-1.7912-4-4-4s-4,1.7911-4,4v16c0,2.2088,1.7912,4,4,4S8,117.426,8,115.2172z" fill="#E1AD99"/></g></svg>