<?xml version="1.0" ?><!DOCTYPE svg  PUBLIC '-//W3C//DTD SVG 1.1//EN'  'http://www.w3.org/Graphics/SVG/1.1/DTD/svg11.dtd'><svg enable-background="new 0 0 56.693 56.693" height="56.693px" id="Layer_1" version="1.1" viewBox="0 0 56.693 56.693" width="56.693px" xml:space="preserve" xmlns="http://www.w3.org/2000/svg" xmlns:xlink="http://www.w3.org/1999/xlink"><path d="M45.921,11.258c-9.709-9.707-25.443-9.706-35.15,0c-9.709,9.71-9.71,25.445-0.002,35.152  c9.707,9.709,25.448,9.713,35.157,0.004C55.633,36.707,55.629,20.967,45.921,11.258z M38.28,38.775  c-1.135,1.135-2.977,1.137-4.111,0.002l-5.83-5.828l-5.813,5.814c-1.14,1.141-2.976,1.146-4.116,0.006  c-1.134-1.135-1.135-2.977,0.006-4.115l5.814-5.814l-5.816-5.818c-1.14-1.139-1.133-2.977,0.002-4.111  c1.138-1.139,2.971-1.141,4.11-0.001l5.817,5.816l5.822-5.822c1.139-1.138,2.976-1.134,4.11,0.001c1.14,1.14,1.138,2.972,0,4.108  l-5.822,5.823l5.829,5.83C39.415,35.799,39.419,37.637,38.28,38.775z" fill="#474A56"/></svg>