<?xml version="1.0" ?><!DOCTYPE svg  PUBLIC '-//W3C//DTD SVG 1.1//EN'  'http://www.w3.org/Graphics/SVG/1.1/DTD/svg11.dtd'><svg enable-background="new 0 0 56.693 56.693" height="56.693px" id="Layer_1" version="1.1" viewBox="0 0 56.693 56.693" width="56.693px" xml:space="preserve" xmlns="http://www.w3.org/2000/svg" xmlns:xlink="http://www.w3.org/1999/xlink"><g><path d="M44.73,47.132c-1.849-0.13-3.964-0.232-6.248-0.31c2.083-1.797,3.842-4.126,5.135-6.836   c0.631,0.631,1.416,1.092,2.305,1.307c0.389,0.096,0.783,0.142,1.173,0.142c0.894,0,1.773-0.245,2.556-0.722   c1.125-0.686,1.917-1.768,2.227-3.048c0.311-1.28,0.104-2.604-0.581-3.729c-1.149-1.886-3.366-2.704-5.402-2.197   c0.088-0.879,0.148-1.769,0.148-2.677c0-0.948-0.768-1.717-1.716-1.717h-31.77c-0.948,0-1.716,0.769-1.716,1.717   c0,7.348,2.994,13.841,7.552,17.761c-2.279,0.077-4.392,0.18-6.237,0.308c-6.425,0.449-8.294,0.877-8.294,2.844   c0,1.966,1.868,2.395,8.294,2.844c4.356,0.305,10.141,0.473,16.287,0.473c6.146,0,11.93-0.168,16.287-0.473   c6.425-0.449,8.293-0.878,8.293-2.844C53.023,48.009,51.155,47.581,44.73,47.132z M45.553,34.064   c0.013-0.009,0.027-0.007,0.04-0.016c1.352-0.822,3.123-0.393,3.947,0.96c0.399,0.654,0.519,1.426,0.338,2.172   c-0.181,0.745-0.641,1.375-1.297,1.773c-0.655,0.4-1.427,0.52-2.171,0.34c-0.746-0.182-1.376-0.642-1.775-1.298   c-0.032-0.054-0.082-0.087-0.122-0.132C44.952,36.651,45.298,35.379,45.553,34.064z M14.337,30.779H42.55   c-0.674,9.251-6.744,16.515-14.107,16.515S15.012,40.03,14.337,30.779z" fill="#474A56"/><path d="M25.261,23.838l0.116,0.005c0.422,0,0.829-0.199,1.09-0.536c0.29-0.375,0.366-0.865,0.206-1.308   c-0.014-0.038-1.33-3.831,0.379-6.989C28.866,12,29.458,9.578,28.808,7.81c-0.583-1.589-1.898-2.011-2.043-2.052   c-0.72-0.211-1.501,0.211-1.713,0.927c-0.216,0.727,0.201,1.496,0.871,1.691c0.008,0.003,0.193,0.095,0.3,0.384   c0.156,0.425,0.323,1.74-1.486,4.754l-0.066,0.111c-0.138,0.227-0.287,0.464-0.448,0.71c-2.093,3.208-2.72,5.734-1.863,7.505   C23.048,23.27,24.501,23.768,25.261,23.838z" fill="#474A56"/><path d="M32.587,24.093l0.096,0.003c0.396,0,0.777-0.187,1.022-0.501c0.274-0.353,0.347-0.813,0.195-1.231   c-0.007-0.022-0.744-2.173,0.194-3.908c1.205-1.996,1.571-3.569,1.116-4.809c-0.421-1.146-1.361-1.479-1.55-1.536   c-0.669-0.194-1.412,0.212-1.606,0.873c-0.099,0.331-0.063,0.681,0.102,0.985c0.164,0.303,0.436,0.524,0.766,0.623   c-0.08-0.023-0.137-0.048-0.141-0.05c0.025,0.067,0.213,0.719-0.864,2.513l-0.079,0.131c-0.075,0.122-0.155,0.249-0.239,0.379   c-1.397,2.142-1.781,3.793-1.173,5.048C30.899,23.596,31.871,24.024,32.587,24.093z" fill="#474A56"/></g></svg>