<?xml version="1.0" ?><!DOCTYPE svg  PUBLIC '-//W3C//DTD SVG 1.1//EN'  'http://www.w3.org/Graphics/SVG/1.1/DTD/svg11.dtd'><svg enable-background="new 0 0 56.693 56.693" height="56.693px" id="Layer_1" version="1.1" viewBox="0 0 56.693 56.693" width="56.693px" xml:space="preserve" xmlns="http://www.w3.org/2000/svg" xmlns:xlink="http://www.w3.org/1999/xlink"><g><path d="M32.383,44.136h-7.74c-0.759,0-1.374,0.615-1.374,1.373v5.312c0,0.758,0.615,1.373,1.374,1.373h1.309   l0.681,0.783c0.26,0.303,0.64,0.475,1.037,0.475h1.687c0.397,0,0.776-0.172,1.037-0.475l0.681-0.783h1.31   c0.758,0,1.372-0.615,1.372-1.373v-5.312C33.755,44.751,33.141,44.136,32.383,44.136z" fill="#474A56"/><path d="M28.513,7.648c-7.712,0-13.985,6.184-13.985,13.787c0,3.88,1.623,8.105,4.351,11.343   c0.028,0.041,0.059,0.084,0.091,0.123c0.829,1.023,3.197,4.443,3.197,6.66c0,0.949,0.769,1.717,1.717,1.717h9.259   c0.016,0,0.031,0,0.046,0c0.227,0,0.454-0.045,0.672-0.139c0.634-0.268,1.044-0.891,1.044-1.578c0-1.971,1.961-5.131,3.197-6.66   c0.074-0.092,0.137-0.191,0.188-0.297c2.642-3.213,4.208-7.358,4.208-11.169C42.497,13.832,36.224,7.648,28.513,7.648z    M35.428,30.677c-0.1,0.115-0.181,0.244-0.242,0.379c-0.764,0.994-2.839,3.889-3.505,6.789H25.39   c-0.706-3.068-2.986-6.129-3.625-6.941c-0.046-0.072-0.098-0.145-0.156-0.211c-2.25-2.613-3.648-6.16-3.648-9.257   c0-5.711,4.734-10.356,10.553-10.356s10.552,4.646,10.552,10.356C39.064,24.527,37.671,28.069,35.428,30.677z" fill="#474A56"/></g></svg>