<?xml version="1.0" ?><!DOCTYPE svg  PUBLIC '-//W3C//DTD SVG 1.1//EN'  'http://www.w3.org/Graphics/SVG/1.1/DTD/svg11.dtd'><svg enable-background="new 0 0 56.693 56.693" height="56.693px" id="Layer_1" version="1.1" viewBox="0 0 56.693 56.693" width="56.693px" xml:space="preserve" xmlns="http://www.w3.org/2000/svg" xmlns:xlink="http://www.w3.org/1999/xlink"><path d="M53.117,12.427l-7.546-7.543c-0.582-0.583-1.527-0.583-2.107,0l-1.053,1.055l-2.396,2.394l-0.14,0.14  L9.224,39.122c-0.14,0.142-0.251,0.311-0.325,0.496l-5.107,12.65c-0.227,0.555-0.096,1.188,0.328,1.61  c0.285,0.286,0.667,0.437,1.051,0.437c0.188,0,0.377-0.035,0.559-0.107l8.037-3.243l4.615-1.862c0.184-0.076,0.353-0.187,0.492-0.33  l34.111-34.11l0.132-0.13c0.275-0.278,0.435-0.656,0.435-1.053C53.552,13.085,53.393,12.707,53.117,12.427z M16.985,46.452  l-4.94,1.994L9.55,45.954l1.998-4.938L44.515,8.043l2.507,2.502L15.65,41.917c-0.289,0.29-0.289,0.759,0,1.051  c0.15,0.146,0.335,0.22,0.527,0.22c0.192,0,0.382-0.073,0.528-0.22l31.37-31.369l1.879,1.88L16.985,46.452z" fill="#474A56"/></svg>