<?xml version="1.0" ?><!DOCTYPE svg  PUBLIC '-//W3C//DTD SVG 1.1//EN'  'http://www.w3.org/Graphics/SVG/1.1/DTD/svg11.dtd'><svg enable-background="new 0 0 56.693 56.693" height="56.693px" id="Layer_1" version="1.1" viewBox="0 0 56.693 56.693" width="56.693px" xml:space="preserve" xmlns="http://www.w3.org/2000/svg" xmlns:xlink="http://www.w3.org/1999/xlink"><g><path d="M44.557,18.454c0.041,0.222,0.078,0.444,0.11,0.67c0.163-0.034,0.32-0.089,0.456-0.184l6.149-4.327   c0.268-0.186,0.445-0.467,0.5-0.787c0.055-0.319-0.018-0.643-0.203-0.906c-0.371-0.531-1.166-0.671-1.697-0.297l-5.75,4.043   c0.071,0.232,0.138,0.465,0.198,0.701C44.413,17.724,44.489,18.087,44.557,18.454z" fill="#474A56"/><path d="M52.603,24.322c-0.187-0.266-0.467-0.443-0.787-0.499l-7.025-1.224c-0.015,0.229-0.033,0.458-0.058,0.687   c-0.037,0.352-0.085,0.703-0.143,1.054c-0.037,0.227-0.077,0.451-0.122,0.678l6.929,1.205c0.071,0.012,0.142,0.018,0.212,0.018   c0.592,0,1.097-0.424,1.197-1.008C52.862,24.911,52.79,24.587,52.603,24.322z" fill="#474A56"/><path d="M44.256,28.296c-0.144-0.203-0.351-0.348-0.579-0.43c-0.077,0.215-0.158,0.428-0.241,0.639   c-0.138,0.35-0.282,0.697-0.439,1.041c-0.108,0.238-0.223,0.475-0.34,0.709l3.933,5.59c0.187,0.266,0.467,0.443,0.788,0.5   c0.069,0.014,0.14,0.02,0.21,0.02c0.254,0,0.496-0.078,0.698-0.223c0.267-0.186,0.445-0.467,0.501-0.789   c0.055-0.32-0.018-0.645-0.205-0.908L44.256,28.296z" fill="#474A56"/><path d="M5.162,14.613l6.147,4.324c0.075,0.053,0.158,0.086,0.24,0.119c0.034-0.236,0.076-0.471,0.12-0.704   c0.073-0.378,0.155-0.753,0.253-1.12c0.062-0.236,0.129-0.467,0.201-0.698l-5.561-3.911c-0.533-0.374-1.327-0.234-1.697,0.294   c-0.187,0.267-0.26,0.59-0.203,0.91C4.718,14.146,4.896,14.427,5.162,14.613z" fill="#474A56"/><path d="M11.632,24.377c-0.059-0.353-0.109-0.702-0.147-1.054c-0.026-0.229-0.045-0.458-0.062-0.686l-6.804,1.185   c-0.321,0.056-0.601,0.233-0.788,0.501c-0.187,0.266-0.259,0.588-0.203,0.907c0.103,0.585,0.606,1.009,1.199,1.009   c0.07,0,0.141-0.006,0.21-0.018l6.72-1.17C11.712,24.828,11.67,24.603,11.632,24.377z" fill="#474A56"/><path d="M12.829,28.606c-0.088-0.219-0.172-0.438-0.25-0.658c-0.156,0.084-0.295,0.199-0.399,0.348l-4.326,6.148   c-0.187,0.266-0.26,0.588-0.204,0.91c0.057,0.322,0.234,0.602,0.494,0.783c0.207,0.148,0.45,0.227,0.703,0.227   c0.072,0,0.143-0.006,0.211-0.02c0.322-0.057,0.602-0.232,0.787-0.498l3.811-5.416c-0.119-0.234-0.234-0.469-0.345-0.703   C13.14,29.356,12.979,28.983,12.829,28.606z" fill="#474A56"/><path d="M28.103,7.648c-7.71,0-13.983,6.184-13.983,13.787c0,3.88,1.623,8.105,4.35,11.343   c0.028,0.041,0.06,0.084,0.092,0.123c0.829,1.023,3.197,4.443,3.197,6.66c0,0.949,0.769,1.717,1.716,1.717h9.261   c0.015,0,0.029,0,0.045,0c0.227,0,0.454-0.045,0.671-0.139c0.635-0.268,1.045-0.891,1.045-1.578c0-1.971,1.961-5.131,3.197-6.66   c0.074-0.092,0.137-0.191,0.189-0.297c2.64-3.213,4.207-7.358,4.207-11.169C42.089,13.832,35.815,7.648,28.103,7.648z    M35.02,30.677c-0.1,0.115-0.181,0.244-0.243,0.379c-0.763,0.994-2.837,3.889-3.504,6.789h-6.291   c-0.706-3.068-2.986-6.129-3.625-6.941c-0.045-0.072-0.098-0.145-0.156-0.211c-2.251-2.613-3.648-6.16-3.648-9.257   c0-5.711,4.734-10.356,10.551-10.356c5.82,0,10.554,4.646,10.554,10.356C38.656,24.527,37.263,28.069,35.02,30.677z" fill="#474A56"/><path d="M31.975,44.136h-7.74c-0.759,0-1.374,0.615-1.374,1.373v5.312c0,0.758,0.615,1.373,1.374,1.373h1.309   l0.682,0.783c0.26,0.303,0.639,0.475,1.037,0.475h1.685c0.398,0,0.777-0.172,1.037-0.475l0.682-0.783h1.31   c0.758,0,1.372-0.615,1.372-1.373v-5.312C33.347,44.751,32.732,44.136,31.975,44.136z" fill="#474A56"/></g></svg>