<?xml version="1.0" ?><!DOCTYPE svg  PUBLIC '-//W3C//DTD SVG 1.1//EN'  'http://www.w3.org/Graphics/SVG/1.1/DTD/svg11.dtd'><svg enable-background="new 0 0 56.693 56.693" height="56.693px" id="Layer_1" version="1.1" viewBox="0 0 56.693 56.693" width="56.693px" xml:space="preserve" xmlns="http://www.w3.org/2000/svg" xmlns:xlink="http://www.w3.org/1999/xlink"><path d="M28.343,4.34c-13.566,0-24.557,11.001-24.557,24.565V53.46h24.557c13.563,0,24.563-10.986,24.563-24.555  C52.906,15.341,41.906,4.34,28.343,4.34z M33.152,37.095l-1.449,1.102c-1.802,1.367-2.476,1.875-3.217,2.613  c-0.12,0.123-0.283,0.188-0.455,0.188c-0.174,0-0.336-0.066-0.457-0.188c-0.559-0.559-1.081-0.953-2.116-1.742  c-0.655-0.498-1.46-1.113-2.558-1.979c-2.898-2.281-6.87-5.406-6.87-9.885c0-4.353,3.323-6.702,6.452-6.702  c2.109,0,4.072,0.985,5.549,2.779c1.476-1.796,3.443-2.783,5.559-2.783c3.123,0,6.442,2.335,6.442,6.661  C40.032,31.868,35.557,35.269,33.152,37.095z" fill="#474A56"/></svg>