<?xml version="1.0" ?><!DOCTYPE svg  PUBLIC '-//W3C//DTD SVG 1.1//EN'  'http://www.w3.org/Graphics/SVG/1.1/DTD/svg11.dtd'><svg enable-background="new 0 0 56.693 56.693" height="56.693px" id="Layer_1" version="1.1" viewBox="0 0 56.693 56.693" width="56.693px" xml:space="preserve" xmlns="http://www.w3.org/2000/svg" xmlns:xlink="http://www.w3.org/1999/xlink"><g><path d="M22.301,48.065c0.552,0,0.999-0.447,0.999-1V26.282c0-0.552-0.447-0.999-0.999-0.999   c-0.551,0-0.997,0.447-0.997,0.999v20.784C21.304,47.618,21.75,48.065,22.301,48.065z" fill="#474A56"/><path d="M28.514,48.065c0.551,0,0.998-0.447,0.998-1V26.282c0-0.552-0.447-0.999-0.998-0.999   s-0.998,0.447-0.998,0.999v20.784C27.516,47.618,27.963,48.065,28.514,48.065z" fill="#474A56"/><path d="M34.726,48.065c0.551,0,0.998-0.447,0.998-1V26.282c0-0.552-0.447-0.999-0.998-0.999   s-0.998,0.447-0.998,0.999v20.784C33.728,47.618,34.175,48.065,34.726,48.065z" fill="#474A56"/><path d="M43.347,18.687h-7.194v-2.133c0-1.629-1.324-2.953-2.953-2.953h-9.373c-1.629,0-2.952,1.324-2.952,2.953   v2.133h-7.195c-1.104,0-1.996,0.893-1.996,1.996c0,1.103,0.893,1.996,1.996,1.996h1.254v29.099c0,0.918,0.745,1.662,1.663,1.662   h23.835c0.918,0,1.663-0.744,1.663-1.662V22.679h1.253c1.102,0,1.995-0.894,1.995-1.996C45.342,19.58,44.448,18.687,43.347,18.687z    M23.535,16.554c0-0.162,0.13-0.293,0.291-0.293h9.373c0.161,0,0.292,0.131,0.292,0.293v2.133h-9.956V16.554z M38.767,50.114H18.26   V22.679h20.507V50.114z" fill="#474A56"/></g></svg>