<?xml version="1.0" ?><!DOCTYPE svg  PUBLIC '-//W3C//DTD SVG 1.1//EN'  'http://www.w3.org/Graphics/SVG/1.1/DTD/svg11.dtd'><svg enable-background="new 0 0 56.693 56.693" height="56.693px" id="Layer_1" version="1.1" viewBox="0 0 56.693 56.693" width="56.693px" xml:space="preserve" xmlns="http://www.w3.org/2000/svg" xmlns:xlink="http://www.w3.org/1999/xlink"><path d="M52.204,17.532L40.508,5.836c-1.092-1.091-2.861-1.091-3.951,0c-0.766,0.766-0.982,1.859-0.676,2.822  L17.969,15.67c-0.746,0.295-1.198,1.059-1.094,1.854c0.016,0.119,1.383,11.975-12.541,28.295c-0.592,0.693-0.551,1.725,0.093,2.369  l5.504,5.504c0.34,0.342,0.787,0.512,1.235,0.512c0.402,0,0.806-0.137,1.133-0.418c13.685-11.674,24.354-12.582,27.297-12.582  c0.646,0,0.999,0.041,0.999,0.041c0.796,0.104,1.562-0.348,1.854-1.094l7.032-17.963c0.244,0.067,0.495,0.113,0.748,0.113  c0.715,0,1.43-0.273,1.976-0.816C53.295,20.393,53.295,18.624,52.204,17.532z M39.652,37.712c-0.019,0-0.037,0-0.057,0  c-4.038,0-14.718,1.232-28.324,12.383l-0.883-0.883l19.059-19.059c0.404,0.191,0.846,0.301,1.306,0.301  c0.823,0,1.599-0.32,2.183-0.904c1.203-1.204,1.203-3.163,0-4.366c-0.583-0.582-1.358-0.903-2.183-0.903s-1.6,0.32-2.185,0.905  c-0.939,0.941-1.133,2.341-0.602,3.484L8.906,47.731l-0.881-0.883C19.354,33.022,20.429,22.204,20.41,18.466l16.125-6.313  l9.432,9.431L39.652,37.712z" fill="#474A56"/></svg>