<?xml version="1.0" ?><!DOCTYPE svg  PUBLIC '-//W3C//DTD SVG 1.1//EN'  'http://www.w3.org/Graphics/SVG/1.1/DTD/svg11.dtd'><svg enable-background="new 0 0 56.693 56.693" height="56.693px" id="Layer_1" version="1.1" viewBox="0 0 56.693 56.693" width="56.693px" xml:space="preserve" xmlns="http://www.w3.org/2000/svg" xmlns:xlink="http://www.w3.org/1999/xlink"><path d="M50.344,26.796l-4.354-1.147c-0.13-0.616-0.294-1.221-0.485-1.81l3.197-3.171  c1.029-1.09,1.676-2.317,0.955-3.567c-0.721-1.246-2.189-1.302-3.566-0.954l-4.346,1.184c-0.418-0.463-0.859-0.905-1.322-1.323  l1.185-4.346c0.345-1.46,0.292-2.845-0.957-3.567c-1.248-0.72-2.55-0.033-3.566,0.957l-3.169,3.197  c-0.588-0.192-1.194-0.342-1.807-0.473l-1.15-4.367c-0.433-1.437-1.17-2.609-2.61-2.609c-1.442,0-2.226,1.244-2.612,2.609  l-1.149,4.367c-0.612,0.129-1.218,0.28-1.807,0.471L19.61,9.049c-1.094-1.025-2.318-1.675-3.567-0.955  c-1.249,0.723-1.306,2.192-0.955,3.567l1.185,4.344c-0.465,0.418-0.907,0.861-1.325,1.325l-4.345-1.184  C9.143,15.8,7.757,15.853,7.036,17.1c-0.721,1.25-0.034,2.551,0.956,3.567l3.196,3.169c-0.191,0.591-0.354,1.195-0.485,1.812  l-4.354,1.147c-1.436,0.432-2.609,1.17-2.609,2.609c0,1.441,1.244,2.227,2.609,2.611l4.354,1.148  c0.131,0.615,0.294,1.219,0.485,1.809l-3.196,3.17c-1.029,1.092-1.677,2.318-0.956,3.568c0.722,1.248,2.192,1.303,3.567,0.955  l4.345-1.186c0.418,0.463,0.86,0.906,1.325,1.324l-1.185,4.346c-0.347,1.459-0.294,2.846,0.954,3.566  c1.25,0.721,2.551,0.035,3.566-0.955l3.17-3.199c0.591,0.193,1.195,0.355,1.811,0.488l1.146,4.354  c0.432,1.434,1.17,2.607,2.612,2.607c1.44,0,2.224-1.244,2.61-2.607l1.146-4.355c0.616-0.131,1.219-0.293,1.811-0.486l3.17,3.199  c1.091,1.029,2.317,1.676,3.566,0.955c1.248-0.721,1.303-2.191,0.956-3.566l-1.186-4.346c0.464-0.418,0.905-0.861,1.323-1.324  l4.346,1.186c1.461,0.344,2.846,0.291,3.567-0.957c0.72-1.25,0.034-2.549-0.956-3.566l-3.197-3.17  c0.191-0.592,0.355-1.193,0.485-1.809l4.354-1.148c1.438-0.43,2.61-1.17,2.61-2.611C52.954,27.966,51.709,27.181,50.344,26.796z   M28.346,36.864c-4.118,0-7.455-3.34-7.455-7.459c0-4.117,3.337-7.455,7.455-7.455s7.456,3.338,7.456,7.455  C35.802,33.524,32.464,36.864,28.346,36.864z" fill="#474A56"/></svg>