<?xml version="1.0" ?><svg height="100" version="1.1" width="100.0" xmlns="http://www.w3.org/2000/svg"><path d="M291,0 l618,0 c116,0,139,11,146,132 l45,768 l-100,0 l-45,-761 c-2,-36,-5,-39,-46,-39 l-618,0 c-41,0,-44,2,-46,38 l-45,762 l-100,0 l45,-768 c7,-119,21,-132,146,-132 Z M0,1000 l1200,0 l0,100 l-350,0 l0,75 c0,80,-39,125,-130,125 l-240,0 c-91,0,-130,-45,-130,-125 l0,-75 l-350,0 Z M450,1100 l0,75 c0,25,0,25,30,25 l240,0 c30,0,30,0,30,-25 l0,-75 Z M450,1100 " fill="rgba(0,0,0,1.0)" transform="matrix(0.05,0.0,0.0,-0.05,20.0,80.0)"/></svg>