<?xml version="1.0" ?><!DOCTYPE svg  PUBLIC '-//W3C//DTD SVG 1.1//EN'  'http://www.w3.org/Graphics/SVG/1.1/DTD/svg11.dtd'><svg enable-background="new 0 0 128 128" height="128px" id="Layer_1" version="1.1" viewBox="0 0 128 128" width="128px" xml:space="preserve" xmlns="http://www.w3.org/2000/svg" xmlns:xlink="http://www.w3.org/1999/xlink"><g><path d="M85.753,92c2.394,0,2.968,1.367,1.274,3.037l-19.95,19.709c-1.692,1.672-4.461,1.672-6.154,0l-19.95-19.709   C39.281,93.367,39.854,92,42.247,92H85.753z" fill="#010101"/></g><g><g><path d="M116,84H12C5.383,84,0,78.617,0,72V24c0-6.617,5.383-12,12-12h104c6.617,0,12,5.383,12,12v48    C128,78.617,122.617,84,116,84z M12,20c-2.206,0-4,1.794-4,4v48c0,2.206,1.794,4,4,4h104c2.206,0,4-1.794,4-4V24    c0-2.206-1.794-4-4-4H12z" fill="#010101"/></g></g><g><g><path d="M84,30c0-1.1,0.9-2,2-2h4c1.1,0,2,0.9,2,2v4c0,1.1-0.9,2-2,2h-4c-1.1,0-2-0.9-2-2V30z" fill="#010101"/></g><g><path d="M84,46c0-1.1,0.9-2,2-2h4c1.1,0,2,0.9,2,2v4c0,1.1-0.9,2-2,2h-4c-1.1,0-2-0.9-2-2V46z" fill="#010101"/></g><g><path d="M68,30c0-1.1,0.9-2,2-2h4c1.1,0,2,0.9,2,2v4c0,1.1-0.9,2-2,2h-4c-1.1,0-2-0.9-2-2V30z" fill="#010101"/></g><g><path d="M68,46c0-1.1,0.9-2,2-2h4c1.1,0,2,0.9,2,2v4c0,1.1-0.9,2-2,2h-4c-1.1,0-2-0.9-2-2V46z" fill="#010101"/></g><g><path d="M52,30c0-1.1,0.9-2,2-2h4c1.1,0,2,0.9,2,2v4c0,1.1-0.9,2-2,2h-4c-1.1,0-2-0.9-2-2V30z" fill="#010101"/></g><g><path d="M52,46c0-1.1,0.9-2,2-2h4c1.1,0,2,0.9,2,2v4c0,1.1-0.9,2-2,2h-4c-1.1,0-2-0.9-2-2V46z" fill="#010101"/></g><g><path d="M36,30c0-1.1,0.9-2,2-2h4c1.1,0,2,0.9,2,2v4c0,1.1-0.9,2-2,2h-4c-1.1,0-2-0.9-2-2V30z" fill="#010101"/></g><g><path d="M36,46c0-1.1,0.9-2,2-2h4c1.1,0,2,0.9,2,2v4c0,1.1-0.9,2-2,2h-4c-1.1,0-2-0.9-2-2V46z" fill="#010101"/></g><g><path d="M28,66c0,1.1-0.9,2-2,2h-4c-1.1,0-2-0.9-2-2v-4c0-1.1,0.9-2,2-2h4c1.1,0,2,0.9,2,2V66z" fill="#010101"/></g><g><path d="M28,50c0,1.1-0.9,2-2,2h-4c-1.1,0-2-0.9-2-2v-4c0-1.1,0.9-2,2-2h4c1.1,0,2,0.9,2,2V50z" fill="#010101"/></g><g><path d="M28,34c0,1.1-0.9,2-2,2h-4c-1.1,0-2-0.9-2-2v-4c0-1.1,0.9-2,2-2h4c1.1,0,2,0.9,2,2V34z" fill="#010101"/></g><g><path d="M92,66c0,1.1-0.9,2-2,2H38c-1.1,0-2-0.9-2-2v-4c0-1.1,0.9-2,2-2h52c1.1,0,2,0.9,2,2V66z" fill="#010101"/></g><g><path d="M108,50c0,1.1-0.9,2-2,2h-4c-1.1,0-2-0.9-2-2v-4c0-1.1,0.9-2,2-2h4c1.1,0,2,0.9,2,2V50z" fill="#010101"/></g><g><path d="M108,66c0,1.1-0.9,2-2,2h-4c-1.1,0-2-0.9-2-2v-4c0-1.1,0.9-2,2-2h4c1.1,0,2,0.9,2,2V66z" fill="#010101"/></g><g><path d="M108,34c0,1.1-0.9,2-2,2h-4c-1.1,0-2-0.9-2-2v-4c0-1.1,0.9-2,2-2h4c1.1,0,2,0.9,2,2V34z" fill="#010101"/></g></g></svg>