<?xml version="1.0" ?><svg enable-background="new 0 0 24 24" id="Layer_1" version="1.1" viewBox="0 0 24 24" xml:space="preserve" xmlns="http://www.w3.org/2000/svg" xmlns:xlink="http://www.w3.org/1999/xlink"><path d="M23.5,8h-2C21.2236328,8,21,8.2236328,21,8.5v2.6292114l-5.2480469-3.0613403  c-0.1552734-0.0883789-0.3457031-0.0908203-0.5009766-0.0014648S15,8.3208008,15,8.5v2H0.5C0.2236328,10.5,0,10.7236328,0,11v2  c0,0.2763672,0.2236328,0.5,0.5,0.5H15v2c0,0.1791992,0.0957031,0.3442383,0.2509766,0.4335938  C15.328125,15.9780273,15.4140625,16,15.5,16c0.0869141,0,0.1738281-0.0229492,0.2519531-0.0678711L21,12.8707886V15.5  c0,0.2763672,0.2236328,0.5,0.5,0.5h2c0.2763672,0,0.5-0.2236328,0.5-0.5v-7C24,8.2236328,23.7763672,8,23.5,8z" fill="#303C42"/><g/><g/><g/><g/><g/><g/><g/><g/><g/><g/><g/><g/><g/><g/><g/></svg>