<?xml version="1.0" ?><!DOCTYPE svg  PUBLIC '-//W3C//DTD SVG 1.1//EN'  'http://www.w3.org/Graphics/SVG/1.1/DTD/svg11.dtd'><svg enable-background="new 0 0 32 32" height="32px" id="Layer_1" version="1.1" viewBox="0 0 32 32" width="32px" xml:space="preserve" xmlns="http://www.w3.org/2000/svg" xmlns:xlink="http://www.w3.org/1999/xlink"><g><defs><rect height="32" id="SVGID_1_" width="32"/></defs><g><defs><rect height="32" id="SVGID_3_" width="32"/></defs><path d="M6.001,30h20l1-19h-22L6.001,30z M20.001,14c0-0.552,0.448-1,1-1    c0.553,0,1,0.448,1,1v13c0,0.553-0.447,1-1,1c-0.552,0-1-0.447-1-1V14z M15.001,14c0-0.552,0.448-1,1-1c0.553,0,1,0.448,1,1v13    c0,0.553-0.447,1-1,1c-0.552,0-1-0.447-1-1V14z M10.001,14c0-0.552,0.448-1,1-1c0.553,0,1,0.448,1,1v13c0,0.553-0.447,1-1,1    c-0.552,0-1-0.447-1-1V14z M27.171,6h-4.17V5.735C23.001,3.68,21.321,2,19.269,2h-6.534c-2.052,0-3.734,1.68-3.734,3.735V6H4.798    L2.001,7.357L2.003,10h27.998V7.356L27.171,6z M21.001,6h-10V5.735C11.001,4.819,11.819,4,12.735,4h6.534    c0.914,0,1.732,0.819,1.732,1.735V6z" fill="#231F20"/></g></g></svg>